<svg id="Ebene_1" data-name="Ebene 1" xmlns="http://www.w3.org/2000/svg" viewBox="0 0 1440.13 617"><defs><style>.cls-1{fill:#fff857;}.cls-2{fill:#fdc100;}.cls-3{fill:#c6c6c6;}.cls-4{fill:#474746;}.cls-5{fill:#ffb600;}.cls-6{fill:#504f4e;}</style></defs><title>bitter__detail__hero</title><rect x="0.13" y="288" width="1440" height="329"/><path class="cls-1" d="M325.5,426.05h21.21q20.4,0,32.42,8.79t12,26.16q0,25.65-24.24,33.33,28.89,8.28,28.89,32.31,0,41.82-52.52,41.82H279.65V550.88q5-1.82,15.15-5v-96l-15.15-6.05V427.06Zm0,23.83v34.34h11.72q22.62,0,22.62-18.78,0-7.68-4.74-11.62t-12.43-3.94Zm11.72,55.55H325.5v39.4h16.77q10.5,0,16.06-4.85t5.55-13.34q0-10.9-6.46-16.05T337.22,505.43Z" transform="translate(0.13)"/><path class="cls-1" d="M411.35,461l45.86-1.62v87.87l14.14,5v16.16h-60V552.3l16.16-5V481.2l-16.16-4Zm12.32-34.95q0-8.28,5.16-13.23a17,17,0,0,1,12.22-4.95q17,0,17,18.18,0,8.49-5.15,13.43a16.56,16.56,0,0,1-11.81,4.95q-8.3,0-12.83-4.75T423.67,426.05Z" transform="translate(0.13)"/><path class="cls-1" d="M528.11,570.48q-16.77,0-23-10.81T498.82,522V484.22H480V465l18.79-2.63V434.53l29.69-5.45v33.33h28.28v21.81H528.51v45.66q0,10.1,2.22,14.14t8.49,4q7.26,0,15.95-4.65L562.45,558Q544.66,570.48,528.11,570.48Z" transform="translate(0.13)"/><path class="cls-1" d="M616.38,570.48q-16.77,0-23-10.81T587.09,522V484.22H568.3V465l18.79-2.63V434.53l29.69-5.45v33.33h28.28v21.81H616.78v45.66q0,10.1,2.23,14.14t8.48,4q7.28,0,16-4.65L650.72,558Q632.94,570.48,616.38,570.48Z" transform="translate(0.13)"/><path class="cls-1" d="M759,520l-67.06.6q.8,12.54,7.37,19.4t16.87,6.86a60.41,60.41,0,0,0,16-2.32,68.5,68.5,0,0,0,13.13-4.74l4.85-2.43,8.69,16.16c-1.49,1.21-3.57,2.76-6.26,4.65s-8.08,4.41-16.16,7.57a64.69,64.69,0,0,1-23.64,4.75q-25.65,0-39.08-14.24t-13.44-40.3q0-26.87,14.34-42.72t39.6-15.86q22.22,0,34.13,12.72t11.92,34.75Zm-46.86-39a17.34,17.34,0,0,0-13.44,5.66q-5.15,5.66-6.36,15.15h36.36Q728.69,481,712.13,481Z" transform="translate(0.13)"/><path class="cls-1" d="M772.72,461l41.82-1.62,1.82,13.94c1.07-1.21,2.55-2.7,4.44-4.45A67.94,67.94,0,0,1,831,461.8q7.38-4.44,13.43-4.44a47.5,47.5,0,0,1,9.4.91,32.18,32.18,0,0,1,6.76,1.92l2,.81L861,499.38H843.42l-3-17.17a23.17,23.17,0,0,0-10.7,2.82,33.55,33.55,0,0,0-8.28,5.66l-2.83,2.83v53.73l19.19,5v16.16h-65V552.3l16.16-5V481.2l-16.16-4Z" transform="translate(0.13)"/><rect class="cls-1" x="0.13" width="288" height="288"/><rect class="cls-2" x="288.13" width="288" height="288"/><rect class="cls-3" x="576.13" width="288" height="288"/><rect class="cls-4" x="864.13" width="288" height="288"/><rect class="cls-5" x="1152.13" width="288" height="288"/><path class="cls-6" d="M29.91,141.72h-4.6l-1.06-6a25.75,25.75,0,0,0-6.36-.71c-3.39,0-6,1.08-7.84,3.25s-2.76,5.54-2.76,10.11,1,8.08,2.9,10.53a9.67,9.67,0,0,0,8,3.68,15.26,15.26,0,0,0,2.94-.29,19.43,19.43,0,0,0,2.75-.74,17.57,17.57,0,0,0,2.37-1A9.43,9.43,0,0,0,28,159.4l1.2-1.07,2.47,4.25-.77.63a19.29,19.29,0,0,1-2.34,1.59,25.7,25.7,0,0,1-3.28,1.63,30.54,30.54,0,0,1-3.82,1.27,15.51,15.51,0,0,1-3.92.53q-8.62,0-13.15-5.12t-4.52-14a23.65,23.65,0,0,1,1.3-8,17.94,17.94,0,0,1,3.72-6.22,16.9,16.9,0,0,1,5.79-4,19.15,19.15,0,0,1,7.56-1.45,19.26,19.26,0,0,1,2.9.22c1,.14,2,.3,2.9.49a24.37,24.37,0,0,1,2.62.67c.8.26,1.48.51,2.05.74l1.55.71Z" transform="translate(0.13)"/><path class="cls-6" d="M35.92,149.36a24.73,24.73,0,0,1,1.3-8.24,18.09,18.09,0,0,1,3.71-6.32,16.45,16.45,0,0,1,5.69-4,18.21,18.21,0,0,1,7.25-1.42q7.92,0,12.3,5t4.38,13.93a24.14,24.14,0,0,1-1.27,8,19.17,19.17,0,0,1-3.57,6.29,15.92,15.92,0,0,1-5.59,4.14,17.56,17.56,0,0,1-7.31,1.48q-8.06,0-12.48-4.81T35.92,149.36ZM53.59,135q-10.26,0-10.25,13.78t9.89,13.79q5.16,0,7.53-3.54t2.37-10.6Q63.13,135,53.59,135Z" transform="translate(0.13)"/><path class="cls-6" d="M86.45,130.06l.64,5a26,26,0,0,1,2.4-1.94,22.51,22.51,0,0,1,3.11-1.88,21.29,21.29,0,0,1,3.57-1.38,13.74,13.74,0,0,1,3.71-.53q7.14,0,9.83,6.08a18.5,18.5,0,0,1,3-2.37,29.9,29.9,0,0,1,3.5-1.94,21.8,21.8,0,0,1,3.53-1.31,12.62,12.62,0,0,1,3.15-.46q11,0,11,12.73v19.79l5.3,1.77v3.88h-17v-3.88l4.59-1.77V142.78q0-3.89-1.34-5.65a5.16,5.16,0,0,0-4.38-1.77,10.4,10.4,0,0,0-2.86.39,12.75,12.75,0,0,0-2.58,1,13.24,13.24,0,0,0-2.13,1.37A10.24,10.24,0,0,0,112,139.6L110.84,141v20.85l4.59,1.77v3.88H99.18v-3.88l4.59-1.77V142.78q0-3.89-1.34-5.65a5.16,5.16,0,0,0-4.38-1.77,10.52,10.52,0,0,0-2.87.39,12.75,12.75,0,0,0-2.58,1,13.13,13.13,0,0,0-2.12,1.37A9.75,9.75,0,0,0,89,139.6L87.87,141v20.85l4.59,1.77v3.88H74.79v-3.88l6-1.77V135.72l-6-1.42v-3.89Z" transform="translate(0.13)"/><path class="cls-6" d="M146.18,131.12l6.36-.71v-4.24q0-6.42,3.4-10.1t9.68-3.68a25.42,25.42,0,0,1,5.62.6,14.8,14.8,0,0,1,3.78,1.24l1.2.63v8.84h-4.95L170.21,118a26.2,26.2,0,0,0-4.8-.35q-5.81,0-5.8,7.07v5.65h9.33l-.21,5.31h-9.12v26.15l6.86,1.77v3.88H146.53v-3.88l6-1.77V135.72h-6.36Z" transform="translate(0.13)"/><path class="cls-6" d="M175.16,149.36a24.73,24.73,0,0,1,1.31-8.24,18.09,18.09,0,0,1,3.71-6.32,16.36,16.36,0,0,1,5.69-4,18.16,18.16,0,0,1,7.24-1.42q7.92,0,12.3,5t4.39,13.93a24.13,24.13,0,0,1-1.28,8,19.17,19.17,0,0,1-3.57,6.29,16,16,0,0,1-5.58,4.14,17.57,17.57,0,0,1-7.32,1.48q-8.06,0-12.47-4.81T175.16,149.36ZM192.83,135q-10.25,0-10.25,13.78t9.9,13.79q5.16,0,7.53-3.54t2.36-10.6Q202.37,135,192.83,135Z" transform="translate(0.13)"/><path class="cls-6" d="M227.11,130.06l.64,5.16q5.22-5.86,10.67-5.87a18.7,18.7,0,0,1,5.59.85l.77.21-.35,10.25h-4.59l-1.07-5.3q-6.08,0-10.24,5.52v21l7.06,1.77v3.88H215.45v-3.88l6-1.77V135.72l-6-1.42v-3.89Z" transform="translate(0.13)"/><path class="cls-6" d="M252.56,147.38v-5.66H287.9v5.66Z" transform="translate(0.13)"/><path class="cls-6" d="M110.13,190v10.32h10.25v5.3H110.13v22.69q0,4.3,3.54,4.31a12.13,12.13,0,0,0,5.51-1.77l1.91,3.75a16.52,16.52,0,0,1-9.9,3.53,7.72,7.72,0,0,1-5.86-2.36q-2.27-2.37-2.27-7.89V205.58H96V201l7.07-.71v-8.91Z" transform="translate(0.13)"/><path class="cls-6" d="M127.8,202.05a40.53,40.53,0,0,1,14-2.83q6.21,0,9.54,2.51c2.21,1.67,3.32,4.49,3.32,8.44v21.56l5.66,1.42V237l-11,.36-1.48-4.95q-5.65,5.66-11.17,5.65c-3.68,0-6.43-.91-8.27-2.75s-2.76-4.46-2.76-7.85q0-11,16.26-11h5.65v-5.66q0-6.36-6.71-6.36a21.28,21.28,0,0,0-6.29.78l-.85.28-1,5.3h-4.59Zm19.79,19.08h-4.94q-5.31,0-7.53,1.38a4.66,4.66,0,0,0-2.23,4.27A6.1,6.1,0,0,0,134.2,231a4.81,4.81,0,0,0,3.78,1.45,7.59,7.59,0,0,0,2.44-.42,17,17,0,0,0,2.4-1.06,15.14,15.14,0,0,0,2.09-1.38,13.8,13.8,0,0,0,1.48-1.38l1.2-1.42Z" transform="translate(0.13)"/><path class="cls-6" d="M175.16,183v20.36a16.91,16.91,0,0,1,10.6-4.1q7.5,0,11.17,4.88T200.6,218a24.73,24.73,0,0,1-1.27,8.09,17.82,17.82,0,0,1-3.74,6.4,16.91,16.91,0,0,1-6.08,4.17,21.82,21.82,0,0,1-8.34,1.48c-2.41,0-4.56-.15-6.47-.31a23.25,23.25,0,0,1-5-1l-1.56-.49V188.62l-5.65-1.42v-3.89Zm0,48.77q1.69.71,7.35.71a10.23,10.23,0,0,0,4.84-1.06,9.36,9.36,0,0,0,3.32-2.93,12.63,12.63,0,0,0,1.91-4.46,24.78,24.78,0,0,0,.6-5.62q0-6.36-2.15-9.93a7.26,7.26,0,0,0-6.68-3.57,10.4,10.4,0,0,0-5.69,1.38,12.66,12.66,0,0,0-3.5,3.22Z" transform="translate(0.13)"/><path class="cls-6" d="M218.77,183v48.77l7.07,1.77v3.89H205.55V233.5l6-1.77V188.62l-6-1.42v-3.89Z" transform="translate(0.13)"/><path class="cls-6" d="M243.51,199.92v4.25l-4.95.7L247,229.61l7.78-24.38-4.95-1.06v-3.89l16.75-.36v4.25l-4.59.7-10,28a113.17,113.17,0,0,1-5.23,12.3q-5.3,9.12-13.85,9.19l-4.53-.35.64-4.95h3.53a7.89,7.89,0,0,0,6-2.9,34.9,34.9,0,0,0,5.19-8.62l-12.65-32.3-4.24-1.06v-3.89Z" transform="translate(0.13)"/><path class="cls-1" d="M330,56.32,327.63,68h-5.07V62.56a7.22,7.22,0,0,0-4.79,2.11,18.69,18.69,0,0,0-4,5.07,66.24,66.24,0,0,0-5,11l-.63,2.11-2.49,14.82h-7.41l5.69-35.1L297.29,61l.7-4.29,14.35-.39-3,13.57a30.86,30.86,0,0,1,6.16-9.67A16.67,16.67,0,0,1,320,57a13.17,13.17,0,0,1,6-1.44A11.71,11.71,0,0,1,330,56.32Z" transform="translate(0.13)"/><path class="cls-1" d="M364.6,65.68q0,6.7-7.6,10.88t-19.77,4.17a24.38,24.38,0,0,0-.24,3.36q0,8.11,8.58,8.11a22.49,22.49,0,0,0,5.7-.86,30.56,30.56,0,0,0,5.14-1.79l1.95-.86,2.34,4c-.62.41-1.48,1-2.57,1.6a39.56,39.56,0,0,1-6.24,2.57,26.37,26.37,0,0,1-8.66,1.6q-6.39,0-10.22-3.74a13.24,13.24,0,0,1-3.82-9.91q0-12.33,6.59-20.79t16-8.46q5.92,0,9.4,2.77A8.92,8.92,0,0,1,364.6,65.68Zm-26.67,9.59q8.34,0,13.8-2.49c3.64-1.67,5.46-3.77,5.46-6.32q0-5.07-5.85-5.07-4.29,0-8.11,3.9A21,21,0,0,0,337.93,75.27Z" transform="translate(0.13)"/><path class="cls-1" d="M402.67,91.42l6.78,1.17-.7,4.29-14.51.78,3.12-14.35a38.65,38.65,0,0,1-7,10.14,20.39,20.39,0,0,1-4.72,3.43,11.8,11.8,0,0,1-5.73,1.56,8.81,8.81,0,0,1-7.29-3.9,15.8,15.8,0,0,1-2.93-9.75q0-13.58,6.91-21.41t16.34-7.84a17.07,17.07,0,0,1,4.44.58,17.84,17.84,0,0,1,3.28,1.14l1,.62L404,56.32h4.29Zm-4.29-20.67,1.56-8.19a19.11,19.11,0,0,0-7-1.17q-6.24,0-10.84,5.65t-4.61,16.58a11.4,11.4,0,0,0,1.33,6.08,4.14,4.14,0,0,0,3.7,2.11,8,8,0,0,0,5-2.19A21.18,21.18,0,0,0,392,84.4a60.06,60.06,0,0,0,5.7-11.47Z" transform="translate(0.13)"/><path class="cls-1" d="M449,91.42l6.71,1.17L455,96.88l-14.27.78,3.43-14.35a35.69,35.69,0,0,1-6.86,10.14,20.29,20.29,0,0,1-4.8,3.47,12.11,12.11,0,0,1-5.73,1.52,8.87,8.87,0,0,1-7.41-3.86,15.89,15.89,0,0,1-2.89-9.79q0-13.5,6.83-21.37t16.26-7.88a15.85,15.85,0,0,1,7.49,1.72l2.18-13.42-6.63-1.56.7-4.29,14.43-.39Zm-4.06-20.67,1.25-8.19a16.81,16.81,0,0,0-6.63-1.17q-6.71,0-11,6.2t-4.29,15.64a12.83,12.83,0,0,0,1.29,6.36,4.1,4.1,0,0,0,3.74,2.22,7.84,7.84,0,0,0,5-2.19,20,20,0,0,0,4.37-5.22,57.12,57.12,0,0,0,5.46-11.47Z" transform="translate(0.13)"/><path class="cls-1" d="M465.38,97.66,471,62.56,464.36,61l.78-4.29,14.28-.39-5.62,35.1,6.63,1.17-.7,4.29Zm16.38-55.19a7.45,7.45,0,0,1-1.44,4.41,4.4,4.4,0,0,1-3.71,2,5,5,0,0,1-3.43-1A4.44,4.44,0,0,1,472,44.42a7.44,7.44,0,0,1,1.44-4.4,4.38,4.38,0,0,1,3.71-2,5,5,0,0,1,3.43,1A4.42,4.42,0,0,1,481.76,42.47Z" transform="translate(0.13)"/><path class="cls-1" d="M516.23,97.66l4.37-26.91a28.44,28.44,0,0,0,.31-3.43q0-5.14-4-5.15a8.92,8.92,0,0,0-5.58,2.22,19.91,19.91,0,0,0-4.64,5.35,59.72,59.72,0,0,0-5.77,11.7l-.7,2.18-2.27,14h-7.41l5.62-35.1L489.56,61l.7-4.29,14.27-.39L501,71.45a38.86,38.86,0,0,1,3.24-5.62,35.23,35.23,0,0,1,4.06-5,20.72,20.72,0,0,1,5.14-3.62A13.92,13.92,0,0,1,520,55.54q8.65,0,8.66,9.59a30.35,30.35,0,0,1-.39,4.45l-3.59,21.84,6.63,1.17-.7,4.29Z" transform="translate(0.13)"/><path class="cls-1" d="M574.89,56.32,568,99.53q-1.34,8.34-6.09,12.79t-12.32,4.45a29.68,29.68,0,0,1-6.63-.82,48,48,0,0,1-5.69-1.6l-2-.78,1.87-5.61a35.77,35.77,0,0,0,11.7,2.41q9.6,0,11.78-10.37l3.51-16.69A38.28,38.28,0,0,1,557,93.45a20.25,20.25,0,0,1-4.76,3.43,12,12,0,0,1-5.77,1.56,8.62,8.62,0,0,1-7.21-3.86,16.07,16.07,0,0,1-2.85-9.79q0-13.58,6.86-21.41t16.23-7.84a17.82,17.82,0,0,1,4.56.58,15.55,15.55,0,0,1,3.24,1.14l1,.62,2.34-1.56ZM565,70.75l1.49-8.19a18.39,18.39,0,0,0-7-1.17q-6.16,0-10.73,5.65t-4.56,16.42a12.22,12.22,0,0,0,1.28,6.24,4.1,4.1,0,0,0,3.71,2.11,8,8,0,0,0,5-2.19,21.22,21.22,0,0,0,4.49-5.22,61.24,61.24,0,0,0,5.53-11.47Z" transform="translate(0.13)"/><path class="cls-1" d="M886.66,229.07l2.6,4.42a16.6,16.6,0,0,1-11.18,4.42q-6.39,0-10-3.75t-3.56-10.4q0-7,3.77-11t10.53-4a22.83,22.83,0,0,1,4.26.44,24.46,24.46,0,0,1,3.59.91l1.25.47-.26,8.47H883l-.73-3.74a13.45,13.45,0,0,0-3.59-.42,5.44,5.44,0,0,0-4.49,2q-1.59,1.95-1.59,5.85,0,4.42,1.64,6.76a5.54,5.54,0,0,0,4.86,2.34,10.57,10.57,0,0,0,2-.18,9.74,9.74,0,0,0,1.82-.54c.58-.25,1-.45,1.37-.63s.78-.43,1.36-.78Z" transform="translate(0.13)"/><path class="cls-1" d="M908.24,208.79q6.28,0,9.7,3.66c2.27,2.45,3.4,5.9,3.4,10.38q0,7-3.77,11a13.11,13.11,0,0,1-10.11,4.06q-13.26,0-13.26-14.3,0-7,3.8-10.9T908.24,208.79Zm-.26,6a5,5,0,0,0-4.34,1.92q-1.38,1.92-1.38,6.66,0,4.47,1.3,6.52a4.56,4.56,0,0,0,4.16,2.06,4.7,4.7,0,0,0,4.21-2q1.35-2,1.35-6.81,0-4.22-1.27-6.27A4.39,4.39,0,0,0,908,214.77Z" transform="translate(0.13)"/><path class="cls-1" d="M972.15,218.15v13.78l3.53,1.3v4.16H961.75v-4.16l2.75-1.3V219.71a5.87,5.87,0,0,0-.7-3.23,2.59,2.59,0,0,0-2.31-1,6.8,6.8,0,0,0-2.94.68,7.69,7.69,0,0,0-2.11,1.35l-.72.68v13.78l2.7,1.3v4.16h-13.1v-4.16l2.7-1.3V219.71a6,6,0,0,0-.68-3.25,2.53,2.53,0,0,0-2.28-1,7,7,0,0,0-3,.68,8.42,8.42,0,0,0-2.18,1.35l-.68.68v13.78l2.76,1.3v4.16H927.58v-4.16l4-1.3V214.87l-4-1v-4.16l10.71-.41.36,3.69q.52-.47,1.41-1.17a20,20,0,0,1,3.27-1.87,10.18,10.18,0,0,1,4.42-1.17q5.15,0,7.07,4.47a21.8,21.8,0,0,1,1.82-1.61A16.36,16.36,0,0,1,960,209.8a10.36,10.36,0,0,1,4.32-1,7.1,7.1,0,0,1,5.87,2.44Q972.15,213.68,972.15,218.15Z" transform="translate(0.13)"/><path class="cls-1" d="M984.63,214.92l-4.16-1v-4.16l10.92-.41.47,2.91c.27-.24.65-.55,1.11-.94a15.35,15.35,0,0,1,2.71-1.53,8.9,8.9,0,0,1,3.87-1c3.54,0,6.22,1.22,8.06,3.66s2.76,5.82,2.76,10.12q0,7.38-3.57,11.36t-10.63,4a16.5,16.5,0,0,1-3.9-.52V244l4.94,1.2v4.16H980.57v-4.16l4.06-1.2Zm7.64,2.86v13.89a8.15,8.15,0,0,0,4.06.78,5,5,0,0,0,4.6-2.21c.92-1.48,1.38-3.72,1.38-6.74q0-8.58-5.2-8.58a5.52,5.52,0,0,0-4.37,2.19Z" transform="translate(0.13)"/><path class="cls-1" d="M1019.42,228.6V214.82l-3.8-.94v-4.16l11.49-.41v17.83a5.8,5.8,0,0,0,.68,3.15,2.46,2.46,0,0,0,2.23,1,7.12,7.12,0,0,0,3-.7,9.76,9.76,0,0,0,2.37-1.43l.78-.73V214.82l-3.85-.94v-4.16l11.49-.41v22.62l4,1V237l-10.6.37-.52-3.64c-.11.1-.27.25-.5.44s-.67.53-1.32,1a16.36,16.36,0,0,1-2,1.28,14.72,14.72,0,0,1-2.52,1,10.13,10.13,0,0,1-2.84.44,7.33,7.33,0,0,1-6-2.45A10.35,10.35,0,0,1,1019.42,228.6Z" transform="translate(0.13)"/><path class="cls-1" d="M1064.71,237.91q-4.32,0-5.93-2.79c-1.08-1.85-1.61-5.08-1.61-9.69V215.7h-4.84v-4.94l4.84-.67v-7.18l7.64-1.4v8.58h7.28v5.61h-7.28v11.76a8.25,8.25,0,0,0,.57,3.64,2.28,2.28,0,0,0,2.19,1,8.8,8.8,0,0,0,4.1-1.2l1.88,3.74A15.45,15.45,0,0,1,1064.71,237.91Z" transform="translate(0.13)"/><path class="cls-1" d="M1104,224.91l-17.27.15a7.76,7.76,0,0,0,1.9,5,5.78,5.78,0,0,0,4.34,1.76,15.86,15.86,0,0,0,4.11-.59,17.4,17.4,0,0,0,3.38-1.23l1.25-.62,2.24,4.16c-.39.31-.92.71-1.62,1.2a23.69,23.69,0,0,1-4.16,1.95,16.64,16.64,0,0,1-6.08,1.22q-6.6,0-10.06-3.67t-3.46-10.37q0-6.92,3.69-11t10.19-4.08q5.73,0,8.79,3.27t3.07,8.95Zm-12.06-10a4.45,4.45,0,0,0-3.46,1.46,6.9,6.9,0,0,0-1.64,3.9h9.36Q1096.22,214.88,1092,214.87Z" transform="translate(0.13)"/><path class="cls-1" d="M1110.15,209.72l10.77-.41.47,3.59a13.34,13.34,0,0,1,1.14-1.15,17.42,17.42,0,0,1,2.63-1.82,6.81,6.81,0,0,1,3.45-1.14,12.73,12.73,0,0,1,2.42.23,8.24,8.24,0,0,1,1.74.5l.52.2-.41,9.88h-4.53l-.78-4.42a6,6,0,0,0-2.75.73,8.49,8.49,0,0,0-2.13,1.46l-.73.73v13.83l4.94,1.3v4.16h-16.75v-4.16l4.16-1.3v-17l-4.16-1Z" transform="translate(0.13)"/><path class="cls-4" d="M1162.52,98.32a11.32,11.32,0,0,1-8.65-3.43,12.78,12.78,0,0,1-3.23-9.11q0-10.56,5.54-17.16a17.78,17.78,0,0,1,14.26-6.6c3.78,0,6.77,1.14,8.94,3.43a12.39,12.39,0,0,1,3.27,8.91q0,10.89-5.64,17.43A18.29,18.29,0,0,1,1162.52,98.32ZM1172.72,88q3.33-5.05,3.33-12.87t-6.93-7.82q-5.47,0-8.68,5.31a24.46,24.46,0,0,0-3.2,12.84q0,3.83,1.75,5.71a6.3,6.3,0,0,0,4.85,1.88C1167.54,93,1170.49,91.36,1172.72,88Z" transform="translate(0.13)"/><path class="cls-4" d="M1213.93,62.68l-2,9.9h-4.29V68a6.16,6.16,0,0,0-4.06,1.78,16,16,0,0,0-3.39,4.29,55.75,55.75,0,0,0-4.23,9.31l-.53,1.78-2.11,12.54h-6.27l4.82-29.7-5.61-1.32.59-3.63,12.15-.33-2.58,11.48a25.93,25.93,0,0,1,5.22-8.18,13.89,13.89,0,0,1,3.86-2.74,11.18,11.18,0,0,1,5.11-1.22A9.94,9.94,0,0,1,1213.93,62.68Z" transform="translate(0.13)"/><path class="cls-4" d="M1154.67,162.31l5.74-35.71-5.35-1.32.6-3.63,12.21-.33h8.51q7.39,0,11.88,4.16t4.49,11.35q0,14.65-7.23,22.67t-19.7,8h-17.49l.66-4Zm12.4-35.71-5.67,35.64h5.41q9,0,14-6.73t5-17.82q0-5.28-2.64-8.18t-7.79-2.91Z" transform="translate(0.13)"/><path class="cls-4" d="M1199.54,162.24l5.68-35.64-5.41-1.32.59-3.63,12.28-.33h19.86l-1.78,11.22h-3.69l-.66-5.94h-14.59l-2.31,14.19h15l-.79,5.28h-15l-2.57,16.17h15l2.44-6.73h4.36l-2,12h-32.8l.66-4Z" transform="translate(0.13)"/><path class="cls-4" d="M1249.77,167.52l-8-40.92-5.62-1.32.6-3.63,11.68-.33,6.34,36.63,14.32-31.35-5.28-1.32.66-3.63,17.69-.33-.66,4-5.42,1.32L1256,167.52Z" transform="translate(0.13)"/><path class="cls-4" d="M1284.49,162.24l5.67-35.64-5.54-1.32.59-3.63,18-.33-.66,4-5.81,1.32L1291,162.24l5.54,1.32-.66,4h-18l.66-4Z" transform="translate(0.13)"/><path class="cls-4" d="M1344,124l-1.78,11.22h-3.83l-.79-7.26a23.51,23.51,0,0,0-9-1.65,13.52,13.52,0,0,0-9,3.44,21.49,21.49,0,0,0-6.1,8.84,31,31,0,0,0-2.08,11.25q0,5.85,2.87,9.21a9.46,9.46,0,0,0,7.56,3.37,24.38,24.38,0,0,0,14.65-5.15l2.38,3.89q-8.79,7.06-18.35,7.06-7.66,0-12-4.52t-4.36-12.24q0-13.47,7.33-22.11a23.26,23.26,0,0,1,18.54-8.65,28.89,28.89,0,0,1,6.7.83,29.48,29.48,0,0,1,5.31,1.68Z" transform="translate(0.13)"/><path class="cls-4" d="M1348.83,162.24l5.68-35.64-5.41-1.32.59-3.63,12.28-.33h19.86l-1.78,11.22h-3.69l-.66-5.94h-14.59l-2.31,14.19h15l-.79,5.28h-15l-2.57,16.17h15l2.44-6.73h4.35l-2,12h-32.8l.66-4Z" transform="translate(0.13)"/><path class="cls-4" d="M605.5,105.14q13,0,20.22,8.14T632.9,136q0,14.7-8,23.66t-21.1,9q-13,0-20-8t-7-23.32q0-15,7.69-23.57T605.5,105.14ZM605.06,116q-6.78,0-10.27,4.83t-3.48,16.05q0,10.69,3.18,15.79t9.7,5.09q6.87,0,10.48-5t3.61-16.32q0-10.61-3.3-15.52T605.06,116Z" transform="translate(0.13)"/><path class="cls-4" d="M660.74,160v7.57H635.51V160l6.52-2.17V116.45l-6.52-2.61v-7.22l20.88-.43,23.49,40.19V116.45l-6.35-2.61v-7.22l24.79-.43v7.65l-6.52,2.61v51.07H677.27L654,128.11v29.67Z" transform="translate(0.13)"/><path class="cls-4" d="M714.67,176.05l18.71,51.77,6.09,2v7.57H711.8v-7.57l6.53-2-2.09-6.53H696.93l-2.18,6.44,6.79,2.09v7.57H675.26v-7.57l6.35-2,19.14-51.51Zm-7.83,15.31L700,212h13.4Z" transform="translate(0.13)"/><path class="cls-4" d="M768.79,229.82v7.57H743.56v-7.57l6.52-2.18V186.32l-6.52-2.61v-7.22l20.88-.44,23.49,40.2V186.32l-6.35-2.61v-7.22l24.79-.44v7.66l-6.52,2.61v51.07H785.32L762,198v29.66Z" transform="translate(0.13)"/><path class="cls-4" d="M851,229.82v7.57H824.47v-7.57l6.52-2.18V216.16l-15.92-30.1-5.65-2.35v-7.22l24.62-.44v7.66l-4.44,1.83,8.7,18.87,9.22-18.79-4.78-1.91v-7.22l23.49-.44v7.66l-6,2.35-15.74,30v11.57Z" transform="translate(0.13)"/></svg>