<?xml version="1.0" encoding="utf-8"?>
<!-- Generator: Adobe Illustrator 22.1.0, SVG Export Plug-In . SVG Version: 6.00 Build 0)  -->
<svg version="1.1" id="Ebene_1" xmlns="http://www.w3.org/2000/svg" xmlns:xlink="http://www.w3.org/1999/xlink" x="0px" y="0px"
	 viewBox="0 0 375 600" style="enable-background:new 0 0 375 600;" xml:space="preserve">
<style type="text/css">
	.st0{fill:#FFFFFF;}
</style>
<title>hochformat_Text_Ubuntu@3x</title>
<desc>Created with Sketch.</desc>
<g>
	<path class="st0" d="M51.8,152.5h-9.6v19.1h-8.6v-49.7h17.5c5.7,0,10.2,1.3,13.3,3.9c3.1,2.6,4.7,6.3,4.7,11.2
		c0,3.3-0.8,6.1-2.4,8.4c-1.6,2.2-3.8,4-6.7,5.2l11.2,20.7v0.4h-9.3L51.8,152.5z M42.2,145.5h8.9c2.9,0,5.2-0.7,6.8-2.2
		s2.5-3.5,2.5-6c0-2.7-0.8-4.7-2.3-6.2s-3.8-2.2-6.8-2.2h-9.1C42.2,128.9,42.2,145.5,42.2,145.5z"/>
	<path class="st0" d="M74.8,152.8c0-3.6,0.7-6.9,2.2-9.8c1.5-2.9,3.5-5.1,6-6.7c2.6-1.6,5.6-2.3,9-2.3c5,0,9,1.6,12.2,4.8
		s4.8,7.5,5,12.8v1.9c0,3.6-0.7,6.9-2.1,9.8c-1.4,2.9-3.4,5.1-6,6.7c-2.6,1.6-5.6,2.4-9,2.4c-5.2,0-9.4-1.7-12.5-5.2
		s-4.7-8.1-4.7-13.9L74.8,152.8L74.8,152.8z M83.2,153.5c0,3.8,0.8,6.8,2.4,8.9c1.6,2.1,3.8,3.2,6.6,3.2s5-1.1,6.5-3.3
		c1.5-2.2,2.3-5.4,2.3-9.6c0-3.7-0.8-6.7-2.4-8.9c-1.6-2.2-3.8-3.3-6.5-3.3s-4.9,1.1-6.5,3.2C84,146,83.2,149.2,83.2,153.5z"/>
	<path class="st0" d="M148.7,153.5c0,5.7-1.3,10.3-3.8,13.7c-2.6,3.4-6.1,5.1-10.6,5.1c-4.3,0-7.7-1.6-10.1-4.7l-0.4,4h-7.5v-52.5
		h8.3v19.1c2.4-2.8,5.6-4.2,9.7-4.2c4.5,0,8.1,1.7,10.6,5c2.6,3.3,3.9,8,3.9,14L148.7,153.5L148.7,153.5z M140.4,152.8
		c0-4-0.7-7-2.1-9c-1.4-2-3.5-3-6.2-3c-3.6,0-6.1,1.6-7.6,4.7v15.2c1.5,3.2,4,4.8,7.7,4.8c2.6,0,4.6-1,6-2.9
		c1.4-1.9,2.1-4.9,2.2-8.8V152.8L140.4,152.8z"/>
	<path class="st0" d="M154.1,152.8c0-3.6,0.7-6.9,2.2-9.8c1.5-2.9,3.5-5.1,6-6.7c2.6-1.6,5.6-2.3,9-2.3c5,0,9,1.6,12.2,4.8
		s4.8,7.5,5,12.8v1.9c0,3.6-0.7,6.9-2.1,9.8c-1.4,2.9-3.4,5.1-6,6.7c-2.6,1.6-5.6,2.4-9,2.4c-5.2,0-9.4-1.7-12.5-5.2
		s-4.7-8.1-4.7-13.9L154.1,152.8L154.1,152.8z M162.4,153.5c0,3.8,0.8,6.8,2.4,8.9c1.6,2.1,3.8,3.2,6.6,3.2s5-1.1,6.5-3.3
		c1.5-2.2,2.3-5.4,2.3-9.6c0-3.7-0.8-6.7-2.4-8.9c-1.6-2.2-3.8-3.3-6.5-3.3s-4.9,1.1-6.5,3.2C163.2,146,162.4,149.2,162.4,153.5z"/>
	<path class="st0" d="M205.9,125.7v9h6.5v6.2h-6.5v20.6c0,1.4,0.3,2.4,0.8,3.1c0.6,0.6,1.6,0.9,3,0.9c1,0,1.9-0.1,2.9-0.3v6.4
		c-1.9,0.5-3.7,0.8-5.5,0.8c-6.4,0-9.6-3.5-9.6-10.6v-21h-6.1v-6.2h6.1v-9L205.9,125.7L205.9,125.7z"/>
	<path class="st0" d="M216.2,152.8c0-3.6,0.7-6.9,2.2-9.8c1.5-2.9,3.5-5.1,6-6.7c2.6-1.6,5.6-2.3,9-2.3c5,0,9,1.6,12.2,4.8
		s4.8,7.5,5,12.8v1.9c0,3.6-0.7,6.9-2.1,9.8c-1.4,2.9-3.4,5.1-6,6.7c-2.6,1.6-5.6,2.4-9,2.4c-5.2,0-9.4-1.7-12.5-5.2
		s-4.7-8.1-4.7-13.9L216.2,152.8L216.2,152.8z M224.5,153.5c0,3.8,0.8,6.8,2.4,8.9c1.6,2.1,3.8,3.2,6.6,3.2s5-1.1,6.5-3.3
		c1.5-2.2,2.3-5.4,2.3-9.6c0-3.7-0.8-6.7-2.4-8.9c-1.6-2.2-3.8-3.3-6.5-3.3s-4.9,1.1-6.5,3.2C225.3,146,224.5,149.2,224.5,153.5z"/>
</g>
<g>
	<path class="st0" d="M31.4,222.4v-24.9h7c2.2,0,4.1,0.5,5.7,1.4c1.7,1,2.9,2.3,3.9,4.1c0.9,1.8,1.4,3.8,1.4,6.1v1.6
		c0,2.3-0.5,4.4-1.4,6.2s-2.2,3.1-3.9,4.1c-1.7,0.9-3.6,1.4-5.9,1.5h-6.8C31.4,222.5,31.4,222.4,31.4,222.4z M34.6,200.2v19.5h3.5
		c2.5,0,4.5-0.8,5.9-2.4c1.4-1.6,2.1-3.8,2.1-6.7v-1.5c0-2.8-0.7-5-2-6.6c-1.3-1.6-3.2-2.4-5.6-2.4L34.6,200.2L34.6,200.2z"/>
	<path class="st0" d="M61.5,222.8c-2.5,0-4.5-0.8-6.1-2.5c-1.6-1.6-2.4-3.8-2.4-6.6v-0.6c0-1.8,0.4-3.5,1.1-4.9s1.7-2.6,2.9-3.4
		c1.3-0.8,2.6-1.2,4.1-1.2c2.4,0,4.3,0.8,5.6,2.4c1.3,1.6,2,3.9,2,6.8v1.3H56.2c0,1.8,0.6,3.3,1.6,4.4s2.3,1.7,3.9,1.7
		c1.1,0,2.1-0.2,2.8-0.7c0.8-0.5,1.5-1.1,2-1.8l1.9,1.5C66.9,221.6,64.6,222.8,61.5,222.8z M61.1,206.2c-1.3,0-2.3,0.5-3.2,1.4
		c-0.9,0.9-1.4,2.2-1.6,3.9h9.3v-0.2c-0.1-1.6-0.5-2.9-1.3-3.7C63.5,206.6,62.4,206.2,61.1,206.2z"/>
	<path class="st0" d="M83.1,217.5c0-0.9-0.3-1.5-1-2s-1.8-0.9-3.4-1.2s-2.9-0.8-3.8-1.2c-0.9-0.5-1.6-1-2.1-1.7s-0.7-1.4-0.7-2.4
		c0-1.5,0.6-2.8,1.9-3.8s2.9-1.6,4.9-1.6c2.1,0,3.8,0.5,5.1,1.6c1.3,1.1,2,2.5,2,4.2h-3.2c0-0.9-0.4-1.6-1.1-2.2
		c-0.7-0.6-1.7-0.9-2.8-0.9c-1.2,0-2.1,0.3-2.7,0.8s-1,1.2-1,2s0.3,1.3,0.9,1.7s1.7,0.8,3.3,1.1c1.6,0.4,2.9,0.8,3.8,1.3
		c1,0.5,1.7,1.1,2.2,1.8s0.7,1.5,0.7,2.5c0,1.7-0.7,3-2,4s-3,1.5-5.1,1.5c-1.5,0-2.8-0.3-3.9-0.8s-2-1.3-2.7-2.2c-0.6-0.9-1-2-1-3.1
		h3.2c0.1,1.1,0.5,1.9,1.3,2.5s1.8,0.9,3.1,0.9c1.2,0,2.2-0.2,2.9-0.7C82.8,219,83.1,218.3,83.1,217.5z"/>
	<path class="st0" d="M90.4,199c0-0.5,0.2-0.9,0.5-1.3c0.3-0.4,0.8-0.5,1.4-0.5s1.1,0.2,1.4,0.5c0.3,0.4,0.5,0.8,0.5,1.3
		s-0.2,0.9-0.5,1.3c-0.3,0.3-0.8,0.5-1.4,0.5s-1.1-0.2-1.4-0.5S90.4,199.6,90.4,199z M93.8,222.4h-3.2v-18.5h3.2V222.4z"/>
	<path class="st0" d="M98.1,213c0-2.9,0.7-5.2,2-6.9c1.3-1.7,3.1-2.6,5.3-2.6c2.3,0,4,0.8,5.3,2.4l0.2-2.1h2.9v18
		c0,2.4-0.7,4.3-2.1,5.7s-3.3,2.1-5.7,2.1c-1.3,0-2.6-0.3-3.9-0.9c-1.3-0.6-2.3-1.4-2.9-2.3l1.6-1.9c1.4,1.7,3,2.5,5,2.5
		c1.5,0,2.7-0.4,3.6-1.3c0.9-0.9,1.3-2.1,1.3-3.7v-1.6c-1.3,1.5-3,2.2-5.2,2.2s-3.9-0.9-5.3-2.6S98.1,216,98.1,213z M101.3,213.4
		c0,2.1,0.4,3.7,1.3,4.9s2.1,1.8,3.6,1.8c2,0,3.5-0.9,4.4-2.7v-8.5c-1-1.8-2.4-2.6-4.4-2.6c-1.5,0-2.7,0.6-3.6,1.8
		C101.8,209.3,101.3,211,101.3,213.4z"/>
	<path class="st0" d="M121.5,203.9l0.1,2.3c1.4-1.8,3.3-2.7,5.5-2.7c3.9,0,5.9,2.2,5.9,6.6v12.2h-3.2v-12.2c0-1.3-0.3-2.3-0.9-3
		c-0.6-0.6-1.5-1-2.8-1c-1,0-1.9,0.3-2.7,0.8s-1.4,1.3-1.8,2.2v13.2h-3.2v-18.4H121.5z"/>
	<path class="st0" d="M151.2,197.6l8.1,20.3l8.1-20.3h4.3v24.9h-3.3v-9.7l0.3-10.5l-8.2,20.1H158l-8.2-20.1l0.3,10.4v9.7h-3.3v-24.9
		L151.2,197.6L151.2,197.6z"/>
	<path class="st0" d="M188.5,222.4c-0.2-0.4-0.3-1-0.4-1.9c-1.5,1.5-3.2,2.3-5.3,2.3c-1.8,0-3.3-0.5-4.5-1.5s-1.8-2.3-1.8-3.9
		c0-1.9,0.7-3.4,2.2-4.5s3.5-1.6,6.2-1.6h3.1v-1.5c0-1.1-0.3-2-1-2.6c-0.7-0.7-1.6-1-2.9-1c-1.1,0-2.1,0.3-2.8,0.9
		c-0.8,0.6-1.1,1.3-1.1,2.1H177c0-0.9,0.3-1.8,1-2.7s1.5-1.5,2.7-2c1.1-0.5,2.4-0.8,3.7-0.8c2.1,0,3.8,0.5,5,1.6
		c1.2,1.1,1.8,2.5,1.9,4.4v8.5c0,1.7,0.2,3,0.6,4.1v0.3h-3.4V222.4z M183.2,220c1,0,1.9-0.3,2.8-0.8s1.5-1.2,1.9-2v-3.8h-2.5
		c-3.9,0-5.8,1.1-5.8,3.4c0,1,0.3,1.8,1,2.3C181.3,219.7,182.2,220,183.2,220z"/>
	<path class="st0" d="M200.4,199.5v4.5h3.5v2.4h-3.5v11.5c0,0.7,0.2,1.3,0.5,1.7s0.8,0.6,1.6,0.6c0.4,0,0.9-0.1,1.5-0.2v2.5
		c-0.8,0.2-1.6,0.3-2.4,0.3c-1.4,0-2.5-0.4-3.2-1.3s-1.1-2.1-1.1-3.6v-11.5h-3.4v-2.5h3.4v-4.5L200.4,199.5L200.4,199.5z"/>
	<path class="st0" d="M211.8,199.5v4.5h3.5v2.4h-3.5v11.5c0,0.7,0.2,1.3,0.5,1.7s0.8,0.6,1.6,0.6c0.4,0,0.9-0.1,1.5-0.2v2.5
		c-0.8,0.2-1.6,0.3-2.4,0.3c-1.4,0-2.5-0.4-3.2-1.3s-1.1-2.1-1.1-3.6v-11.5h-3.4v-2.5h3.4v-4.5L211.8,199.5L211.8,199.5z"/>
	<path class="st0" d="M226.6,222.8c-2.5,0-4.5-0.8-6.1-2.5c-1.6-1.6-2.4-3.8-2.4-6.6v-0.6c0-1.8,0.3-3.5,1.1-4.9
		c0.7-1.4,1.7-2.6,2.9-3.4c1.3-0.8,2.6-1.2,4.1-1.2c2.4,0,4.3,0.8,5.6,2.4c1.3,1.6,2,3.9,2,6.8v1.3h-12.5c0,1.8,0.6,3.3,1.6,4.4
		s2.3,1.7,3.9,1.7c1.1,0,2.1-0.2,2.8-0.7c0.8-0.5,1.5-1.1,2-1.8l1.9,1.5C232.1,221.6,229.7,222.8,226.6,222.8z M226.2,206.2
		c-1.3,0-2.3,0.5-3.2,1.4c-0.9,0.9-1.4,2.2-1.6,3.9h9.3v-0.2c-0.1-1.6-0.5-2.9-1.3-3.7C228.6,206.6,227.6,206.2,226.2,206.2z"/>
	<path class="st0" d="M246.4,206.8c-0.5-0.1-1-0.1-1.6-0.1c-2.1,0-3.5,0.9-4.2,2.6v13.1h-3.2v-18.5h3.1l0.1,2.1
		c1-1.7,2.5-2.5,4.4-2.5c0.6,0,1.1,0.1,1.4,0.2V206.8z"/>
	<path class="st0" d="M260.1,217.5c0-0.9-0.3-1.5-1-2s-1.8-0.9-3.4-1.2s-2.9-0.8-3.8-1.2c-0.9-0.5-1.6-1-2.1-1.7s-0.7-1.4-0.7-2.4
		c0-1.5,0.6-2.8,1.9-3.8s2.9-1.6,4.9-1.6c2.1,0,3.8,0.5,5.1,1.6c1.3,1.1,2,2.5,2,4.2h-3.2c0-0.9-0.4-1.6-1.1-2.2
		c-0.7-0.6-1.7-0.9-2.8-0.9c-1.2,0-2.1,0.3-2.7,0.8s-1,1.2-1,2s0.3,1.3,0.9,1.7s1.7,0.8,3.3,1.1c1.6,0.4,2.9,0.8,3.8,1.3
		c1,0.5,1.7,1.1,2.2,1.8s0.7,1.5,0.7,2.5c0,1.7-0.7,3-2,4s-3,1.5-5.1,1.5c-1.5,0-2.8-0.3-3.9-0.8s-2-1.3-2.7-2.2c-0.6-0.9-1-2-1-3.1
		h3.2c0.1,1.1,0.5,1.9,1.3,2.5s1.8,0.9,3.1,0.9c1.2,0,2.2-0.2,2.9-0.7S260.1,218.3,260.1,217.5z"/>
</g>
<g>
	<path class="st0" d="M31.2,274.6h6.3v0.9h-7.4v-12.8h1.1V274.6z"/>
	<path class="st0" d="M38.7,270.6c0-0.9,0.2-1.7,0.5-2.5c0.3-0.8,0.9-1.3,1.5-1.7s1.4-0.6,2.2-0.6c1.3,0,2.3,0.4,3.1,1.3
		s1.2,2.1,1.2,3.5v0.2c0,0.9-0.2,1.7-0.5,2.5c-0.4,0.7-0.9,1.3-1.5,1.7s-1.4,0.6-2.2,0.6c-1.3,0-2.3-0.4-3.1-1.3s-1.2-2.1-1.2-3.5
		V270.6z M39.8,270.9c0,1.1,0.3,2.1,0.9,2.8c0.6,0.7,1.4,1.1,2.3,1.1s1.7-0.4,2.3-1.1s0.9-1.7,0.9-2.9v-0.2c0-0.7-0.1-1.4-0.4-2
		s-0.6-1.1-1.1-1.4s-1-0.5-1.7-0.5c-0.9,0-1.7,0.4-2.3,1.1s-0.9,1.7-0.9,2.9V270.9z"/>
	<path class="st0" d="M53.8,266.9c-0.2,0-0.5-0.1-0.7-0.1c-0.7,0-1.2,0.2-1.7,0.5c-0.5,0.3-0.8,0.9-1,1.6v6.5h-1v-9.5h1v1.5
		c0.6-1.1,1.5-1.7,2.7-1.7c0.3,0,0.5,0,0.7,0.1V266.9z"/>
	<path class="st0" d="M59,275.7c-0.8,0-1.5-0.2-2.2-0.6s-1.2-1-1.5-1.7c-0.4-0.7-0.5-1.5-0.5-2.4v-0.4c0-0.9,0.2-1.7,0.5-2.5
		c0.3-0.8,0.8-1.3,1.5-1.7s1.3-0.6,2.1-0.6c1.2,0,2.1,0.4,2.7,1.2c0.7,0.8,1,1.9,1,3.2v0.6h-6.8v0.2c0,1.1,0.3,2,0.9,2.7
		c0.6,0.7,1.4,1.1,2.3,1.1c0.6,0,1.1-0.1,1.5-0.3c0.4-0.2,0.8-0.5,1.2-1l0.7,0.5C61.6,275.1,60.4,275.7,59,275.7z M58.8,266.7
		c-0.8,0-1.5,0.3-2,0.9c-0.5,0.6-0.9,1.4-1,2.3h5.7v-0.1c0-0.9-0.3-1.7-0.8-2.2S59.6,266.7,58.8,266.7z"/>
	<path class="st0" d="M65.5,266v1.5c0.4-0.6,0.8-1,1.3-1.3c0.5-0.3,1.1-0.4,1.8-0.4c1.5,0,2.5,0.6,2.9,1.8c0.3-0.6,0.8-1,1.4-1.4
		c0.6-0.3,1.2-0.5,1.9-0.5c2,0,3.1,1.1,3.1,3.3v6.3h-1.1V269c0-0.8-0.2-1.5-0.5-1.9s-0.9-0.6-1.8-0.6c-0.8,0-1.4,0.3-1.9,0.7
		s-0.8,1.1-0.9,1.7v6.3h-1.1v-6.3c0-0.8-0.2-1.4-0.6-1.8s-1-0.6-1.7-0.6s-1.2,0.2-1.7,0.6c-0.5,0.4-0.8,0.9-1.1,1.7v6.5h-1.1v-9.5
		h1.1C65.5,265.8,65.5,266,65.5,266z"/>
	<path class="st0" d="M84.9,263.2c0-0.2,0.1-0.4,0.2-0.5s0.3-0.2,0.5-0.2s0.4,0.1,0.5,0.2c0.1,0.1,0.2,0.3,0.2,0.5
		c0,0.2-0.1,0.4-0.2,0.5s-0.3,0.2-0.5,0.2s-0.4-0.1-0.5-0.2C84.9,263.6,84.9,263.4,84.9,263.2z M86.1,275.5H85V266h1.1V275.5z"/>
	<path class="st0" d="M96.6,270.8c0,1.5-0.3,2.7-1,3.5c-0.7,0.9-1.5,1.3-2.6,1.3c-1.3,0-2.3-0.5-3-1.4v4.9h-1v-13.2h1l0.1,1.3
		c0.7-1,1.7-1.5,3-1.5c1.1,0,2,0.4,2.7,1.3c0.7,0.9,1,2.1,1,3.6v0.2H96.6L96.6,270.8z M95.5,270.6c0-1.2-0.2-2.2-0.7-2.9
		c-0.5-0.7-1.2-1.1-2.1-1.1c-0.6,0-1.2,0.2-1.7,0.5c-0.5,0.3-0.8,0.8-1.1,1.4v4.6c0.3,0.5,0.6,1,1.1,1.2c0.5,0.2,1,0.4,1.7,0.4
		c0.9,0,1.6-0.4,2.1-1.1C95.3,273,95.5,272,95.5,270.6z"/>
	<path class="st0" d="M104.6,273.1c0-0.5-0.2-0.9-0.6-1.3c-0.4-0.4-1.1-0.6-1.9-0.7c-0.8-0.1-1.5-0.4-2-0.6s-0.8-0.5-1-0.8
		c-0.2-0.3-0.3-0.7-0.3-1.2c0-0.8,0.3-1.4,0.9-1.9s1.4-0.7,2.4-0.7c1.1,0,1.9,0.3,2.6,0.8s1,1.2,1,2.1h-1.1c0-0.6-0.2-1-0.7-1.4
		s-1.1-0.6-1.8-0.6c-0.7,0-1.2,0.2-1.7,0.5c-0.4,0.3-0.6,0.7-0.6,1.2s0.2,0.8,0.5,1.1c0.3,0.3,1,0.5,1.9,0.7
		c0.9,0.2,1.6,0.4,2.1,0.7c0.5,0.3,0.8,0.5,1,0.9s0.3,0.8,0.3,1.3c0,0.8-0.3,1.4-1,1.9s-1.5,0.7-2.5,0.7c-1.1,0-2-0.3-2.7-0.8
		s-1-1.2-1-2h1.1c0,0.6,0.3,1.1,0.8,1.4s1.1,0.5,1.9,0.5c0.7,0,1.3-0.2,1.8-0.5C104.5,274.1,104.6,273.6,104.6,273.1z"/>
	<path class="st0" d="M114.2,274.3c-0.6,0.9-1.6,1.4-3,1.4c-1,0-1.8-0.3-2.3-0.9c-0.5-0.6-0.8-1.5-0.8-2.6V266h1v6.1
		c0,1.8,0.7,2.7,2.2,2.7s2.5-0.6,2.9-1.9V266h1.1v9.5h-1L114.2,274.3z"/>
	<path class="st0" d="M118.9,266v1.5c0.4-0.6,0.8-1,1.3-1.3c0.5-0.3,1.1-0.4,1.8-0.4c1.5,0,2.5,0.6,2.9,1.8c0.3-0.6,0.8-1,1.4-1.4
		c0.6-0.3,1.2-0.5,1.9-0.5c2,0,3.1,1.1,3.1,3.3v6.3h-1.1V269c0-0.8-0.2-1.5-0.5-1.9s-0.9-0.6-1.8-0.6c-0.8,0-1.4,0.3-1.9,0.7
		s-0.8,1.1-0.9,1.7v6.3H124v-6.3c0-0.8-0.2-1.4-0.6-1.8s-1-0.6-1.7-0.6s-1.2,0.2-1.7,0.6c-0.5,0.4-0.8,0.9-1.1,1.7v6.5h-1.1v-9.5
		h1.1C118.9,265.8,118.9,266,118.9,266z"/>
	<path class="st0" d="M137.8,270.6c0-1.5,0.3-2.7,1-3.5c0.7-0.8,1.6-1.3,2.7-1.3c1.3,0,2.3,0.5,2.9,1.5V262h1v13.5h-1v-1.3
		c-0.7,1-1.7,1.4-3,1.4c-1.1,0-2-0.4-2.6-1.3C138.2,273.4,137.8,272.2,137.8,270.6L137.8,270.6L137.8,270.6z M138.9,270.8
		c0,1.2,0.2,2.2,0.7,2.9c0.5,0.7,1.2,1.1,2.1,1.1c1.3,0,2.2-0.6,2.8-1.7v-4.5c-0.5-1.2-1.5-1.9-2.7-1.9c-0.9,0-1.6,0.3-2.1,1
		C139.1,268.4,138.9,269.5,138.9,270.8z"/>
	<path class="st0" d="M147.7,270.6c0-0.9,0.2-1.7,0.5-2.5c0.3-0.8,0.9-1.3,1.5-1.7s1.4-0.6,2.2-0.6c1.3,0,2.3,0.4,3.1,1.3
		s1.2,2.1,1.2,3.5v0.2c0,0.9-0.2,1.7-0.5,2.5c-0.4,0.7-0.9,1.3-1.5,1.7s-1.4,0.6-2.2,0.6c-1.3,0-2.3-0.4-3.1-1.3
		c-0.8-0.9-1.2-2.1-1.2-3.5V270.6z M148.7,270.9c0,1.1,0.3,2.1,0.9,2.8c0.6,0.7,1.4,1.1,2.3,1.1c0.9,0,1.7-0.4,2.3-1.1
		s0.9-1.7,0.9-2.9v-0.2c0-0.7-0.1-1.4-0.4-2s-0.6-1.1-1.1-1.4s-1-0.5-1.7-0.5c-0.9,0-1.7,0.4-2.3,1.1s-0.9,1.7-0.9,2.9V270.9z"/>
	<path class="st0" d="M159.5,275.5h-1.1V262h1.1V275.5z"/>
	<path class="st0" d="M161.8,270.6c0-0.9,0.2-1.7,0.5-2.5c0.3-0.8,0.9-1.3,1.5-1.7s1.4-0.6,2.2-0.6c1.3,0,2.3,0.4,3.1,1.3
		s1.2,2.1,1.2,3.5v0.2c0,0.9-0.2,1.7-0.5,2.5c-0.4,0.7-0.9,1.3-1.5,1.7s-1.4,0.6-2.2,0.6c-1.3,0-2.3-0.4-3.1-1.3
		c-0.8-0.9-1.2-2.1-1.2-3.5V270.6z M162.9,270.9c0,1.1,0.3,2.1,0.9,2.8c0.6,0.7,1.4,1.1,2.3,1.1c0.9,0,1.7-0.4,2.3-1.1
		s0.9-1.7,0.9-2.9v-0.2c0-0.7-0.1-1.4-0.4-2s-0.6-1.1-1.1-1.4s-1-0.5-1.7-0.5c-0.9,0-1.7,0.4-2.3,1.1s-0.9,1.7-0.9,2.9V270.9z"/>
	<path class="st0" d="M176.9,266.9c-0.2,0-0.5-0.1-0.7-0.1c-0.7,0-1.2,0.2-1.7,0.5c-0.5,0.3-0.8,0.9-1,1.6v6.5h-1v-9.5h1v1.5
		c0.6-1.1,1.5-1.7,2.7-1.7c0.3,0,0.5,0,0.7,0.1V266.9z"/>
	<path class="st0" d="M188.6,273.1c0-0.5-0.2-0.9-0.6-1.3c-0.4-0.4-1-0.6-1.9-0.7c-0.9-0.1-1.5-0.4-2-0.6s-0.8-0.5-1-0.8
		c-0.2-0.3-0.3-0.7-0.3-1.2c0-0.8,0.3-1.4,0.9-1.9s1.4-0.7,2.4-0.7c1.1,0,1.9,0.3,2.6,0.8s1,1.2,1,2.1h-1.1c0-0.6-0.2-1-0.7-1.4
		s-1.1-0.6-1.8-0.6s-1.2,0.2-1.7,0.5c-0.4,0.3-0.6,0.7-0.6,1.2s0.2,0.8,0.5,1.1c0.3,0.3,1,0.5,1.9,0.7c0.9,0.2,1.6,0.4,2.1,0.7
		c0.5,0.3,0.8,0.5,1,0.9s0.3,0.8,0.3,1.3c0,0.8-0.3,1.4-1,1.9s-1.5,0.7-2.5,0.7c-1.1,0-2-0.3-2.7-0.8s-1-1.2-1-2h1.1
		c0,0.6,0.3,1.1,0.8,1.4s1.1,0.5,1.9,0.5c0.7,0,1.3-0.2,1.8-0.5C188.5,274.1,188.6,273.6,188.6,273.1z"/>
	<path class="st0" d="M191.9,263.2c0-0.2,0.1-0.4,0.2-0.5s0.3-0.2,0.5-0.2s0.4,0.1,0.5,0.2c0.1,0.1,0.2,0.3,0.2,0.5
		c0,0.2-0.1,0.4-0.2,0.5c-0.1,0.1-0.3,0.2-0.5,0.2s-0.4-0.1-0.5-0.2C192,263.6,191.9,263.4,191.9,263.2z M193.2,275.5h-1.1V266h1.1
		V275.5z"/>
	<path class="st0" d="M197.7,263.5v2.4h2v0.9h-2v6.3c0,0.5,0.1,0.9,0.3,1.2c0.2,0.3,0.5,0.4,1,0.4c0.2,0,0.5,0,0.9-0.1v0.9
		c-0.3,0.1-0.7,0.1-1.1,0.1c-0.7,0-1.2-0.2-1.6-0.6c-0.3-0.4-0.5-1-0.5-1.8v-6.3H195V266h1.7v-2.4L197.7,263.5L197.7,263.5z"/>
	<path class="st0" d="M212.2,275.5c-0.1-0.3-0.2-0.7-0.2-1.3c-0.4,0.5-0.8,0.9-1.4,1.1c-0.6,0.3-1.2,0.4-1.8,0.4
		c-0.9,0-1.7-0.3-2.2-0.8s-0.8-1.2-0.8-1.9c0-0.9,0.4-1.7,1.2-2.2s1.8-0.8,3.2-0.8h1.9v-1.1c0-0.7-0.2-1.2-0.6-1.6
		c-0.4-0.4-1-0.6-1.8-0.6c-0.7,0-1.3,0.2-1.8,0.6c-0.5,0.4-0.7,0.8-0.7,1.4h-1.1c0-0.8,0.4-1.4,1.1-2c0.7-0.6,1.6-0.8,2.6-0.8
		c1.1,0,1.9,0.3,2.5,0.8s0.9,1.3,0.9,2.2v4.5c0,0.9,0.1,1.6,0.3,2.1v0.1L212.2,275.5L212.2,275.5z M208.9,274.7
		c0.7,0,1.3-0.2,1.9-0.5c0.6-0.3,1-0.8,1.2-1.4v-2.1h-1.9c-1,0-1.9,0.2-2.5,0.6c-0.6,0.4-0.9,0.9-0.9,1.5c0,0.5,0.2,1,0.6,1.3
		C207.7,274.4,208.3,274.7,208.9,274.7z"/>
	<path class="st0" d="M216.8,266v1.5c0.4-0.6,0.8-1,1.3-1.3c0.5-0.3,1.1-0.4,1.8-0.4c1.5,0,2.5,0.6,2.9,1.8c0.3-0.6,0.8-1,1.4-1.4
		c0.6-0.3,1.2-0.5,1.9-0.5c2,0,3.1,1.1,3.1,3.3v6.3h-1.1V269c0-0.8-0.2-1.5-0.5-1.9s-0.9-0.6-1.8-0.6c-0.8,0-1.4,0.3-1.9,0.7
		s-0.8,1.1-0.9,1.7v6.3h-1.1v-6.3c0-0.8-0.2-1.4-0.6-1.8c-0.4-0.4-1-0.6-1.7-0.6s-1.2,0.2-1.7,0.6c-0.5,0.4-0.8,0.9-1.1,1.7v6.5
		h-1.1v-9.5h1.1L216.8,266L216.8,266z"/>
	<path class="st0" d="M235.5,275.7c-0.8,0-1.5-0.2-2.2-0.6c-0.7-0.4-1.2-1-1.5-1.7c-0.4-0.7-0.5-1.5-0.5-2.4v-0.4
		c0-0.9,0.2-1.7,0.5-2.5c0.3-0.8,0.8-1.3,1.5-1.7s1.3-0.6,2.1-0.6c1.2,0,2.1,0.4,2.7,1.2c0.7,0.8,1,1.9,1,3.2v0.6h-6.8v0.2
		c0,1.1,0.3,2,0.9,2.7c0.6,0.7,1.4,1.1,2.3,1.1c0.6,0,1.1-0.1,1.5-0.3c0.4-0.2,0.8-0.5,1.2-1l0.7,0.5
		C238.1,275.1,236.9,275.7,235.5,275.7z M235.3,266.7c-0.8,0-1.5,0.3-2,0.9c-0.5,0.6-0.9,1.4-1,2.3h5.7v-0.1c0-0.9-0.3-1.7-0.8-2.2
		S236.1,266.7,235.3,266.7z"/>
	<path class="st0" d="M242.7,263.5v2.4h2v0.9h-2v6.3c0,0.5,0.1,0.9,0.3,1.2c0.2,0.3,0.5,0.4,1,0.4c0.2,0,0.5,0,0.9-0.1v0.9
		c-0.3,0.1-0.7,0.1-1.1,0.1c-0.7,0-1.2-0.2-1.6-0.6c-0.3-0.4-0.5-1-0.5-1.8v-6.3H240V266h1.7v-2.4L242.7,263.5L242.7,263.5z"/>
	<path class="st0" d="M246.7,277.9l-0.6-0.5c0.5-0.7,0.8-1.5,0.8-2.2v-1.4h1v1.1C247.9,276.1,247.5,277.1,246.7,277.9z"/>
	<path class="st0" d="M33.4,296.4c0.7,0,1.3-0.2,1.8-0.6c0.5-0.4,0.8-0.9,0.8-1.6h1c0,0.6-0.2,1.1-0.5,1.6s-0.8,0.9-1.3,1.1
		s-1.1,0.4-1.8,0.4c-1.2,0-2.2-0.4-3-1.3c-0.8-0.9-1.1-2-1.1-3.5v-0.3c0-0.9,0.2-1.8,0.5-2.5c0.3-0.7,0.8-1.3,1.4-1.7
		s1.3-0.6,2.1-0.6c1,0,1.9,0.3,2.6,0.9c0.7,0.6,1,1.4,1.1,2.5h-1c0-0.7-0.3-1.3-0.8-1.8s-1.1-0.7-1.9-0.7c-0.9,0-1.7,0.3-2.2,1
		c-0.5,0.7-0.8,1.6-0.8,2.9v0.3c0,1.2,0.3,2.2,0.8,2.8S32.4,296.4,33.4,296.4z"/>
	<path class="st0" d="M38.5,292.2c0-0.9,0.2-1.7,0.5-2.5c0.3-0.8,0.9-1.3,1.5-1.7s1.4-0.6,2.2-0.6c1.3,0,2.3,0.4,3.1,1.3
		c0.8,0.9,1.2,2.1,1.2,3.5v0.2c0,0.9-0.2,1.7-0.5,2.5c-0.4,0.7-0.9,1.3-1.5,1.7s-1.4,0.6-2.2,0.6c-1.3,0-2.3-0.4-3.1-1.3
		c-0.8-0.9-1.2-2.1-1.2-3.5V292.2z M39.6,292.5c0,1.1,0.3,2.1,0.9,2.8c0.6,0.7,1.4,1.1,2.3,1.1c0.9,0,1.7-0.4,2.3-1.1
		s0.9-1.7,0.9-2.9v-0.2c0-0.7-0.1-1.4-0.4-2s-0.6-1.1-1.1-1.4s-1-0.5-1.7-0.5c-0.9,0-1.7,0.4-2.3,1.1s-0.9,1.7-0.9,2.9V292.5z"/>
	<path class="st0" d="M50.2,287.6v1.6c0.4-0.6,0.8-1,1.3-1.3c0.5-0.3,1.1-0.5,1.8-0.5c1,0,1.8,0.3,2.3,0.9c0.5,0.6,0.8,1.4,0.8,2.6
		v6.2h-1v-6.2c0-0.8-0.2-1.5-0.5-1.9s-0.9-0.6-1.7-0.6c-0.7,0-1.2,0.2-1.7,0.6c-0.5,0.4-0.9,1-1.1,1.6v6.5h-1v-9.5L50.2,287.6
		L50.2,287.6z"/>
	<path class="st0" d="M64.8,294.7c0-0.5-0.2-0.9-0.6-1.3c-0.4-0.4-1.1-0.6-1.9-0.7c-0.8-0.1-1.5-0.4-2-0.6s-0.8-0.5-1-0.8
		c-0.2-0.3-0.3-0.7-0.3-1.2c0-0.8,0.3-1.4,0.9-1.9s1.4-0.7,2.4-0.7c1.1,0,1.9,0.3,2.6,0.8s1,1.2,1,2.1h-1.1c0-0.6-0.2-1-0.7-1.4
		s-1.1-0.6-1.8-0.6s-1.2,0.2-1.7,0.5c-0.4,0.3-0.6,0.7-0.6,1.2s0.2,0.8,0.5,1.1c0.3,0.3,1,0.5,1.9,0.7c0.9,0.2,1.6,0.4,2.1,0.7
		c0.5,0.3,0.8,0.5,1,0.9s0.3,0.8,0.3,1.3c0,0.8-0.3,1.4-1,1.9s-1.5,0.7-2.5,0.7c-1.1,0-2-0.3-2.7-0.8s-1-1.2-1-2h1
		c0,0.6,0.3,1.1,0.8,1.4s1.1,0.5,1.9,0.5c0.7,0,1.3-0.2,1.8-0.5C64.6,295.7,64.8,295.2,64.8,294.7z"/>
	<path class="st0" d="M71.9,297.3c-0.8,0-1.5-0.2-2.2-0.6c-0.7-0.4-1.2-1-1.5-1.7c-0.4-0.7-0.5-1.5-0.5-2.4v-0.4
		c0-0.9,0.2-1.7,0.5-2.5c0.3-0.8,0.8-1.3,1.5-1.7s1.3-0.6,2.1-0.6c1.2,0,2.1,0.4,2.7,1.2c0.7,0.8,1,1.9,1,3.2v0.6h-6.8v0.2
		c0,1.1,0.3,2,0.9,2.7c0.6,0.7,1.4,1.1,2.3,1.1c0.6,0,1.1-0.1,1.5-0.3c0.4-0.2,0.8-0.5,1.2-1l0.7,0.5
		C74.5,296.7,73.3,297.3,71.9,297.3z M71.7,288.3c-0.8,0-1.5,0.3-2,0.9c-0.5,0.6-0.9,1.4-1,2.3h5.7v-0.1c0-0.9-0.3-1.7-0.8-2.2
		S72.5,288.3,71.7,288.3z"/>
	<path class="st0" d="M79.1,285.1v2.4h2v0.9h-2v6.3c0,0.5,0.1,0.9,0.3,1.2c0.2,0.3,0.5,0.4,1,0.4c0.2,0,0.5,0,0.9-0.1v0.9
		c-0.3,0.1-0.7,0.1-1.1,0.1c-0.7,0-1.2-0.2-1.6-0.6c-0.3-0.4-0.5-1-0.5-1.8v-6.3h-1.7v-0.9h1.7v-2.4L79.1,285.1L79.1,285.1z"/>
	<path class="st0" d="M87,297.3c-0.8,0-1.5-0.2-2.2-0.6c-0.7-0.4-1.2-1-1.5-1.7c-0.4-0.7-0.5-1.5-0.5-2.4v-0.4
		c0-0.9,0.2-1.7,0.5-2.5c0.3-0.8,0.8-1.3,1.5-1.7s1.3-0.6,2.1-0.6c1.2,0,2.1,0.4,2.7,1.2c0.7,0.8,1,1.9,1,3.2v0.6h-6.8v0.2
		c0,1.1,0.3,2,0.9,2.7c0.6,0.7,1.4,1.1,2.3,1.1c0.6,0,1.1-0.1,1.5-0.3c0.4-0.2,0.8-0.5,1.2-1l0.7,0.5
		C89.5,296.7,88.4,297.3,87,297.3z M86.8,288.3c-0.8,0-1.5,0.3-2,0.9c-0.5,0.6-0.9,1.4-1,2.3h5.7v-0.1c0-0.9-0.3-1.7-0.8-2.2
		S87.6,288.3,86.8,288.3z"/>
	<path class="st0" d="M94.2,285.1v2.4h2v0.9h-2v6.3c0,0.5,0.1,0.9,0.3,1.2c0.2,0.3,0.5,0.4,1,0.4c0.2,0,0.5,0,0.9-0.1v0.9
		c-0.3,0.1-0.7,0.1-1.1,0.1c-0.7,0-1.2-0.2-1.6-0.6c-0.3-0.4-0.5-1-0.5-1.8v-6.3h-1.7v-0.9h1.7v-2.4L94.2,285.1L94.2,285.1z"/>
	<path class="st0" d="M104.5,295.9c-0.6,0.9-1.6,1.4-3,1.4c-1,0-1.8-0.3-2.3-0.9c-0.5-0.6-0.8-1.5-0.8-2.6v-6.2h1v6.1
		c0,1.8,0.7,2.7,2.2,2.7s2.5-0.6,2.9-1.9v-6.9h1.1v9.5h-1L104.5,295.9z"/>
	<path class="st0" d="M112.6,288.5c-0.2,0-0.5-0.1-0.7-0.1c-0.7,0-1.2,0.2-1.7,0.5c-0.5,0.3-0.8,0.9-1,1.6v6.5h-1v-9.5h1v1.5
		c0.6-1.1,1.5-1.7,2.7-1.7c0.3,0,0.5,0,0.7,0.1V288.5z"/>
	<path class="st0" d="M124.4,294.7c0-0.5-0.2-0.9-0.6-1.3c-0.4-0.4-1.1-0.6-1.9-0.7c-0.8-0.1-1.5-0.4-2-0.6s-0.8-0.5-1-0.8
		c-0.2-0.3-0.3-0.7-0.3-1.2c0-0.8,0.3-1.4,0.9-1.9s1.4-0.7,2.4-0.7c1.1,0,1.9,0.3,2.6,0.8s1,1.2,1,2.1h-1.1c0-0.6-0.2-1-0.7-1.4
		s-1.1-0.6-1.8-0.6s-1.2,0.2-1.7,0.5c-0.4,0.3-0.6,0.7-0.6,1.2s0.2,0.8,0.5,1.1c0.3,0.3,1,0.5,1.9,0.7c0.9,0.2,1.6,0.4,2.1,0.7
		c0.5,0.3,0.8,0.5,1,0.9s0.3,0.8,0.3,1.3c0,0.8-0.3,1.4-1,1.9s-1.5,0.7-2.5,0.7c-1.1,0-2-0.3-2.7-0.8s-1-1.2-1-2h1.1
		c0,0.6,0.3,1.1,0.8,1.4s1.1,0.5,1.9,0.5c0.7,0,1.3-0.2,1.8-0.5C124.3,295.7,124.4,295.2,124.4,294.7z"/>
	<path class="st0" d="M133.8,297.1c-0.1-0.3-0.2-0.7-0.2-1.3c-0.4,0.5-0.8,0.9-1.4,1.1c-0.6,0.3-1.2,0.4-1.8,0.4
		c-0.9,0-1.7-0.3-2.2-0.8s-0.8-1.2-0.8-1.9c0-0.9,0.4-1.7,1.2-2.2c0.8-0.5,1.8-0.8,3.2-0.8h1.9v-1.1c0-0.7-0.2-1.2-0.6-1.6
		c-0.4-0.4-1-0.6-1.8-0.6c-0.7,0-1.3,0.2-1.8,0.6c-0.5,0.4-0.7,0.8-0.7,1.4h-1.1c0-0.8,0.4-1.4,1.1-2s1.6-0.8,2.6-0.8
		c1.1,0,1.9,0.3,2.5,0.8s0.9,1.3,0.9,2.2v4.5c0,0.9,0.1,1.6,0.3,2.1v0.1L133.8,297.1L133.8,297.1z M130.5,296.3
		c0.7,0,1.3-0.2,1.9-0.5c0.6-0.3,1-0.8,1.2-1.4v-2.1h-1.9c-1,0-1.9,0.2-2.5,0.6c-0.6,0.4-0.9,0.9-0.9,1.5c0,0.5,0.2,1,0.6,1.3
		C129.3,296,129.9,296.3,130.5,296.3z"/>
	<path class="st0" d="M137,292.2c0-1.5,0.3-2.7,1-3.5c0.7-0.8,1.6-1.3,2.7-1.3c1.3,0,2.3,0.5,2.9,1.5v-5.3h1v13.5h-1v-1.3
		c-0.7,1-1.7,1.4-3,1.4c-1.1,0-2-0.4-2.6-1.3C137.4,295,137,293.8,137,292.2L137,292.2L137,292.2z M138.1,292.4
		c0,1.2,0.2,2.2,0.7,2.9c0.5,0.7,1.2,1.1,2.1,1.1c1.3,0,2.2-0.6,2.8-1.7v-4.5c-0.5-1.2-1.5-1.9-2.7-1.9c-0.9,0-1.6,0.3-2.1,1
		C138.3,290,138.1,291.1,138.1,292.4z"/>
	<path class="st0" d="M147.4,284.8c0-0.2,0.1-0.4,0.2-0.5s0.3-0.2,0.5-0.2s0.4,0.1,0.5,0.2c0.1,0.1,0.2,0.3,0.2,0.5
		c0,0.2-0.1,0.4-0.2,0.5c-0.1,0.1-0.3,0.2-0.5,0.2s-0.4-0.1-0.5-0.2C147.4,285.2,147.4,285,147.4,284.8z M148.6,297.1h-1v-9.5h1.1
		v9.5H148.6z"/>
	<path class="st0" d="M159.1,292.4c0,1.5-0.3,2.7-1,3.5c-0.7,0.9-1.5,1.3-2.6,1.3c-1.3,0-2.3-0.5-3-1.4v4.9h-1v-13.2h1l0.1,1.3
		c0.7-1,1.7-1.5,3-1.5c1.1,0,2,0.4,2.7,1.3c0.7,0.9,1,2.1,1,3.6v0.2L159.1,292.4L159.1,292.4z M158.1,292.2c0-1.2-0.2-2.2-0.7-2.9
		c-0.5-0.7-1.2-1.1-2.1-1.1c-0.6,0-1.2,0.2-1.7,0.5c-0.5,0.3-0.8,0.8-1.1,1.4v4.6c0.3,0.5,0.6,1,1.1,1.2c0.5,0.2,1,0.4,1.7,0.4
		c0.9,0,1.6-0.4,2.1-1.1C157.8,294.6,158.1,293.6,158.1,292.2z"/>
	<path class="st0" d="M167.1,294.7c0-0.5-0.2-0.9-0.6-1.3c-0.4-0.4-1.1-0.6-1.9-0.7c-0.8-0.1-1.5-0.4-2-0.6s-0.8-0.5-1-0.8
		c-0.2-0.3-0.3-0.7-0.3-1.2c0-0.8,0.3-1.4,0.9-1.9s1.4-0.7,2.4-0.7c1.1,0,1.9,0.3,2.6,0.8s1,1.2,1,2.1h-1.1c0-0.6-0.2-1-0.7-1.4
		s-1.1-0.6-1.8-0.6s-1.2,0.2-1.7,0.5c-0.4,0.3-0.6,0.7-0.6,1.2s0.2,0.8,0.5,1.1c0.3,0.3,1,0.5,1.9,0.7c0.9,0.2,1.6,0.4,2.1,0.7
		c0.5,0.3,0.8,0.5,1,0.9s0.3,0.8,0.3,1.3c0,0.8-0.3,1.4-1,1.9s-1.5,0.7-2.5,0.7c-1.1,0-2-0.3-2.7-0.8s-1-1.2-1-2h1.1
		c0,0.6,0.3,1.1,0.8,1.4s1.1,0.5,1.9,0.5c0.7,0,1.3-0.2,1.8-0.5S167.1,295.2,167.1,294.7z"/>
	<path class="st0" d="M174.1,296.4c0.7,0,1.3-0.2,1.8-0.6c0.5-0.4,0.8-0.9,0.8-1.6h1c0,0.6-0.2,1.1-0.5,1.6s-0.8,0.9-1.3,1.1
		s-1.1,0.4-1.8,0.4c-1.2,0-2.2-0.4-3-1.3c-0.8-0.9-1.1-2-1.1-3.5v-0.3c0-0.9,0.2-1.8,0.5-2.5c0.3-0.7,0.8-1.3,1.4-1.7
		s1.3-0.6,2.1-0.6c1,0,1.9,0.3,2.6,0.9c0.7,0.6,1,1.4,1.1,2.5h-1c0-0.7-0.3-1.3-0.8-1.8s-1.1-0.7-1.9-0.7c-0.9,0-1.7,0.3-2.2,1
		c-0.5,0.7-0.8,1.6-0.8,2.9v0.3c0,1.2,0.3,2.2,0.8,2.8S173.1,296.4,174.1,296.4z"/>
	<path class="st0" d="M179.8,284.8c0-0.2,0.1-0.4,0.2-0.5s0.3-0.2,0.5-0.2s0.4,0.1,0.5,0.2c0.1,0.1,0.2,0.3,0.2,0.5
		c0,0.2-0.1,0.4-0.2,0.5c-0.1,0.1-0.3,0.2-0.5,0.2s-0.4-0.1-0.5-0.2C179.8,285.2,179.8,285,179.8,284.8z M181,297.1h-1.1v-9.5h1.1
		V297.1z"/>
	<path class="st0" d="M184.9,287.6v1.6c0.4-0.6,0.8-1,1.3-1.3c0.5-0.3,1.1-0.5,1.8-0.5c1,0,1.8,0.3,2.3,0.9c0.5,0.6,0.8,1.4,0.8,2.6
		v6.2h-1v-6.2c0-0.8-0.2-1.5-0.5-1.9s-0.9-0.6-1.7-0.6c-0.7,0-1.2,0.2-1.7,0.6c-0.5,0.4-0.9,1-1.1,1.6v6.5h-1v-9.5L184.9,287.6
		L184.9,287.6z"/>
	<path class="st0" d="M193.3,292.2c0-1.5,0.3-2.7,1-3.5c0.7-0.9,1.6-1.3,2.7-1.3c1.3,0,2.3,0.5,3,1.5l0.1-1.4h1v9.3
		c0,1.2-0.3,2.2-1,2.9c-0.7,0.7-1.6,1.1-2.8,1.1c-0.7,0-1.3-0.1-1.9-0.4s-1.1-0.7-1.4-1.2l0.6-0.6c0.7,0.9,1.6,1.4,2.7,1.4
		c0.9,0,1.6-0.3,2.1-0.8s0.7-1.2,0.8-2.2v-1.1c-0.7,0.9-1.7,1.4-2.9,1.4c-1.1,0-2-0.4-2.7-1.3c-0.7-0.9-1-2.1-1-3.6v-0.2
		L193.3,292.2L193.3,292.2z M194.4,292.4c0,1.2,0.2,2.2,0.7,2.9c0.5,0.7,1.2,1.1,2.1,1.1c1.3,0,2.2-0.6,2.8-1.7v-4.4
		c-0.2-0.6-0.6-1.1-1.1-1.4s-1-0.5-1.7-0.5c-0.9,0-1.6,0.3-2.1,1C194.6,290,194.4,291.1,194.4,292.4z"/>
	<path class="st0" d="M211.8,297.3c-0.8,0-1.5-0.2-2.2-0.6c-0.7-0.4-1.2-1-1.5-1.7c-0.4-0.7-0.5-1.5-0.5-2.4v-0.4
		c0-0.9,0.2-1.7,0.5-2.5c0.3-0.8,0.8-1.3,1.5-1.7s1.3-0.6,2.1-0.6c1.2,0,2.1,0.4,2.7,1.2c0.7,0.8,1,1.9,1,3.2v0.6h-6.8v0.2
		c0,1.1,0.3,2,0.9,2.7c0.6,0.7,1.4,1.1,2.3,1.1c0.6,0,1.1-0.1,1.5-0.3c0.4-0.2,0.8-0.5,1.2-1l0.7,0.5
		C214.4,296.7,213.3,297.3,211.8,297.3z M211.6,288.3c-0.8,0-1.5,0.3-2,0.9c-0.5,0.6-0.9,1.4-1,2.3h5.7v-0.1c0-0.9-0.3-1.7-0.8-2.2
		S212.4,288.3,211.6,288.3z"/>
	<path class="st0" d="M218.6,297.1h-1.1v-13.5h1.1V297.1z"/>
	<path class="st0" d="M221.4,284.8c0-0.2,0.1-0.4,0.2-0.5s0.3-0.2,0.5-0.2s0.4,0.1,0.5,0.2c0.1,0.1,0.2,0.3,0.2,0.5
		c0,0.2-0.1,0.4-0.2,0.5c-0.1,0.1-0.3,0.2-0.5,0.2s-0.4-0.1-0.5-0.2C221.5,285.2,221.4,285,221.4,284.8z M222.6,297.1h-1v-9.5h1.1
		v9.5H222.6z"/>
	<path class="st0" d="M227.1,285.1v2.4h2v0.9h-2v6.3c0,0.5,0.1,0.9,0.3,1.2c0.2,0.3,0.5,0.4,1,0.4c0.2,0,0.5,0,0.9-0.1v0.9
		c-0.3,0.1-0.7,0.1-1.1,0.1c-0.7,0-1.2-0.2-1.6-0.6c-0.3-0.4-0.5-1-0.5-1.8v-6.3h-1.7v-0.9h1.7v-2.4L227.1,285.1L227.1,285.1z"/>
	<path class="st0" d="M235.7,288.5c-0.2,0-0.5-0.1-0.7-0.1c-0.7,0-1.2,0.2-1.7,0.5c-0.5,0.3-0.8,0.9-1,1.6v6.5h-1v-9.5h1v1.5
		c0.6-1.1,1.5-1.7,2.7-1.7c0.3,0,0.5,0,0.7,0.1V288.5z"/>
	<path class="st0" d="M236,299.5l-0.6-0.5c0.5-0.7,0.8-1.5,0.8-2.2v-1.4h1v1.1C237.3,297.7,236.8,298.7,236,299.5z"/>
	<path class="st0" d="M249.8,294.7c0-0.5-0.2-0.9-0.6-1.3c-0.4-0.4-1-0.6-1.9-0.7c-0.9-0.1-1.5-0.4-2-0.6s-0.8-0.5-1-0.8
		c-0.2-0.3-0.3-0.7-0.3-1.2c0-0.8,0.3-1.4,0.9-1.9s1.4-0.7,2.4-0.7c1.1,0,1.9,0.3,2.6,0.8s1,1.2,1,2.1h-1.1c0-0.6-0.2-1-0.7-1.4
		s-1.1-0.6-1.8-0.6s-1.2,0.2-1.7,0.5c-0.4,0.3-0.6,0.7-0.6,1.2s0.2,0.8,0.5,1.1c0.3,0.3,1,0.5,1.9,0.7c0.9,0.2,1.6,0.4,2.1,0.7
		c0.5,0.3,0.8,0.5,1,0.9s0.3,0.8,0.3,1.3c0,0.8-0.3,1.4-1,1.9s-1.5,0.7-2.5,0.7c-1.1,0-2-0.3-2.7-0.8s-1-1.2-1-2h1.1
		c0,0.6,0.3,1.1,0.8,1.4s1.1,0.5,1.9,0.5c0.7,0,1.3-0.2,1.8-0.5S249.8,295.2,249.8,294.7z"/>
	<path class="st0" d="M256.9,297.3c-0.8,0-1.5-0.2-2.2-0.6c-0.7-0.4-1.2-1-1.5-1.7c-0.4-0.7-0.5-1.5-0.5-2.4v-0.4
		c0-0.9,0.2-1.7,0.5-2.5c0.3-0.8,0.8-1.3,1.5-1.7s1.3-0.6,2.1-0.6c1.2,0,2.1,0.4,2.7,1.2c0.7,0.8,1,1.9,1,3.2v0.6h-6.9v0.2
		c0,1.1,0.3,2,0.9,2.7c0.6,0.7,1.4,1.1,2.3,1.1c0.6,0,1.1-0.1,1.5-0.3c0.4-0.2,0.8-0.5,1.2-1l0.7,0.5
		C259.5,296.7,258.3,297.3,256.9,297.3z M256.7,288.3c-0.8,0-1.5,0.3-2,0.9c-0.5,0.6-0.9,1.4-1,2.3h5.7v-0.1c0-0.9-0.3-1.7-0.8-2.2
		S257.5,288.3,256.7,288.3z"/>
	<path class="st0" d="M262.1,292.2c0-1.5,0.3-2.7,1-3.5c0.7-0.8,1.6-1.3,2.7-1.3c1.3,0,2.3,0.5,2.9,1.5v-5.3h1v13.5h-1v-1.3
		c-0.7,1-1.7,1.4-3,1.4c-1.1,0-2-0.4-2.7-1.3c-0.7-0.9-1-2.1-1-3.6v-0.1L262.1,292.2L262.1,292.2z M263.1,292.4
		c0,1.2,0.2,2.2,0.7,2.9c0.5,0.7,1.2,1.1,2.1,1.1c1.3,0,2.2-0.6,2.8-1.7v-4.5c-0.5-1.2-1.5-1.9-2.7-1.9c-0.9,0-1.6,0.3-2.1,1
		C263.4,290,263.1,291.1,263.1,292.4z"/>
	<path class="st0" d="M29.4,313.8c0-1.5,0.3-2.7,1-3.5c0.7-0.8,1.6-1.3,2.7-1.3c1.3,0,2.3,0.5,2.9,1.5v-5.3h1v13.5h-1v-1.3
		c-0.7,1-1.7,1.4-3,1.4c-1.1,0-2-0.4-2.6-1.3S29.4,315.4,29.4,313.8C29.4,313.9,29.4,313.8,29.4,313.8z M30.5,314
		c0,1.2,0.2,2.2,0.7,2.9c0.5,0.7,1.2,1.1,2.1,1.1c1.3,0,2.2-0.6,2.8-1.7v-4.5c-0.5-1.2-1.5-1.9-2.7-1.9c-0.9,0-1.6,0.3-2.1,1
		C30.7,311.6,30.5,312.7,30.5,314z"/>
	<path class="st0" d="M39.8,306.4c0-0.2,0.1-0.4,0.2-0.5c0.1-0.1,0.3-0.2,0.5-0.2s0.4,0.1,0.5,0.2c0.1,0.1,0.2,0.3,0.2,0.5
		c0,0.2-0.1,0.4-0.2,0.5s-0.3,0.2-0.5,0.2s-0.4-0.1-0.5-0.2C39.8,306.8,39.8,306.6,39.8,306.4z M41,318.7h-1.1v-9.5H41V318.7z"/>
	<path class="st0" d="M49.9,318.7c-0.1-0.3-0.2-0.7-0.2-1.3c-0.4,0.5-0.8,0.9-1.4,1.1c-0.6,0.3-1.2,0.4-1.8,0.4
		c-0.9,0-1.7-0.3-2.2-0.8s-0.8-1.2-0.8-1.9c0-0.9,0.4-1.7,1.2-2.2s1.8-0.8,3.2-0.8h1.9v-1.1c0-0.7-0.2-1.2-0.6-1.6
		c-0.4-0.4-1-0.6-1.8-0.6c-0.7,0-1.3,0.2-1.8,0.6c-0.5,0.4-0.7,0.8-0.7,1.4h-1.1c0-0.8,0.4-1.4,1.1-2s1.6-0.8,2.6-0.8
		c1.1,0,1.9,0.3,2.5,0.8s0.9,1.3,0.9,2.2v4.5c0,0.9,0.1,1.6,0.3,2.1v0.1L49.9,318.7L49.9,318.7z M46.6,317.9c0.7,0,1.3-0.2,1.9-0.5
		c0.6-0.3,1-0.8,1.2-1.4v-2.1h-1.9c-1,0-1.9,0.2-2.5,0.6c-0.6,0.4-0.9,0.9-0.9,1.5c0,0.5,0.2,1,0.6,1.3
		C45.4,317.6,45.9,317.9,46.6,317.9z"/>
	<path class="st0" d="M54.5,309.2v1.5c0.4-0.6,0.8-1,1.3-1.3c0.5-0.3,1.1-0.4,1.8-0.4c1.5,0,2.5,0.6,2.9,1.8c0.3-0.6,0.8-1,1.4-1.4
		c0.6-0.3,1.2-0.5,1.9-0.5c2,0,3.1,1.1,3.1,3.3v6.3h-1.1v-6.3c0-0.8-0.2-1.5-0.5-1.9s-0.9-0.6-1.8-0.6c-0.8,0-1.4,0.3-1.9,0.7
		s-0.8,1.1-0.9,1.7v6.3h-1.1v-6.3c0-0.8-0.2-1.4-0.6-1.8c-0.4-0.4-1-0.6-1.7-0.6s-1.2,0.2-1.7,0.6c-0.5,0.4-0.8,0.9-1.1,1.7v6.5
		h-1.1V309h1.1C54.5,309,54.5,309.2,54.5,309.2z"/>
	<path class="st0" d="M74.8,309.2v1.6c0.4-0.6,0.8-1,1.3-1.3c0.5-0.3,1.1-0.5,1.8-0.5c1,0,1.8,0.3,2.3,0.9c0.5,0.6,0.8,1.4,0.8,2.6
		v6.2h-1v-6.2c0-0.8-0.2-1.5-0.5-1.9s-0.9-0.6-1.7-0.6c-0.7,0-1.2,0.2-1.7,0.6c-0.5,0.4-0.9,1-1.1,1.6v6.5h-1v-9.5H74.8L74.8,309.2z
		"/>
	<path class="st0" d="M83.2,313.8c0-0.9,0.2-1.7,0.5-2.5c0.3-0.8,0.9-1.3,1.5-1.7s1.4-0.6,2.2-0.6c1.3,0,2.3,0.4,3.1,1.3
		c0.8,0.9,1.2,2.1,1.2,3.5v0.2c0,0.9-0.2,1.7-0.5,2.5c-0.4,0.7-0.9,1.3-1.5,1.7s-1.4,0.6-2.2,0.6c-1.3,0-2.3-0.4-3.1-1.3
		c-0.8-0.9-1.2-2.1-1.2-3.5V313.8z M84.2,314.1c0,1.1,0.3,2.1,0.9,2.8c0.6,0.7,1.4,1.1,2.3,1.1s1.7-0.4,2.3-1.1
		c0.6-0.7,0.9-1.7,0.9-2.9v-0.2c0-0.7-0.1-1.4-0.4-2s-0.6-1.1-1.1-1.4s-1-0.5-1.7-0.5c-0.9,0-1.7,0.4-2.3,1.1s-0.9,1.7-0.9,2.9
		C84.2,313.9,84.2,314.1,84.2,314.1z"/>
	<path class="st0" d="M94.8,309.2v1.6c0.4-0.6,0.8-1,1.3-1.3c0.5-0.3,1.1-0.5,1.8-0.5c1,0,1.8,0.3,2.3,0.9c0.5,0.6,0.8,1.4,0.8,2.6
		v6.2h-1v-6.2c0-0.8-0.2-1.5-0.5-1.9s-0.9-0.6-1.7-0.6c-0.7,0-1.2,0.2-1.7,0.6c-0.5,0.4-0.9,1-1.1,1.6v6.5h-1v-9.5H94.8L94.8,309.2z
		"/>
	<path class="st0" d="M109.8,317.5c-0.6,0.9-1.6,1.4-3,1.4c-1,0-1.8-0.3-2.3-0.9c-0.5-0.6-0.8-1.5-0.8-2.6v-6.2h1v6.1
		c0,1.8,0.7,2.7,2.2,2.7s2.5-0.6,2.9-1.9v-6.9h1.1v9.5h-1L109.8,317.5z"/>
	<path class="st0" d="M114.5,309.2v1.5c0.4-0.6,0.8-1,1.3-1.3c0.5-0.3,1.1-0.4,1.8-0.4c1.5,0,2.5,0.6,2.9,1.8c0.3-0.6,0.8-1,1.4-1.4
		c0.6-0.3,1.2-0.5,1.9-0.5c2,0,3.1,1.1,3.1,3.3v6.3h-1.1v-6.3c0-0.8-0.2-1.5-0.5-1.9s-0.9-0.6-1.8-0.6c-0.8,0-1.4,0.3-1.9,0.7
		s-0.8,1.1-0.9,1.7v6.3h-1.1v-6.3c0-0.8-0.2-1.4-0.6-1.8c-0.4-0.4-1-0.6-1.7-0.6s-1.2,0.2-1.7,0.6c-0.5,0.4-0.8,0.9-1.1,1.7v6.5
		h-1.1V309h1.1C114.5,309,114.5,309.2,114.5,309.2z"/>
	<path class="st0" d="M132.6,317.2l2.8-8h1.1l-4.1,11.1l-0.2,0.5c-0.5,1.2-1.3,1.7-2.4,1.7c-0.3,0-0.5,0-0.8-0.1v-0.9l0.5,0.1
		c0.5,0,0.9-0.1,1.3-0.4c0.3-0.3,0.6-0.7,0.8-1.3l0.5-1.3l-3.6-9.4h1.2L132.6,317.2z"/>
	<path class="st0" d="M146.2,318.9c-0.8,0-1.5-0.2-2.2-0.6c-0.7-0.4-1.2-1-1.5-1.7c-0.4-0.7-0.5-1.5-0.5-2.4v-0.4
		c0-0.9,0.2-1.7,0.5-2.5c0.3-0.8,0.8-1.3,1.5-1.7s1.3-0.6,2.1-0.6c1.2,0,2.1,0.4,2.7,1.2c0.7,0.8,1,1.9,1,3.2v0.6H143v0.2
		c0,1.1,0.3,2,0.9,2.7c0.6,0.7,1.4,1.1,2.3,1.1c0.6,0,1.1-0.1,1.5-0.3c0.4-0.2,0.8-0.5,1.2-1l0.7,0.5
		C148.7,318.3,147.6,318.9,146.2,318.9z M146,309.9c-0.8,0-1.5,0.3-2,0.9c-0.5,0.6-0.9,1.4-1,2.3h5.7V313c0-0.9-0.3-1.7-0.8-2.2
		S146.8,309.9,146,309.9z"/>
	<path class="st0" d="M151.7,306.4c0-0.2,0.1-0.4,0.2-0.5s0.3-0.2,0.5-0.2s0.4,0.1,0.5,0.2c0.1,0.1,0.2,0.3,0.2,0.5
		c0,0.2-0.1,0.4-0.2,0.5c-0.1,0.1-0.3,0.2-0.5,0.2s-0.4-0.1-0.5-0.2C151.8,306.8,151.7,306.6,151.7,306.4z M152.9,318.7h-1.1v-9.5
		h1.1V318.7z"/>
	<path class="st0" d="M160.2,310.1c-0.2,0-0.5-0.1-0.7-0.1c-0.7,0-1.2,0.2-1.7,0.5c-0.5,0.3-0.8,0.9-1,1.6v6.5h-1v-9.5h1v1.5
		c0.6-1.1,1.5-1.7,2.7-1.7c0.3,0,0.5,0,0.7,0.1V310.1z"/>
	<path class="st0" d="M162.8,309.2v1.5c0.4-0.6,0.8-1,1.3-1.3c0.5-0.3,1.1-0.4,1.8-0.4c1.5,0,2.5,0.6,2.9,1.8c0.3-0.6,0.8-1,1.4-1.4
		c0.6-0.3,1.2-0.5,1.9-0.5c2,0,3.1,1.1,3.1,3.3v6.3h-1.1v-6.3c0-0.8-0.2-1.5-0.5-1.9s-0.9-0.6-1.8-0.6c-0.8,0-1.4,0.3-1.9,0.7
		s-0.8,1.1-0.9,1.7v6.3h-1.1v-6.3c0-0.8-0.2-1.4-0.6-1.8c-0.4-0.4-1-0.6-1.7-0.6s-1.2,0.2-1.7,0.6c-0.5,0.4-0.8,0.9-1.1,1.7v6.5
		h-1.1V309h1.1L162.8,309.2L162.8,309.2z"/>
	<path class="st0" d="M177.2,313.8c0-0.9,0.2-1.7,0.5-2.5c0.3-0.8,0.9-1.3,1.5-1.7s1.4-0.6,2.2-0.6c1.3,0,2.3,0.4,3.1,1.3
		c0.8,0.9,1.2,2.1,1.2,3.5v0.2c0,0.9-0.2,1.7-0.5,2.5c-0.4,0.7-0.9,1.3-1.5,1.7s-1.4,0.6-2.2,0.6c-1.3,0-2.3-0.4-3.1-1.3
		c-0.8-0.9-1.2-2.1-1.2-3.5V313.8z M178.3,314.1c0,1.1,0.3,2.1,0.9,2.8c0.6,0.7,1.4,1.1,2.3,1.1c0.9,0,1.7-0.4,2.3-1.1
		s0.9-1.7,0.9-2.9v-0.2c0-0.7-0.1-1.4-0.4-2s-0.6-1.1-1.1-1.4s-1-0.5-1.7-0.5c-0.9,0-1.7,0.4-2.3,1.1s-0.9,1.7-0.9,2.9V314.1z"/>
	<path class="st0" d="M187.5,313.8c0-1.5,0.3-2.7,1-3.5c0.7-0.8,1.6-1.3,2.7-1.3c1.3,0,2.3,0.5,2.9,1.5v-5.3h1v13.5h-1v-1.3
		c-0.7,1-1.7,1.4-3,1.4c-1.1,0-2-0.4-2.7-1.3c-0.7-0.9-1-2.1-1-3.6v-0.1L187.5,313.8L187.5,313.8z M188.5,314c0,1.2,0.2,2.2,0.7,2.9
		c0.5,0.7,1.2,1.1,2.1,1.1c1.3,0,2.2-0.6,2.8-1.7v-4.5c-0.5-1.2-1.5-1.9-2.7-1.9c-0.9,0-1.6,0.3-2.1,1
		C188.8,311.6,188.5,312.7,188.5,314z"/>
	<path class="st0" d="M203.9,306.7v2.4h2v0.9h-2v6.3c0,0.5,0.1,0.9,0.3,1.2c0.2,0.3,0.5,0.4,1,0.4c0.2,0,0.5,0,0.9-0.1v0.9
		c-0.3,0.1-0.7,0.1-1.1,0.1c-0.7,0-1.2-0.2-1.6-0.6c-0.3-0.4-0.5-1-0.5-1.8v-6.3h-1.7v-0.9h1.7v-2.4L203.9,306.7L203.9,306.7z"/>
	<path class="st0" d="M211.7,318.9c-0.8,0-1.5-0.2-2.2-0.6c-0.7-0.4-1.2-1-1.5-1.7c-0.4-0.7-0.5-1.5-0.5-2.4v-0.4
		c0-0.9,0.2-1.7,0.5-2.5c0.3-0.8,0.8-1.3,1.5-1.7s1.3-0.6,2.1-0.6c1.2,0,2.1,0.4,2.7,1.2c0.7,0.8,1,1.9,1,3.2v0.6h-6.8v0.2
		c0,1.1,0.3,2,0.9,2.7c0.6,0.7,1.4,1.1,2.3,1.1c0.6,0,1.1-0.1,1.5-0.3c0.4-0.2,0.8-0.5,1.2-1l0.7,0.5
		C214.3,318.3,213.2,318.9,211.7,318.9z M211.5,309.9c-0.8,0-1.5,0.3-2,0.9c-0.5,0.6-0.9,1.4-1,2.3h5.7V313c0-0.9-0.3-1.7-0.8-2.2
		S212.3,309.9,211.5,309.9z"/>
	<path class="st0" d="M218.3,309.2v1.5c0.4-0.6,0.8-1,1.3-1.3c0.5-0.3,1.1-0.4,1.8-0.4c1.5,0,2.5,0.6,2.9,1.8c0.3-0.6,0.8-1,1.4-1.4
		c0.6-0.3,1.2-0.5,1.9-0.5c2,0,3.1,1.1,3.1,3.3v6.3h-1.1v-6.3c0-0.8-0.2-1.5-0.5-1.9s-0.9-0.6-1.8-0.6c-0.8,0-1.4,0.3-1.9,0.7
		s-0.8,1.1-0.9,1.7v6.3h-1.1v-6.3c0-0.8-0.2-1.4-0.6-1.8c-0.4-0.4-1-0.6-1.7-0.6s-1.2,0.2-1.7,0.6c-0.5,0.4-0.8,0.9-1.1,1.7v6.5
		h-1.1V309h1.1L218.3,309.2L218.3,309.2z"/>
	<path class="st0" d="M241,314c0,1.5-0.3,2.7-1,3.5c-0.7,0.9-1.5,1.3-2.6,1.3c-1.3,0-2.3-0.5-3-1.4v4.9h-1v-13.2h1l0.1,1.3
		c0.7-1,1.7-1.5,3-1.5c1.1,0,2,0.4,2.7,1.3c0.7,0.9,1,2.1,1,3.6v0.2L241,314L241,314z M239.9,313.8c0-1.2-0.2-2.2-0.7-2.9
		c-0.5-0.7-1.2-1.1-2.1-1.1c-0.6,0-1.2,0.2-1.7,0.5c-0.5,0.3-0.8,0.8-1.1,1.4v4.6c0.3,0.5,0.6,1,1.1,1.2c0.5,0.2,1,0.4,1.7,0.4
		c0.9,0,1.6-0.4,2.1-1.1C239.6,316.2,239.9,315.2,239.9,313.8z"/>
	<path class="st0" d="M242.7,313.8c0-0.9,0.2-1.7,0.5-2.5c0.3-0.8,0.9-1.3,1.5-1.7s1.4-0.6,2.2-0.6c1.3,0,2.3,0.4,3.1,1.3
		c0.8,0.9,1.2,2.1,1.2,3.5v0.2c0,0.9-0.2,1.7-0.5,2.5c-0.4,0.7-0.9,1.3-1.5,1.7s-1.4,0.6-2.2,0.6c-1.3,0-2.3-0.4-3.1-1.3
		c-0.8-0.9-1.2-2.1-1.2-3.5V313.8z M243.8,314.1c0,1.1,0.3,2.1,0.9,2.8c0.6,0.7,1.4,1.1,2.3,1.1c0.9,0,1.7-0.4,2.3-1.1
		s0.9-1.7,0.9-2.9v-0.2c0-0.7-0.1-1.4-0.4-2s-0.6-1.1-1.1-1.4s-1-0.5-1.7-0.5c-0.9,0-1.7,0.4-2.3,1.1s-0.9,1.7-0.9,2.9V314.1
		L243.8,314.1z"/>
	<path class="st0" d="M257.8,310.1c-0.2,0-0.5-0.1-0.7-0.1c-0.7,0-1.2,0.2-1.7,0.5c-0.5,0.3-0.8,0.9-1,1.6v6.5h-1v-9.5h1v1.5
		c0.6-1.1,1.5-1.7,2.7-1.7c0.3,0,0.5,0,0.7,0.1V310.1z"/>
	<path class="st0" d="M258.2,318.1c0-0.2,0.1-0.4,0.2-0.5s0.3-0.2,0.5-0.2s0.4,0.1,0.6,0.2c0.1,0.1,0.2,0.3,0.2,0.5
		c0,0.2-0.1,0.4-0.2,0.5s-0.3,0.2-0.6,0.2s-0.4-0.1-0.5-0.2C258.3,318.4,258.2,318.3,258.2,318.1z"/>
</g>
</svg>
