<?xml version="1.0" encoding="utf-8"?>
<!-- Generator: Adobe Illustrator 22.1.0, SVG Export Plug-In . SVG Version: 6.00 Build 0)  -->
<svg version="1.1" id="Ebene_1" xmlns="http://www.w3.org/2000/svg" xmlns:xlink="http://www.w3.org/1999/xlink" x="0px" y="0px"
	 viewBox="0 0 375 600" style="enable-background:new 0 0 375 600;" xml:space="preserve">
<style type="text/css">
	.st0{fill:#FFFFFF;}
</style>
<title>hochformat_Text_Ubuntu@3x</title>
<desc>Created with Sketch.</desc>
<g>
	<path class="st0" d="M51.8,72.5h-9.6v19.1h-8.6V41.9h17.5c5.7,0,10.2,1.3,13.3,3.9c3.1,2.6,4.7,6.3,4.7,11.2c0,3.3-0.8,6.1-2.4,8.4
		c-1.6,2.2-3.8,4-6.7,5.2l11.2,20.7v0.4h-9.3L51.8,72.5z M42.2,65.5h8.9c2.9,0,5.2-0.7,6.8-2.2c1.6-1.5,2.5-3.5,2.5-6
		c0-2.7-0.8-4.7-2.3-6.2s-3.8-2.2-6.8-2.2h-9.1V65.5z"/>
	<path class="st0" d="M74.8,72.8c0-3.6,0.7-6.9,2.2-9.8c1.5-2.9,3.5-5.1,6-6.7c2.6-1.6,5.6-2.3,9-2.3c5,0,9,1.6,12.2,4.8
		c3.2,3.2,4.8,7.5,5,12.8v1.9c0,3.6-0.7,6.9-2.1,9.8c-1.4,2.9-3.4,5.1-6,6.7c-2.6,1.6-5.6,2.4-9,2.4c-5.2,0-9.4-1.7-12.5-5.2
		s-4.7-8.1-4.7-13.9L74.8,72.8L74.8,72.8z M83.2,73.5c0,3.8,0.8,6.8,2.4,8.9c1.6,2.1,3.8,3.2,6.6,3.2s5-1.1,6.5-3.3s2.3-5.4,2.3-9.6
		c0-3.7-0.8-6.7-2.4-8.9c-1.6-2.2-3.8-3.3-6.5-3.3s-4.9,1.1-6.5,3.2C84,66,83.2,69.2,83.2,73.5z"/>
	<path class="st0" d="M148.7,73.5c0,5.7-1.3,10.3-3.8,13.7c-2.6,3.4-6.1,5.1-10.6,5.1c-4.3,0-7.7-1.6-10.1-4.7l-0.4,4h-7.5V39.1h8.3
		v19.1c2.4-2.8,5.6-4.2,9.7-4.2c4.5,0,8.1,1.7,10.6,5c2.6,3.3,3.9,8,3.9,14L148.7,73.5L148.7,73.5z M140.4,72.8c0-4-0.7-7-2.1-9
		c-1.4-2-3.5-3-6.2-3c-3.6,0-6.1,1.6-7.6,4.7v15.2c1.5,3.2,4,4.8,7.7,4.8c2.6,0,4.6-1,6-2.9s2.1-4.9,2.2-8.8L140.4,72.8L140.4,72.8z
		"/>
	<path class="st0" d="M154.1,72.8c0-3.6,0.7-6.9,2.2-9.8c1.5-2.9,3.5-5.1,6-6.7c2.6-1.6,5.6-2.3,9-2.3c5,0,9,1.6,12.2,4.8
		c3.2,3.2,4.8,7.5,5,12.8v1.9c0,3.6-0.7,6.9-2.1,9.8c-1.4,2.9-3.4,5.1-6,6.7c-2.6,1.6-5.6,2.4-9,2.4c-5.2,0-9.4-1.7-12.5-5.2
		s-4.7-8.1-4.7-13.9L154.1,72.8L154.1,72.8z M162.4,73.5c0,3.8,0.8,6.8,2.4,8.9c1.6,2.1,3.8,3.2,6.6,3.2s5-1.1,6.5-3.3
		s2.3-5.4,2.3-9.6c0-3.7-0.8-6.7-2.4-8.9c-1.6-2.2-3.8-3.3-6.5-3.3s-4.9,1.1-6.5,3.2C163.2,66,162.4,69.2,162.4,73.5z"/>
	<path class="st0" d="M205.9,45.7v9h6.5v6.2h-6.5v20.6c0,1.4,0.3,2.4,0.8,3.1c0.6,0.6,1.6,0.9,3,0.9c1,0,1.9-0.1,2.9-0.3v6.4
		c-1.9,0.5-3.7,0.8-5.5,0.8c-6.4,0-9.6-3.5-9.6-10.6v-21h-6.1v-6.2h6.1v-9L205.9,45.7L205.9,45.7z"/>
	<path class="st0" d="M216.2,72.8c0-3.6,0.7-6.9,2.2-9.8c1.5-2.9,3.5-5.1,6-6.7c2.6-1.6,5.6-2.3,9-2.3c5,0,9,1.6,12.2,4.8
		c3.2,3.2,4.8,7.5,5,12.8v1.9c0,3.6-0.7,6.9-2.1,9.8c-1.4,2.9-3.4,5.1-6,6.7c-2.6,1.6-5.6,2.4-9,2.4c-5.2,0-9.4-1.7-12.5-5.2
		s-4.7-8.1-4.7-13.9L216.2,72.8L216.2,72.8z M224.5,73.5c0,3.8,0.8,6.8,2.4,8.9c1.6,2.1,3.8,3.2,6.6,3.2s5-1.1,6.5-3.3
		s2.3-5.4,2.3-9.6c0-3.7-0.8-6.7-2.4-8.9c-1.6-2.2-3.8-3.3-6.5-3.3s-4.9,1.1-6.5,3.2C225.3,66,224.5,69.2,224.5,73.5z"/>
</g>
<g>
	<path class="st0" d="M31.4,142.4v-24.9h7c2.2,0,4.1,0.5,5.7,1.4c1.7,1,2.9,2.3,3.9,4.1c0.9,1.8,1.4,3.8,1.4,6.1v1.6
		c0,2.3-0.5,4.4-1.4,6.2s-2.2,3.1-3.9,4.1c-1.7,0.9-3.6,1.4-5.9,1.5h-6.8V142.4z M34.6,120.2v19.5h3.5c2.5,0,4.5-0.8,5.9-2.4
		c1.4-1.6,2.1-3.8,2.1-6.7v-1.5c0-2.8-0.7-5-2-6.6c-1.3-1.6-3.2-2.4-5.6-2.4L34.6,120.2L34.6,120.2z"/>
	<path class="st0" d="M61.5,142.8c-2.5,0-4.5-0.8-6.1-2.5c-1.6-1.6-2.4-3.8-2.4-6.6v-0.6c0-1.8,0.4-3.5,1.1-4.9s1.7-2.6,2.9-3.4
		c1.3-0.8,2.6-1.2,4.1-1.2c2.4,0,4.3,0.8,5.6,2.4c1.3,1.6,2,3.9,2,6.8v1.3H56.2c0,1.8,0.6,3.3,1.6,4.4s2.3,1.7,3.9,1.7
		c1.1,0,2.1-0.2,2.8-0.7c0.8-0.5,1.5-1.1,2-1.8l1.9,1.5C66.9,141.6,64.6,142.8,61.5,142.8z M61.1,126.2c-1.3,0-2.3,0.5-3.2,1.4
		c-0.9,0.9-1.4,2.2-1.6,3.9h9.3v-0.2c-0.1-1.6-0.5-2.9-1.3-3.7C63.5,126.6,62.4,126.2,61.1,126.2z"/>
	<path class="st0" d="M83.1,137.5c0-0.9-0.3-1.5-1-2s-1.8-0.9-3.4-1.2s-2.9-0.8-3.8-1.2c-0.9-0.5-1.6-1-2.1-1.7s-0.7-1.4-0.7-2.4
		c0-1.5,0.6-2.8,1.9-3.8s2.9-1.6,4.9-1.6c2.1,0,3.8,0.5,5.1,1.6c1.3,1.1,2,2.5,2,4.2h-3.2c0-0.9-0.4-1.6-1.1-2.2
		c-0.7-0.6-1.7-0.9-2.8-0.9c-1.2,0-2.1,0.3-2.7,0.8s-1,1.2-1,2s0.3,1.3,0.9,1.7s1.7,0.8,3.3,1.1c1.6,0.4,2.9,0.8,3.8,1.3
		c1,0.5,1.7,1.1,2.2,1.8s0.7,1.5,0.7,2.5c0,1.7-0.7,3-2,4s-3,1.5-5.1,1.5c-1.5,0-2.8-0.3-3.9-0.8s-2-1.3-2.7-2.2c-0.6-0.9-1-2-1-3.1
		h3.2c0.1,1.1,0.5,1.9,1.3,2.5s1.8,0.9,3.1,0.9c1.2,0,2.2-0.2,2.9-0.7C82.8,139,83.1,138.3,83.1,137.5z"/>
	<path class="st0" d="M90.4,119c0-0.5,0.2-0.9,0.5-1.3c0.3-0.4,0.8-0.5,1.4-0.5s1.1,0.2,1.4,0.5c0.3,0.4,0.5,0.8,0.5,1.3
		s-0.2,0.9-0.5,1.3c-0.3,0.3-0.8,0.5-1.4,0.5s-1.1-0.2-1.4-0.5S90.4,119.6,90.4,119z M93.8,142.4h-3.2v-18.5h3.2V142.4z"/>
	<path class="st0" d="M98.1,133c0-2.9,0.7-5.2,2-6.9s3.1-2.6,5.3-2.6c2.3,0,4,0.8,5.3,2.4l0.2-2.1h2.9v18c0,2.4-0.7,4.3-2.1,5.7
		s-3.3,2.1-5.7,2.1c-1.3,0-2.6-0.3-3.9-0.9c-1.3-0.6-2.3-1.4-2.9-2.3l1.6-1.9c1.4,1.7,3,2.5,5,2.5c1.5,0,2.7-0.4,3.6-1.3
		c0.9-0.9,1.3-2.1,1.3-3.7v-1.6c-1.3,1.5-3,2.2-5.2,2.2s-3.9-0.9-5.3-2.6S98.1,136,98.1,133z M101.3,133.4c0,2.1,0.4,3.7,1.3,4.9
		s2.1,1.8,3.6,1.8c2,0,3.5-0.9,4.4-2.7v-8.5c-1-1.8-2.4-2.6-4.4-2.6c-1.5,0-2.7,0.6-3.6,1.8C101.8,129.3,101.3,131,101.3,133.4z"/>
	<path class="st0" d="M121.5,123.9l0.1,2.3c1.4-1.8,3.3-2.7,5.5-2.7c3.9,0,5.9,2.2,5.9,6.6v12.2h-3.2v-12.2c0-1.3-0.3-2.3-0.9-3
		c-0.6-0.6-1.5-1-2.8-1c-1,0-1.9,0.3-2.7,0.8s-1.4,1.3-1.8,2.2v13.2h-3.2v-18.4H121.5z"/>
	<path class="st0" d="M151.2,117.6l8.1,20.3l8.1-20.3h4.3v24.9h-3.3v-9.7l0.3-10.5l-8.2,20.1H158l-8.2-20.1l0.3,10.4v9.7h-3.3v-24.9
		L151.2,117.6L151.2,117.6z"/>
	<path class="st0" d="M188.5,142.4c-0.2-0.4-0.3-1-0.4-1.9c-1.5,1.5-3.2,2.3-5.3,2.3c-1.8,0-3.3-0.5-4.5-1.5s-1.8-2.3-1.8-3.9
		c0-1.9,0.7-3.4,2.2-4.5s3.5-1.6,6.2-1.6h3.1v-1.5c0-1.1-0.3-2-1-2.6c-0.7-0.7-1.6-1-2.9-1c-1.1,0-2.1,0.3-2.8,0.9
		c-0.8,0.6-1.1,1.3-1.1,2.1H177c0-0.9,0.3-1.8,1-2.7s1.5-1.5,2.7-2c1.1-0.5,2.4-0.8,3.7-0.8c2.1,0,3.8,0.5,5,1.6s1.8,2.5,1.9,4.4
		v8.5c0,1.7,0.2,3,0.6,4.1v0.3h-3.4V142.4z M183.2,140c1,0,1.9-0.3,2.8-0.8s1.5-1.2,1.9-2v-3.8h-2.5c-3.9,0-5.8,1.1-5.8,3.4
		c0,1,0.3,1.8,1,2.3C181.3,139.7,182.2,140,183.2,140z"/>
	<path class="st0" d="M200.4,119.5v4.5h3.5v2.4h-3.5v11.5c0,0.7,0.2,1.3,0.5,1.7s0.8,0.6,1.6,0.6c0.4,0,0.9-0.1,1.5-0.2v2.5
		c-0.8,0.2-1.6,0.3-2.4,0.3c-1.4,0-2.5-0.4-3.2-1.3s-1.1-2.1-1.1-3.6v-11.5h-3.4v-2.5h3.4v-4.5L200.4,119.5L200.4,119.5z"/>
	<path class="st0" d="M211.8,119.5v4.5h3.5v2.4h-3.5v11.5c0,0.7,0.2,1.3,0.5,1.7s0.8,0.6,1.6,0.6c0.4,0,0.9-0.1,1.5-0.2v2.5
		c-0.8,0.2-1.6,0.3-2.4,0.3c-1.4,0-2.5-0.4-3.2-1.3s-1.1-2.1-1.1-3.6v-11.5h-3.4v-2.5h3.4v-4.5L211.8,119.5L211.8,119.5z"/>
	<path class="st0" d="M226.6,142.8c-2.5,0-4.5-0.8-6.1-2.5c-1.6-1.6-2.4-3.8-2.4-6.6v-0.6c0-1.8,0.3-3.5,1.1-4.9
		c0.7-1.4,1.7-2.6,2.9-3.4c1.3-0.8,2.6-1.2,4.1-1.2c2.4,0,4.3,0.8,5.6,2.4c1.3,1.6,2,3.9,2,6.8v1.3h-12.5c0,1.8,0.6,3.3,1.6,4.4
		s2.3,1.7,3.9,1.7c1.1,0,2.1-0.2,2.8-0.7c0.8-0.5,1.5-1.1,2-1.8l1.9,1.5C232.1,141.6,229.7,142.8,226.6,142.8z M226.2,126.2
		c-1.3,0-2.3,0.5-3.2,1.4s-1.4,2.2-1.6,3.9h9.3v-0.2c-0.1-1.6-0.5-2.9-1.3-3.7C228.6,126.6,227.6,126.2,226.2,126.2z"/>
	<path class="st0" d="M246.4,126.8c-0.5-0.1-1-0.1-1.6-0.1c-2.1,0-3.5,0.9-4.2,2.6v13.1h-3.2v-18.5h3.1l0.1,2.1
		c1-1.7,2.5-2.5,4.4-2.5c0.6,0,1.1,0.1,1.4,0.2V126.8z"/>
	<path class="st0" d="M260.1,137.5c0-0.9-0.3-1.5-1-2s-1.8-0.9-3.4-1.2c-1.6-0.3-2.9-0.8-3.8-1.2c-0.9-0.5-1.6-1-2.1-1.7
		s-0.7-1.4-0.7-2.4c0-1.5,0.6-2.8,1.9-3.8s2.9-1.6,4.9-1.6c2.1,0,3.8,0.5,5.1,1.6c1.3,1.1,2,2.5,2,4.2h-3.2c0-0.9-0.4-1.6-1.1-2.2
		c-0.7-0.6-1.7-0.9-2.8-0.9c-1.2,0-2.1,0.3-2.7,0.8s-1,1.2-1,2s0.3,1.3,0.9,1.7s1.7,0.8,3.3,1.1c1.6,0.4,2.9,0.8,3.8,1.3
		c1,0.5,1.7,1.1,2.2,1.8s0.7,1.5,0.7,2.5c0,1.7-0.7,3-2,4s-3,1.5-5.1,1.5c-1.5,0-2.8-0.3-3.9-0.8s-2-1.3-2.7-2.2c-0.6-0.9-1-2-1-3.1
		h3.2c0.1,1.1,0.5,1.9,1.3,2.5s1.8,0.9,3.1,0.9c1.2,0,2.2-0.2,2.9-0.7S260.1,138.3,260.1,137.5z"/>
</g>
<g>
	<path class="st0" d="M31.2,194.6h6.3v0.9h-7.4v-12.8h1.1C31.2,182.7,31.2,194.6,31.2,194.6z"/>
	<path class="st0" d="M38.7,190.6c0-0.9,0.2-1.7,0.5-2.5c0.3-0.8,0.9-1.3,1.5-1.7s1.4-0.6,2.2-0.6c1.3,0,2.3,0.4,3.1,1.3
		c0.8,0.9,1.2,2.1,1.2,3.5v0.2c0,0.9-0.2,1.7-0.5,2.5c-0.4,0.7-0.9,1.3-1.5,1.7s-1.4,0.6-2.2,0.6c-1.3,0-2.3-0.4-3.1-1.3
		c-0.8-0.9-1.2-2.1-1.2-3.5V190.6z M39.8,190.9c0,1.1,0.3,2.1,0.9,2.8c0.6,0.7,1.4,1.1,2.3,1.1s1.7-0.4,2.3-1.1s0.9-1.7,0.9-2.9
		v-0.2c0-0.7-0.1-1.4-0.4-2s-0.6-1.1-1.1-1.4c-0.5-0.3-1-0.5-1.7-0.5c-0.9,0-1.7,0.4-2.3,1.1s-0.9,1.7-0.9,2.9V190.9z"/>
	<path class="st0" d="M53.8,186.9c-0.2,0-0.5-0.1-0.7-0.1c-0.7,0-1.2,0.2-1.7,0.5s-0.8,0.9-1,1.6v6.5h-1v-9.5h1v1.5
		c0.6-1.1,1.5-1.7,2.7-1.7c0.3,0,0.5,0,0.7,0.1V186.9z"/>
	<path class="st0" d="M59,195.7c-0.8,0-1.5-0.2-2.2-0.6c-0.7-0.4-1.2-1-1.5-1.7c-0.4-0.7-0.5-1.5-0.5-2.4v-0.4
		c0-0.9,0.2-1.7,0.5-2.5c0.3-0.8,0.8-1.3,1.5-1.7c0.7-0.4,1.3-0.6,2.1-0.6c1.2,0,2.1,0.4,2.7,1.2c0.7,0.8,1,1.9,1,3.2v0.6h-6.8v0.2
		c0,1.1,0.3,2,0.9,2.7s1.4,1.1,2.3,1.1c0.6,0,1.1-0.1,1.5-0.3c0.4-0.2,0.8-0.5,1.2-1l0.7,0.5C61.6,195.1,60.4,195.7,59,195.7z
		 M58.8,186.7c-0.8,0-1.5,0.3-2,0.9s-0.9,1.4-1,2.3h5.7v-0.1c0-0.9-0.3-1.7-0.8-2.2S59.6,186.7,58.8,186.7z"/>
	<path class="st0" d="M65.5,186v1.5c0.4-0.6,0.8-1,1.3-1.3s1.1-0.4,1.8-0.4c1.5,0,2.5,0.6,2.9,1.8c0.3-0.6,0.8-1,1.4-1.4
		c0.6-0.3,1.2-0.5,1.9-0.5c2,0,3.1,1.1,3.1,3.3v6.3h-1.1V189c0-0.8-0.2-1.5-0.5-1.9s-0.9-0.6-1.8-0.6c-0.8,0-1.4,0.3-1.9,0.7
		s-0.8,1.1-0.9,1.7v6.3h-1.1v-6.3c0-0.8-0.2-1.4-0.6-1.8c-0.4-0.4-1-0.6-1.7-0.6s-1.2,0.2-1.7,0.6c-0.5,0.4-0.8,0.9-1.1,1.7v6.5
		h-1.1v-9.5h1.1C65.5,185.8,65.5,186,65.5,186z"/>
	<path class="st0" d="M84.9,183.2c0-0.2,0.1-0.4,0.2-0.5s0.3-0.2,0.5-0.2s0.4,0.1,0.5,0.2s0.2,0.3,0.2,0.5s-0.1,0.4-0.2,0.5
		s-0.3,0.2-0.5,0.2s-0.4-0.1-0.5-0.2C84.9,183.6,84.9,183.4,84.9,183.2z M86.1,195.5H85V186h1.1V195.5z"/>
	<path class="st0" d="M96.6,190.8c0,1.5-0.3,2.7-1,3.5c-0.7,0.9-1.5,1.3-2.6,1.3c-1.3,0-2.3-0.5-3-1.4v4.9h-1v-13.2h1l0.1,1.3
		c0.7-1,1.7-1.5,3-1.5c1.1,0,2,0.4,2.7,1.3s1,2.1,1,3.6v0.2L96.6,190.8L96.6,190.8z M95.5,190.6c0-1.2-0.2-2.2-0.7-2.9
		s-1.2-1.1-2.1-1.1c-0.6,0-1.2,0.2-1.7,0.5s-0.8,0.8-1.1,1.4v4.6c0.3,0.5,0.6,1,1.1,1.2s1,0.4,1.7,0.4c0.9,0,1.6-0.4,2.1-1.1
		C95.3,193,95.5,192,95.5,190.6z"/>
	<path class="st0" d="M104.6,193.1c0-0.5-0.2-0.9-0.6-1.3s-1.1-0.6-1.9-0.7s-1.5-0.4-2-0.6s-0.8-0.5-1-0.8s-0.3-0.7-0.3-1.2
		c0-0.8,0.3-1.4,0.9-1.9s1.4-0.7,2.4-0.7c1.1,0,1.9,0.3,2.6,0.8s1,1.2,1,2.1h-1.1c0-0.6-0.2-1-0.7-1.4s-1.1-0.6-1.8-0.6
		c-0.7,0-1.2,0.2-1.7,0.5c-0.4,0.3-0.6,0.7-0.6,1.2s0.2,0.8,0.5,1.1c0.3,0.3,1,0.5,1.9,0.7s1.6,0.4,2.1,0.7c0.5,0.3,0.8,0.5,1,0.9
		s0.3,0.8,0.3,1.3c0,0.8-0.3,1.4-1,1.9s-1.5,0.7-2.5,0.7c-1.1,0-2-0.3-2.7-0.8s-1-1.2-1-2h1.1c0,0.6,0.3,1.1,0.8,1.4
		s1.1,0.5,1.9,0.5c0.7,0,1.3-0.2,1.8-0.5C104.5,194.1,104.6,193.6,104.6,193.1z"/>
	<path class="st0" d="M114.2,194.3c-0.6,0.9-1.6,1.4-3,1.4c-1,0-1.8-0.3-2.3-0.9s-0.8-1.5-0.8-2.6V186h1v6.1c0,1.8,0.7,2.7,2.2,2.7
		s2.5-0.6,2.9-1.9V186h1.1v9.5h-1L114.2,194.3z"/>
	<path class="st0" d="M118.9,186v1.5c0.4-0.6,0.8-1,1.3-1.3s1.1-0.4,1.8-0.4c1.5,0,2.5,0.6,2.9,1.8c0.3-0.6,0.8-1,1.4-1.4
		c0.6-0.3,1.2-0.5,1.9-0.5c2,0,3.1,1.1,3.1,3.3v6.3h-1.1V189c0-0.8-0.2-1.5-0.5-1.9s-0.9-0.6-1.8-0.6c-0.8,0-1.4,0.3-1.9,0.7
		s-0.8,1.1-0.9,1.7v6.3H124v-6.3c0-0.8-0.2-1.4-0.6-1.8c-0.4-0.4-1-0.6-1.7-0.6s-1.2,0.2-1.7,0.6c-0.5,0.4-0.8,0.9-1.1,1.7v6.5h-1.1
		v-9.5h1.1C118.9,185.8,118.9,186,118.9,186z"/>
	<path class="st0" d="M137.8,190.6c0-1.5,0.3-2.7,1-3.5s1.6-1.3,2.7-1.3c1.3,0,2.3,0.5,2.9,1.5V182h1v13.5h-1v-1.3
		c-0.7,1-1.7,1.4-3,1.4c-1.1,0-2-0.4-2.6-1.3C138.2,193.4,137.8,192.2,137.8,190.6L137.8,190.6L137.8,190.6z M138.9,190.8
		c0,1.2,0.2,2.2,0.7,2.9c0.5,0.7,1.2,1.1,2.1,1.1c1.3,0,2.2-0.6,2.8-1.7v-4.5c-0.5-1.2-1.5-1.9-2.7-1.9c-0.9,0-1.6,0.3-2.1,1
		C139.1,188.4,138.9,189.5,138.9,190.8z"/>
	<path class="st0" d="M147.7,190.6c0-0.9,0.2-1.7,0.5-2.5s0.9-1.3,1.5-1.7s1.4-0.6,2.2-0.6c1.3,0,2.3,0.4,3.1,1.3
		c0.8,0.9,1.2,2.1,1.2,3.5v0.2c0,0.9-0.2,1.7-0.5,2.5c-0.4,0.7-0.9,1.3-1.5,1.7s-1.4,0.6-2.2,0.6c-1.3,0-2.3-0.4-3.1-1.3
		s-1.2-2.1-1.2-3.5V190.6z M148.7,190.9c0,1.1,0.3,2.1,0.9,2.8c0.6,0.7,1.4,1.1,2.3,1.1c0.9,0,1.7-0.4,2.3-1.1s0.9-1.7,0.9-2.9v-0.2
		c0-0.7-0.1-1.4-0.4-2s-0.6-1.1-1.1-1.4c-0.5-0.3-1-0.5-1.7-0.5c-0.9,0-1.7,0.4-2.3,1.1s-0.9,1.7-0.9,2.9V190.9z"/>
	<path class="st0" d="M159.5,195.5h-1.1V182h1.1V195.5z"/>
	<path class="st0" d="M161.8,190.6c0-0.9,0.2-1.7,0.5-2.5s0.9-1.3,1.5-1.7s1.4-0.6,2.2-0.6c1.3,0,2.3,0.4,3.1,1.3
		c0.8,0.9,1.2,2.1,1.2,3.5v0.2c0,0.9-0.2,1.7-0.5,2.5c-0.4,0.7-0.9,1.3-1.5,1.7s-1.4,0.6-2.2,0.6c-1.3,0-2.3-0.4-3.1-1.3
		s-1.2-2.1-1.2-3.5V190.6z M162.9,190.9c0,1.1,0.3,2.1,0.9,2.8c0.6,0.7,1.4,1.1,2.3,1.1c0.9,0,1.7-0.4,2.3-1.1s0.9-1.7,0.9-2.9v-0.2
		c0-0.7-0.1-1.4-0.4-2s-0.6-1.1-1.1-1.4c-0.5-0.3-1-0.5-1.7-0.5c-0.9,0-1.7,0.4-2.3,1.1s-0.9,1.7-0.9,2.9V190.9z"/>
	<path class="st0" d="M176.9,186.9c-0.2,0-0.5-0.1-0.7-0.1c-0.7,0-1.2,0.2-1.7,0.5s-0.8,0.9-1,1.6v6.5h-1v-9.5h1v1.5
		c0.6-1.1,1.5-1.7,2.7-1.7c0.3,0,0.5,0,0.7,0.1V186.9z"/>
	<path class="st0" d="M188.6,193.1c0-0.5-0.2-0.9-0.6-1.3c-0.4-0.4-1-0.6-1.9-0.7s-1.5-0.4-2-0.6s-0.8-0.5-1-0.8s-0.3-0.7-0.3-1.2
		c0-0.8,0.3-1.4,0.9-1.9s1.4-0.7,2.4-0.7c1.1,0,1.9,0.3,2.6,0.8s1,1.2,1,2.1h-1.1c0-0.6-0.2-1-0.7-1.4s-1.1-0.6-1.8-0.6
		s-1.2,0.2-1.7,0.5c-0.4,0.3-0.6,0.7-0.6,1.2s0.2,0.8,0.5,1.1c0.3,0.3,1,0.5,1.9,0.7s1.6,0.4,2.1,0.7c0.5,0.3,0.8,0.5,1,0.9
		s0.3,0.8,0.3,1.3c0,0.8-0.3,1.4-1,1.9s-1.5,0.7-2.5,0.7c-1.1,0-2-0.3-2.7-0.8s-1-1.2-1-2h1.1c0,0.6,0.3,1.1,0.8,1.4
		s1.1,0.5,1.9,0.5c0.7,0,1.3-0.2,1.8-0.5C188.5,194.1,188.6,193.6,188.6,193.1z"/>
	<path class="st0" d="M191.9,183.2c0-0.2,0.1-0.4,0.2-0.5s0.3-0.2,0.5-0.2s0.4,0.1,0.5,0.2s0.2,0.3,0.2,0.5s-0.1,0.4-0.2,0.5
		c-0.1,0.1-0.3,0.2-0.5,0.2s-0.4-0.1-0.5-0.2C192,183.6,191.9,183.4,191.9,183.2z M193.2,195.5h-1.1V186h1.1V195.5z"/>
	<path class="st0" d="M197.7,183.5v2.4h2v0.9h-2v6.3c0,0.5,0.1,0.9,0.3,1.2c0.2,0.3,0.5,0.4,1,0.4c0.2,0,0.5,0,0.9-0.1v0.9
		c-0.3,0.1-0.7,0.1-1.1,0.1c-0.7,0-1.2-0.2-1.6-0.6c-0.3-0.4-0.5-1-0.5-1.8v-6.3H195V186h1.7v-2.4L197.7,183.5L197.7,183.5z"/>
	<path class="st0" d="M212.2,195.5c-0.1-0.3-0.2-0.7-0.2-1.3c-0.4,0.5-0.8,0.9-1.4,1.1c-0.6,0.3-1.2,0.4-1.8,0.4
		c-0.9,0-1.7-0.3-2.2-0.8s-0.8-1.2-0.8-1.9c0-0.9,0.4-1.7,1.2-2.2s1.8-0.8,3.2-0.8h1.9v-1.1c0-0.7-0.2-1.2-0.6-1.6s-1-0.6-1.8-0.6
		c-0.7,0-1.3,0.2-1.8,0.6s-0.7,0.8-0.7,1.4h-1.1c0-0.8,0.4-1.4,1.1-2c0.7-0.6,1.6-0.8,2.6-0.8c1.1,0,1.9,0.3,2.5,0.8
		s0.9,1.3,0.9,2.2v4.5c0,0.9,0.1,1.6,0.3,2.1v0.1L212.2,195.5L212.2,195.5z M208.9,194.7c0.7,0,1.3-0.2,1.9-0.5
		c0.6-0.3,1-0.8,1.2-1.4v-2.1h-1.9c-1,0-1.9,0.2-2.5,0.6s-0.9,0.9-0.9,1.5c0,0.5,0.2,1,0.6,1.3C207.7,194.4,208.3,194.7,208.9,194.7
		z"/>
	<path class="st0" d="M216.8,186v1.5c0.4-0.6,0.8-1,1.3-1.3s1.1-0.4,1.8-0.4c1.5,0,2.5,0.6,2.9,1.8c0.3-0.6,0.8-1,1.4-1.4
		c0.6-0.3,1.2-0.5,1.9-0.5c2,0,3.1,1.1,3.1,3.3v6.3h-1.1V189c0-0.8-0.2-1.5-0.5-1.9s-0.9-0.6-1.8-0.6c-0.8,0-1.4,0.3-1.9,0.7
		s-0.8,1.1-0.9,1.7v6.3h-1.1v-6.3c0-0.8-0.2-1.4-0.6-1.8c-0.4-0.4-1-0.6-1.7-0.6s-1.2,0.2-1.7,0.6c-0.5,0.4-0.8,0.9-1.1,1.7v6.5
		h-1.1v-9.5h1.1L216.8,186L216.8,186z"/>
	<path class="st0" d="M235.5,195.7c-0.8,0-1.5-0.2-2.2-0.6s-1.2-1-1.5-1.7c-0.4-0.7-0.5-1.5-0.5-2.4v-0.4c0-0.9,0.2-1.7,0.5-2.5
		s0.8-1.3,1.5-1.7s1.3-0.6,2.1-0.6c1.2,0,2.1,0.4,2.7,1.2c0.7,0.8,1,1.9,1,3.2v0.6h-6.8v0.2c0,1.1,0.3,2,0.9,2.7
		c0.6,0.7,1.4,1.1,2.3,1.1c0.6,0,1.1-0.1,1.5-0.3c0.4-0.2,0.8-0.5,1.2-1l0.7,0.5C238.1,195.1,236.9,195.7,235.5,195.7z M235.3,186.7
		c-0.8,0-1.5,0.3-2,0.9s-0.9,1.4-1,2.3h5.7v-0.1c0-0.9-0.3-1.7-0.8-2.2S236.1,186.7,235.3,186.7z"/>
	<path class="st0" d="M242.7,183.5v2.4h2v0.9h-2v6.3c0,0.5,0.1,0.9,0.3,1.2c0.2,0.3,0.5,0.4,1,0.4c0.2,0,0.5,0,0.9-0.1v0.9
		c-0.3,0.1-0.7,0.1-1.1,0.1c-0.7,0-1.2-0.2-1.6-0.6c-0.3-0.4-0.5-1-0.5-1.8v-6.3H240V186h1.7v-2.4L242.7,183.5L242.7,183.5z"/>
	<path class="st0" d="M246.7,197.9l-0.6-0.5c0.5-0.7,0.8-1.5,0.8-2.2v-1.4h1v1.1C247.9,196.1,247.5,197.1,246.7,197.9z"/>
	<path class="st0" d="M33.4,216.4c0.7,0,1.3-0.2,1.8-0.6s0.8-0.9,0.8-1.6h1c0,0.6-0.2,1.1-0.5,1.6c-0.3,0.5-0.8,0.9-1.3,1.1
		s-1.1,0.4-1.8,0.4c-1.2,0-2.2-0.4-3-1.3s-1.1-2-1.1-3.5v-0.3c0-0.9,0.2-1.8,0.5-2.5s0.8-1.3,1.4-1.7s1.3-0.6,2.1-0.6
		c1,0,1.9,0.3,2.6,0.9c0.7,0.6,1,1.4,1.1,2.5h-1c0-0.7-0.3-1.3-0.8-1.8s-1.1-0.7-1.9-0.7c-0.9,0-1.7,0.3-2.2,1s-0.8,1.6-0.8,2.9v0.3
		c0,1.2,0.3,2.2,0.8,2.8S32.4,216.4,33.4,216.4z"/>
	<path class="st0" d="M38.5,212.2c0-0.9,0.2-1.7,0.5-2.5c0.3-0.8,0.9-1.3,1.5-1.7s1.4-0.6,2.2-0.6c1.3,0,2.3,0.4,3.1,1.3
		c0.8,0.9,1.2,2.1,1.2,3.5v0.2c0,0.9-0.2,1.7-0.5,2.5c-0.4,0.7-0.9,1.3-1.5,1.7s-1.4,0.6-2.2,0.6c-1.3,0-2.3-0.4-3.1-1.3
		c-0.8-0.9-1.2-2.1-1.2-3.5V212.2z M39.6,212.5c0,1.1,0.3,2.1,0.9,2.8c0.6,0.7,1.4,1.1,2.3,1.1c0.9,0,1.7-0.4,2.3-1.1
		s0.9-1.7,0.9-2.9v-0.2c0-0.7-0.1-1.4-0.4-2s-0.6-1.1-1.1-1.4s-1-0.5-1.7-0.5c-0.9,0-1.7,0.4-2.3,1.1s-0.9,1.7-0.9,2.9V212.5z"/>
	<path class="st0" d="M50.2,207.6v1.6c0.4-0.6,0.8-1,1.3-1.3s1.1-0.5,1.8-0.5c1,0,1.8,0.3,2.3,0.9s0.8,1.4,0.8,2.6v6.2h-1v-6.2
		c0-0.8-0.2-1.5-0.5-1.9c-0.3-0.4-0.9-0.6-1.7-0.6c-0.7,0-1.2,0.2-1.7,0.6s-0.9,1-1.1,1.6v6.5h-1v-9.5H50.2L50.2,207.6z"/>
	<path class="st0" d="M64.8,214.7c0-0.5-0.2-0.9-0.6-1.3s-1.1-0.6-1.9-0.7s-1.5-0.4-2-0.6s-0.8-0.5-1-0.8s-0.3-0.7-0.3-1.2
		c0-0.8,0.3-1.4,0.9-1.9s1.4-0.7,2.4-0.7c1.1,0,1.9,0.3,2.6,0.8s1,1.2,1,2.1h-1.1c0-0.6-0.2-1-0.7-1.4s-1.1-0.6-1.8-0.6
		c-0.7,0-1.2,0.2-1.7,0.5c-0.4,0.3-0.6,0.7-0.6,1.2s0.2,0.8,0.5,1.1c0.3,0.3,1,0.5,1.9,0.7s1.6,0.4,2.1,0.7c0.5,0.3,0.8,0.5,1,0.9
		s0.3,0.8,0.3,1.3c0,0.8-0.3,1.4-1,1.9s-1.5,0.7-2.5,0.7c-1.1,0-2-0.3-2.7-0.8s-1-1.2-1-2h1c0,0.6,0.3,1.1,0.8,1.4s1.1,0.5,1.9,0.5
		c0.7,0,1.3-0.2,1.8-0.5C64.6,215.7,64.8,215.2,64.8,214.7z"/>
	<path class="st0" d="M71.9,217.3c-0.8,0-1.5-0.2-2.2-0.6s-1.2-1-1.5-1.7c-0.4-0.7-0.5-1.5-0.5-2.4v-0.4c0-0.9,0.2-1.7,0.5-2.5
		s0.8-1.3,1.5-1.7s1.3-0.6,2.1-0.6c1.2,0,2.1,0.4,2.7,1.2c0.7,0.8,1,1.9,1,3.2v0.6h-6.8v0.2c0,1.1,0.3,2,0.9,2.7s1.4,1.1,2.3,1.1
		c0.6,0,1.1-0.1,1.5-0.3c0.4-0.2,0.8-0.5,1.2-1l0.7,0.5C74.5,216.7,73.3,217.3,71.9,217.3z M71.7,208.3c-0.8,0-1.5,0.3-2,0.9
		s-0.9,1.4-1,2.3h5.7v-0.1c0-0.9-0.3-1.7-0.8-2.2S72.5,208.3,71.7,208.3z"/>
	<path class="st0" d="M79.1,205.1v2.4h2v0.9h-2v6.3c0,0.5,0.1,0.9,0.3,1.2c0.2,0.3,0.5,0.4,1,0.4c0.2,0,0.5,0,0.9-0.1v0.9
		c-0.3,0.1-0.7,0.1-1.1,0.1c-0.7,0-1.2-0.2-1.6-0.6c-0.3-0.4-0.5-1-0.5-1.8v-6.3h-1.7v-0.9h1.7v-2.4L79.1,205.1L79.1,205.1z"/>
	<path class="st0" d="M87,217.3c-0.8,0-1.5-0.2-2.2-0.6s-1.2-1-1.5-1.7c-0.4-0.7-0.5-1.5-0.5-2.4v-0.4c0-0.9,0.2-1.7,0.5-2.5
		s0.8-1.3,1.5-1.7s1.3-0.6,2.1-0.6c1.2,0,2.1,0.4,2.7,1.2c0.7,0.8,1,1.9,1,3.2v0.6h-6.8v0.2c0,1.1,0.3,2,0.9,2.7s1.4,1.1,2.3,1.1
		c0.6,0,1.1-0.1,1.5-0.3c0.4-0.2,0.8-0.5,1.2-1l0.7,0.5C89.5,216.7,88.4,217.3,87,217.3z M86.8,208.3c-0.8,0-1.5,0.3-2,0.9
		s-0.9,1.4-1,2.3h5.7v-0.1c0-0.9-0.3-1.7-0.8-2.2S87.6,208.3,86.8,208.3z"/>
	<path class="st0" d="M94.2,205.1v2.4h2v0.9h-2v6.3c0,0.5,0.1,0.9,0.3,1.2c0.2,0.3,0.5,0.4,1,0.4c0.2,0,0.5,0,0.9-0.1v0.9
		c-0.3,0.1-0.7,0.1-1.1,0.1c-0.7,0-1.2-0.2-1.6-0.6c-0.3-0.4-0.5-1-0.5-1.8v-6.3h-1.7v-0.9h1.7v-2.4L94.2,205.1L94.2,205.1z"/>
	<path class="st0" d="M104.5,215.9c-0.6,0.9-1.6,1.4-3,1.4c-1,0-1.8-0.3-2.3-0.9s-0.8-1.5-0.8-2.6v-6.2h1v6.1c0,1.8,0.7,2.7,2.2,2.7
		s2.5-0.6,2.9-1.9v-6.9h1.1v9.5h-1L104.5,215.9z"/>
	<path class="st0" d="M112.6,208.5c-0.2,0-0.5-0.1-0.7-0.1c-0.7,0-1.2,0.2-1.7,0.5s-0.8,0.9-1,1.6v6.5h-1v-9.5h1v1.5
		c0.6-1.1,1.5-1.7,2.7-1.7c0.3,0,0.5,0,0.7,0.1V208.5z"/>
	<path class="st0" d="M124.4,214.7c0-0.5-0.2-0.9-0.6-1.3c-0.4-0.4-1.1-0.6-1.9-0.7c-0.8-0.1-1.5-0.4-2-0.6s-0.8-0.5-1-0.8
		s-0.3-0.7-0.3-1.2c0-0.8,0.3-1.4,0.9-1.9s1.4-0.7,2.4-0.7c1.1,0,1.9,0.3,2.6,0.8s1,1.2,1,2.1h-1.1c0-0.6-0.2-1-0.7-1.4
		s-1.1-0.6-1.8-0.6s-1.2,0.2-1.7,0.5c-0.4,0.3-0.6,0.7-0.6,1.2s0.2,0.8,0.5,1.1c0.3,0.3,1,0.5,1.9,0.7c0.9,0.2,1.6,0.4,2.1,0.7
		c0.5,0.3,0.8,0.5,1,0.9s0.3,0.8,0.3,1.3c0,0.8-0.3,1.4-1,1.9s-1.5,0.7-2.5,0.7c-1.1,0-2-0.3-2.7-0.8s-1-1.2-1-2h1.1
		c0,0.6,0.3,1.1,0.8,1.4c0.5,0.3,1.1,0.5,1.9,0.5c0.7,0,1.3-0.2,1.8-0.5C124.3,215.7,124.4,215.2,124.4,214.7z"/>
	<path class="st0" d="M133.8,217.1c-0.1-0.3-0.2-0.7-0.2-1.3c-0.4,0.5-0.8,0.9-1.4,1.1c-0.6,0.3-1.2,0.4-1.8,0.4
		c-0.9,0-1.7-0.3-2.2-0.8s-0.8-1.2-0.8-1.9c0-0.9,0.4-1.7,1.2-2.2s1.8-0.8,3.2-0.8h1.9v-1.1c0-0.7-0.2-1.2-0.6-1.6
		c-0.4-0.4-1-0.6-1.8-0.6c-0.7,0-1.3,0.2-1.8,0.6s-0.7,0.8-0.7,1.4h-1.1c0-0.8,0.4-1.4,1.1-2c0.7-0.6,1.6-0.8,2.6-0.8
		c1.1,0,1.9,0.3,2.5,0.8s0.9,1.3,0.9,2.2v4.5c0,0.9,0.1,1.6,0.3,2.1v0.1L133.8,217.1L133.8,217.1z M130.5,216.3
		c0.7,0,1.3-0.2,1.9-0.5c0.6-0.3,1-0.8,1.2-1.4v-2.1h-1.9c-1,0-1.9,0.2-2.5,0.6s-0.9,0.9-0.9,1.5c0,0.5,0.2,1,0.6,1.3
		C129.3,216,129.9,216.3,130.5,216.3z"/>
	<path class="st0" d="M137,212.2c0-1.5,0.3-2.7,1-3.5s1.6-1.3,2.7-1.3c1.3,0,2.3,0.5,2.9,1.5v-5.3h1v13.5h-1v-1.3
		c-0.7,1-1.7,1.4-3,1.4c-1.1,0-2-0.4-2.6-1.3C137.4,215,137,213.8,137,212.2L137,212.2L137,212.2z M138.1,212.4
		c0,1.2,0.2,2.2,0.7,2.9c0.5,0.7,1.2,1.1,2.1,1.1c1.3,0,2.2-0.6,2.8-1.7v-4.5c-0.5-1.2-1.5-1.9-2.7-1.9c-0.9,0-1.6,0.3-2.1,1
		C138.3,210,138.1,211.1,138.1,212.4z"/>
	<path class="st0" d="M147.4,204.8c0-0.2,0.1-0.4,0.2-0.5s0.3-0.2,0.5-0.2s0.4,0.1,0.5,0.2s0.2,0.3,0.2,0.5s-0.1,0.4-0.2,0.5
		c-0.1,0.1-0.3,0.2-0.5,0.2s-0.4-0.1-0.5-0.2C147.4,205.2,147.4,205,147.4,204.8z M148.6,217.1h-1v-9.5h1.1v9.5H148.6z"/>
	<path class="st0" d="M159.1,212.4c0,1.5-0.3,2.7-1,3.5c-0.7,0.9-1.5,1.3-2.6,1.3c-1.3,0-2.3-0.5-3-1.4v4.9h-1v-13.2h1l0.1,1.3
		c0.7-1,1.7-1.5,3-1.5c1.1,0,2,0.4,2.7,1.3s1,2.1,1,3.6v0.2L159.1,212.4L159.1,212.4z M158.1,212.2c0-1.2-0.2-2.2-0.7-2.9
		c-0.5-0.7-1.2-1.1-2.1-1.1c-0.6,0-1.2,0.2-1.7,0.5s-0.8,0.8-1.1,1.4v4.6c0.3,0.5,0.6,1,1.1,1.2s1,0.4,1.7,0.4
		c0.9,0,1.6-0.4,2.1-1.1C157.8,214.6,158.1,213.6,158.1,212.2z"/>
	<path class="st0" d="M167.1,214.7c0-0.5-0.2-0.9-0.6-1.3c-0.4-0.4-1.1-0.6-1.9-0.7c-0.8-0.1-1.5-0.4-2-0.6s-0.8-0.5-1-0.8
		s-0.3-0.7-0.3-1.2c0-0.8,0.3-1.4,0.9-1.9s1.4-0.7,2.4-0.7c1.1,0,1.9,0.3,2.6,0.8s1,1.2,1,2.1h-1.1c0-0.6-0.2-1-0.7-1.4
		s-1.1-0.6-1.8-0.6s-1.2,0.2-1.7,0.5c-0.4,0.3-0.6,0.7-0.6,1.2s0.2,0.8,0.5,1.1c0.3,0.3,1,0.5,1.9,0.7s1.6,0.4,2.1,0.7
		c0.5,0.3,0.8,0.5,1,0.9s0.3,0.8,0.3,1.3c0,0.8-0.3,1.4-1,1.9s-1.5,0.7-2.5,0.7c-1.1,0-2-0.3-2.7-0.8s-1-1.2-1-2h1.1
		c0,0.6,0.3,1.1,0.8,1.4s1.1,0.5,1.9,0.5c0.7,0,1.3-0.2,1.8-0.5C167,215.7,167.1,215.2,167.1,214.7z"/>
	<path class="st0" d="M174.1,216.4c0.7,0,1.3-0.2,1.8-0.6s0.8-0.9,0.8-1.6h1c0,0.6-0.2,1.1-0.5,1.6s-0.8,0.9-1.3,1.1
		s-1.1,0.4-1.8,0.4c-1.2,0-2.2-0.4-3-1.3s-1.1-2-1.1-3.5v-0.3c0-0.9,0.2-1.8,0.5-2.5s0.8-1.3,1.4-1.7s1.3-0.6,2.1-0.6
		c1,0,1.9,0.3,2.6,0.9c0.7,0.6,1,1.4,1.1,2.5h-1c0-0.7-0.3-1.3-0.8-1.8s-1.1-0.7-1.9-0.7c-0.9,0-1.7,0.3-2.2,1s-0.8,1.6-0.8,2.9v0.3
		c0,1.2,0.3,2.2,0.8,2.8S173.1,216.4,174.1,216.4z"/>
	<path class="st0" d="M179.8,204.8c0-0.2,0.1-0.4,0.2-0.5s0.3-0.2,0.5-0.2s0.4,0.1,0.5,0.2s0.2,0.3,0.2,0.5s-0.1,0.4-0.2,0.5
		c-0.1,0.1-0.3,0.2-0.5,0.2s-0.4-0.1-0.5-0.2C179.8,205.2,179.8,205,179.8,204.8z M181,217.1h-1.1v-9.5h1.1V217.1z"/>
	<path class="st0" d="M184.9,207.6v1.6c0.4-0.6,0.8-1,1.3-1.3s1.1-0.5,1.8-0.5c1,0,1.8,0.3,2.3,0.9s0.8,1.4,0.8,2.6v6.2h-1v-6.2
		c0-0.8-0.2-1.5-0.5-1.9s-0.9-0.6-1.7-0.6c-0.7,0-1.2,0.2-1.7,0.6s-0.9,1-1.1,1.6v6.5h-1v-9.5H184.9L184.9,207.6z"/>
	<path class="st0" d="M193.3,212.2c0-1.5,0.3-2.7,1-3.5c0.7-0.9,1.6-1.3,2.7-1.3c1.3,0,2.3,0.5,3,1.5l0.1-1.4h1v9.3
		c0,1.2-0.3,2.2-1,2.9c-0.7,0.7-1.6,1.1-2.8,1.1c-0.7,0-1.3-0.1-1.9-0.4s-1.1-0.7-1.4-1.2l0.6-0.6c0.7,0.9,1.6,1.4,2.7,1.4
		c0.9,0,1.6-0.3,2.1-0.8s0.7-1.2,0.8-2.2v-1.1c-0.7,0.9-1.7,1.4-2.9,1.4c-1.1,0-2-0.4-2.7-1.3s-1-2.1-1-3.6v-0.2H193.3L193.3,212.2z
		 M194.4,212.4c0,1.2,0.2,2.2,0.7,2.9c0.5,0.7,1.2,1.1,2.1,1.1c1.3,0,2.2-0.6,2.8-1.7v-4.4c-0.2-0.6-0.6-1.1-1.1-1.4s-1-0.5-1.7-0.5
		c-0.9,0-1.6,0.3-2.1,1C194.6,210,194.4,211.1,194.4,212.4z"/>
	<path class="st0" d="M211.8,217.3c-0.8,0-1.5-0.2-2.2-0.6s-1.2-1-1.5-1.7c-0.4-0.7-0.5-1.5-0.5-2.4v-0.4c0-0.9,0.2-1.7,0.5-2.5
		s0.8-1.3,1.5-1.7s1.3-0.6,2.1-0.6c1.2,0,2.1,0.4,2.7,1.2c0.7,0.8,1,1.9,1,3.2v0.6h-6.8v0.2c0,1.1,0.3,2,0.9,2.7
		c0.6,0.7,1.4,1.1,2.3,1.1c0.6,0,1.1-0.1,1.5-0.3c0.4-0.2,0.8-0.5,1.2-1l0.7,0.5C214.4,216.7,213.3,217.3,211.8,217.3z M211.6,208.3
		c-0.8,0-1.5,0.3-2,0.9s-0.9,1.4-1,2.3h5.7v-0.1c0-0.9-0.3-1.7-0.8-2.2S212.4,208.3,211.6,208.3z"/>
	<path class="st0" d="M218.6,217.1h-1.1v-13.5h1.1V217.1z"/>
	<path class="st0" d="M221.4,204.8c0-0.2,0.1-0.4,0.2-0.5s0.3-0.2,0.5-0.2s0.4,0.1,0.5,0.2s0.2,0.3,0.2,0.5s-0.1,0.4-0.2,0.5
		c-0.1,0.1-0.3,0.2-0.5,0.2s-0.4-0.1-0.5-0.2S221.4,205,221.4,204.8z M222.6,217.1h-1v-9.5h1.1v9.5H222.6z"/>
	<path class="st0" d="M227.1,205.1v2.4h2v0.9h-2v6.3c0,0.5,0.1,0.9,0.3,1.2c0.2,0.3,0.5,0.4,1,0.4c0.2,0,0.5,0,0.9-0.1v0.9
		c-0.3,0.1-0.7,0.1-1.1,0.1c-0.7,0-1.2-0.2-1.6-0.6c-0.3-0.4-0.5-1-0.5-1.8v-6.3h-1.7v-0.9h1.7v-2.4L227.1,205.1L227.1,205.1z"/>
	<path class="st0" d="M235.7,208.5c-0.2,0-0.5-0.1-0.7-0.1c-0.7,0-1.2,0.2-1.7,0.5s-0.8,0.9-1,1.6v6.5h-1v-9.5h1v1.5
		c0.6-1.1,1.5-1.7,2.7-1.7c0.3,0,0.5,0,0.7,0.1V208.5z"/>
	<path class="st0" d="M236,219.5l-0.6-0.5c0.5-0.7,0.8-1.5,0.8-2.2v-1.4h1v1.1C237.3,217.7,236.8,218.7,236,219.5z"/>
	<path class="st0" d="M249.8,214.7c0-0.5-0.2-0.9-0.6-1.3s-1-0.6-1.9-0.7s-1.5-0.4-2-0.6s-0.8-0.5-1-0.8s-0.3-0.7-0.3-1.2
		c0-0.8,0.3-1.4,0.9-1.9s1.4-0.7,2.4-0.7c1.1,0,1.9,0.3,2.6,0.8s1,1.2,1,2.1h-1.1c0-0.6-0.2-1-0.7-1.4s-1.1-0.6-1.8-0.6
		s-1.2,0.2-1.7,0.5c-0.4,0.3-0.6,0.7-0.6,1.2s0.2,0.8,0.5,1.1c0.3,0.3,1,0.5,1.9,0.7s1.6,0.4,2.1,0.7c0.5,0.3,0.8,0.5,1,0.9
		s0.3,0.8,0.3,1.3c0,0.8-0.3,1.4-1,1.9s-1.5,0.7-2.5,0.7c-1.1,0-2-0.3-2.7-0.8s-1-1.2-1-2h1.1c0,0.6,0.3,1.1,0.8,1.4
		s1.1,0.5,1.9,0.5c0.7,0,1.3-0.2,1.8-0.5C249.7,215.7,249.8,215.2,249.8,214.7z"/>
	<path class="st0" d="M256.9,217.3c-0.8,0-1.5-0.2-2.2-0.6s-1.2-1-1.5-1.7c-0.4-0.7-0.5-1.5-0.5-2.4v-0.4c0-0.9,0.2-1.7,0.5-2.5
		s0.8-1.3,1.5-1.7s1.3-0.6,2.1-0.6c1.2,0,2.1,0.4,2.7,1.2c0.7,0.8,1,1.9,1,3.2v0.6h-6.9v0.2c0,1.1,0.3,2,0.9,2.7s1.4,1.1,2.3,1.1
		c0.6,0,1.1-0.1,1.5-0.3c0.4-0.2,0.8-0.5,1.2-1l0.7,0.5C259.5,216.7,258.3,217.3,256.9,217.3z M256.7,208.3c-0.8,0-1.5,0.3-2,0.9
		s-0.9,1.4-1,2.3h5.7v-0.1c0-0.9-0.3-1.7-0.8-2.2S257.5,208.3,256.7,208.3z"/>
	<path class="st0" d="M262.1,212.2c0-1.5,0.3-2.7,1-3.5s1.6-1.3,2.7-1.3c1.3,0,2.3,0.5,2.9,1.5v-5.3h1v13.5h-1v-1.3
		c-0.7,1-1.7,1.4-3,1.4c-1.1,0-2-0.4-2.7-1.3s-1-2.1-1-3.6v-0.1L262.1,212.2L262.1,212.2z M263.1,212.4c0,1.2,0.2,2.2,0.7,2.9
		c0.5,0.7,1.2,1.1,2.1,1.1c1.3,0,2.2-0.6,2.8-1.7v-4.5c-0.5-1.2-1.5-1.9-2.7-1.9c-0.9,0-1.6,0.3-2.1,1S263.1,211.1,263.1,212.4z"/>
	<path class="st0" d="M29.4,233.8c0-1.5,0.3-2.7,1-3.5s1.6-1.3,2.7-1.3c1.3,0,2.3,0.5,2.9,1.5v-5.3h1v13.5h-1v-1.3
		c-0.7,1-1.7,1.4-3,1.4c-1.1,0-2-0.4-2.6-1.3C29.8,236.6,29.4,235.4,29.4,233.8C29.4,233.9,29.4,233.8,29.4,233.8z M30.5,234
		c0,1.2,0.2,2.2,0.7,2.9c0.5,0.7,1.2,1.1,2.1,1.1c1.3,0,2.2-0.6,2.8-1.7v-4.5c-0.5-1.2-1.5-1.9-2.7-1.9c-0.9,0-1.6,0.3-2.1,1
		C30.7,231.6,30.5,232.7,30.5,234z"/>
	<path class="st0" d="M39.8,226.4c0-0.2,0.1-0.4,0.2-0.5c0.1-0.1,0.3-0.2,0.5-0.2c0.2,0,0.4,0.1,0.5,0.2s0.2,0.3,0.2,0.5
		s-0.1,0.4-0.2,0.5s-0.3,0.2-0.5,0.2c-0.2,0-0.4-0.1-0.5-0.2C39.8,226.8,39.8,226.6,39.8,226.4z M41,238.7h-1.1v-9.5H41V238.7z"/>
	<path class="st0" d="M49.9,238.7c-0.1-0.3-0.2-0.7-0.2-1.3c-0.4,0.5-0.8,0.9-1.4,1.1c-0.6,0.3-1.2,0.4-1.8,0.4
		c-0.9,0-1.7-0.3-2.2-0.8s-0.8-1.2-0.8-1.9c0-0.9,0.4-1.7,1.2-2.2c0.8-0.5,1.8-0.8,3.2-0.8h1.9v-1.1c0-0.7-0.2-1.2-0.6-1.6
		s-1-0.6-1.8-0.6c-0.7,0-1.3,0.2-1.8,0.6s-0.7,0.8-0.7,1.4h-1.1c0-0.8,0.4-1.4,1.1-2s1.6-0.8,2.6-0.8c1.1,0,1.9,0.3,2.5,0.8
		s0.9,1.3,0.9,2.2v4.5c0,0.9,0.1,1.6,0.3,2.1v0.1L49.9,238.7L49.9,238.7z M46.6,237.9c0.7,0,1.3-0.2,1.9-0.5c0.6-0.3,1-0.8,1.2-1.4
		v-2.1h-1.9c-1,0-1.9,0.2-2.5,0.6s-0.9,0.9-0.9,1.5c0,0.5,0.2,1,0.6,1.3C45.4,237.6,45.9,237.9,46.6,237.9z"/>
	<path class="st0" d="M54.5,229.2v1.5c0.4-0.6,0.8-1,1.3-1.3s1.1-0.4,1.8-0.4c1.5,0,2.5,0.6,2.9,1.8c0.3-0.6,0.8-1,1.4-1.4
		c0.6-0.3,1.2-0.5,1.9-0.5c2,0,3.1,1.1,3.1,3.3v6.3h-1.1v-6.3c0-0.8-0.2-1.5-0.5-1.9s-0.9-0.6-1.8-0.6c-0.8,0-1.4,0.3-1.9,0.7
		s-0.8,1.1-0.9,1.7v6.3h-1.1v-6.3c0-0.8-0.2-1.4-0.6-1.8s-1-0.6-1.7-0.6s-1.2,0.2-1.7,0.6s-0.8,0.9-1.1,1.7v6.5h-1.1V229h1.1
		C54.5,229,54.5,229.2,54.5,229.2z"/>
	<path class="st0" d="M74.8,229.2v1.6c0.4-0.6,0.8-1,1.3-1.3s1.1-0.5,1.8-0.5c1,0,1.8,0.3,2.3,0.9s0.8,1.4,0.8,2.6v6.2h-1v-6.2
		c0-0.8-0.2-1.5-0.5-1.9s-0.9-0.6-1.7-0.6c-0.7,0-1.2,0.2-1.7,0.6s-0.9,1-1.1,1.6v6.5h-1v-9.5L74.8,229.2L74.8,229.2z"/>
	<path class="st0" d="M83.2,233.8c0-0.9,0.2-1.7,0.5-2.5s0.9-1.3,1.5-1.7s1.4-0.6,2.2-0.6c1.3,0,2.3,0.4,3.1,1.3
		c0.8,0.9,1.2,2.1,1.2,3.5v0.2c0,0.9-0.2,1.7-0.5,2.5c-0.4,0.7-0.9,1.3-1.5,1.7s-1.4,0.6-2.2,0.6c-1.3,0-2.3-0.4-3.1-1.3
		c-0.8-0.9-1.2-2.1-1.2-3.5V233.8z M84.2,234.1c0,1.1,0.3,2.1,0.9,2.8c0.6,0.7,1.4,1.1,2.3,1.1s1.7-0.4,2.3-1.1
		c0.6-0.7,0.9-1.7,0.9-2.9v-0.2c0-0.7-0.1-1.4-0.4-2s-0.6-1.1-1.1-1.4s-1-0.5-1.7-0.5c-0.9,0-1.7,0.4-2.3,1.1s-0.9,1.7-0.9,2.9
		C84.2,233.9,84.2,234.1,84.2,234.1z"/>
	<path class="st0" d="M94.8,229.2v1.6c0.4-0.6,0.8-1,1.3-1.3s1.1-0.5,1.8-0.5c1,0,1.8,0.3,2.3,0.9s0.8,1.4,0.8,2.6v6.2h-1v-6.2
		c0-0.8-0.2-1.5-0.5-1.9s-0.9-0.6-1.7-0.6c-0.7,0-1.2,0.2-1.7,0.6s-0.9,1-1.1,1.6v6.5h-1v-9.5L94.8,229.2L94.8,229.2z"/>
	<path class="st0" d="M109.8,237.5c-0.6,0.9-1.6,1.4-3,1.4c-1,0-1.8-0.3-2.3-0.9s-0.8-1.5-0.8-2.6v-6.2h1v6.1c0,1.8,0.7,2.7,2.2,2.7
		s2.5-0.6,2.9-1.9v-6.9h1.1v9.5h-1L109.8,237.5z"/>
	<path class="st0" d="M114.5,229.2v1.5c0.4-0.6,0.8-1,1.3-1.3s1.1-0.4,1.8-0.4c1.5,0,2.5,0.6,2.9,1.8c0.3-0.6,0.8-1,1.4-1.4
		c0.6-0.3,1.2-0.5,1.9-0.5c2,0,3.1,1.1,3.1,3.3v6.3h-1.1v-6.3c0-0.8-0.2-1.5-0.5-1.9s-0.9-0.6-1.8-0.6c-0.8,0-1.4,0.3-1.9,0.7
		s-0.8,1.1-0.9,1.7v6.3h-1.1v-6.3c0-0.8-0.2-1.4-0.6-1.8s-1-0.6-1.7-0.6s-1.2,0.2-1.7,0.6s-0.8,0.9-1.1,1.7v6.5h-1.1V229h1.1
		C114.5,229,114.5,229.2,114.5,229.2z"/>
	<path class="st0" d="M132.6,237.2l2.8-8h1.1l-4.1,11.1l-0.2,0.5c-0.5,1.2-1.3,1.7-2.4,1.7c-0.3,0-0.5,0-0.8-0.1v-0.9l0.5,0.1
		c0.5,0,0.9-0.1,1.3-0.4c0.3-0.3,0.6-0.7,0.8-1.3l0.5-1.3l-3.6-9.4h1.2L132.6,237.2z"/>
	<path class="st0" d="M146.2,238.9c-0.8,0-1.5-0.2-2.2-0.6s-1.2-1-1.5-1.7c-0.4-0.7-0.5-1.5-0.5-2.4v-0.4c0-0.9,0.2-1.7,0.5-2.5
		s0.8-1.3,1.5-1.7s1.3-0.6,2.1-0.6c1.2,0,2.1,0.4,2.7,1.2c0.7,0.8,1,1.9,1,3.2v0.6H143v0.2c0,1.1,0.3,2,0.9,2.7
		c0.6,0.7,1.4,1.1,2.3,1.1c0.6,0,1.1-0.1,1.5-0.3c0.4-0.2,0.8-0.5,1.2-1l0.7,0.5C148.7,238.3,147.6,238.9,146.2,238.9z M146,229.9
		c-0.8,0-1.5,0.3-2,0.9s-0.9,1.4-1,2.3h5.7V233c0-0.9-0.3-1.7-0.8-2.2S146.8,229.9,146,229.9z"/>
	<path class="st0" d="M151.7,226.4c0-0.2,0.1-0.4,0.2-0.5s0.3-0.2,0.5-0.2s0.4,0.1,0.5,0.2s0.2,0.3,0.2,0.5s-0.1,0.4-0.2,0.5
		c-0.1,0.1-0.3,0.2-0.5,0.2s-0.4-0.1-0.5-0.2S151.7,226.6,151.7,226.4z M152.9,238.7h-1.1v-9.5h1.1V238.7z"/>
	<path class="st0" d="M160.2,230.1c-0.2,0-0.5-0.1-0.7-0.1c-0.7,0-1.2,0.2-1.7,0.5s-0.8,0.9-1,1.6v6.5h-1v-9.5h1v1.5
		c0.6-1.1,1.5-1.7,2.7-1.7c0.3,0,0.5,0,0.7,0.1V230.1z"/>
	<path class="st0" d="M162.8,229.2v1.5c0.4-0.6,0.8-1,1.3-1.3s1.1-0.4,1.8-0.4c1.5,0,2.5,0.6,2.9,1.8c0.3-0.6,0.8-1,1.4-1.4
		c0.6-0.3,1.2-0.5,1.9-0.5c2,0,3.1,1.1,3.1,3.3v6.3h-1.1v-6.3c0-0.8-0.2-1.5-0.5-1.9s-0.9-0.6-1.8-0.6c-0.8,0-1.4,0.3-1.9,0.7
		s-0.8,1.1-0.9,1.7v6.3h-1.1v-6.3c0-0.8-0.2-1.4-0.6-1.8c-0.4-0.4-1-0.6-1.7-0.6s-1.2,0.2-1.7,0.6s-0.8,0.9-1.1,1.7v6.5h-1.1V229
		h1.1L162.8,229.2L162.8,229.2z"/>
	<path class="st0" d="M177.2,233.8c0-0.9,0.2-1.7,0.5-2.5s0.9-1.3,1.5-1.7s1.4-0.6,2.2-0.6c1.3,0,2.3,0.4,3.1,1.3s1.2,2.1,1.2,3.5
		v0.2c0,0.9-0.2,1.7-0.5,2.5c-0.4,0.7-0.9,1.3-1.5,1.7s-1.4,0.6-2.2,0.6c-1.3,0-2.3-0.4-3.1-1.3s-1.2-2.1-1.2-3.5V233.8z
		 M178.3,234.1c0,1.1,0.3,2.1,0.9,2.8c0.6,0.7,1.4,1.1,2.3,1.1c0.9,0,1.7-0.4,2.3-1.1s0.9-1.7,0.9-2.9v-0.2c0-0.7-0.1-1.4-0.4-2
		s-0.6-1.1-1.1-1.4s-1-0.5-1.7-0.5c-0.9,0-1.7,0.4-2.3,1.1s-0.9,1.7-0.9,2.9V234.1z"/>
	<path class="st0" d="M187.5,233.8c0-1.5,0.3-2.7,1-3.5s1.6-1.3,2.7-1.3c1.3,0,2.3,0.5,2.9,1.5v-5.3h1v13.5h-1v-1.3
		c-0.7,1-1.7,1.4-3,1.4c-1.1,0-2-0.4-2.7-1.3s-1-2.1-1-3.6v-0.1L187.5,233.8L187.5,233.8z M188.5,234c0,1.2,0.2,2.2,0.7,2.9
		c0.5,0.7,1.2,1.1,2.1,1.1c1.3,0,2.2-0.6,2.8-1.7v-4.5c-0.5-1.2-1.5-1.9-2.7-1.9c-0.9,0-1.6,0.3-2.1,1S188.5,232.7,188.5,234z"/>
	<path class="st0" d="M203.9,226.7v2.4h2v0.9h-2v6.3c0,0.5,0.1,0.9,0.3,1.2c0.2,0.3,0.5,0.4,1,0.4c0.2,0,0.5,0,0.9-0.1v0.9
		c-0.3,0.1-0.7,0.1-1.1,0.1c-0.7,0-1.2-0.2-1.6-0.6c-0.3-0.4-0.5-1-0.5-1.8v-6.3h-1.7v-0.9h1.7v-2.4L203.9,226.7L203.9,226.7z"/>
	<path class="st0" d="M211.7,238.9c-0.8,0-1.5-0.2-2.2-0.6s-1.2-1-1.5-1.7c-0.4-0.7-0.5-1.5-0.5-2.4v-0.4c0-0.9,0.2-1.7,0.5-2.5
		s0.8-1.3,1.5-1.7s1.3-0.6,2.1-0.6c1.2,0,2.1,0.4,2.7,1.2c0.7,0.8,1,1.9,1,3.2v0.6h-6.8v0.2c0,1.1,0.3,2,0.9,2.7
		c0.6,0.7,1.4,1.1,2.3,1.1c0.6,0,1.1-0.1,1.5-0.3c0.4-0.2,0.8-0.5,1.2-1l0.7,0.5C214.3,238.3,213.2,238.9,211.7,238.9z M211.5,229.9
		c-0.8,0-1.5,0.3-2,0.9s-0.9,1.4-1,2.3h5.7V233c0-0.9-0.3-1.7-0.8-2.2S212.3,229.9,211.5,229.9z"/>
	<path class="st0" d="M218.3,229.2v1.5c0.4-0.6,0.8-1,1.3-1.3s1.1-0.4,1.8-0.4c1.5,0,2.5,0.6,2.9,1.8c0.3-0.6,0.8-1,1.4-1.4
		c0.6-0.3,1.2-0.5,1.9-0.5c2,0,3.1,1.1,3.1,3.3v6.3h-1.1v-6.3c0-0.8-0.2-1.5-0.5-1.9s-0.9-0.6-1.8-0.6c-0.8,0-1.4,0.3-1.9,0.7
		s-0.8,1.1-0.9,1.7v6.3h-1.1v-6.3c0-0.8-0.2-1.4-0.6-1.8c-0.4-0.4-1-0.6-1.7-0.6s-1.2,0.2-1.7,0.6s-0.8,0.9-1.1,1.7v6.5h-1.1V229
		h1.1V229.2z"/>
	<path class="st0" d="M241,234c0,1.5-0.3,2.7-1,3.5c-0.7,0.9-1.5,1.3-2.6,1.3c-1.3,0-2.3-0.5-3-1.4v4.9h-1v-13.2h1l0.1,1.3
		c0.7-1,1.7-1.5,3-1.5c1.1,0,2,0.4,2.7,1.3s1,2.1,1,3.6v0.2L241,234L241,234z M239.9,233.8c0-1.2-0.2-2.2-0.7-2.9
		c-0.5-0.7-1.2-1.1-2.1-1.1c-0.6,0-1.2,0.2-1.7,0.5s-0.8,0.8-1.1,1.4v4.6c0.3,0.5,0.6,1,1.1,1.2s1,0.4,1.7,0.4
		c0.9,0,1.6-0.4,2.1-1.1C239.6,236.2,239.9,235.2,239.9,233.8z"/>
	<path class="st0" d="M242.7,233.8c0-0.9,0.2-1.7,0.5-2.5s0.9-1.3,1.5-1.7s1.4-0.6,2.2-0.6c1.3,0,2.3,0.4,3.1,1.3s1.2,2.1,1.2,3.5
		v0.2c0,0.9-0.2,1.7-0.5,2.5c-0.4,0.7-0.9,1.3-1.5,1.7s-1.4,0.6-2.2,0.6c-1.3,0-2.3-0.4-3.1-1.3s-1.2-2.1-1.2-3.5V233.8z
		 M243.8,234.1c0,1.1,0.3,2.1,0.9,2.8c0.6,0.7,1.4,1.1,2.3,1.1c0.9,0,1.7-0.4,2.3-1.1c0.6-0.7,0.9-1.7,0.9-2.9v-0.2
		c0-0.7-0.1-1.4-0.4-2s-0.6-1.1-1.1-1.4s-1-0.5-1.7-0.5c-0.9,0-1.7,0.4-2.3,1.1s-0.9,1.7-0.9,2.9L243.8,234.1L243.8,234.1z"/>
	<path class="st0" d="M257.8,230.1c-0.2,0-0.5-0.1-0.7-0.1c-0.7,0-1.2,0.2-1.7,0.5s-0.8,0.9-1,1.6v6.5h-1v-9.5h1v1.5
		c0.6-1.1,1.5-1.7,2.7-1.7c0.3,0,0.5,0,0.7,0.1V230.1z"/>
	<path class="st0" d="M258.2,238.1c0-0.2,0.1-0.4,0.2-0.5s0.3-0.2,0.5-0.2s0.4,0.1,0.6,0.2c0.1,0.1,0.2,0.3,0.2,0.5
		s-0.1,0.4-0.2,0.5s-0.3,0.2-0.6,0.2s-0.4-0.1-0.5-0.2C258.3,238.4,258.2,238.3,258.2,238.1z"/>
</g>
</svg>
