<?xml version="1.0" encoding="utf-8"?>
<!-- Generator: Adobe Illustrator 22.1.0, SVG Export Plug-In . SVG Version: 6.00 Build 0)  -->
<svg version="1.1" id="Ebene_1" xmlns="http://www.w3.org/2000/svg" xmlns:xlink="http://www.w3.org/1999/xlink" x="0px" y="0px"
	 viewBox="0 0 1440 617" style="enable-background:new 0 0 1440 617;" xml:space="preserve">
<style type="text/css">
	.st0{fill:#6851FF;}
	.st1{opacity:0.3;}
	.st2{fill:#FFFFFF;}
</style>
<g id="Layer_1">
	<rect class="st0" width="1440" height="617"/>
</g>
<g id="Layer_2">
	<g class="st1">
		<path class="st2" d="M762.9,450.4h6.3c42.4,0,56.9-31.6,56.9-75.9h120.1v5.7c0,127.1-62.6,173.9-183.4,173.9
			c-132.8,0-191-72.1-191-242.8V286c0-170.7,58.2-242.8,191-242.8c120.8,0,183.4,46.8,183.4,173.9v24.7H826.2
			c0-56.9-9.5-94.9-56.9-94.9h-6.3c-60.1,0-68.9,53.8-68.9,139.1v25.3C694,396.6,702.9,450.4,762.9,450.4z"/>
	</g>
	<g class="st1">
		<path class="st2" d="M761,464.9h5.7c50,0,68.3-34.8,68.3-87.9h102.4v5.7c0,121.4-59.4,170.7-176.4,170.7
			c-128.4,0-185.3-71.5-185.3-242.2V286c0-170.7,56.9-242.2,185.3-242.2c117,0,176.4,49.3,176.4,172.6v22.8H835
			c0-67.7-14.5-106.9-68.3-106.9H761c-65.8,0-81.6,55-81.6,153.7v25.3C679.5,409.9,695.3,464.9,761,464.9z"/>
	</g>
	<g class="st1">
		<path class="st2" d="M758.5,479.5h5.7c57.5,0,79.7-38.6,79.7-100.5h85.4v6.3c0,116.4-56.9,168.2-170.1,168.2
			c-123.3,0-180.2-71.5-180.2-242.2V286c0-170.7,56.9-242.2,180.2-242.2c113.2,0,170.1,51.9,170.1,172v21.5h-85.4
			c0-78.4-19.6-119.5-79.7-119.5h-5.7c-70.2,0-93,56.9-93,168.2v25.3C665.6,422.6,687.7,479.5,758.5,479.5z"/>
	</g>
	<g class="st1">
		<path class="st2" d="M756.6,494.7h4.4c65.8,0,92.3-41.7,92.3-113.2h66.4v6.3c0,110.7-53.8,165-163.2,165
			c-118.3,0-173.9-70.8-173.9-241.6V286c0-170.7,55.6-241.6,173.9-241.6c109.4,0,163.2,54.4,163.2,170.7v19.6h-66.4
			c0-89.8-25.3-132.2-92.3-132.2h-4.4c-76.5,0-106.2,58.2-106.2,183.4v25.3C650.4,436.5,679.5,494.7,756.6,494.7z"/>
	</g>
	<g class="st1">
		<path class="st2" d="M754.1,511.1h4.4c74,0,105-44.9,105-126.5h46.8v6.3c0,103.7-50.6,161.3-155.6,161.3
			c-113.2,0-167.6-70.2-167.6-240.9V286c0-170.7,54.4-240.9,167.6-240.9c105,0,155.6,57.5,155.6,168.8v17.7h-46.8
			c0-101.8-31-145.4-105-145.4h-4.4c-82.2,0-120.1,59.4-120.1,199.8v25.3C633.9,451.7,671.2,511.1,754.1,511.1z"/>
	</g>
	<g class="st1">
		<path class="st2" d="M751.6,527.5h3.8c82.8,0,118.3-48.7,118.3-140.4h26.6v6.3c0,98-46.8,158.1-148,158.1
			c-107.5,0-161.3-69.6-161.3-240.3V286c0-170.7,53.8-240.3,161.3-240.3c101.2,0,148,60.1,148,167.6v15.8h-26.6
			c0-113.8-36.7-159.4-118.3-159.4h-3.8c-87.9,0-134.1,61.3-134.1,216.3v25.3C617.5,466.2,662.4,527.5,751.6,527.5z"/>
	</g>
	<g>
		<path class="st2" d="M1011,326.9l18.1-18.1h-35.6v-1h35.6l-18.1-18.1h1.3l18.6,18.6l-18.6,18.6H1011z"/>
		<path class="st2" d="M1074.4,326.9v-18.4c0-4.6-1.9-6.3-5.8-6.3s-6.3,2.4-7.6,4.5v20.2h-1v-18.4c0-4.6-1.9-6.3-5.7-6.3
			c-3.8,0-6.3,2.4-7.6,4.5v20.2h-1v-19.5l-0.2-5.7h0.8l0.3,3.9c1.3-2,3.8-4.2,7.8-4.2c3.5,0,5.6,1.4,6.4,4.4
			c1.2-2.1,3.7-4.4,7.9-4.4c4.5,0,6.7,2.4,6.7,7v18.6H1074.4z"/>
		<path class="st2" d="M1080.7,320.4c0-5.7,4.1-6.8,7.8-7.3l8.6-1.3v-1.6c0-4.3-1-7.9-7.1-7.9s-7.1,3.6-7.1,7.9h-1v-0.5
			c0-4.3,1.5-8.4,8.1-8.4s8.1,4.1,8.1,8.4v11.5l0.2,5.7h-0.8l-0.4-4c-1.3,1.8-3.9,4.3-9.4,4.3c-4,0-7-2.2-7-6.2L1080.7,320.4
			L1080.7,320.4z M1097,321.3v-8.6l-8.9,1.4c-3.5,0.6-6.5,1.7-6.5,6.3v0.6c0,2.8,2,5.2,6.2,5.2
			C1093.9,326.2,1096.1,322.9,1097,321.3z"/>
		<path class="st2" d="M1121.4,305.2v-16.4h1v32.4l0.2,5.7h-0.8l-0.3-3.8c-1.1,1.7-3.7,4-7.9,4c-6.4,0-9.7-4.8-9.7-12.5v-1
			c0-7.7,3.3-12.5,9.7-12.5C1117.6,301.4,1120.1,303.5,1121.4,305.2z M1113.6,302.3c-5.8,0-8.8,4.5-8.8,11.5v1c0,7,3,11.5,8.8,11.5
			c4.1,0,6.5-2.5,7.7-4.5v-15C1120,304.8,1117.7,302.3,1113.6,302.3z"/>
		<path class="st2" d="M1129.2,314.7c0,6.7,2.9,11.5,9.3,11.5c6.5,0,8.8-4,8.8-7.4h1v0.2c0,3.6-2.8,8.2-9.7,8.2
			c-7.2,0-10.3-5.5-10.3-12.5v-1c0-7,3-12.5,10-12.5s10,5.5,10,12.5v1H1129.2z M1129.2,313.7h18.1c0-6.8-2.9-11.5-9-11.5
			S1129.2,307.1,1129.2,313.7z"/>
		<path class="st2" d="M1165.8,301.6h7.9v1h-7.9v24.3h-1v-24.3h-4v-1h4V295c0-5.1,3-6.5,6.3-6.5c1.7,0,2.9,0.4,3,0.5v1
			c-0.4-0.2-1.7-0.5-2.9-0.5c-3.2,0-5.5,1-5.5,5.8L1165.8,301.6L1165.8,301.6z"/>
		<path class="st2" d="M1177.9,314.7v-1c0-7.7,3.5-12.5,9.9-12.5c6.4,0,9.9,4.8,9.9,12.5v1c0,7.7-3.5,12.5-9.9,12.5
			C1181.4,327.2,1177.9,322.4,1177.9,314.7z M1196.8,314.7v-1c0-7-3.1-11.5-8.9-11.5s-8.9,4.5-8.9,11.5v1c0,7,3.1,11.5,8.9,11.5
			S1196.8,321.7,1196.8,314.7z"/>
		<path class="st2" d="M1212.5,301.4v1h-0.5c-4.2,0-6.5,2.5-7.4,4.6v20h-1v-19.5l-0.2-5.7h0.8l0.4,3.9c1.1-1.9,3.4-4.2,7.3-4.2
			C1212.2,301.4,1212.5,301.4,1212.5,301.4z"/>
		<path class="st2" d="M1234.7,301.4v1h-0.5c-4.2,0-6.5,2.5-7.4,4.6v20h-1v-19.5l-0.2-5.7h0.8l0.4,3.9c1.1-1.9,3.4-4.2,7.3-4.2
			C1234.4,301.4,1234.7,301.4,1234.7,301.4z"/>
		<path class="st2" d="M1239.1,314.7c0,6.7,2.9,11.5,9.3,11.5c6.5,0,8.8-4,8.8-7.4h1v0.2c0,3.6-2.8,8.2-9.7,8.2
			c-7.2,0-10.3-5.5-10.3-12.5v-1c0-7,3-12.5,10-12.5c7,0,10,5.5,10,12.5v1H1239.1z M1239.1,313.7h18.1c0-6.8-2.9-11.5-9-11.5
			C1242,302.2,1239.1,307.1,1239.1,313.7z"/>
		<path class="st2" d="M1263.2,320.4c0-5.7,4.1-6.8,7.8-7.3l8.6-1.3v-1.6c0-4.3-1-7.9-7.1-7.9c-6.2,0-7.1,3.6-7.1,7.9h-1v-0.5
			c0-4.3,1.5-8.4,8.1-8.4c6.6,0,8.1,4.1,8.1,8.4v11.5l0.2,5.7h-0.8l-0.4-4c-1.3,1.8-4,4.3-9.4,4.3c-4.1,0-7-2.2-7-6.2L1263.2,320.4
			L1263.2,320.4z M1279.6,321.3v-8.6l-8.9,1.4c-3.5,0.6-6.5,1.7-6.5,6.3v0.6c0,2.8,2,5.2,6.2,5.2
			C1276.4,326.2,1278.7,322.9,1279.6,321.3z"/>
		<path class="st2" d="M1303.9,305.2v-16.4h1v32.4l0.2,5.7h-0.8l-0.3-3.8c-1.1,1.7-3.7,4-7.9,4c-6.4,0-9.7-4.8-9.7-12.5v-1
			c0-7.7,3.3-12.5,9.7-12.5C1300.2,301.4,1302.6,303.5,1303.9,305.2z M1296.2,302.3c-5.8,0-8.8,4.5-8.8,11.5v1c0,7,3,11.5,8.8,11.5
			c4.1,0,6.5-2.5,7.7-4.5v-15C1302.6,304.8,1300.3,302.3,1296.2,302.3z"/>
		<path class="st2" d="M1313.4,294.5h-1.9v-1.9h1.9V294.5z M1312,301.6h1v25.2h-1V301.6z"/>
		<path class="st2" d="M1336.3,326.9V309c0-5-2.4-6.8-6.7-6.8c-4.6,0-7.2,2.4-8.6,4.5v20.2h-1v-19.5l-0.2-5.7h0.8l0.4,3.9
			c1.4-2,4.1-4.2,8.8-4.2c5,0,7.6,2.4,7.6,7.4v18.1L1336.3,326.9L1336.3,326.9z"/>
		<path class="st2" d="M1342.6,327.3v-0.5h1c0,5.5,2.1,8.9,8.4,8.9c5.9,0,8.1-3.4,8.1-8.9v-5.5c-1.2,1.7-3.8,3.8-7.8,3.8
			c-6.4,0-9.6-4.3-9.6-11.5v-1c0-7.2,3.2-11.5,9.6-11.5c4.2,0,6.8,2.4,7.9,4l0.3-3.8h0.8l-0.2,5.7v20.1c0,5.4-2.7,9.3-9,9.3
			C1345.3,336.7,1342.6,332.8,1342.6,327.3z M1360.1,306.7c-1.2-1.9-3.6-4.5-7.7-4.5c-5.8,0-8.8,4-8.8,10.6v1c0,6.6,3,10.6,8.8,10.6
			c4.1,0,6.5-2.5,7.7-4.5V306.7z"/>
	</g>
	<g>
		<path class="st2" d="M85.5,75c11.3,0,16.4,5.8,16.4,19.9v1.5h-1.5c0-14.8-4.5-19.9-14.7-19.9h-0.4c-11,0-16.9,7.3-16.9,26.6v3
			c0,19.3,5.9,26.6,16.9,26.6h0.4c9.3,0,14.7-5.2,14.7-17.6h1.5v1c0,10.8-4.9,18.1-16.4,18.1c-12.3,0-18.7-7.9-18.7-28.1v-3
			C66.8,83,73.1,75,85.5,75z"/>
		<path class="st2" d="M110.3,114.7v-1.5c0-12.1,5.5-19.5,15.5-19.5s15.5,7.4,15.5,19.5v1.5c0,12.1-5.5,19.5-15.5,19.5
			S110.3,126.8,110.3,114.7z M139.9,114.7v-1.5c0-11-4.9-18-14-18s-14,6.9-14,18v1.5c0,11,4.9,18,14,18S139.9,125.7,139.9,114.7z"/>
		<path class="st2" d="M149.6,114.7v-1.5c0-12.1,5.5-19.5,15.5-19.5c10,0,15.5,7.4,15.5,19.5v1.5c0,12.1-5.5,19.5-15.5,19.5
			S149.6,126.8,149.6,114.7z M179.1,114.7v-1.5c0-11-4.9-18-14-18s-14,6.9-14,18v1.5c0,11,4.9,18,14,18
			C174.2,132.7,179.1,125.7,179.1,114.7z"/>
		<path class="st2" d="M191.5,128.1v20.5H190v-45.5l-0.4-9h1.1l0.5,5.9c1.8-2.6,5.8-6.3,12.3-6.3c10,0,15.2,7.4,15.2,19.5v1.5
			c0,12.1-5.2,19.5-15.2,19.5C197.3,134.2,193.4,130.7,191.5,128.1z M191.5,125.7c2,3.1,5.7,6.9,12.1,6.9c9.1,0,13.7-6.9,13.7-18
			v-1.5c0-11-4.6-18-13.7-18c-6.4,0-10.1,3.9-12.1,6.9V125.7z"/>
		<path class="st2" d="M228.4,114.7c0,10.5,4.4,18,14.6,18s13.8-6.3,13.8-11.6h1.5v0.4c0,5.6-4.3,12.8-15.3,12.8
			c-11.3,0-16-8.6-16-19.5v-1.5c0-10.9,4.6-19.5,15.7-19.5s15.7,8.6,15.7,19.5v1.5H228.4z M228.4,113.2h28.4c0-10.5-4.6-18-14.2-18
			C233,95.2,228.4,102.7,228.4,113.2z"/>
		<path class="st2" d="M281.4,93.8v1.4h-0.7c-6.6,0-10.2,3.8-11.6,7.1v31.4h-1.5v-30.6l-0.4-9h1.1l0.5,6c1.8-3,5.4-6.5,11.4-6.5
			C281,93.7,281.4,93.8,281.4,93.8z"/>
		<path class="st2" d="M337.5,75.5v58.2H336v-29h-31.4v29h-1.5V75.5h1.5v27.8H336V75.5H337.5L337.5,75.5z"/>
		<path class="st2" d="M349.1,114.7c0,10.5,4.4,18,14.6,18c10.2,0,13.8-6.3,13.8-11.6h1.5v0.4c0,5.6-4.3,12.8-15.3,12.8
			c-11.3,0-16-8.6-16-19.5v-1.5c0-10.9,4.6-19.5,15.7-19.5s15.7,8.6,15.7,19.5v1.5H349.1z M349.1,113.2h28.4c0-10.5-4.6-18-14.2-18
			C353.7,95.2,349.1,102.7,349.1,113.2z"/>
		<path class="st2" d="M395.8,133.7H394l-9.4-39.6h1.6l8.8,37.6l11.4-37.6h1.5l11.4,37.6l8.8-37.6h1.6l-9.4,39.6h-1.8l-11.3-37.2
			L395.8,133.7z"/>
		<path class="st2" d="M440.4,83h-3v-3h3V83z M438.2,94.2h1.5v39.6h-1.5V94.2z"/>
		<path class="st2" d="M469.5,94.2v1.5h-13.8v28c0,7.4,3.5,9,8.6,9c1.9,0,3.9-0.4,4.5-0.7v1.5c-0.4,0.1-2,0.7-4.8,0.7
			c-5.2,0-9.8-2-9.8-10.1V95.6h-6.3v-1.5h6.3V83h1.5v11.2H469.5z"/>
		<path class="st2" d="M496.4,94.2v1.5h-13.8v28c0,7.4,3.5,9,8.6,9c1.9,0,3.9-0.4,4.5-0.7v1.5c-0.4,0.1-2,0.7-4.8,0.7
			c-5.2,0-9.8-2-9.8-10.1V95.6h-6.3v-1.5h6.3V83h1.5v11.2H496.4z"/>
	</g>
</g>
</svg>
