<svg id="Ebene_1" data-name="Ebene 1" xmlns="http://www.w3.org/2000/svg" viewBox="0 0 595.28 255.12"><defs><style>.cls-1{fill:#00ebb6;}.cls-2{fill:#fff;}.cls-3{opacity:0.71;}</style></defs><title>2Zeichenfläche 1 Kopie 18</title><rect class="cls-1" x="-0.34" width="595.35" height="255"/><path class="cls-2" d="M183.5,160.27a.67.67,0,0,0,.52.39q12.35,1.46,17,14.26,3.9,10.8-1.46,19t-17.28,12.46L154,216.54a1.77,1.77,0,0,1-2.57-1.21l-26.76-74.15a1.79,1.79,0,0,1,1.21-2.58l27.39-9.88q26.4-9.52,34.1,11.86,4.07,11.25-3.64,19.18A.44.44,0,0,0,183.5,160.27Zm-38.74-12.51L151,164.91a.63.63,0,0,0,.91.43l12.91-4.66q5.23-1.89,7.25-5.38a8.82,8.82,0,0,0,.48-7.73,9.11,9.11,0,0,0-5.36-5.8c-2.54-1-5.55-.83-9,.42l-12.91,4.66A.63.63,0,0,0,144.76,147.76Zm39.66,39.49a11,11,0,0,0-5.18-14.37q-3.84-1.56-9.07.32l-13.69,4.94a.63.63,0,0,0-.43.91l6.59,18.26a.63.63,0,0,0,.91.43l13.8-5Q182.48,190.92,184.42,187.25Z"/><path class="cls-2" d="M235.56,124.25a22.76,22.76,0,0,1,11.33,3.66,17,17,0,0,1,6.66,8.54L267,173.64a1.77,1.77,0,0,1-1.21,2.57l-11.91,4.3a1.78,1.78,0,0,1-2.58-1.21l-1-2.67c-.11-.3-.25-.44-.41-.42s-.31.17-.45.48q-3.07,7.53-13.21,11.18-8.58,3.09-15.33.75T211.18,178q-3.1-8.58,1.21-15.48t15.44-10.92l11.24-4a.63.63,0,0,0,.43-.91l-.84-2.34a7.81,7.81,0,0,0-4.35-4.91q-3-1.23-7.37.33a12.79,12.79,0,0,0-5.11,3.1A6.27,6.27,0,0,0,220,147a2.24,2.24,0,0,1-1.7,2.25l-12.92,2.9a2.81,2.81,0,0,1-1.58,0,1.09,1.09,0,0,1-.77-.91,15.9,15.9,0,0,1,.87-9.63,23.16,23.16,0,0,1,6.62-8.86,35.21,35.21,0,0,1,11.22-6.38A33.82,33.82,0,0,1,235.56,124.25ZM243.79,169a8.42,8.42,0,0,0,1-7.78l-1.4-3.89a.63.63,0,0,0-.91-.43l-7.91,2.85c-3.34,1.21-5.74,2.79-7.22,4.75a6.42,6.42,0,0,0-1,6.39,6.08,6.08,0,0,0,3.88,3.94,9.49,9.49,0,0,0,6.36-.34A13.76,13.76,0,0,0,243.79,169Z"/><path class="cls-2" d="M292.52,102.51a2,2,0,0,1,1.85,2l2.1,12.46c.17.69.11,1.18-.17,1.44a3.05,3.05,0,0,1-1.61.59,14,14,0,0,0-3.39.72,24,24,0,0,0-2.48,1.14,11.61,11.61,0,0,0-5.73,5.4,9.66,9.66,0,0,0-.27,8L293.58,164a1.77,1.77,0,0,1-1.21,2.57l-11.91,4.3a1.78,1.78,0,0,1-2.58-1.21L258.6,116.26a1.79,1.79,0,0,1,1.21-2.58l11.91-4.3a1.79,1.79,0,0,1,2.58,1.21l1.25,3.45q.15.45.42.48t.48-.42a14.75,14.75,0,0,1,9.69-10.8A12.44,12.44,0,0,1,292.52,102.51Z"/><path class="cls-2" d="M320.75,154.24,294,80.08a1.77,1.77,0,0,1,1.21-2.57l11.91-4.3a1.78,1.78,0,0,1,2.58,1.21l26.75,74.15a1.79,1.79,0,0,1-1.21,2.58l-11.92,4.3A1.78,1.78,0,0,1,320.75,154.24Z"/><path class="cls-2" d="M356.73,138.86a25.94,25.94,0,0,1-14-10.06,42,42,0,0,1-5.66-10.8,39.77,39.77,0,0,1-2.59-12.4,25.58,25.58,0,0,1,4.53-16.23q4.94-7.07,14.4-10.48a27.73,27.73,0,0,1,17.33-1,25.81,25.81,0,0,1,13.7,9.53,40.14,40.14,0,0,1,5.88,11.09A45.77,45.77,0,0,1,393,110.31a27.09,27.09,0,0,1-4.26,17,27.36,27.36,0,0,1-14.08,10.68A28.18,28.18,0,0,1,356.73,138.86ZM375.1,120a13.12,13.12,0,0,0,1.46-7.45,29.91,29.91,0,0,0-1.92-8.11,31.91,31.91,0,0,0-3.74-7.59,12.42,12.42,0,0,0-5.8-4.57,10.21,10.21,0,0,0-7.11.17,10,10,0,0,0-5.47,4.37,12.36,12.36,0,0,0-1.55,7.22,32.13,32.13,0,0,0,2,8.23,31.67,31.67,0,0,0,3.7,7.47,12.93,12.93,0,0,0,5.94,4.78,10.13,10.13,0,0,0,7.21-.08A9.62,9.62,0,0,0,375.1,120Z"/><path class="cls-2" d="M420,118.82l-35-47.89a1.63,1.63,0,0,1-.35-.63c-.35-1,0-1.65,1.15-2L398,63.83a2,2,0,0,1,2.72.91l19.58,30.18c.18.28.38.37.6.29s.32-.28.29-.61l-3.65-35.93A2,2,0,0,1,419,56.24l10.91-3.94a2,2,0,0,1,2.72.91l20.39,30c.18.27.38.36.61.28s.31-.28.28-.61l-3.47-36.12A2,2,0,0,1,452,44.35L464.27,40a1.64,1.64,0,0,1,1.62.11,2,2,0,0,1,.71,1.45L470,100.78a2.23,2.23,0,0,1-1.55,2.33l-12.47,4.49a2.22,2.22,0,0,1-2.68-.79L434.38,80.65c-.26-.24-.48-.33-.66-.26s-.27.26-.23.58l3.13,31.71a2,2,0,0,1-1.51,2.44l-12.47,4.5A2.24,2.24,0,0,1,420,118.82Z"/><g class="cls-3"><path class="cls-2" d="M542.5,29.27a.67.67,0,0,0,.52.39q12.35,1.45,17,14.26,3.9,10.8-1.46,19T541.25,75.34L513,85.54a1.77,1.77,0,0,1-2.57-1.21L483.64,10.18a1.79,1.79,0,0,1,1.21-2.58l27.39-9.88q26.4-9.53,34.1,11.86,4.06,11.25-3.64,19.18A.44.44,0,0,0,542.5,29.27ZM503.76,16.76,510,33.91a.63.63,0,0,0,.91.43l12.91-4.66Q529,27.79,531,24.3a8.82,8.82,0,0,0,.48-7.73,9.11,9.11,0,0,0-5.36-5.8c-2.54-1-5.55-.83-9,.42l-12.91,4.66A.63.63,0,0,0,503.76,16.76Zm39.66,39.49a9.74,9.74,0,0,0,.31-8.23,9.8,9.8,0,0,0-5.49-6.14q-3.84-1.56-9.07.32l-13.69,4.94a.63.63,0,0,0-.43.91l6.59,18.26a.63.63,0,0,0,.91.43l13.8-5Q541.48,59.92,543.42,56.25Z"/><path class="cls-2" d="M594.56-6.75a22.76,22.76,0,0,1,11.33,3.66,17,17,0,0,1,6.66,8.54L626,42.64a1.77,1.77,0,0,1-1.21,2.57l-11.91,4.3a1.78,1.78,0,0,1-2.58-1.21l-1-2.67c-.11-.3-.25-.44-.41-.42s-.31.17-.45.48q-3.08,7.53-13.21,11.18-8.58,3.09-15.33.75T570.18,47q-3.1-8.58,1.21-15.48t15.44-10.92l11.24-4.05a.63.63,0,0,0,.43-.91l-.84-2.34a7.81,7.81,0,0,0-4.35-4.91q-3-1.23-7.37.33a12.79,12.79,0,0,0-5.11,3.1A6.27,6.27,0,0,0,579,16a2.24,2.24,0,0,1-1.7,2.25l-12.92,2.9a2.81,2.81,0,0,1-1.58,0,1.09,1.09,0,0,1-.77-.91,15.9,15.9,0,0,1,.87-9.63,23.16,23.16,0,0,1,6.62-8.86,35.21,35.21,0,0,1,11.22-6.38A33.82,33.82,0,0,1,594.56-6.75ZM602.79,38a8.42,8.42,0,0,0,1-7.78l-1.4-3.89a.63.63,0,0,0-.91-.43l-7.91,2.85c-3.34,1.21-5.74,2.79-7.22,4.75a6.42,6.42,0,0,0-1,6.39,6.08,6.08,0,0,0,3.88,3.94,9.49,9.49,0,0,0,6.36-.34A13.76,13.76,0,0,0,602.79,38Z"/></g><g class="cls-3"><path class="cls-2" d="M-4.27,268.86A25.94,25.94,0,0,1-18.22,258.8,42,42,0,0,1-23.88,248a39.77,39.77,0,0,1-2.59-12.4,25.58,25.58,0,0,1,4.53-16.23q4.94-7.06,14.4-10.48a27.73,27.73,0,0,1,17.33-1,25.81,25.81,0,0,1,13.7,9.53,40.14,40.14,0,0,1,5.88,11.09A45.77,45.77,0,0,1,32,240.31a27.09,27.09,0,0,1-4.26,16.95,27.36,27.36,0,0,1-14.08,10.68A28.18,28.18,0,0,1-4.27,268.86ZM14.1,250a13.12,13.12,0,0,0,1.46-7.45,29.91,29.91,0,0,0-1.92-8.11,31.91,31.91,0,0,0-3.74-7.59,12.42,12.42,0,0,0-5.8-4.57,10.21,10.21,0,0,0-7.11.17,10,10,0,0,0-5.47,4.37A12.36,12.36,0,0,0-10,234.07a32.13,32.13,0,0,0,2,8.23,31.67,31.67,0,0,0,3.7,7.47,12.93,12.93,0,0,0,5.94,4.78,10.13,10.13,0,0,0,7.21-.08A9.62,9.62,0,0,0,14.1,250Z"/><path class="cls-2" d="M59,248.82l-35-47.89a1.63,1.63,0,0,1-.35-.63c-.35-1,0-1.65,1.15-2.05L37,193.83a2,2,0,0,1,2.72.91l19.58,30.18c.18.28.38.37.6.29s.32-.28.29-.61l-3.65-35.93A2,2,0,0,1,58,186.24l10.91-3.94a2,2,0,0,1,2.72.91l20.39,30c.18.27.38.36.61.28s.31-.28.28-.61l-3.47-36.12A2,2,0,0,1,91,174.35L103.27,170a1.64,1.64,0,0,1,1.62.11,2,2,0,0,1,.71,1.45L109,230.78a2.23,2.23,0,0,1-1.55,2.33L94.93,237.6a2.22,2.22,0,0,1-2.68-.79L73.38,210.65c-.26-.24-.48-.33-.66-.26s-.27.26-.23.58l3.13,31.71a2,2,0,0,1-1.51,2.44l-12.47,4.5A2.24,2.24,0,0,1,59,248.82Z"/></g><g class="cls-3"><path class="cls-2" d="M203.75,309.24,177,235.08a1.77,1.77,0,0,1,1.21-2.57l11.91-4.3a1.78,1.78,0,0,1,2.58,1.21l26.75,74.15a1.79,1.79,0,0,1-1.21,2.58l-11.92,4.3A1.78,1.78,0,0,1,203.75,309.24Z"/><path class="cls-2" d="M239.73,293.86a25.94,25.94,0,0,1-13.95-10.06,42,42,0,0,1-5.66-10.8,39.77,39.77,0,0,1-2.59-12.4,25.58,25.58,0,0,1,4.53-16.23q4.94-7.06,14.4-10.48a27.73,27.73,0,0,1,17.33-1,25.81,25.81,0,0,1,13.7,9.53,40.14,40.14,0,0,1,5.88,11.09A45.77,45.77,0,0,1,276,265.31a27.09,27.09,0,0,1-4.26,16.95,27.36,27.36,0,0,1-14.08,10.68A28.18,28.18,0,0,1,239.73,293.86ZM258.1,275a13.12,13.12,0,0,0,1.46-7.45,29.91,29.91,0,0,0-1.92-8.11,31.91,31.91,0,0,0-3.74-7.59,12.42,12.42,0,0,0-5.8-4.57,10.21,10.21,0,0,0-7.11.17,10,10,0,0,0-5.47,4.37,12.36,12.36,0,0,0-1.55,7.22,32.13,32.13,0,0,0,2,8.23,31.67,31.67,0,0,0,3.7,7.47,12.93,12.93,0,0,0,5.94,4.78,10.13,10.13,0,0,0,7.21-.08A9.62,9.62,0,0,0,258.1,275Z"/><path class="cls-2" d="M303,273.82l-35-47.89a1.63,1.63,0,0,1-.35-.63c-.35-1,0-1.65,1.15-2.05L281,218.83a2,2,0,0,1,2.72.91l19.58,30.18c.18.28.38.37.6.29s.32-.28.29-.61l-3.65-35.93a2,2,0,0,1,1.51-2.43l10.91-3.94a2,2,0,0,1,2.72.91l20.39,30c.18.27.38.36.61.28s.31-.28.28-.61l-3.47-36.12a2,2,0,0,1,1.52-2.43L347.27,195a1.64,1.64,0,0,1,1.62.11,2,2,0,0,1,.71,1.45L353,255.78a2.23,2.23,0,0,1-1.55,2.33l-12.47,4.49a2.22,2.22,0,0,1-2.68-.79l-18.87-26.16c-.26-.24-.48-.33-.66-.26s-.27.26-.23.58l3.13,31.71a2,2,0,0,1-1.51,2.44l-12.47,4.5A2.24,2.24,0,0,1,303,273.82Z"/></g><g class="cls-3"><path class="cls-2" d="M425.5,184.27a.67.67,0,0,0,.52.39q12.35,1.46,17,14.26,3.9,10.8-1.46,19t-17.28,12.46L396,240.54a1.77,1.77,0,0,1-2.57-1.21l-26.76-74.15a1.79,1.79,0,0,1,1.21-2.58l27.39-9.88q26.4-9.53,34.1,11.86,4.07,11.25-3.64,19.18A.44.44,0,0,0,425.5,184.27Zm-38.74-12.51L393,188.91a.63.63,0,0,0,.91.43l12.91-4.66q5.24-1.89,7.25-5.38a8.82,8.82,0,0,0,.48-7.73,9.11,9.11,0,0,0-5.36-5.8c-2.54-1-5.55-.83-9,.42l-12.91,4.66A.63.63,0,0,0,386.76,171.76Zm39.66,39.49a11,11,0,0,0-5.18-14.37q-3.84-1.56-9.07.32l-13.69,4.94a.63.63,0,0,0-.43.91l6.59,18.26a.63.63,0,0,0,.91.43l13.8-5Q424.48,214.92,426.42,211.25Z"/><path class="cls-2" d="M477.56,148.25a22.76,22.76,0,0,1,11.33,3.66,17,17,0,0,1,6.66,8.54L509,197.64a1.77,1.77,0,0,1-1.21,2.57l-11.91,4.3a1.78,1.78,0,0,1-2.58-1.21l-1-2.67c-.11-.3-.25-.44-.41-.42s-.31.17-.45.48q-3.07,7.53-13.21,11.18-8.58,3.09-15.33.75T453.18,202q-3.1-8.58,1.21-15.48t15.44-10.92l11.24-4a.63.63,0,0,0,.43-.91l-.84-2.34a7.81,7.81,0,0,0-4.35-4.91q-3-1.23-7.37.33a12.79,12.79,0,0,0-5.11,3.1A6.27,6.27,0,0,0,462,171a2.24,2.24,0,0,1-1.7,2.25l-12.92,2.9a2.81,2.81,0,0,1-1.58,0,1.09,1.09,0,0,1-.77-.91,15.9,15.9,0,0,1,.87-9.63,23.16,23.16,0,0,1,6.62-8.86,35.21,35.21,0,0,1,11.22-6.38A33.82,33.82,0,0,1,477.56,148.25ZM485.79,193a8.42,8.42,0,0,0,1-7.78l-1.4-3.89a.63.63,0,0,0-.91-.43l-7.91,2.85c-3.34,1.21-5.74,2.79-7.22,4.75a6.42,6.42,0,0,0-1,6.39,6.08,6.08,0,0,0,3.88,3.94,9.49,9.49,0,0,0,6.36-.34A13.76,13.76,0,0,0,485.79,193Z"/><path class="cls-2" d="M534.52,126.51a2,2,0,0,1,1.85,2l2.1,12.46c.17.69.11,1.18-.17,1.44a3.05,3.05,0,0,1-1.61.59,14,14,0,0,0-3.39.72,24,24,0,0,0-2.48,1.14,11.61,11.61,0,0,0-5.73,5.4,9.66,9.66,0,0,0-.27,8L535.58,188a1.77,1.77,0,0,1-1.21,2.57l-11.91,4.3a1.78,1.78,0,0,1-2.58-1.21L500.6,140.26a1.79,1.79,0,0,1,1.21-2.58l11.91-4.3a1.79,1.79,0,0,1,2.58,1.21l1.25,3.45q.15.45.42.48t.48-.42a14.75,14.75,0,0,1,9.69-10.8A12.44,12.44,0,0,1,534.52,126.51Z"/><path class="cls-2" d="M562.75,178.24,536,104.08a1.77,1.77,0,0,1,1.21-2.57l11.91-4.3a1.78,1.78,0,0,1,2.58,1.21l26.75,74.15a1.79,1.79,0,0,1-1.21,2.58l-11.92,4.3A1.78,1.78,0,0,1,562.75,178.24Z"/><path class="cls-2" d="M598.73,162.86a25.94,25.94,0,0,1-14-10.06,42,42,0,0,1-5.66-10.8,39.77,39.77,0,0,1-2.59-12.4,25.58,25.58,0,0,1,4.53-16.23q4.94-7.07,14.4-10.48a27.73,27.73,0,0,1,17.33-1,25.81,25.81,0,0,1,13.7,9.53,40.14,40.14,0,0,1,5.88,11.09A45.77,45.77,0,0,1,635,134.31a27.09,27.09,0,0,1-4.26,16.95,27.36,27.36,0,0,1-14.08,10.68A28.18,28.18,0,0,1,598.73,162.86ZM617.1,144a13.12,13.12,0,0,0,1.46-7.45,29.91,29.91,0,0,0-1.92-8.11,31.91,31.91,0,0,0-3.74-7.59,12.42,12.42,0,0,0-5.8-4.57,10.21,10.21,0,0,0-7.11.17,10,10,0,0,0-5.47,4.37,12.36,12.36,0,0,0-1.55,7.22,32.13,32.13,0,0,0,2,8.23,31.67,31.67,0,0,0,3.7,7.47,12.93,12.93,0,0,0,5.94,4.78,10.13,10.13,0,0,0,7.21-.08A9.62,9.62,0,0,0,617.1,144Z"/></g><g class="cls-3"><path class="cls-2" d="M499.52,253.51a2,2,0,0,1,1.85,2l2.1,12.46c.17.69.11,1.18-.17,1.44a3.05,3.05,0,0,1-1.61.59,14,14,0,0,0-3.39.72,24,24,0,0,0-2.48,1.14,11.61,11.61,0,0,0-5.73,5.4,9.66,9.66,0,0,0-.27,8L500.58,315a1.77,1.77,0,0,1-1.21,2.57l-11.91,4.3a1.78,1.78,0,0,1-2.58-1.21L465.6,267.26a1.79,1.79,0,0,1,1.21-2.58l11.91-4.3a1.79,1.79,0,0,1,2.58,1.21l1.25,3.45q.15.45.42.48t.48-.42a14.75,14.75,0,0,1,9.69-10.8A12.44,12.44,0,0,1,499.52,253.51Z"/><path class="cls-2" d="M527.75,305.24,501,231.08a1.77,1.77,0,0,1,1.21-2.57l11.91-4.3a1.78,1.78,0,0,1,2.58,1.21l26.75,74.15a1.79,1.79,0,0,1-1.21,2.58l-11.92,4.3A1.78,1.78,0,0,1,527.75,305.24Z"/><path class="cls-2" d="M563.73,289.86a25.94,25.94,0,0,1-14-10.06,42,42,0,0,1-5.66-10.8,39.77,39.77,0,0,1-2.59-12.4,25.58,25.58,0,0,1,4.53-16.23q4.94-7.06,14.4-10.48a27.73,27.73,0,0,1,17.33-1,25.81,25.81,0,0,1,13.7,9.53,40.14,40.14,0,0,1,5.88,11.09A45.77,45.77,0,0,1,600,261.31a27.09,27.09,0,0,1-4.26,16.95,27.36,27.36,0,0,1-14.08,10.68A28.18,28.18,0,0,1,563.73,289.86ZM582.1,271a13.12,13.12,0,0,0,1.46-7.45,29.91,29.91,0,0,0-1.92-8.11,31.91,31.91,0,0,0-3.74-7.59,12.42,12.42,0,0,0-5.8-4.57,10.21,10.21,0,0,0-7.11.17,10,10,0,0,0-5.47,4.37,12.36,12.36,0,0,0-1.55,7.22,32.13,32.13,0,0,0,2,8.23,31.67,31.67,0,0,0,3.7,7.47,12.93,12.93,0,0,0,5.94,4.78,10.13,10.13,0,0,0,7.21-.08A9.62,9.62,0,0,0,582.1,271Z"/><path class="cls-2" d="M627,269.82l-35-47.89a1.63,1.63,0,0,1-.35-.63c-.35-1,0-1.65,1.15-2.05L605,214.83a2,2,0,0,1,2.72.91l19.58,30.18c.18.28.38.37.6.29s.32-.28.29-.61l-3.65-35.93a2,2,0,0,1,1.51-2.43l10.91-3.94a2,2,0,0,1,2.72.91l20.39,30c.18.27.38.36.61.28s.31-.28.28-.61l-3.47-36.12a2,2,0,0,1,1.52-2.43L671.27,191a1.64,1.64,0,0,1,1.62.11,2,2,0,0,1,.71,1.45L677,251.78a2.23,2.23,0,0,1-1.55,2.33l-12.47,4.49a2.22,2.22,0,0,1-2.68-.79l-18.87-26.16c-.26-.24-.48-.33-.66-.26s-.27.26-.23.58l3.13,31.71a2,2,0,0,1-1.51,2.44l-12.47,4.5A2.24,2.24,0,0,1,627,269.82Z"/></g><g class="cls-3"><path class="cls-2" d="M6.75,157.24-20,83.08a1.77,1.77,0,0,1,1.21-2.57l11.91-4.3A1.78,1.78,0,0,1-4.3,77.42l26.75,74.15a1.79,1.79,0,0,1-1.21,2.58l-11.92,4.3A1.78,1.78,0,0,1,6.75,157.24Z"/><path class="cls-2" d="M42.73,141.86A25.94,25.94,0,0,1,28.78,131.8,42,42,0,0,1,23.12,121a39.77,39.77,0,0,1-2.59-12.4,25.58,25.58,0,0,1,4.53-16.23Q30,85.31,39.46,81.89a27.73,27.73,0,0,1,17.33-1,25.81,25.81,0,0,1,13.7,9.53,40.14,40.14,0,0,1,5.88,11.09A45.77,45.77,0,0,1,79,113.31a27.09,27.09,0,0,1-4.26,16.95,27.36,27.36,0,0,1-14.08,10.68A28.18,28.18,0,0,1,42.73,141.86ZM61.1,123a13.12,13.12,0,0,0,1.46-7.45,29.91,29.91,0,0,0-1.92-8.11,31.91,31.91,0,0,0-3.74-7.59,12.42,12.42,0,0,0-5.8-4.57,10.21,10.21,0,0,0-7.11.17,10,10,0,0,0-5.47,4.37A12.36,12.36,0,0,0,37,107.07a32.13,32.13,0,0,0,2,8.23,31.67,31.67,0,0,0,3.7,7.47,12.93,12.93,0,0,0,5.94,4.78,10.13,10.13,0,0,0,7.21-.08A9.62,9.62,0,0,0,61.1,123Z"/><path class="cls-2" d="M106,121.82l-35-47.89a1.63,1.63,0,0,1-.35-.63c-.35-1,0-1.65,1.15-2L84,66.83a2,2,0,0,1,2.72.91l19.58,30.18c.18.28.38.37.6.29s.32-.28.29-.61l-3.65-35.93A2,2,0,0,1,105,59.24l10.91-3.94a2,2,0,0,1,2.72.91l20.39,30c.18.27.38.36.61.28s.31-.28.28-.61l-3.47-36.12A2,2,0,0,1,138,47.35L150.27,43a1.64,1.64,0,0,1,1.62.11,2,2,0,0,1,.71,1.45L156,103.78a2.23,2.23,0,0,1-1.55,2.33l-12.47,4.49a2.22,2.22,0,0,1-2.68-.79L120.38,83.65c-.26-.24-.48-.33-.66-.26s-.27.26-.23.58l3.13,31.71a2,2,0,0,1-1.51,2.44l-12.47,4.5A2.24,2.24,0,0,1,106,121.82Z"/></g><g class="cls-3"><path class="cls-2" d="M228.5,32.27a.67.67,0,0,0,.52.39q12.35,1.46,17,14.26,3.9,10.8-1.46,19T227.25,78.34L199,88.54a1.77,1.77,0,0,1-2.57-1.21L169.64,13.18a1.79,1.79,0,0,1,1.21-2.58L198.24.72q26.4-9.52,34.1,11.86,4.07,11.25-3.64,19.18A.44.44,0,0,0,228.5,32.27ZM189.76,19.76,196,36.91a.63.63,0,0,0,.91.43l12.91-4.66Q215,30.79,217,27.3a8.82,8.82,0,0,0,.48-7.73,9.11,9.11,0,0,0-5.36-5.8c-2.54-1-5.55-.83-9,.42l-12.91,4.66A.63.63,0,0,0,189.76,19.76Zm39.66,39.49a9.74,9.74,0,0,0,.31-8.23,9.8,9.8,0,0,0-5.49-6.14q-3.84-1.56-9.07.32l-13.69,4.94a.63.63,0,0,0-.43.91l6.59,18.26a.63.63,0,0,0,.91.43l13.8-5Q227.48,62.92,229.42,59.25Z"/><path class="cls-2" d="M280.56-3.75A22.76,22.76,0,0,1,291.89-.09a17,17,0,0,1,6.66,8.54L312,45.64a1.77,1.77,0,0,1-1.21,2.57l-11.91,4.3a1.78,1.78,0,0,1-2.58-1.21l-1-2.67c-.11-.3-.25-.44-.41-.42s-.31.17-.45.48q-3.07,7.53-13.21,11.18-8.58,3.09-15.33.75T256.18,50q-3.1-8.58,1.21-15.48t15.44-10.92l11.24-4.05a.63.63,0,0,0,.43-.91l-.84-2.34a7.81,7.81,0,0,0-4.35-4.91q-3-1.23-7.37.33a12.79,12.79,0,0,0-5.11,3.1A6.27,6.27,0,0,0,265,19a2.24,2.24,0,0,1-1.7,2.25l-12.92,2.9a2.81,2.81,0,0,1-1.58,0,1.09,1.09,0,0,1-.77-.91,15.9,15.9,0,0,1,.87-9.63,23.16,23.16,0,0,1,6.62-8.86,35.21,35.21,0,0,1,11.22-6.38A33.82,33.82,0,0,1,280.56-3.75ZM288.79,41a8.42,8.42,0,0,0,1-7.78l-1.4-3.89a.63.63,0,0,0-.91-.43l-7.91,2.85c-3.34,1.21-5.74,2.79-7.22,4.75a6.42,6.42,0,0,0-1,6.39,6.08,6.08,0,0,0,3.88,3.94,9.49,9.49,0,0,0,6.36-.34A13.76,13.76,0,0,0,288.79,41Z"/><path class="cls-2" d="M337.52-25.49a2,2,0,0,1,1.85,2l2.1,12.46c.17.69.11,1.18-.17,1.44a3.05,3.05,0,0,1-1.61.59,14,14,0,0,0-3.39.72,24,24,0,0,0-2.48,1.14,11.61,11.61,0,0,0-5.73,5.4,9.66,9.66,0,0,0-.27,8L338.58,36a1.77,1.77,0,0,1-1.21,2.57l-11.91,4.3a1.78,1.78,0,0,1-2.58-1.21L303.6-11.74a1.79,1.79,0,0,1,1.21-2.58l11.91-4.3a1.79,1.79,0,0,1,2.58,1.21L320.55-14q.15.45.42.48t.48-.42a14.75,14.75,0,0,1,9.69-10.8A12.44,12.44,0,0,1,337.52-25.49Z"/><path class="cls-2" d="M365.75,26.24,339-47.92a1.77,1.77,0,0,1,1.21-2.57l11.91-4.3a1.78,1.78,0,0,1,2.58,1.21l26.75,74.15a1.79,1.79,0,0,1-1.21,2.58l-11.92,4.3A1.78,1.78,0,0,1,365.75,26.24Z"/><path class="cls-2" d="M401.73,10.86A25.94,25.94,0,0,1,387.78.8,42,42,0,0,1,382.12-10a39.77,39.77,0,0,1-2.59-12.4,25.58,25.58,0,0,1,4.53-16.23q4.94-7.07,14.4-10.48a27.73,27.73,0,0,1,17.33-1,25.81,25.81,0,0,1,13.7,9.53,40.14,40.14,0,0,1,5.88,11.09A45.77,45.77,0,0,1,438-17.69a27.09,27.09,0,0,1-4.26,17A27.36,27.36,0,0,1,419.64,9.94,28.18,28.18,0,0,1,401.73,10.86ZM420.1-8a13.12,13.12,0,0,0,1.46-7.45,29.91,29.91,0,0,0-1.92-8.11,31.91,31.91,0,0,0-3.74-7.59,12.42,12.42,0,0,0-5.8-4.57,10.21,10.21,0,0,0-7.11.17,10,10,0,0,0-5.47,4.37A12.36,12.36,0,0,0,396-23.93a32.13,32.13,0,0,0,2,8.23,31.67,31.67,0,0,0,3.7,7.47,12.93,12.93,0,0,0,5.94,4.78,10.13,10.13,0,0,0,7.21-.08A9.62,9.62,0,0,0,420.1-8Z"/></g><g class="cls-3"><path class="cls-2" d="M56.5-16.73a.67.67,0,0,0,.52.39Q69.36-14.88,74-2.08q3.9,10.8-1.46,19T55.25,29.34L27,39.54a1.77,1.77,0,0,1-2.57-1.21L-2.36-35.82A1.79,1.79,0,0,1-1.15-38.4l27.39-9.88q26.4-9.53,34.1,11.86,4.06,11.25-3.64,19.18A.44.44,0,0,0,56.5-16.73ZM17.76-29.24,24-12.09a.63.63,0,0,0,.91.43l12.91-4.66Q43-18.21,45-21.7a8.82,8.82,0,0,0,.48-7.73,9.11,9.11,0,0,0-5.36-5.8c-2.54-1-5.55-.83-9,.42L18.19-30.15A.63.63,0,0,0,17.76-29.24ZM57.42,10.25A9.74,9.74,0,0,0,57.73,2a9.8,9.8,0,0,0-5.49-6.14q-3.84-1.56-9.07.32L29.48,1.14a.63.63,0,0,0-.43.91l6.59,18.26a.63.63,0,0,0,.91.43l13.8-5Q55.48,13.92,57.42,10.25Z"/><path class="cls-2" d="M108.56-52.75a22.76,22.76,0,0,1,11.33,3.66,17,17,0,0,1,6.66,8.54L140-3.36a1.77,1.77,0,0,1-1.21,2.57l-11.91,4.3a1.78,1.78,0,0,1-2.58-1.21l-1-2.67c-.11-.3-.25-.44-.41-.42s-.31.17-.45.48q-3.08,7.53-13.21,11.18-8.58,3.09-15.33.75T84.18,1q-3.11-8.58,1.21-15.48t15.44-10.92l11.24-4.05a.63.63,0,0,0,.43-.91l-.84-2.34a7.81,7.81,0,0,0-4.35-4.91q-3-1.23-7.37.33a12.79,12.79,0,0,0-5.11,3.1A6.27,6.27,0,0,0,93-30a2.24,2.24,0,0,1-1.7,2.25l-12.92,2.9a2.81,2.81,0,0,1-1.58,0,1.09,1.09,0,0,1-.77-.91,15.9,15.9,0,0,1,.87-9.63,23.16,23.16,0,0,1,6.62-8.86,35.21,35.21,0,0,1,11.22-6.38A33.82,33.82,0,0,1,108.56-52.75ZM116.79-8a8.42,8.42,0,0,0,1-7.78l-1.4-3.89a.63.63,0,0,0-.91-.43l-7.91,2.85c-3.34,1.21-5.74,2.79-7.22,4.75a6.42,6.42,0,0,0-1,6.39,6.08,6.08,0,0,0,3.88,3.94,9.49,9.49,0,0,0,6.36-.34A13.76,13.76,0,0,0,116.79-8Z"/></g></svg>