<svg id="Ebene_1" data-name="Ebene 1" xmlns="http://www.w3.org/2000/svg" viewBox="0 0 595.28 255.12"><defs><style>.cls-1{opacity:0.08;}.cls-2{fill:#00ebb6;}.cls-3{fill:#00685e;}.cls-4{fill:#009d8c;}.cls-5{fill:#fff;}</style></defs><title>Header-Barlow_new_Pfad</title><g class="cls-1"><rect class="cls-2" y="128.06" width="148.75" height="127"/></g><rect class="cls-3" x="0.5" y="0.55" width="147.75" height="127"/><path class="cls-3" d="M147.75,1.06v126H1V1.06H147.75m1-1H0v128H148.75V.06Z"/><rect class="cls-2" x="148.75" y="128.06" width="148.75" height="127"/><rect class="cls-4" x="148.75" y="0.06" width="148.75" height="128"/><rect class="cls-3" x="298" y="128.55" width="147.75" height="126"/><path class="cls-3" d="M445.25,129.06v125H298.5v-125H445.25m1-1H297.5v127H446.25v-127Z"/><g class="cls-1"><rect class="cls-2" x="297.5" y="0.06" width="148.75" height="128"/></g><rect class="cls-4" x="446.25" y="128.06" width="148.75" height="127"/><rect class="cls-2" x="446.25" y="0.06" width="148.75" height="128"/><path class="cls-4" d="M189,216.59a15.1,15.1,0,0,1-6.3-5.85A16.9,16.9,0,0,1,180.5,202V177.11a16.88,16.88,0,0,1,2.24-8.75,15.1,15.1,0,0,1,6.3-5.85,20.42,20.42,0,0,1,9.44-2.08,20.21,20.21,0,0,1,9.35,2.08,14.82,14.82,0,0,1,6.26,5.85,16.87,16.87,0,0,1,2.2,8.66v1.39a.58.58,0,0,1-.65.65H214.5a.57.57,0,0,1-.65-.65v-1.47a13.41,13.41,0,0,0-4.23-10.33q-4.23-3.9-11.14-3.9t-11.27,3.94A13.48,13.48,0,0,0,182.94,177v25a13.47,13.47,0,0,0,4.27,10.37q4.28,3.94,11.27,3.95t11.14-3.87a13.24,13.24,0,0,0,4.23-10.28V192.8c0-.16-.08-.24-.25-.24H199.78a.57.57,0,0,1-.65-.65V191a.57.57,0,0,1,.65-.65h15.86a.58.58,0,0,1,.65.65v10.9a17.25,17.25,0,0,1-2.2,8.83,14.82,14.82,0,0,1-6.26,5.85,20.34,20.34,0,0,1-9.35,2.08A20.54,20.54,0,0,1,189,216.59Z"/><path class="cls-4" d="M252.48,175.72h12.2a1.37,1.37,0,0,1,1.55,1.55v35.21q0,11.64-6.71,16.56T242.64,234a54.83,54.83,0,0,1-8.3-.74,1.39,1.39,0,0,1-1-.57,1.49,1.49,0,0,1-.29-1.13l.49-10.33c.05-.87.43-1.3,1.14-1.3a2,2,0,0,1,.65.08,27.56,27.56,0,0,0,6.1.73,12.26,12.26,0,0,0,6.1-1.38,6.55,6.55,0,0,0,3.17-4.31v-.17a.53.53,0,0,0-.37-.49.65.65,0,0,0-.69.09,11.72,11.72,0,0,1-7.32,2.11q-13,0-16.59-10.57a29.63,29.63,0,0,1-1.38-9.52,27.38,27.38,0,0,1,1.71-10.25,17.4,17.4,0,0,1,6.14-8.13,16.12,16.12,0,0,1,9.64-3q5.44,0,8.37,3.09c.22.22.4.3.53.25s.21-.22.21-.49v-.65A1.37,1.37,0,0,1,252.48,175.72Zm-1.54,20.66a13.21,13.21,0,0,0-.9-5.29,4.76,4.76,0,0,0-4.64-2.92,4.66,4.66,0,0,0-4.31,2.84,13.21,13.21,0,0,0-.24,10.9,4.94,4.94,0,0,0,4.72,2.85,4.61,4.61,0,0,0,4.55-2.77A16,16,0,0,0,250.94,196.38Z"/><path class="cls-2" d="M364.62,34.16a19.28,19.28,0,0,1,7.81,7.64,23,23,0,0,1,2.76,11.43V69.09a20.22,20.22,0,0,1-3.7,12.24,19.39,19.39,0,0,1-10.21,7.12c-.38,0-.56.29-.56.73v5.37a1.37,1.37,0,0,1-1.55,1.54H347a1.37,1.37,0,0,1-1.55-1.54V89.26c0-.43-.19-.68-.56-.73a19.48,19.48,0,0,1-14-19.44V53.23a23,23,0,0,1,2.76-11.43,19.24,19.24,0,0,1,7.77-7.64A23.8,23.8,0,0,1,353,31.43,24,24,0,0,1,364.62,34.16ZM346.16,68.68a8.49,8.49,0,0,0,1.87,5.7,6.19,6.19,0,0,0,5,2.19,6.38,6.38,0,0,0,5-2.15,8.36,8.36,0,0,0,1.91-5.74V52.42A8.36,8.36,0,0,0,358,46.68a6.38,6.38,0,0,0-5-2.15,6.19,6.19,0,0,0-5,2.19,8.49,8.49,0,0,0-1.87,5.7Z"/><path class="cls-2" d="M411.38,48.27h1.14a.57.57,0,0,1,.65.65v55.63a.57.57,0,0,1-.65.65h-1.14a.58.58,0,0,1-.65-.65V83.08c0-.11,0-.18-.08-.21s-.11,0-.16.13a12.9,12.9,0,0,1-4.8,4.92,13.88,13.88,0,0,1-7.07,1.75,14.67,14.67,0,0,1-9.28-3,13.13,13.13,0,0,1-4.88-7.77,21.37,21.37,0,0,1-.48-4q-.09-2.19-.09-6.42c0-2.77,0-4.85.09-6.26a21.23,21.23,0,0,1,.48-3.91,13.91,13.91,0,0,1,5-7.8,14.43,14.43,0,0,1,9.2-2.93,14.07,14.07,0,0,1,7.07,1.75,12.28,12.28,0,0,1,4.8,4.84c.05.1.11.14.16.12s.08-.1.08-.21v-5.2A.58.58,0,0,1,411.38,48.27ZM410.61,75c.08-1.12.12-3.24.12-6.39s0-5.27-.12-6.38-.2-2.13-.36-3a11.83,11.83,0,0,0-3.79-6.63,11,11,0,0,0-7.6-2.64,12.64,12.64,0,0,0-8.05,2.6,10.26,10.26,0,0,0-4,6.67q-.24,1.55-.36,3.21t-.13,6.3q0,4.8.13,6.43a20.33,20.33,0,0,0,.44,3A11.3,11.3,0,0,0,391,84.75a12.13,12.13,0,0,0,7.89,2.64,11,11,0,0,0,7.56-2.64,11.27,11.27,0,0,0,3.74-6.63A21.24,21.24,0,0,0,410.61,75Z"/><path class="cls-5" d="M217.06,87.88l-8.78-20.25a.75.75,0,0,0-.81-.49h-2.93a.57.57,0,0,0-.65.65V87.47A1.37,1.37,0,0,1,202.34,89h-12.2a1.37,1.37,0,0,1-1.54-1.55V33.63a1.37,1.37,0,0,1,1.54-1.55h24.32a20,20,0,0,1,9.72,2.28,16.27,16.27,0,0,1,6.51,6.39A19,19,0,0,1,233,50.22a16.72,16.72,0,0,1-2.57,9.27,15.44,15.44,0,0,1-7.11,5.94.55.55,0,0,0-.33.81l9.92,21a1.74,1.74,0,0,1,.17.81c0,.65-.44,1-1.3,1H218.85A1.79,1.79,0,0,1,217.06,87.88Zm-13.17-42v9a.58.58,0,0,0,.65.65h7.4a6.19,6.19,0,0,0,4.23-1.43,4.69,4.69,0,0,0,1.63-3.7,4.79,4.79,0,0,0-1.63-3.78,6.18,6.18,0,0,0-4.23-1.42h-7.4A.58.58,0,0,0,203.89,45.83Z"/><path class="cls-5" d="M262.37,48.76c.43.16.56.51.4,1.05l-.57,1.63c-.16.54-.49.68-1,.41a10.51,10.51,0,0,0-4.07-.57A9.88,9.88,0,0,0,251.47,53a11.58,11.58,0,0,0-3.95,4.55,13.78,13.78,0,0,0-1.42,6.26V88.2a.73.73,0,0,1-.82.82h-1.54a.72.72,0,0,1-.81-.82V49a.72.72,0,0,1,.81-.81h1.54a.72.72,0,0,1,.82.81v6.1c0,.16,0,.26.12.28s.15,0,.2-.2A13.85,13.85,0,0,1,251,49.81a11.37,11.37,0,0,1,6.59-2A11.49,11.49,0,0,1,262.37,48.76Z"/><path class="cls-5" d="M508.28,87.71l-1.63-5.85a.7.7,0,0,0-.73-.57H489a.7.7,0,0,0-.73.57l-1.62,5.85A1.59,1.59,0,0,1,484.94,89H471.76a1.41,1.41,0,0,1-1.18-.49,1.43,1.43,0,0,1-.12-1.3l16.92-53.85a1.66,1.66,0,0,1,1.7-1.3h16.76a1.66,1.66,0,0,1,1.71,1.3l16.91,53.85a1.62,1.62,0,0,1,.09.57c0,.81-.47,1.22-1.39,1.22H510A1.58,1.58,0,0,1,508.28,87.71ZM491.85,69a.5.5,0,0,0,.57.57H502.5a.58.58,0,0,0,.49-.21.54.54,0,0,0,.08-.52l-5.2-18.79c-.06-.27-.18-.41-.37-.41s-.34.14-.44.41l-5.21,18.79Z"/><path class="cls-5" d="M557.36,51.24q3.38,3.61,3.38,9.88V88.36a.58.58,0,0,1-.65.66H559a.58.58,0,0,1-.65-.66V83.89c0-.11,0-.16-.13-.16a.28.28,0,0,0-.2.08,12.71,12.71,0,0,1-5.65,4.35,20.52,20.52,0,0,1-7.93,1.51A15.64,15.64,0,0,1,535,86.94q-3.82-2.72-3.83-8.5a11,11,0,0,1,4.44-9.23q4.43-3.37,12.24-3.37h10.16a.22.22,0,0,0,.25-.25V61a11.47,11.47,0,0,0-2.77-8.06q-2.76-3-8.7-3a13.77,13.77,0,0,0-7.56,1.91,7.75,7.75,0,0,0-3.66,5.24c-.11.44-.36.63-.74.57l-1.22-.24q-.64-.16-.57-.57a10.19,10.19,0,0,1,4.56-6.67,16.52,16.52,0,0,1,9.43-2.52Q554,47.62,557.36,51.24Zm-3.17,33.55a8.54,8.54,0,0,0,4.11-7.57V68.28a.22.22,0,0,0-.25-.25H547.8q-6.33,0-10.24,2.73a8.73,8.73,0,0,0-3.91,7.6,8,8,0,0,0,3.05,6.79,12.6,12.6,0,0,0,7.85,2.32A17.22,17.22,0,0,0,554.19,84.79Z"/><path class="cls-3" d="M75.26,163.36h-32a.21.21,0,0,0-.24.24v24.49a.21.21,0,0,0,.24.24H66.4a.58.58,0,0,1,.65.65v1a.58.58,0,0,1-.65.65H43.3a.21.21,0,0,0-.24.24v26.51a.58.58,0,0,1-.65.66H41.27a.58.58,0,0,1-.65-.66V161.73a.57.57,0,0,1,.65-.65h34a.57.57,0,0,1,.65.65v1A.57.57,0,0,1,75.26,163.36Z"/><path class="cls-3" d="M109.5,177.27v9.11a1.36,1.36,0,0,1-1.54,1.54h-6.59a.58.58,0,0,0-.65.65v27.9A1.37,1.37,0,0,1,99.18,218H87a1.37,1.37,0,0,1-1.55-1.55v-27.9a.58.58,0,0,0-.65-.65H81.2a1.36,1.36,0,0,1-1.54-1.54v-9.11a1.37,1.37,0,0,1,1.54-1.55h3.58a.57.57,0,0,0,.65-.65V172.8q0-6.27,3.54-9T100.64,161c1.35,0,2.38,0,3.09.08h3.09a1.37,1.37,0,0,1,1.55,1.55v7.07a1.37,1.37,0,0,1-1.55,1.55h-3.09a3.76,3.76,0,0,0-2.32.85,2.84,2.84,0,0,0-.69,2.08v.89a.57.57,0,0,0,.65.65H108A1.37,1.37,0,0,1,109.5,177.27Z"/><path class="cls-2" d="M30.6,87.47V33.63a1.37,1.37,0,0,1,1.54-1.55H52.72a28.26,28.26,0,0,1,11.67,2.28,18,18,0,0,1,7.85,6.43A16.9,16.9,0,0,1,75,50.38V70.72a16.9,16.9,0,0,1-2.77,9.59,18,18,0,0,1-7.85,6.43A28.26,28.26,0,0,1,52.72,89H32.14A1.37,1.37,0,0,1,30.6,87.47ZM46.54,75.92h6.75a5.67,5.67,0,0,0,4.55-2.15,8.93,8.93,0,0,0,1.88-5.66V53a8.59,8.59,0,0,0-1.79-5.66,5.86,5.86,0,0,0-4.72-2.15H46.54a.58.58,0,0,0-.65.65V75.27A.58.58,0,0,0,46.54,75.92Z"/><path class="cls-2" d="M111.44,32.08h1.14a.58.58,0,0,1,.65.65V88.36a.58.58,0,0,1-.65.66h-1.14a.58.58,0,0,1-.65-.66v-5.2c0-.11,0-.18-.08-.2s-.11,0-.16.12a12.34,12.34,0,0,1-4.8,4.84,14.18,14.18,0,0,1-7.08,1.75,14.48,14.48,0,0,1-9.19-2.93,13.88,13.88,0,0,1-5-7.81A21.86,21.86,0,0,1,84,75Q84,72.92,84,68.76T84,62.34a22.32,22.32,0,0,1,.49-4,13.06,13.06,0,0,1,4.88-7.76,14.66,14.66,0,0,1,9.27-3,13.82,13.82,0,0,1,7.08,1.75,12.9,12.9,0,0,1,4.8,4.92c0,.11.11.15.16.12a.22.22,0,0,0,.08-.2V32.73A.58.58,0,0,1,111.44,32.08Zm-.77,43q.12-1.66.12-6.39t-.12-6.38a21,21,0,0,0-.45-3.13,11.27,11.27,0,0,0-3.74-6.63,11.06,11.06,0,0,0-7.56-2.64A12.13,12.13,0,0,0,91,52.54,11.19,11.19,0,0,0,87,59.17a18.88,18.88,0,0,0-.45,3q-.12,1.62-.12,6.42,0,4.64.12,6.3c.08,1.12.21,2.19.37,3.22a10.24,10.24,0,0,0,4,6.67,12.7,12.7,0,0,0,8,2.6,11,11,0,0,0,7.6-2.64,11.83,11.83,0,0,0,3.78-6.63A28,28,0,0,0,110.67,75.07Z"/><path class="cls-3" d="M511.86,161.08H513a.58.58,0,0,1,.65.65v55.63a.58.58,0,0,1-.65.66h-1.14a.58.58,0,0,1-.65-.66V190.85c0-.16-.08-.24-.25-.24H480.3a.21.21,0,0,0-.24.24v26.51a.58.58,0,0,1-.65.66h-1.14a.58.58,0,0,1-.65-.66V161.73a.57.57,0,0,1,.65-.65h1.14a.58.58,0,0,1,.65.65v26.36a.21.21,0,0,0,.24.24H511c.17,0,.25-.08.25-.24V161.73A.57.57,0,0,1,511.86,161.08Z"/><path class="cls-3" d="M558.22,176.86a13,13,0,0,1,5.16,5.25,16.67,16.67,0,0,1,1.91,8.17v26.19a1.37,1.37,0,0,1-1.54,1.55h-12.2a1.37,1.37,0,0,1-1.55-1.55V193.62a6,6,0,0,0-1.26-4,4.1,4.1,0,0,0-3.29-1.5,4.19,4.19,0,0,0-3.38,1.5,6,6,0,0,0-1.26,4v22.85a1.37,1.37,0,0,1-1.54,1.55h-12.2a1.37,1.37,0,0,1-1.55-1.55V162.63a1.37,1.37,0,0,1,1.55-1.55h12.2a1.37,1.37,0,0,1,1.54,1.55v16.75a.59.59,0,0,0,.2.53c.14.08.29,0,.45-.2q3.09-4.64,9.44-4.64A15,15,0,0,1,558.22,176.86Z"/><path class="cls-5" d="M329.92,217.77a.58.58,0,0,1,0-.57L348,189.71a.36.36,0,0,0,0-.32L329.92,161.9a.53.53,0,0,1-.08-.33.45.45,0,0,1,.17-.32.53.53,0,0,1,.4-.17h1.3a.71.71,0,0,1,.74.41l16.75,25.95a.24.24,0,0,0,.16.08.27.27,0,0,0,.17-.08l16.75-25.95a.8.8,0,0,1,.73-.41h1.3c.27,0,.45.08.53.25a.62.62,0,0,1,0,.57l-18.06,27.57a.36.36,0,0,0,0,.32L368.8,217.2a.51.51,0,0,1,.08.33.45.45,0,0,1-.16.32.55.55,0,0,1-.41.17H367a.8.8,0,0,1-.73-.41l-16.75-25.86a.24.24,0,0,0-.17-.09.22.22,0,0,0-.16.09l-16.75,25.86a.71.71,0,0,1-.74.41h-1.3A.57.57,0,0,1,329.92,217.77Z"/><path class="cls-5" d="M374.29,217.73a.87.87,0,0,1-.37-.69,1.41,1.41,0,0,1,.33-.9l12.28-18.78a1.06,1.06,0,0,0,0-1l-12.28-18.79a1.38,1.38,0,0,1-.33-.89.87.87,0,0,1,.37-.69,1.46,1.46,0,0,1,.93-.29h13a2,2,0,0,1,1.87,1.06l4.72,7.73a.51.51,0,0,0,.48.32.53.53,0,0,0,.49-.32l4.72-7.73a2,2,0,0,1,1.87-1.06h14a1.46,1.46,0,0,1,.93.29.84.84,0,0,1,.37.69,1.38,1.38,0,0,1-.33.89l-12.28,18.79a1.06,1.06,0,0,0,0,1l12.28,18.78a1.41,1.41,0,0,1,.33.9.84.84,0,0,1-.37.69,1.46,1.46,0,0,1-.93.29h-13a2,2,0,0,1-1.88-1.06l-4.71-7.73c-.11-.27-.27-.41-.49-.41s-.38.14-.49.41L391.08,217a2,2,0,0,1-1.87,1.06h-14A1.46,1.46,0,0,1,374.29,217.73Z"/></svg>