<?xml version="1.0" encoding="utf-8"?>
<!-- Generator: Adobe Illustrator 22.1.0, SVG Export Plug-In . SVG Version: 6.00 Build 0)  -->
<svg version="1.1" id="Ebene_1" xmlns="http://www.w3.org/2000/svg" xmlns:xlink="http://www.w3.org/1999/xlink" x="0px" y="0px"
	 viewBox="0 0 1540 1080" style="enable-background:new 0 0 1540 1080;" xml:space="preserve">
<style type="text/css">
	.st0{fill:#1B3440;}
</style>
<title>löjkö</title>
<g>
	<path class="st0" d="M207.9,219.7l2.1-14.5h66.7l122.4,184.7V227.7l-35.2-8l2.3-14.5h90.5l-2.5,14.5l-31.8,7.2v215l-29.1,5.9
		L266.9,259.1v161.3l34.8,6.5l-2.1,15.2h-90.5l1.5-14.1l31.8-9V229.4L207.9,219.7z"/>
	<path class="st0" d="M530.5,447.8c-12.3,0-24-3.3-34.9-10c-11-6.7-19.8-16.6-26.6-29.8c-6.7-13.2-10.1-29-10.1-47.4
		c0-18.2,3.8-34,11.5-47.6s17.5-24,29.6-31.2c12.1-7.2,24.4-10.9,37.1-10.9c9.4,0,18,2.3,25.7,7c7.7,4.6,13.9,11.5,18.4,20.6
		s6.8,20.1,6.8,33c0,2.9-0.3,7-1,12.1c-0.6,5.1-1.3,9.4-2.1,12.7l-92.2,1.1c0.5,10.7,2.8,21,6.9,31s10,18.3,17.8,24.7
		c7.8,6.4,17.3,9.6,28.5,9.6c6.1,0,10.9-0.2,14.5-0.5s7.7-1.2,12.4-2.8c4.7-1.5,10.2-3.9,16.4-7.2l4,10.1
		c-7.6,8-16.9,14.3-27.7,18.8C554.6,445.5,543,447.8,530.5,447.8z M527.9,289.6c-5.3,0-10.5,1.9-15.6,5.8
		c-5.1,3.9-9.4,9.8-12.9,17.7c-3.5,7.9-5.6,17.7-6.2,29.4l59.8-4.4c0.4-1.4,0.7-3.5,0.9-6.2s0.3-5,0.3-7
		C554.2,301.4,545.4,289.6,527.9,289.6z"/>
	<path class="st0" d="M631.4,303.5L605.2,293l2.7-15l51-4l4.8,4.6v103.2c0,25.8,9.8,38.7,29.3,38.7c8,0,14.8-1.3,20.3-3.8
		s10.6-6.2,15.1-10.9V304.6l-30.3-8l1.9-17.5l56-5.1l4,4.6v122.6c0,6.1,0.8,10.7,2.4,13.8c1.6,3.1,3.7,5.3,6.4,6.6
		c2.7,1.3,6.6,2.5,11.8,3.6l8.8,1.9l-1.7,15.8c-6,1.4-10.9,2.3-14.7,2.9c-3.8,0.5-8.5,0.8-14.1,0.8c-9.1,0-16.1-2.5-20.9-7.6
		c-4.8-5.1-7.1-11.7-7.1-20v-1.7h-2.5c-13.5,19.6-31.6,29.3-54.5,29.3c-13.2,0-23.6-4.4-31.1-13c-7.6-8.7-11.3-22.8-11.3-42.2v-87.9
		H631.4z"/>
	<path class="st0" d="M815.7,296.8h-24.2v-10.3c7.7-6.3,15.8-14.2,24.2-23.4c8.4-9.3,16-18.6,22.9-28h10.1v45.3h53.9l-1.7,16.8
		h-52.6l-0.6,84.2c0,9.5,1,17,2.9,22.5s4.9,9.3,8.9,11.6c4.1,2.3,9.5,3.4,16.2,3.4c4.2,0,8.3-0.8,12.4-2.4c4.1-1.6,7.6-3.3,10.6-5.2
		c3-1.9,4.5-2.9,4.5-3l4,10.3c-6,8.8-13.4,15.6-22.3,20.6c-8.9,5-18.7,7.4-29.3,7.4c-12.8,0-22.8-4-30-12.1s-10.7-22-10.6-41.8
		L815.7,296.8z"/>
	<path class="st0" d="M998.3,447.2c-16.4,0-30.4-3.7-42.2-11.2c-11.7-7.5-20.7-17.7-26.8-30.8c-6.2-13-9.2-27.8-9.2-44.3
		c0-18.5,3.9-34.7,11.6-48.5c7.7-13.8,17.9-24.3,30.6-31.5c12.6-7.2,26.2-10.9,40.7-10.9c15.4,0,28.7,3.7,40.1,11
		c11.4,7.4,20.1,17.7,26.1,30.9c6,13.3,9,28.6,9,46c0,17.3-3.5,32.7-10.6,46.3c-7,13.6-16.7,24.1-28.9,31.6S1013,447.2,998.3,447.2z
		 M994.8,290.1c-9.1,0-16.8,2.6-22.9,7.8c-6.2,5.2-10.7,12.2-13.6,20.9c-2.9,8.7-4.4,18.3-4.4,28.7c0,14.1,1.7,27.3,5.1,39.6
		c3.4,12.3,9,22.3,16.6,30.1c7.6,7.7,17.3,11.6,29.1,11.6c8.5,0,15.7-2.6,21.7-7.9s10.4-12.1,13.3-20.5s4.4-17.3,4.4-26.7
		c0-13.7-1.7-26.9-5-39.6c-3.4-12.7-8.8-23.2-16.2-31.5C1015.5,294.3,1006.1,290.1,994.8,290.1z"/>
	<path class="st0" d="M1178.5,442.1h-88.4l1.9-13.9l28.8-7.8V304.8l-29.3-9.9l1.9-14.5l56.7-7.4l3.2,3.6l-3.2,24.4h1.9
		c7.2-8.6,15.8-15.8,25.7-21.5s20.4-8.6,31.6-8.6c14.9,0,26.2,4.7,34.1,14.1s11.8,22.7,11.8,39.8v95.6l27.4,6.7l-1.9,15h-85.5
		l1.9-13.9l26.3-7.8v-88.2c0-11.8-3-20.6-9-26.4s-14.1-8.7-24.1-8.7c-7.1,0-14,1.4-20.6,4.3s-12.3,6.9-16.9,12.1v106.8l28.4,6.7
		L1178.5,442.1z"/>
</g>
<g>
	<path class="st0" d="M633.2,640.4l-13.4-0.5l1.1-4.4c9.2-1.8,18.3-2.7,27.5-2.8c3,0,6,0.1,8.9,0.4l-1.1,4.5l-12,3.2l-6.8,57.4
		l12.4,2.8l-1.2,4.7h-36.7l1.1-4.6l13-2.1l3.6-28.5l-34.5,1.9l-3.3,27l12.4,1.5l-1.4,4.7h-36.3l1.1-4.6l13.1-3l7.2-56.3l-13.2-1.9
		l1.1-4.5c6.2-1.3,11.3-2.1,15.4-2.3c3.9-0.2,7.5-0.4,10.8-0.4c3.4,0,6.7,0.1,10.1,0.4l-1.2,4.4l-11.7,1.3l-3.2,27.1l34.3-1.2
		L633.2,640.4z"/>
	<path class="st0" d="M689.8,651.8l7,2.2l-4.2,22.9l-1.8,13.9c-0.3,2.1-0.4,3.8-0.4,5c0,2,0.9,3,2.6,3c1.1,0,2.5-1,4.2-2.9
		c1.9-2,3.5-4.2,4.7-6.4l2.4,2.1c-2.2,5.5-4.6,9.5-7.1,12c-2.6,2.6-5.9,3.9-10,3.9c-1.9,0-3.4-0.7-4.5-2.2c-1-1.4-1.5-3.5-1.5-6.3
		s0.7-6.2,2.1-10.2h-0.8c-2,4.9-4.7,9.1-8.1,12.7c-3.3,3.6-6.6,5.3-9.8,5.3s-5.5-1.2-6.8-3.6c-1.3-2.4-1.9-6-1.9-10.8
		s1.1-10.3,3.3-16.4c2.3-6.2,5.3-11.5,9-16.1c3.7-4.5,7.4-6.8,11.2-6.8c3.7,0,6.5,1.5,8.4,4.4h0.5l0.8-5.2L689.8,651.8z
		 M664.9,688.7c0,3.5,0.3,5.9,0.8,7.1c0.5,1.3,1.6,2,3,2c2.8,0,6.1-3,9.8-9c3.7-5.9,6.3-13.3,7.8-22c-0.6-1.6-1.7-3.1-3.5-4.5
		c-1.7-1.3-3.5-2-5.4-2c-1.8,0-3.6,0.9-5.4,2.8c-1.7,1.8-3.1,4.3-4.1,7.4C666,676.8,664.9,682.8,664.9,688.7z"/>
	<path class="st0" d="M713.1,653.7l1.6-15.1l-8-1.6l0.6-4.3l16.3-1.3l0.9,1.2l-4.3,36.4l-2.3,21.7c-0.1,1.4-0.2,2.6-0.2,3.8
		c0,2.6,0.7,3.9,2,3.9s2.9-0.7,4.8-2.1c1.8-1.3,3.4-3.1,4.6-5.3l2.5,1.8c-3.5,9.4-9.5,14.1-17.9,14.1c-4,0-6-2.8-6-8.4
		c0-2.3,0.3-5.8,0.9-10.3L713.1,653.7z"/>
	<path class="st0" d="M740.6,653.7l1.6-15.1l-8-1.6l0.6-4.3l16.3-1.3l0.9,1.2l-4.3,36.4l-2.3,21.7c-0.1,1.4-0.2,2.6-0.2,3.8
		c0,2.6,0.7,3.9,2,3.9s2.9-0.7,4.8-2.1c1.8-1.3,3.4-3.1,4.6-5.3l2.5,1.8c-3.5,9.4-9.5,14.1-17.9,14.1c-4,0-6-2.8-6-8.4
		c0-2.3,0.3-5.8,0.9-10.3L740.6,653.7z"/>
	<path class="st0" d="M766.3,701c-2.8-4.1-4.2-9.2-4.2-15.3c0-6,1-11.5,3.1-16.4c2.1-5,4.9-8.9,8.4-11.7c3.6-2.9,7.5-4.4,11.8-4.4
		s7.9,2,10.9,5.9s4.5,8.8,4.5,14.5s-0.9,11.1-2.7,15.9c-1.8,4.9-4.5,9-8,12.5c-3.5,3.4-7.6,5.1-12.4,5.1
		C772.9,707.1,769.1,705.1,766.3,701z M775.1,662.6c-3.2,3.6-4.7,8.9-4.7,16c0,7.9,1.8,14,5.4,18.4c1.8,2.2,3.8,3.3,5.9,3.3
		c2.2-0.1,4.1-1,5.8-2.9c3.3-3.8,4.9-9.4,4.9-16.7c0-7.8-1.7-13.7-5.2-17.9c-1.8-2-3.8-3.1-6-3.2C779,659.6,777,660.6,775.1,662.6z"
		/>
	<path class="st0" d="M880.1,707.2l-1.7-38h-0.6c-3.5,9.8-7.6,18.8-12.4,27.1c-1.6,2.7-3.4,5.7-5.5,9l-10.2,1.8l-5.4-64.9l-12.7-2.4
		l1.6-4.4c8.1-1.8,15.9-2.8,23.3-2.9l3.9,59.1h0.6c5.9-8.5,10.6-18.5,14.1-30.2c1.5-5,2.8-9.9,3.9-14.5l8.7-2.1l3,49.2h0.5
		c7.9-8.4,13.1-18.4,15.6-30.1c0.7-3.8,1.1-7.3,1.1-10.5c0-6.2-1.3-12.5-4-18.7c2.5-1.8,5.3-2.7,8.2-2.6h0.4
		c4.6,0.4,7.4,2.7,8.3,7.1c0.3,1.1,0.4,2.8,0.4,5.2c0,2.5-0.4,5.4-1.2,8.7c-1.4,7-4.4,14.4-8.8,22c-4.1,7.3-9,14.2-14.6,20.8
		c-1.3,1.8-4.1,4.9-8.3,9.3L880.1,707.2z"/>
	<path class="st0" d="M950.7,655.8c1.7,1.8,2.6,4.2,2.6,7.2c0,5.6-2.9,10.5-8.7,14.6c-4.7,3.4-10.1,6-16.2,8
		c0.2,9.3,3.4,13.9,9.5,13.9c4.5,0,8.6-2.8,12.1-8.4l2.2,1.9c-1.3,3.9-3.7,7.2-7.2,10.1c-3.4,2.8-7.3,4.2-11.8,4.2
		c-4.4,0-7.9-1.7-10.4-5.1c-2.5-3.4-3.8-8-3.8-13.9s1.1-11.5,3.4-16.8c2.3-5.5,5.4-9.9,9.1-13.4c3.8-3.5,7.8-5.2,11.9-5.2
		C946.6,653,949,654,950.7,655.8z M944.4,664.7c0-1.8-0.4-3.2-1.2-4.1c-0.8-0.9-2-1.4-3.5-1.3c-6.6,0-10.3,7.3-11.2,22
		C939.1,677.4,944.4,671.8,944.4,664.7z"/>
	<path class="st0" d="M962.1,653.7l1.6-15.1l-8-1.6l0.6-4.3l16.3-1.3l0.9,1.2l-4.3,36.4l-2.3,21.7c-0.1,1.4-0.2,2.6-0.2,3.8
		c0,2.6,0.7,3.9,2,3.9s2.9-0.7,4.8-2.1c1.8-1.3,3.4-3.1,4.6-5.3l2.5,1.8c-3.5,9.4-9.5,14.1-17.9,14.1c-4,0-6-2.8-6-8.4
		c0-2.3,0.3-5.8,0.9-10.3L962.1,653.7z"/>
	<path class="st0" d="M996,696.7c1.8,0,3.4-0.9,4.9-2.6c1.4-1.7,3.8-5.6,7.2-11.5l2.9,2.2c-1.8,7-4.5,12.4-7.9,16.2
		c-3.5,3.9-7.4,5.9-11.7,5.9c-2.5,0-4.2-0.6-5.3-1.8c-1-1.2-1.5-3-1.5-5.6c0-2.7,0.4-7.6,1.3-14.7l3.5-24.1l-6.6,0.4l1.5-6.2
		l5.7,0.5l1.2-12.1l8.9-1.1l0.6,0.8l-1.9,12.5l13.6-0.9l-1.5,6.9l-12.7-0.7l-2.6,21.9c-0.7,6.6-1.1,10.4-1.1,11.4s0.1,1.7,0.4,2.1
		C995,696.5,995.4,696.7,996,696.7z"/>
</g>
<g>
	<path class="st0" d="M576.5,798.3h-9l0.2-1.1l3.3-0.8v-20.1l-3.4-0.5l0.2-1.1c2.1-0.3,3.9-0.6,5.4-0.7c1.5-0.2,2.9-0.2,4.3-0.2
		c3.3,0,6,0.5,8,1.6s3.5,2.5,4.3,4.3s1.3,3.7,1.3,5.9c0,2.3-0.5,4.4-1.6,6.4s-2.7,3.5-4.9,4.6S579.7,798.3,576.5,798.3z
		 M573.9,775.3v21.4h3.2c2.3,0,4.2-0.4,5.8-1.3s2.9-2.1,3.7-3.6c0.9-1.5,1.3-3.3,1.3-5.3c0-2.2-0.4-4.2-1.3-5.9s-2.1-3.1-3.8-4
		c-1.7-1-3.7-1.5-6.1-1.5C575.4,775.3,574.4,775.3,573.9,775.3z"/>
	<path class="st0" d="M597.1,798.8c-0.7,0-1.4-0.1-2-0.4c-0.6-0.3-1.1-0.7-1.5-1.2s-0.6-1.2-0.6-1.9c0-1.1,0.3-2.1,1-2.9
		s1.7-1.5,3.1-2.1s3.1-0.8,5.1-0.9V788c0-1.8-0.3-3.2-0.9-4.1c-0.6-1-1.5-1.4-2.9-1.4c-0.7,0-1.2,0.2-1.5,0.5s-0.6,0.8-0.7,1.4
		c-0.1,0.6-0.2,1.4-0.3,2.5c-0.6,0-1.1-0.1-1.6-0.4s-0.6-0.7-0.6-1.4s0.3-1.3,0.9-1.9s1.4-1.1,2.4-1.5s1.9-0.6,2.9-0.6
		c1.7,0,2.9,0.5,3.7,1.4c0.8,1,1.2,2.5,1.2,4.5v6.9c0,0.7,0,1.2,0.1,1.6c0.1,0.4,0.3,0.7,0.5,1c0.3,0.2,0.7,0.4,1.3,0.5l1.1,0.2
		l-0.2,1.2l-0.4,0.1c-0.4,0.1-0.7,0.2-1,0.2s-0.6,0.1-0.9,0.1c-0.9,0-1.6-0.3-2-0.8c-0.5-0.5-0.7-1.1-0.7-1.8v-0.3h-0.2
		c-0.2,0.4-0.6,0.9-1.1,1.3c-0.5,0.5-1.1,0.9-1.8,1.2C598.9,798.6,598.1,798.8,597.1,798.8z M602.4,790.3c-4.3,0.5-6.5,1.9-6.5,4.2
		c0,0.4,0.1,0.8,0.3,1.2s0.5,0.7,0.9,0.9s0.8,0.4,1.4,0.4c0.9,0,1.6-0.2,2.4-0.7c0.7-0.4,1.2-1,1.6-1.6v-4.4H602.4z"/>
	<path class="st0" d="M615.4,799c-1,0-2-0.2-2.8-0.5s-1.5-0.8-1.9-1.3s-0.7-1.2-0.7-1.9c0-0.6,0.2-1.1,0.6-1.5s0.9-0.6,1.5-0.7
		c0.3,1.5,0.8,2.6,1.4,3.3c0.6,0.7,1.5,1,2.5,1c0.8,0,1.5-0.2,2.1-0.7s0.8-1,0.8-1.7c0-0.5-0.2-0.9-0.5-1.3
		c-0.3-0.4-0.7-0.8-1.2-1.1s-1.1-0.7-1.9-1.2c-1-0.6-1.8-1.2-2.5-1.6c-0.6-0.5-1.1-1-1.6-1.7c-0.4-0.7-0.7-1.4-0.7-2.3
		c0-0.8,0.2-1.6,0.6-2.3c0.4-0.8,1-1.4,1.8-1.9s1.8-0.7,3-0.7c0.8,0,1.6,0.1,2.3,0.4s1.2,0.7,1.6,1.2s0.6,1.1,0.6,1.8
		s-0.2,1.3-0.6,1.6s-0.9,0.6-1.5,0.6l-0.2-0.8c-0.3-1.4-0.7-2.3-1.2-2.9c-0.5-0.5-1.1-0.8-1.8-0.8c-0.8,0-1.4,0.2-1.9,0.7
		s-0.7,1-0.7,1.8c0,0.6,0.2,1.1,0.5,1.6s0.8,0.9,1.3,1.3c0.5,0.4,1.2,0.8,2.1,1.3c1,0.6,1.8,1.1,2.4,1.6s1.1,1,1.5,1.6
		s0.6,1.3,0.6,2.1c0,0.9-0.3,1.8-0.8,2.5s-1.3,1.3-2.2,1.7S616.4,799,615.4,799z"/>
	<path class="st0" d="M630.8,798.3l0.2-1.1l2.8-0.8l8.6-22.4l2-0.4l7.9,22.9l2.6,0.6l-0.2,1.2h-9l0.2-1.1l3.3-0.8l-2.4-6.9h-8.3
		l-2.6,7l3.6,0.6l-0.2,1.2H630.8z M638.9,787.9h7.3l-3.5-10.3L638.9,787.9z"/>
	<path class="st0" d="M658.6,775.3l-3-0.8l0.2-1.1l5-0.4l0.3,0.3v8.6l-0.3,2h0.2c1.8-2,3.7-3,5.6-3c1.2,0,2.3,0.3,3.3,1
		s1.7,1.6,2.2,2.9c0.5,1.2,0.8,2.7,0.8,4.3c0,2-0.4,3.7-1.3,5.2c-0.9,1.4-2,2.5-3.4,3.3s-3,1.1-4.7,1.1c-1.8,0-3.4-0.5-4.9-1.4
		L658.6,775.3L658.6,775.3z M661.2,785.3v10.6c0.4,0.4,1,0.7,1.7,0.9s1.5,0.3,2.4,0.3c0.8,0,1.7-0.3,2.4-0.8s1.4-1.3,1.9-2.3
		s0.7-2.2,0.7-3.6c0-2.2-0.4-4-1.1-5.4c-0.8-1.4-2-2-3.6-2c-0.7,0-1.4,0.2-2.1,0.6C662.6,783.9,661.9,784.5,661.2,785.3z"/>
	<path class="st0" d="M674.2,798.3l0.2-1.1l3-0.6v-21.5l-3-0.8l0.1-1l5.1-0.4l0.3,0.3v23.4l3.1,0.6l-0.2,1.1H674.2z"/>
	<path class="st0" d="M689.3,798.8c-0.7,0-1.4-0.1-2-0.4c-0.6-0.3-1.1-0.7-1.5-1.2s-0.6-1.2-0.6-1.9c0-1.1,0.3-2.1,1-2.9
		s1.7-1.5,3.1-2.1s3.1-0.8,5.1-0.9V788c0-1.8-0.3-3.2-0.9-4.1c-0.6-1-1.5-1.4-2.9-1.4c-0.7,0-1.2,0.2-1.5,0.5s-0.6,0.8-0.7,1.4
		c-0.1,0.6-0.2,1.4-0.3,2.5c-0.6,0-1.1-0.1-1.6-0.4s-0.6-0.7-0.6-1.4s0.3-1.3,0.9-1.9s1.4-1.1,2.4-1.5s1.9-0.6,2.9-0.6
		c1.7,0,2.9,0.5,3.7,1.4c0.8,1,1.2,2.5,1.2,4.5v6.9c0,0.7,0,1.2,0.1,1.6c0.1,0.4,0.3,0.7,0.5,1c0.3,0.2,0.7,0.4,1.3,0.5l1.1,0.2
		l-0.2,1.2l-0.4,0.1c-0.4,0.1-0.7,0.2-1,0.2s-0.6,0.1-0.9,0.1c-0.9,0-1.6-0.3-2-0.8c-0.5-0.5-0.7-1.1-0.7-1.8v-0.3h-0.2
		c-0.2,0.4-0.6,0.9-1.1,1.3c-0.5,0.5-1.1,0.9-1.8,1.2C691.1,798.6,690.3,798.8,689.3,798.8z M694.6,790.3c-4.3,0.5-6.5,1.9-6.5,4.2
		c0,0.4,0.1,0.8,0.3,1.2s0.5,0.7,0.9,0.9s0.8,0.4,1.4,0.4c0.9,0,1.6-0.2,2.4-0.7c0.7-0.4,1.2-1,1.6-1.6v-4.4H694.6z"/>
	<path class="st0" d="M703.3,783.5l-2.8-0.8l0.2-1l4.9-0.4l0.3,0.3v10.5c0,3,1.1,4.5,3.4,4.5c0.8,0,1.6-0.2,2.2-0.6s1.3-0.8,1.8-1.4
		v-11.1l-3.1-0.7l0.1-1.2l5.2-0.5l0.3,0.3V794c0,1,0.1,1.7,0.4,2.1s0.8,0.7,1.5,0.9l1.1,0.2l-0.1,1.2c-0.5,0.1-0.9,0.2-1.2,0.3
		c-0.4,0.1-0.8,0.1-1.2,0.1c-0.8,0-1.5-0.3-2-0.8s-0.7-1.2-0.7-2v-0.2h-0.2c-0.7,1-1.5,1.7-2.4,2.3c-0.9,0.5-2,0.8-3,0.8
		c-3,0-4.5-1.9-4.5-5.8v-9.6H703.3z"/>
	<path class="st0" d="M731.6,798.3h-10.5l0.2-1l3-0.7v-13.8h-2.9l0.2-1.1l2.7-0.4c0.2-1.9,0.6-3.4,1.3-4.7s1.5-2.2,2.5-2.9
		s2-0.9,2.9-0.9c1,0,1.9,0.2,2.5,0.6c0.6,0.4,1,0.9,1,1.6c0,0.4-0.1,0.8-0.4,1.1s-0.6,0.6-0.9,0.7c-0.5-0.7-1-1.2-1.6-1.7
		s-1.2-0.7-1.9-0.7c-0.8,0-1.5,0.4-2,1.2s-0.8,1.9-0.8,3.5v2.3h5l-0.3,1.4h-4.8v13.7l4.8,0.6V798.3z"/>
	<path class="st0" d="M739.6,798.7c-1.2,0-2.2-0.3-3.2-0.9s-1.7-1.5-2.2-2.8s-0.8-2.7-0.8-4.4c0-1.9,0.4-3.5,1.2-5s1.8-2.6,3.1-3.4
		c1.3-0.8,2.6-1.2,4-1.2c0.6,0,1.3,0.1,2,0.3s1.2,0.4,1.6,0.7h0.2l-0.3-2.6v-4.1l-3-0.8l0.2-1l5-0.4l0.3,0.3V794
		c0,0.8,0.1,1.4,0.3,1.8c0.2,0.4,0.4,0.7,0.6,0.8s0.6,0.3,1,0.3l1,0.2l-0.2,1.2c-0.5,0.1-0.9,0.2-1.2,0.3s-0.7,0.1-1.2,0.1
		c-0.9,0-1.6-0.3-2-0.8s-0.7-1.2-0.7-2.1v-0.1h-0.2c-0.6,0.9-1.4,1.6-2.4,2.1C741.9,798.4,740.8,798.7,739.6,798.7z M740.7,782.5
		c-0.9,0-1.8,0.3-2.5,0.8s-1.2,1.4-1.6,2.4c-0.4,1-0.6,2.3-0.6,3.7c0,2.3,0.4,4.1,1.2,5.4c0.8,1.3,2,1.9,3.5,1.9
		c0.8,0,1.6-0.2,2.5-0.7s1.5-1,1.9-1.6v-9.6c-0.5-0.8-1.2-1.4-2-1.8C742.3,782.7,741.5,782.5,740.7,782.5z"/>
	<path class="st0" d="M756.9,798.8c-0.7,0-1.4-0.1-2-0.4c-0.6-0.3-1.1-0.7-1.5-1.2s-0.6-1.2-0.6-1.9c0-1.1,0.3-2.1,1-2.9
		s1.7-1.5,3.1-2.1s3.1-0.8,5.1-0.9V788c0-1.8-0.3-3.2-0.9-4.1c-0.6-1-1.5-1.4-2.9-1.4c-0.7,0-1.2,0.2-1.5,0.5s-0.6,0.8-0.7,1.4
		c-0.1,0.6-0.2,1.4-0.3,2.5c-0.6,0-1.1-0.1-1.6-0.4s-0.6-0.7-0.6-1.4s0.3-1.3,0.9-1.9s1.4-1.1,2.4-1.5s1.9-0.6,2.9-0.6
		c1.7,0,2.9,0.5,3.7,1.4c0.8,1,1.2,2.5,1.2,4.5v6.9c0,0.7,0,1.2,0.1,1.6c0.1,0.4,0.3,0.7,0.5,1c0.3,0.2,0.7,0.4,1.3,0.5l1.1,0.2
		l-0.2,1.2l-0.4,0.1c-0.4,0.1-0.7,0.2-1,0.2s-0.6,0.1-0.9,0.1c-0.9,0-1.6-0.3-2-0.8c-0.5-0.5-0.7-1.1-0.7-1.8v-0.3h-0.2
		c-0.2,0.4-0.6,0.9-1.1,1.3c-0.5,0.5-1.1,0.9-1.8,1.2C758.7,798.6,757.8,798.8,756.9,798.8z M762.1,790.3c-4.3,0.5-6.5,1.9-6.5,4.2
		c0,0.4,0.1,0.8,0.3,1.2s0.5,0.7,0.9,0.9s0.8,0.4,1.4,0.4c0.9,0,1.6-0.2,2.4-0.7c0.7-0.4,1.2-1,1.6-1.6v-4.4H762.1z"/>
	<path class="st0" d="M770.8,783.3h-2.5v-0.8c0.9-0.4,1.7-1.1,2.4-1.9s1.3-1.9,1.8-3.1h0.9v4.5h5.5l-0.2,1.4h-5.4l-0.1,8.9
		c0,1.1,0.1,1.9,0.3,2.5s0.5,1,0.9,1.3s0.9,0.4,1.5,0.4c0.4,0,0.9-0.1,1.3-0.3s0.8-0.4,1.2-0.6s0.5-0.3,0.5-0.4l0.4,0.9
		c-0.6,0.9-1.3,1.5-2.2,2s-1.8,0.8-2.8,0.8c-1.2,0-2.2-0.4-2.8-1.3s-0.9-2.2-0.9-4.1L770.8,783.3z"/>
	<path class="st0" d="M784.3,783.5l-2.8-0.8l0.2-1l4.9-0.4l0.3,0.3v10.5c0,3,1.1,4.5,3.4,4.5c0.8,0,1.6-0.2,2.2-0.6s1.3-0.8,1.8-1.4
		v-11.1l-3.1-0.7l0.1-1.2l5.2-0.5l0.3,0.3V794c0,1,0.1,1.7,0.4,2.1s0.8,0.7,1.5,0.9l1.1,0.2l-0.1,1.2c-0.5,0.1-0.9,0.2-1.2,0.3
		s-0.8,0.1-1.2,0.1c-0.8,0-1.5-0.3-2-0.8s-0.7-1.2-0.7-2v-0.2h-0.2c-0.7,1-1.5,1.7-2.4,2.3s-2,0.8-3,0.8c-3,0-4.5-1.9-4.5-5.8v-9.6
		H784.3z"/>
	<path class="st0" d="M810.4,798.3h-8.3l0.2-1.1l3-0.6v-13l-3.1-0.8l0.1-1l5.3-0.6l0.2,0.3l-0.2,2.6h0.2c0.7-0.9,1.6-1.6,2.7-2.2
		s2.2-0.9,3.3-0.9c1,0,1.9,0.3,2.7,0.8s1.2,1.4,1.5,2.4h0.2c0.7-0.9,1.5-1.6,2.6-2.2s2.1-0.9,3.3-0.9c1.6,0,2.8,0.5,3.5,1.5
		s1.1,2.4,1.1,4.2v10l2.8,0.5l-0.3,1.1h-7.8l0.1-1l2.5-0.6v-9.5c0-1.3-0.3-2.3-0.9-3s-1.4-1.1-2.5-1.1c-0.9,0-1.7,0.2-2.4,0.7
		s-1.4,1-2,1.7v11.2l2.7,0.5l-0.2,1.1H813l0.2-1.1l2.6-0.6v-9.5c0-1.2-0.3-2.2-0.9-2.9s-1.4-1.1-2.5-1.1c-0.9,0-1.7,0.2-2.5,0.6
		s-1.5,1-2,1.6v11.3l2.8,0.5L810.4,798.3z"/>
	<path class="st0" d="M841,782.6l0.1-1.1h7.9l-0.1,1l-2.9,0.7l4.1,11.9l4.1-11.9l-3.1-0.7l0.2-1.1h7l-0.2,1l-2.1,0.7l-5.5,15.3
		l-1.8,0.3l-5.5-15.5L841,782.6z"/>
	<path class="st0" d="M867,798.8c-1.5,0-2.9-0.4-4-1.1s-2.1-1.7-2.7-3s-0.9-2.8-0.9-4.5c0-1.9,0.4-3.6,1.1-5s1.7-2.5,3-3.3
		s2.6-1.1,4.1-1.1s2.8,0.4,3.9,1.2s2,1.8,2.6,3.2s0.9,2.8,0.9,4.5c0,1.8-0.4,3.3-1.1,4.7s-1.7,2.5-2.9,3.2S868.5,798.8,867,798.8z
		 M866.7,782.6c-1,0-1.8,0.3-2.5,0.8s-1.2,1.3-1.6,2.3s-0.5,2-0.5,3.2c0,1.5,0.2,2.9,0.6,4.1s1.1,2.3,1.9,3.1s1.9,1.2,3.1,1.2
		c0.9,0,1.7-0.3,2.3-0.9s1.2-1.3,1.5-2.3s0.5-2,0.5-3.2c0-1.4-0.2-2.7-0.6-4s-1-2.3-1.8-3.1S867.8,782.6,866.7,782.6z"/>
	<path class="st0" d="M884.6,798.3h-8.3l0.2-1l3-0.7v-13.1l-3-0.8l0.1-1l5.2-0.6l0.2,0.3l-0.2,2.6h0.2c0.7-0.8,1.5-1.5,2.6-2.2
		s2.3-1,3.4-1c1.4,0,2.5,0.5,3.3,1.4s1.2,2.4,1.2,4.2v10l2.8,0.5l-0.1,1.1H887l0.2-1l2.7-0.7v-9.4c0-1.4-0.3-2.5-0.9-3.1
		s-1.4-1-2.4-1c-0.9,0-1.7,0.2-2.4,0.5s-1.4,0.9-2.2,1.7v11.4l2.9,0.5L884.6,798.3z"/>
	<path class="st0" d="M904.9,798.3l0.2-1.1l3-0.6v-21.4l-3-0.8l0.1-1l5.1-0.4l0.3,0.3v23.3l3.1,0.6l-0.2,1.1L904.9,798.3
		L904.9,798.3z M913.8,793.3l-2.6-3.3v-0.4l5.6-6.5l-2.6-0.7l0.2-1.1h7.7l-0.2,1.1l-2.9,0.7l-5.2,6l2,2.3l1.4,1.7
		c0.8,1,1.5,1.8,1.9,2.3s0.9,0.9,1.4,1.2s1.1,0.5,1.7,0.5l0.8,0.1l-0.2,1.2c-0.3,0.1-0.6,0.2-1,0.3s-0.8,0.1-1.2,0.1
		c-0.8,0-1.4-0.2-2-0.5s-1.2-0.8-1.9-1.6S915,794.8,913.8,793.3z"/>
	<path class="st0" d="M929.2,798.8c-0.7,0-1.4-0.1-2-0.4s-1.1-0.7-1.5-1.2s-0.6-1.2-0.6-1.9c0-1.1,0.3-2.1,1-2.9s1.7-1.5,3.1-2.1
		s3.1-0.8,5.1-0.9V788c0-1.8-0.3-3.2-0.9-4.1s-1.5-1.4-2.9-1.4c-0.7,0-1.2,0.2-1.5,0.5s-0.6,0.8-0.7,1.4s-0.2,1.4-0.3,2.5
		c-0.6,0-1.1-0.1-1.6-0.4s-0.6-0.7-0.6-1.4s0.3-1.3,0.9-1.9s1.4-1.1,2.4-1.5s1.9-0.6,2.9-0.6c1.7,0,2.9,0.5,3.7,1.4s1.2,2.5,1.2,4.5
		v6.9c0,0.7,0,1.2,0.1,1.6s0.3,0.7,0.5,1s0.7,0.4,1.3,0.5l1.1,0.2l-0.2,1.2l-0.4,0.1c-0.4,0.1-0.7,0.2-1,0.2s-0.6,0.1-0.9,0.1
		c-0.9,0-1.6-0.3-2-0.8s-0.7-1.1-0.7-1.8v-0.3h-0.2c-0.2,0.4-0.6,0.9-1.1,1.3s-1.1,0.9-1.8,1.2S930.1,798.8,929.2,798.8z
		 M934.5,790.3c-4.3,0.5-6.5,1.9-6.5,4.2c0,0.4,0.1,0.8,0.3,1.2s0.5,0.7,0.9,0.9s0.8,0.4,1.4,0.4c0.9,0,1.6-0.2,2.4-0.7
		s1.2-1,1.6-1.6v-4.4H934.5z"/>
	<path class="st0" d="M943.2,783.5l-2.8-0.8l0.2-1l4.9-0.4l0.3,0.3v10.5c0,3,1.1,4.5,3.4,4.5c0.8,0,1.6-0.2,2.2-0.6s1.3-0.8,1.8-1.4
		v-11.1l-3.1-0.7l0.1-1.2l5.2-0.5l0.3,0.3V794c0,1,0.1,1.7,0.4,2.1s0.8,0.7,1.5,0.9l1.1,0.2l-0.1,1.2c-0.5,0.1-0.9,0.2-1.2,0.3
		s-0.8,0.1-1.2,0.1c-0.8,0-1.5-0.3-2-0.8s-0.7-1.2-0.7-2v-0.2H953c-0.7,1-1.5,1.7-2.4,2.3s-2,0.8-3,0.8c-3,0-4.5-1.9-4.5-5.8v-9.6
		H943.2z"/>
	<path class="st0" d="M971.4,798.3H961l0.2-1l3-0.7v-13.8h-2.9l0.2-1.1l2.7-0.4c0.2-1.9,0.6-3.4,1.3-4.7s1.5-2.2,2.5-2.9
		s2-0.9,2.9-0.9c1,0,1.9,0.2,2.5,0.6s1,0.9,1,1.6c0,0.4-0.1,0.8-0.4,1.1s-0.6,0.6-0.9,0.7c-0.5-0.7-1-1.2-1.6-1.7s-1.2-0.7-1.9-0.7
		c-0.8,0-1.5,0.4-2,1.2s-0.8,1.9-0.8,3.5v2.3h5l-0.3,1.4h-4.8v13.7l4.8,0.6L971.4,798.3z"/>
	<path class="st0" d="M978.5,775.3l-3-0.8l0.2-1.1l5-0.4l0.3,0.3v8.6l-0.3,2h0.2c1.8-2,3.7-3,5.6-3c1.2,0,2.3,0.3,3.3,1
		s1.7,1.6,2.2,2.9s0.8,2.7,0.8,4.3c0,2-0.4,3.7-1.3,5.2s-2,2.5-3.4,3.3s-3,1.1-4.7,1.1c-1.8,0-3.4-0.5-4.9-1.4L978.5,775.3
		L978.5,775.3z M981,785.3v10.6c0.4,0.4,1,0.7,1.7,0.9s1.5,0.3,2.4,0.3c0.8,0,1.7-0.3,2.4-0.8s1.4-1.3,1.9-2.3s0.7-2.2,0.7-3.6
		c0-2.2-0.4-4-1.1-5.4s-2-2-3.6-2c-0.7,0-1.4,0.2-2.1,0.6S981.7,784.5,981,785.3z"/>
	<path class="st0" d="M998.9,798.8c-0.7,0-1.4-0.1-2-0.4s-1.1-0.7-1.5-1.2s-0.6-1.2-0.6-1.9c0-1.1,0.3-2.1,1-2.9s1.7-1.5,3.1-2.1
		s3.1-0.8,5.1-0.9V788c0-1.8-0.3-3.2-0.9-4.1s-1.5-1.4-2.9-1.4c-0.7,0-1.2,0.2-1.5,0.5s-0.6,0.8-0.7,1.4s-0.2,1.4-0.3,2.5
		c-0.6,0-1.1-0.1-1.6-0.4s-0.6-0.7-0.6-1.4s0.3-1.3,0.9-1.9s1.4-1.1,2.4-1.5s1.9-0.6,2.9-0.6c1.7,0,2.9,0.5,3.7,1.4s1.2,2.5,1.2,4.5
		v6.9c0,0.7,0,1.2,0.1,1.6s0.3,0.7,0.5,1s0.7,0.4,1.3,0.5l1.1,0.2l-0.2,1.2l-0.4,0.1c-0.4,0.1-0.7,0.2-1,0.2s-0.6,0.1-0.9,0.1
		c-0.9,0-1.6-0.3-2-0.8s-0.7-1.1-0.7-1.8v-0.3h-0.2c-0.2,0.4-0.6,0.9-1.1,1.3s-1.1,0.9-1.8,1.2S999.8,798.8,998.9,798.8z
		 M1004.1,790.3c-4.3,0.5-6.5,1.9-6.5,4.2c0,0.4,0.1,0.8,0.3,1.2s0.5,0.7,0.9,0.9s0.8,0.4,1.4,0.4c0.9,0,1.6-0.2,2.4-0.7
		s1.2-1,1.6-1.6v-4.4H1004.1z"/>
	<path class="st0" d="M1021.8,798.3h-10.1l0.2-1l3-0.7v-13.1l-3.1-0.8l0.2-1l5.1-0.6l0.3,0.3l-0.3,4.8h0.3c0.3-1.1,0.7-2.1,1.2-2.9
		s1-1.5,1.6-1.9s1.2-0.7,1.8-0.7c0.7,0,1.2,0.2,1.6,0.5s0.6,0.8,0.6,1.3c0,0.3-0.1,0.7-0.3,1s-0.5,0.6-0.9,0.9c-0.7-0.7-1.4-1-2.1-1
		c-0.5,0-1,0.3-1.5,0.8s-0.9,1.2-1.2,2.1s-0.6,1.8-0.7,2.9v7.3l4.5,0.5L1021.8,798.3z"/>
	<path class="st0" d="M1032.7,798.9c-1.3,0-2.4-0.3-3.5-1s-1.9-1.6-2.5-3s-1-2.9-1-4.8c0-1.9,0.4-3.5,1.1-4.9s1.7-2.4,2.9-3.2
		s2.4-1.1,3.7-1.1c1.5,0,2.7,0.5,3.6,1.5s1.3,2.5,1.3,4.5c0,0.3,0,0.7-0.1,1.3s-0.1,1-0.2,1.3l-9.5,0.1c0,1.3,0.2,2.5,0.7,3.6
		s1,2,1.9,2.6s1.9,1,3.1,1c0.8,0,1.6-0.1,2.2-0.3s1.4-0.6,2.1-1.1l0.4,0.9c-0.7,0.8-1.6,1.4-2.6,1.9S1034,798.9,1032.7,798.9z
		 M1032.4,782.5c-0.7,0-1.3,0.2-1.9,0.7s-1,1.1-1.4,2s-0.5,2-0.6,3.2l6.9-0.4c0.1-0.3,0.1-0.8,0.1-1.6c0-1.2-0.3-2.1-0.8-2.8
		S1033.4,782.5,1032.4,782.5z"/>
	<path class="st0" d="M1049.2,798.3h-8.3l0.2-1.1l3-0.6v-13l-3.1-0.8l0.1-1l5.3-0.6l0.2,0.3l-0.2,2.6h0.2c0.7-0.9,1.6-1.6,2.7-2.2
		s2.2-0.9,3.3-0.9c1,0,1.9,0.3,2.7,0.8s1.2,1.4,1.5,2.4h0.2c0.7-0.9,1.5-1.6,2.6-2.2s2.1-0.9,3.3-0.9c1.6,0,2.8,0.5,3.5,1.5
		s1.1,2.4,1.1,4.2v10l2.8,0.5l-0.3,1.1h-7.8l0.1-1l2.5-0.6v-9.5c0-1.3-0.3-2.3-0.9-3s-1.4-1.1-2.5-1.1c-0.9,0-1.7,0.2-2.4,0.7
		s-1.4,1-2,1.7v11.2l2.7,0.5l-0.2,1.1h-7.8l0.2-1.1l2.6-0.6v-9.5c0-1.2-0.3-2.2-0.9-2.9s-1.4-1.1-2.5-1.1c-0.9,0-1.7,0.2-2.5,0.6
		s-1.5,1-2,1.6v11.3l2.8,0.5L1049.2,798.3z"/>
	<path class="st0" d="M1079.8,774h20.9l-0.7,6.5l-1.4-0.2l-0.5-4.9h-6.6v21.1l3.5,0.6l-0.2,1.2h-9.7l0.1-1.1l3.4-0.7v-21h-6.3
		l-0.9,5.1l-1.4-0.2L1079.8,774z"/>
	<path class="st0" d="M1110.2,798.3h-10.1l0.2-1l3-0.7v-13.1l-3.1-0.8l0.2-1l5.1-0.6l0.3,0.3l-0.3,4.8h0.3c0.3-1.1,0.7-2.1,1.2-2.9
		s1-1.5,1.6-1.9s1.2-0.7,1.8-0.7c0.7,0,1.2,0.2,1.6,0.5s0.6,0.8,0.6,1.3c0,0.3-0.1,0.7-0.3,1s-0.5,0.6-0.9,0.9c-0.7-0.7-1.4-1-2.1-1
		c-0.5,0-1,0.3-1.5,0.8s-0.9,1.2-1.2,2.1s-0.6,1.8-0.7,2.9v7.3l4.5,0.5L1110.2,798.3z"/>
	<path class="st0" d="M1114.9,798.3l0.2-1.1l2.9-0.6v-13.4l-3-0.8l0.2-1l5.1-0.4l0.3,0.3v15.3l3.1,0.6l-0.2,1.1L1114.9,798.3
		L1114.9,798.3z M1119,777c-0.5,0-0.9-0.2-1.2-0.6s-0.4-0.9-0.4-1.5s0.1-1.1,0.4-1.4s0.7-0.5,1.2-0.5s0.9,0.2,1.2,0.5
		s0.5,0.8,0.5,1.4c0,0.6-0.1,1.1-0.4,1.5S1119.6,777,1119,777z"/>
	<path class="st0" d="M1134.6,798.3h-8.3l0.2-1l3-0.7v-13.1l-3-0.8l0.1-1l5.2-0.6l0.2,0.3l-0.2,2.6h0.2c0.7-0.8,1.5-1.5,2.6-2.2
		s2.3-1,3.4-1c1.4,0,2.5,0.5,3.3,1.4s1.2,2.4,1.2,4.2v10l2.8,0.5l-0.1,1.1h-8.1l0.2-1l2.7-0.7v-9.4c0-1.4-0.3-2.5-0.9-3.1
		s-1.4-1-2.4-1c-0.9,0-1.7,0.2-2.4,0.5s-1.4,0.9-2.2,1.7v11.4l2.9,0.5L1134.6,798.3z"/>
	<path class="st0" d="M1147.7,798.3l0.2-1.1l3-0.6v-21.4l-3-0.8l0.1-1l5.1-0.4l0.3,0.3v23.3l3.1,0.6l-0.2,1.1L1147.7,798.3
		L1147.7,798.3z M1156.6,793.3l-2.6-3.3v-0.4l5.6-6.5l-2.6-0.7l0.2-1.1h7.7l-0.2,1.1l-2.9,0.7l-5.2,6l2,2.3l1.4,1.7
		c0.8,1,1.5,1.8,1.9,2.3s0.9,0.9,1.4,1.2s1.1,0.5,1.7,0.5l0.8,0.1l-0.2,1.2c-0.3,0.1-0.6,0.2-1,0.3s-0.8,0.1-1.2,0.1
		c-0.8,0-1.4-0.2-2-0.5s-1.2-0.8-1.9-1.6S1157.8,794.8,1156.6,793.3z"/>
	<path class="st0" d="M1167.6,782.5l0.1-1.1h7.5l-0.1,1.1l-2.6,0.6l2.4,8.1l0.7,3.1l3.2-11.6l2.2-0.4l2.7,9.2l0.6,3l3.1-11.4
		l-2.9-0.6l0.1-1.1h7l-0.2,1.1l-2.1,0.6l-4.3,15.4l-1.7,0.3l-3.7-12.8l-3.4,12.5l-1.7,0.3l-4.6-15.6L1167.6,782.5z"/>
	<path class="st0" d="M1197,798.8c-0.7,0-1.4-0.1-2-0.4s-1.1-0.7-1.5-1.2s-0.6-1.2-0.6-1.9c0-1.1,0.3-2.1,1-2.9s1.7-1.5,3.1-2.1
		s3.1-0.8,5.1-0.9V788c0-1.8-0.3-3.2-0.9-4.1s-1.5-1.4-2.9-1.4c-0.7,0-1.2,0.2-1.5,0.5s-0.6,0.8-0.7,1.4s-0.2,1.4-0.3,2.5
		c-0.6,0-1.1-0.1-1.6-0.4s-0.6-0.7-0.6-1.4s0.3-1.3,0.9-1.9s1.4-1.1,2.4-1.5s1.9-0.6,2.9-0.6c1.7,0,2.9,0.5,3.7,1.4s1.2,2.5,1.2,4.5
		v6.9c0,0.7,0,1.2,0.1,1.6s0.3,0.7,0.5,1s0.7,0.4,1.3,0.5l1.1,0.2l-0.2,1.2l-0.4,0.1c-0.4,0.1-0.7,0.2-1,0.2s-0.6,0.1-0.9,0.1
		c-0.9,0-1.6-0.3-2-0.8s-0.7-1.1-0.7-1.8v-0.3h-0.2c-0.2,0.4-0.6,0.9-1.1,1.3s-1.1,0.9-1.8,1.2S1197.9,798.8,1197,798.8z
		 M1202.2,790.3c-4.3,0.5-6.5,1.9-6.5,4.2c0,0.4,0.1,0.8,0.3,1.2s0.5,0.7,0.9,0.9s0.8,0.4,1.4,0.4c0.9,0,1.6-0.2,2.4-0.7
		s1.2-1,1.6-1.6v-4.4H1202.2z"/>
	<path class="st0" d="M1215.2,799c-1,0-2-0.2-2.8-0.5s-1.5-0.8-1.9-1.3s-0.7-1.2-0.7-1.9c0-0.6,0.2-1.1,0.6-1.5s0.9-0.6,1.5-0.7
		c0.3,1.5,0.8,2.6,1.4,3.3s1.5,1,2.5,1c0.8,0,1.5-0.2,2.1-0.7s0.8-1,0.8-1.7c0-0.5-0.2-0.9-0.5-1.3s-0.7-0.8-1.2-1.1
		s-1.1-0.7-1.9-1.2c-1-0.6-1.8-1.2-2.5-1.6s-1.1-1-1.6-1.7s-0.7-1.4-0.7-2.3c0-0.8,0.2-1.6,0.6-2.3s1-1.4,1.8-1.9s1.8-0.7,3-0.7
		c0.8,0,1.6,0.1,2.3,0.4s1.2,0.7,1.6,1.2s0.6,1.1,0.6,1.8s-0.2,1.3-0.6,1.6s-0.9,0.6-1.5,0.6l-0.2-0.8c-0.3-1.4-0.7-2.3-1.2-2.9
		s-1.1-0.8-1.8-0.8c-0.8,0-1.4,0.2-1.9,0.7s-0.7,1-0.7,1.8c0,0.6,0.2,1.1,0.5,1.6s0.8,0.9,1.3,1.3s1.2,0.8,2.1,1.3
		c1,0.6,1.8,1.1,2.4,1.6s1.1,1,1.5,1.6s0.6,1.3,0.6,2.1c0,0.9-0.3,1.8-0.8,2.5s-1.3,1.3-2.2,1.7S1216.2,799,1215.2,799z"/>
	<path class="st0" d="M1228.8,799c-1,0-2-0.2-2.8-0.5s-1.5-0.8-1.9-1.3s-0.7-1.2-0.7-1.9c0-0.6,0.2-1.1,0.6-1.5s0.9-0.6,1.5-0.7
		c0.3,1.5,0.8,2.6,1.4,3.3s1.5,1,2.5,1c0.8,0,1.5-0.2,2.1-0.7s0.8-1,0.8-1.7c0-0.5-0.2-0.9-0.5-1.3s-0.7-0.8-1.2-1.1
		s-1.1-0.7-1.9-1.2c-1-0.6-1.8-1.2-2.5-1.6s-1.1-1-1.6-1.7s-0.7-1.4-0.7-2.3c0-0.8,0.2-1.6,0.6-2.3s1-1.4,1.8-1.9s1.8-0.7,3-0.7
		c0.8,0,1.6,0.1,2.3,0.4s1.2,0.7,1.6,1.2s0.6,1.1,0.6,1.8s-0.2,1.3-0.6,1.6s-0.9,0.6-1.5,0.6l-0.2-0.8c-0.3-1.4-0.7-2.3-1.2-2.9
		s-1.1-0.8-1.8-0.8c-0.8,0-1.4,0.2-1.9,0.7s-0.7,1-0.7,1.8c0,0.6,0.2,1.1,0.5,1.6s0.8,0.9,1.3,1.3s1.2,0.8,2.1,1.3
		c1,0.6,1.8,1.1,2.4,1.6s1.1,1,1.5,1.6s0.6,1.3,0.6,2.1c0,0.9-0.3,1.8-0.8,2.5s-1.3,1.3-2.2,1.7S1229.8,799,1228.8,799z"/>
	<path class="st0" d="M1244,798.9c-1.3,0-2.4-0.3-3.5-1s-1.9-1.6-2.5-3s-1-2.9-1-4.8c0-1.9,0.4-3.5,1.1-4.9s1.7-2.4,2.9-3.2
		s2.4-1.1,3.7-1.1c1.5,0,2.7,0.5,3.6,1.5s1.3,2.5,1.3,4.5c0,0.3,0,0.7-0.1,1.3s-0.1,1-0.2,1.3l-9.5,0.1c0,1.3,0.2,2.5,0.7,3.6
		s1,2,1.9,2.6s1.9,1,3.1,1c0.8,0,1.6-0.1,2.2-0.3s1.4-0.6,2.1-1.1l0.4,0.9c-0.7,0.8-1.6,1.4-2.6,1.9S1245.2,798.9,1244,798.9z
		 M1243.7,782.5c-0.7,0-1.3,0.2-1.9,0.7s-1,1.1-1.4,2s-0.5,2-0.6,3.2l6.9-0.4c0.1-0.3,0.1-0.8,0.1-1.6c0-1.2-0.3-2.1-0.8-2.8
		S1244.6,782.5,1243.7,782.5z"/>
	<path class="st0" d="M1262.2,798.3h-10.1l0.2-1l3-0.7v-13.1l-3.1-0.8l0.2-1l5.1-0.6l0.3,0.3l-0.3,4.8h0.3c0.3-1.1,0.7-2.1,1.2-2.9
		s1-1.5,1.6-1.9s1.2-0.7,1.8-0.7c0.7,0,1.2,0.2,1.6,0.5s0.6,0.8,0.6,1.3c0,0.3-0.1,0.7-0.3,1s-0.5,0.6-0.9,0.9c-0.7-0.7-1.4-1-2.1-1
		c-0.5,0-1,0.3-1.5,0.8s-0.9,1.2-1.2,2.1s-0.6,1.8-0.7,2.9v7.3l4.5,0.5L1262.2,798.3z"/>
	<path class="st0" d="M567.5,846.3l0.2-1.1l2.9-0.6v-13.4l-3-0.8l0.2-1l5.1-0.4l0.3,0.3v15.3l3.1,0.6l-0.2,1.1L567.5,846.3
		L567.5,846.3z M571.6,825c-0.5,0-0.9-0.2-1.2-0.6s-0.4-0.9-0.4-1.5s0.1-1.1,0.4-1.4c0.3-0.4,0.7-0.5,1.2-0.5s0.9,0.2,1.2,0.5
		s0.5,0.8,0.5,1.4c0,0.6-0.1,1.1-0.4,1.5C572.5,824.8,572.1,825,571.6,825z"/>
	<path class="st0" d="M587.2,846.3h-8.3l0.2-1l3-0.7v-13.1l-3-0.8l0.1-1l5.2-0.6l0.2,0.3l-0.2,2.6h0.2c0.7-0.8,1.5-1.5,2.6-2.2
		c1.1-0.6,2.3-1,3.4-1c1.4,0,2.5,0.5,3.3,1.4c0.8,1,1.2,2.4,1.2,4.2v10l2.8,0.5l-0.1,1.1h-8.1l0.2-1l2.7-0.7v-9.4
		c0-1.4-0.3-2.5-0.9-3.1c-0.6-0.7-1.4-1-2.4-1c-0.9,0-1.7,0.2-2.4,0.5s-1.4,0.9-2.2,1.7v11.4l2.9,0.5L587.2,846.3z"/>
	<path class="st0" d="M618.1,846.3h-10.7l0.2-1.1l3.2-0.7v-20.2l-3.2-0.5l0.2-1.1l0.7-0.1c1.5-0.2,2.9-0.4,4.1-0.6s2.5-0.2,3.8-0.2
		c2.8,0,5.2,0.6,6.9,1.7c1.8,1.1,2.7,2.9,2.7,5.4c0,1.5-0.4,2.9-1.3,4.1s-2,2.1-3.4,2.8s-2.9,1-4.6,1c-0.5,0-1,0-1.4-0.1l-0.3-1.2h1
		c2.3-0.1,4-0.7,5.1-1.7c1.1-1.1,1.7-2.5,1.7-4.3c0-1.2-0.3-2.2-0.8-3.2s-1.3-1.7-2.3-2.3s-2.3-0.9-3.8-0.9c-0.3,0-0.7,0-1.2,0
		s-0.7,0.1-0.9,0.1v21.3l4.6,0.6L618.1,846.3z"/>
	<path class="st0" d="M627.3,823.2l0.2-1.2h18.6l-0.6,6.2l-1.3-0.2l-0.6-4.7h-9.8v9.9h6.2l0.8-2.5l1.4-0.2l-0.6,7.6l-1.3,0.2
		l-0.5-3.6h-5.9v10.1h10.3l1.7-4.9l1.2,0.2l-0.6,6.1h-18.9l0.1-1.1l3.3-0.7v-20.6L627.3,823.2z"/>
	<path class="st0" d="M648.9,822h20.9l-0.7,6.5l-1.4-0.2l-0.5-4.9h-6.6v21.1l3.5,0.6l-0.2,1.2h-9.7l0.1-1.1l3.4-0.7v-21h-6.3
		l-0.9,5.1l-1.4-0.2L648.9,822z"/>
	<path class="st0" d="M668.3,838.3l0.2-1.6l8-0.4l-0.2,1.6L668.3,838.3z"/>
	<path class="st0" d="M677.9,823.2l0.2-1.2h18.6l-0.7,6.3l-1.3-0.2l-0.5-4.7h-9.7v10.2h6.1l0.8-2.5l1.4-0.2l-0.6,7.6l-1.3,0.2
		l-0.5-3.7h-5.9v9.4l4.7,0.5l-0.2,1.3h-11l0.1-1.1l3.3-0.7v-20.6L677.9,823.2z"/>
	<path class="st0" d="M699,846.3l0.2-1.1l3-0.6v-21.5l-3-0.8l0.1-1l5.1-0.4l0.3,0.3v23.4l3.1,0.6l-0.2,1.1H699z"/>
	<path class="st0" d="M714.1,846.8c-0.7,0-1.4-0.1-2-0.4c-0.6-0.3-1.1-0.7-1.5-1.2s-0.6-1.2-0.6-1.9c0-1.1,0.3-2.1,1-2.9
		s1.7-1.5,3.1-2.1s3.1-0.8,5.1-0.9V836c0-1.8-0.3-3.2-0.9-4.1c-0.6-1-1.5-1.4-2.9-1.4c-0.7,0-1.2,0.2-1.5,0.5s-0.6,0.8-0.7,1.4
		c-0.1,0.6-0.2,1.4-0.3,2.5c-0.6,0-1.1-0.1-1.6-0.4s-0.6-0.7-0.6-1.4s0.3-1.3,0.9-1.9s1.4-1.1,2.4-1.5s1.9-0.6,2.9-0.6
		c1.7,0,2.9,0.5,3.7,1.4c0.8,1,1.2,2.5,1.2,4.5v6.9c0,0.7,0,1.2,0.1,1.6c0.1,0.4,0.3,0.7,0.5,1c0.3,0.2,0.7,0.4,1.3,0.5l1.1,0.2
		l-0.2,1.2l-0.4,0.1c-0.4,0.1-0.7,0.2-1,0.2s-0.6,0.1-0.9,0.1c-0.9,0-1.6-0.3-2-0.8c-0.5-0.5-0.7-1.1-0.7-1.8v-0.3h-0.2
		c-0.2,0.4-0.6,0.9-1.1,1.3c-0.5,0.5-1.1,0.9-1.8,1.2C715.9,846.6,715,846.8,714.1,846.8z M719.3,838.3c-4.3,0.5-6.5,1.9-6.5,4.2
		c0,0.4,0.1,0.8,0.3,1.2s0.5,0.7,0.9,0.9s0.8,0.4,1.4,0.4c0.9,0,1.6-0.2,2.4-0.7c0.7-0.4,1.2-1,1.6-1.6v-4.4H719.3z"/>
	<path class="st0" d="M732.3,847c-1,0-2-0.2-2.8-0.5s-1.5-0.8-1.9-1.3s-0.7-1.2-0.7-1.9c0-0.6,0.2-1.1,0.6-1.5s0.9-0.6,1.5-0.7
		c0.3,1.5,0.8,2.6,1.4,3.3c0.6,0.7,1.5,1,2.5,1c0.8,0,1.5-0.2,2.1-0.7s0.8-1,0.8-1.7c0-0.5-0.2-0.9-0.5-1.3
		c-0.3-0.4-0.7-0.8-1.2-1.1s-1.1-0.7-1.9-1.2c-1-0.6-1.8-1.2-2.5-1.6c-0.6-0.5-1.1-1-1.6-1.7c-0.4-0.7-0.7-1.4-0.7-2.3
		c0-0.8,0.2-1.6,0.6-2.3c0.4-0.8,1-1.4,1.8-1.9s1.8-0.7,3-0.7c0.8,0,1.6,0.1,2.3,0.4s1.2,0.7,1.6,1.2s0.6,1.1,0.6,1.8
		s-0.2,1.3-0.6,1.6s-0.9,0.6-1.5,0.6l-0.2-0.8c-0.3-1.4-0.7-2.3-1.2-2.9c-0.5-0.5-1.1-0.8-1.8-0.8c-0.8,0-1.4,0.2-1.9,0.7
		s-0.7,1-0.7,1.8c0,0.6,0.2,1.1,0.5,1.6s0.8,0.9,1.3,1.3c0.5,0.4,1.2,0.8,2.1,1.3c1,0.6,1.8,1.1,2.4,1.6s1.1,1,1.5,1.6
		s0.6,1.3,0.6,2.1c0,0.9-0.3,1.8-0.8,2.5s-1.3,1.3-2.2,1.7S733.3,847,732.3,847z"/>
	<path class="st0" d="M747.6,846.9c-1.5,0-2.7-0.4-3.8-1.1c-1.1-0.8-1.9-1.8-2.5-3.1s-0.9-2.7-0.9-4.3c0-1.9,0.4-3.5,1.1-5
		s1.7-2.5,2.8-3.3s2.5-1.2,3.9-1.2c1,0,1.9,0.1,2.6,0.4c0.7,0.3,1.2,0.7,1.5,1.2s0.5,1,0.5,1.5c0,1.1-0.6,1.7-1.9,1.9
		c-0.4-1.1-0.9-2-1.4-2.6c-0.6-0.6-1.3-0.9-2.1-0.9s-1.5,0.3-2.1,0.8s-1.1,1.2-1.5,2.2s-0.5,2.1-0.5,3.5c0,1.5,0.2,2.9,0.7,4.1
		c0.5,1.2,1.1,2.2,2,2.9s1.9,1,3,1c1.6,0,3-0.5,4.3-1.5l0.4,0.9c-0.3,0.5-0.8,0.9-1.4,1.3s-1.3,0.7-2.1,0.9
		C749.2,846.8,748.4,846.9,747.6,846.9z"/>
	<path class="st0" d="M764.1,846.3h-8.4l0.2-1.1l3-0.6v-21.4l-3.1-0.8l0.2-1.1l5.2-0.4l0.3,0.3v8.7l-0.3,2.1h0.2
		c0.8-0.9,1.8-1.7,2.8-2.2s2.1-0.9,3.1-0.9c1.5,0,2.6,0.5,3.4,1.4c0.8,0.9,1.2,2.4,1.2,4.6v9.8l2.8,0.5l-0.2,1.1h-8l0.2-1.1l2.7-0.6
		l0.1-9.3v-0.1c0-1.5-0.3-2.5-1-3.2c-0.6-0.7-1.5-1-2.4-1s-1.7,0.2-2.4,0.5s-1.4,0.9-2.1,1.7v11.4l2.8,0.6L764.1,846.3z"/>
	<path class="st0" d="M783.1,846.9c-1.3,0-2.4-0.3-3.5-1s-1.9-1.6-2.5-3s-1-2.9-1-4.8c0-1.9,0.4-3.5,1.1-4.9s1.7-2.4,2.9-3.2
		s2.4-1.1,3.7-1.1c1.5,0,2.7,0.5,3.6,1.5s1.3,2.5,1.3,4.5c0,0.3,0,0.7-0.1,1.3s-0.1,1-0.2,1.3l-9.5,0.1c0,1.3,0.2,2.5,0.7,3.6
		s1,2,1.9,2.6s1.9,1,3.1,1c0.8,0,1.6-0.1,2.2-0.3s1.4-0.6,2.1-1.1l0.4,0.9c-0.7,0.8-1.6,1.4-2.6,1.9S784.3,846.9,783.1,846.9z
		 M782.8,830.5c-0.7,0-1.3,0.2-1.9,0.7s-1,1.1-1.4,2s-0.5,2-0.6,3.2l6.9-0.4c0.1-0.3,0.1-0.8,0.1-1.6c0-1.2-0.3-2.1-0.8-2.8
		S783.7,830.5,782.8,830.5z"/>
	<path class="st0" d="M799.6,846.3h-8.3l0.2-1l3-0.7v-13.1l-3-0.8l0.1-1l5.2-0.6l0.2,0.3l-0.2,2.6h0.2c0.7-0.8,1.5-1.5,2.6-2.2
		c1.1-0.6,2.3-1,3.4-1c1.4,0,2.5,0.5,3.3,1.4c0.8,1,1.2,2.4,1.2,4.2v10l2.8,0.5l-0.1,1.1H802l0.2-1l2.7-0.7v-9.4
		c0-1.4-0.3-2.5-0.9-3.1c-0.6-0.7-1.4-1-2.4-1c-0.9,0-1.7,0.2-2.4,0.5s-1.4,0.9-2.2,1.7v11.4l2.9,0.5L799.6,846.3z"/>
	<path class="st0" d="M822.8,823.3l-3-0.8l0.2-1.1l5-0.4l0.3,0.3v8.6l-0.3,2h0.2c1.8-2,3.7-3,5.6-3c1.2,0,2.3,0.3,3.3,1
		s1.7,1.6,2.2,2.9s0.8,2.7,0.8,4.3c0,2-0.4,3.7-1.3,5.2s-2,2.5-3.4,3.3s-3,1.1-4.7,1.1c-1.8,0-3.4-0.5-4.9-1.4L822.8,823.3
		L822.8,823.3z M825.3,833.3v10.6c0.4,0.4,1,0.7,1.7,0.9s1.5,0.3,2.4,0.3c0.8,0,1.7-0.3,2.4-0.8s1.4-1.3,1.9-2.3s0.7-2.2,0.7-3.6
		c0-2.2-0.4-4-1.1-5.4s-2-2-3.6-2c-0.7,0-1.4,0.2-2.1,0.6S826.1,832.5,825.3,833.3z"/>
	<path class="st0" d="M846.6,846.9c-1.3,0-2.4-0.3-3.5-1s-1.9-1.6-2.5-3s-1-2.9-1-4.8c0-1.9,0.4-3.5,1.1-4.9s1.7-2.4,2.9-3.2
		s2.4-1.1,3.7-1.1c1.5,0,2.7,0.5,3.6,1.5s1.3,2.5,1.3,4.5c0,0.3,0,0.7-0.1,1.3s-0.1,1-0.2,1.3l-9.5,0.1c0,1.3,0.2,2.5,0.7,3.6
		s1,2,1.9,2.6s1.9,1,3.1,1c0.8,0,1.6-0.1,2.2-0.3s1.4-0.6,2.1-1.1l0.4,0.9c-0.7,0.8-1.6,1.4-2.6,1.9S847.9,846.9,846.6,846.9z
		 M846.3,830.5c-0.7,0-1.3,0.2-1.9,0.7s-1,1.1-1.4,2s-0.5,2-0.6,3.2l6.9-0.4c0.1-0.3,0.1-0.8,0.1-1.6c0-1.2-0.3-2.1-0.8-2.8
		S847.3,830.5,846.3,830.5z"/>
	<path class="st0" d="M855.1,845.1l10.1-14.2h-7.5l-1.1,4l-1.1-0.2l0.2-5.3h12.6v1l-10.2,14.3h8.1l1.5-3.8l1,0.1l-0.6,5.3h-12.9
		L855.1,845.1z"/>
	<path class="st0" d="M870.8,846.3l0.2-1.1l2.9-0.6v-13.4l-3-0.8l0.2-1l5.1-0.4l0.3,0.3v15.3l3.1,0.6l-0.2,1.1L870.8,846.3
		L870.8,846.3z M874.9,825c-0.5,0-0.9-0.2-1.2-0.6s-0.4-0.9-0.4-1.5s0.1-1.1,0.4-1.4s0.7-0.5,1.2-0.5s0.9,0.2,1.2,0.5
		s0.5,0.8,0.5,1.4c0,0.6-0.1,1.1-0.4,1.5S875.4,825,874.9,825z"/>
	<path class="st0" d="M888.2,846.9c-1.3,0-2.4-0.3-3.5-1s-1.9-1.6-2.5-3s-1-2.9-1-4.8c0-1.9,0.4-3.5,1.1-4.9s1.7-2.4,2.9-3.2
		s2.4-1.1,3.7-1.1c1.5,0,2.7,0.5,3.6,1.5s1.3,2.5,1.3,4.5c0,0.3,0,0.7-0.1,1.3s-0.1,1-0.2,1.3l-9.5,0.1c0,1.3,0.2,2.5,0.7,3.6
		s1,2,1.9,2.6s1.9,1,3.1,1c0.8,0,1.6-0.1,2.2-0.3s1.4-0.6,2.1-1.1l0.4,0.9c-0.7,0.8-1.6,1.4-2.6,1.9S889.4,846.9,888.2,846.9z
		 M887.9,830.5c-0.7,0-1.3,0.2-1.9,0.7s-1,1.1-1.4,2s-0.5,2-0.6,3.2l6.9-0.4c0.1-0.3,0.1-0.8,0.1-1.6c0-1.2-0.3-2.1-0.8-2.8
		S888.8,830.5,887.9,830.5z"/>
	<path class="st0" d="M904.7,846.3h-8.4l0.2-1.1l3-0.6v-21.4l-3.1-0.8l0.2-1.1l5.2-0.4l0.3,0.3v8.7l-0.3,2.1h0.2
		c0.8-0.9,1.8-1.7,2.8-2.2s2.1-0.9,3.1-0.9c1.5,0,2.6,0.5,3.4,1.4s1.2,2.4,1.2,4.6v9.8l2.8,0.5l-0.2,1.1h-8l0.2-1.1l2.7-0.6l0.1-9.3
		v-0.1c0-1.5-0.3-2.5-1-3.2s-1.5-1-2.4-1s-1.7,0.2-2.4,0.5s-1.4,0.9-2.1,1.7v11.4l2.8,0.6L904.7,846.3z"/>
	<path class="st0" d="M918.6,831.3h-2.5v-0.8c0.9-0.4,1.7-1.1,2.4-1.9s1.3-1.9,1.8-3.1h0.9v4.5h5.5l-0.2,1.4h-5.4l-0.1,8.9
		c0,1.1,0.1,1.9,0.3,2.5s0.5,1,0.9,1.3s0.9,0.4,1.5,0.4c0.4,0,0.9-0.1,1.3-0.3s0.8-0.4,1.2-0.6s0.5-0.3,0.5-0.4l0.4,0.9
		c-0.6,0.9-1.3,1.5-2.2,2s-1.8,0.8-2.8,0.8c-1.2,0-2.2-0.4-2.8-1.3s-0.9-2.2-0.9-4.1L918.6,831.3z"/>
	<path class="st0" d="M942.1,847c-1,0-2-0.2-2.8-0.5s-1.5-0.8-1.9-1.3s-0.7-1.2-0.7-1.9c0-0.6,0.2-1.1,0.6-1.5s0.9-0.6,1.5-0.7
		c0.3,1.5,0.8,2.6,1.4,3.3s1.5,1,2.5,1c0.8,0,1.5-0.2,2.1-0.7s0.8-1,0.8-1.7c0-0.5-0.2-0.9-0.5-1.3s-0.7-0.8-1.2-1.1
		s-1.1-0.7-1.9-1.2c-1-0.6-1.8-1.2-2.5-1.6s-1.1-1-1.6-1.7s-0.7-1.4-0.7-2.3c0-0.8,0.2-1.6,0.6-2.3s1-1.4,1.8-1.9s1.8-0.7,3-0.7
		c0.8,0,1.6,0.1,2.3,0.4s1.2,0.7,1.6,1.2s0.6,1.1,0.6,1.8s-0.2,1.3-0.6,1.6s-0.9,0.6-1.5,0.6l-0.2-0.8c-0.3-1.4-0.7-2.3-1.2-2.9
		s-1.1-0.8-1.8-0.8c-0.8,0-1.4,0.2-1.9,0.7s-0.7,1-0.7,1.8c0,0.6,0.2,1.1,0.5,1.6s0.8,0.9,1.3,1.3s1.2,0.8,2.1,1.3
		c1,0.6,1.8,1.1,2.4,1.6s1.1,1,1.5,1.6s0.6,1.3,0.6,2.1c0,0.9-0.3,1.8-0.8,2.5s-1.3,1.3-2.2,1.7S943.1,847,942.1,847z"/>
	<path class="st0" d="M949.8,846.3l0.2-1.1l2.9-0.6v-13.4l-3-0.8l0.2-1l5.1-0.4l0.3,0.3v15.3l3.1,0.6l-0.2,1.1L949.8,846.3
		L949.8,846.3z M953.9,825c-0.5,0-0.9-0.2-1.2-0.6s-0.4-0.9-0.4-1.5s0.1-1.1,0.4-1.4s0.7-0.5,1.2-0.5s0.9,0.2,1.2,0.5
		s0.5,0.8,0.5,1.4c0,0.6-0.1,1.1-0.4,1.5S954.4,825,953.9,825z"/>
	<path class="st0" d="M967.2,846.9c-1.5,0-2.7-0.4-3.8-1.1s-1.9-1.8-2.5-3.1s-0.9-2.7-0.9-4.3c0-1.9,0.4-3.5,1.1-5s1.7-2.5,2.8-3.3
		s2.5-1.2,3.9-1.2c1,0,1.9,0.1,2.6,0.4s1.2,0.7,1.5,1.2s0.5,1,0.5,1.5c0,1.1-0.6,1.7-1.9,1.9c-0.4-1.1-0.9-2-1.4-2.6
		s-1.3-0.9-2.1-0.9s-1.5,0.3-2.1,0.8s-1.1,1.2-1.5,2.2s-0.5,2.1-0.5,3.5c0,1.5,0.2,2.9,0.7,4.1s1.1,2.2,2,2.9s1.9,1,3,1
		c1.6,0,3-0.5,4.3-1.5l0.4,0.9c-0.3,0.5-0.8,0.9-1.4,1.3s-1.3,0.7-2.1,0.9S968,846.9,967.2,846.9z"/>
	<path class="st0" d="M983.7,846.3h-8.4l0.2-1.1l3-0.6v-21.4l-3.1-0.8l0.2-1.1l5.2-0.4l0.3,0.3v8.7l-0.3,2.1h0.2
		c0.8-0.9,1.8-1.7,2.8-2.2s2.1-0.9,3.1-0.9c1.5,0,2.6,0.5,3.4,1.4s1.2,2.4,1.2,4.6v9.8l2.8,0.5l-0.2,1.1h-8l0.2-1.1l2.7-0.6l0.1-9.3
		v-0.1c0-1.5-0.3-2.5-1-3.2s-1.5-1-2.4-1s-1.7,0.2-2.4,0.5s-1.4,0.9-2.1,1.7v11.4l2.8,0.6L983.7,846.3z"/>
	<path class="st0" d="M1012.2,846.3h-8.3l0.2-1l3-0.7v-13.1l-3-0.8l0.1-1l5.2-0.6l0.2,0.3l-0.2,2.6h0.2c0.7-0.8,1.5-1.5,2.6-2.2
		s2.3-1,3.4-1c1.4,0,2.5,0.5,3.3,1.4s1.2,2.4,1.2,4.2v10l2.8,0.5l-0.1,1.1h-8.1l0.2-1l2.7-0.7v-9.4c0-1.4-0.3-2.5-0.9-3.1
		s-1.4-1-2.4-1c-0.9,0-1.7,0.2-2.4,0.5s-1.4,0.9-2.2,1.7v11.4l2.9,0.5L1012.2,846.3z"/>
	<path class="st0" d="M1025.3,846.3l0.2-1.1l2.9-0.6v-13.4l-3-0.8l0.2-1l5.1-0.4l0.3,0.3v15.3l3.1,0.6l-0.2,1.1L1025.3,846.3
		L1025.3,846.3z M1029.4,825c-0.5,0-0.9-0.2-1.2-0.6s-0.4-0.9-0.4-1.5s0.1-1.1,0.4-1.4s0.7-0.5,1.2-0.5s0.9,0.2,1.2,0.5
		s0.5,0.8,0.5,1.4c0,0.6-0.1,1.1-0.4,1.5S1029.9,825,1029.4,825z"/>
	<path class="st0" d="M1042.7,846.9c-1.5,0-2.7-0.4-3.8-1.1s-1.9-1.8-2.5-3.1s-0.9-2.7-0.9-4.3c0-1.9,0.4-3.5,1.1-5s1.7-2.5,2.8-3.3
		s2.5-1.2,3.9-1.2c1,0,1.9,0.1,2.6,0.4s1.2,0.7,1.5,1.2s0.5,1,0.5,1.5c0,1.1-0.6,1.7-1.9,1.9c-0.4-1.1-0.9-2-1.4-2.6
		s-1.3-0.9-2.1-0.9c-0.8,0-1.5,0.3-2.1,0.8s-1.1,1.2-1.5,2.2s-0.5,2.1-0.5,3.5c0,1.5,0.2,2.9,0.7,4.1s1.1,2.2,2,2.9s1.9,1,3,1
		c1.6,0,3-0.5,4.3-1.5l0.4,0.9c-0.3,0.5-0.8,0.9-1.4,1.3s-1.3,0.7-2.1,0.9S1043.5,846.9,1042.7,846.9z"/>
	<path class="st0" d="M1059.2,846.3h-8.4l0.2-1.1l3-0.6v-21.4l-3.1-0.8l0.2-1.1l5.2-0.4l0.3,0.3v8.7l-0.3,2.1h0.2
		c0.8-0.9,1.8-1.7,2.8-2.2s2.1-0.9,3.1-0.9c1.5,0,2.6,0.5,3.4,1.4s1.2,2.4,1.2,4.6v9.8l2.8,0.5l-0.2,1.1h-8l0.2-1.1l2.7-0.6l0.1-9.3
		v-0.1c0-1.5-0.3-2.5-1-3.2s-1.5-1-2.4-1s-1.7,0.2-2.4,0.5s-1.4,0.9-2.1,1.7v11.4l2.8,0.6L1059.2,846.3z"/>
	<path class="st0" d="M1073.1,831.3h-2.5v-0.8c0.9-0.4,1.7-1.1,2.4-1.9s1.3-1.9,1.8-3.1h0.9v4.5h5.5l-0.2,1.4h-5.4l-0.1,8.9
		c0,1.1,0.1,1.9,0.3,2.5s0.5,1,0.9,1.3s0.9,0.4,1.5,0.4c0.4,0,0.9-0.1,1.3-0.3s0.8-0.4,1.2-0.6s0.5-0.3,0.5-0.4l0.4,0.9
		c-0.6,0.9-1.3,1.5-2.2,2s-1.8,0.8-2.8,0.8c-1.2,0-2.2-0.4-2.8-1.3s-0.9-2.2-0.9-4.1L1073.1,831.3z"/>
	<path class="st0" d="M1095.2,846.8c-0.7,0-1.4-0.1-2-0.4s-1.1-0.7-1.5-1.2s-0.6-1.2-0.6-1.9c0-1.1,0.3-2.1,1-2.9s1.7-1.5,3.1-2.1
		s3.1-0.8,5.1-0.9V836c0-1.8-0.3-3.2-0.9-4.1s-1.5-1.4-2.9-1.4c-0.7,0-1.2,0.2-1.5,0.5s-0.6,0.8-0.7,1.4s-0.2,1.4-0.3,2.5
		c-0.6,0-1.1-0.1-1.6-0.4s-0.6-0.7-0.6-1.4s0.3-1.3,0.9-1.9s1.4-1.1,2.4-1.5s1.9-0.6,2.9-0.6c1.7,0,2.9,0.5,3.7,1.4s1.2,2.5,1.2,4.5
		v6.9c0,0.7,0,1.2,0.1,1.6s0.3,0.7,0.5,1s0.7,0.4,1.3,0.5l1.1,0.2l-0.2,1.2l-0.4,0.1c-0.4,0.1-0.7,0.2-1,0.2s-0.6,0.1-0.9,0.1
		c-0.9,0-1.6-0.3-2-0.8s-0.7-1.1-0.7-1.8v-0.3h-0.2c-0.2,0.4-0.6,0.9-1.1,1.3s-1.1,0.9-1.8,1.2S1096.1,846.8,1095.2,846.8z
		 M1100.4,838.3c-4.3,0.5-6.5,1.9-6.5,4.2c0,0.4,0.1,0.8,0.3,1.2s0.5,0.7,0.9,0.9s0.8,0.4,1.4,0.4c0.9,0,1.6-0.2,2.4-0.7
		s1.2-1,1.6-1.6v-4.4H1100.4z"/>
	<path class="st0" d="M1109.1,831.5l-2.8-0.8l0.2-1l4.9-0.4l0.3,0.3v10.5c0,3,1.1,4.5,3.4,4.5c0.8,0,1.6-0.2,2.2-0.6
		s1.3-0.8,1.8-1.4v-11.1l-3.1-0.7l0.1-1.2l5.2-0.5l0.3,0.3V842c0,1,0.1,1.7,0.4,2.1s0.8,0.7,1.5,0.9l1.1,0.2l-0.1,1.2
		c-0.5,0.1-0.9,0.2-1.2,0.3s-0.8,0.1-1.2,0.1c-0.8,0-1.5-0.3-2-0.8s-0.7-1.2-0.7-2v-0.2h-0.2c-0.7,1-1.5,1.7-2.4,2.3s-2,0.8-3,0.8
		c-3,0-4.5-1.9-4.5-5.8v-9.6H1109.1z"/>
	<path class="st0" d="M1137.4,846.3h-10.5l0.2-1l3-0.7v-13.8h-2.9l0.2-1.1l2.7-0.4c0.2-1.9,0.6-3.4,1.3-4.7s1.5-2.2,2.5-2.9
		s2-0.9,2.9-0.9c1,0,1.9,0.2,2.5,0.6s1,0.9,1,1.6c0,0.4-0.1,0.8-0.4,1.1s-0.6,0.6-0.9,0.7c-0.5-0.7-1-1.2-1.6-1.7s-1.2-0.7-1.9-0.7
		c-0.8,0-1.5,0.4-2,1.2s-0.8,1.9-0.8,3.5v2.3h5l-0.3,1.4h-4.8v13.7l4.8,0.6L1137.4,846.3z"/>
	<path class="st0" d="M1153.5,846.7c-1.2,0-2.2-0.3-3.2-0.9s-1.7-1.5-2.2-2.8s-0.8-2.7-0.8-4.4c0-1.9,0.4-3.5,1.2-5s1.8-2.6,3.1-3.4
		s2.6-1.2,4-1.2c0.6,0,1.3,0.1,2,0.3s1.2,0.4,1.6,0.7h0.2l-0.3-2.6v-4.1l-3-0.8l0.2-1l5-0.4l0.3,0.3V842c0,0.8,0.1,1.4,0.3,1.8
		s0.4,0.7,0.6,0.8s0.6,0.3,1,0.3l1,0.2l-0.2,1.2c-0.5,0.1-0.9,0.2-1.2,0.3s-0.7,0.1-1.2,0.1c-0.9,0-1.6-0.3-2-0.8s-0.7-1.2-0.7-2.1
		v-0.1h-0.2c-0.6,0.9-1.4,1.6-2.4,2.1S1154.8,846.7,1153.5,846.7z M1154.6,830.5c-0.9,0-1.8,0.3-2.5,0.8s-1.2,1.4-1.6,2.4
		s-0.6,2.3-0.6,3.7c0,2.3,0.4,4.1,1.2,5.4s2,1.9,3.5,1.9c0.8,0,1.6-0.2,2.5-0.7s1.5-1,1.9-1.6v-9.6c-0.5-0.8-1.2-1.4-2-1.8
		S1155.5,830.5,1154.6,830.5z"/>
	<path class="st0" d="M1170.8,846.8c-0.7,0-1.4-0.1-2-0.4s-1.1-0.7-1.5-1.2s-0.6-1.2-0.6-1.9c0-1.1,0.3-2.1,1-2.9s1.7-1.5,3.1-2.1
		s3.1-0.8,5.1-0.9V836c0-1.8-0.3-3.2-0.9-4.1s-1.5-1.4-2.9-1.4c-0.7,0-1.2,0.2-1.5,0.5s-0.6,0.8-0.7,1.4s-0.2,1.4-0.3,2.5
		c-0.6,0-1.1-0.1-1.6-0.4s-0.6-0.7-0.6-1.4s0.3-1.3,0.9-1.9s1.4-1.1,2.4-1.5s1.9-0.6,2.9-0.6c1.7,0,2.9,0.5,3.7,1.4s1.2,2.5,1.2,4.5
		v6.9c0,0.7,0,1.2,0.1,1.6s0.3,0.7,0.5,1s0.7,0.4,1.3,0.5l1.1,0.2l-0.2,1.2l-0.4,0.1c-0.4,0.1-0.7,0.2-1,0.2s-0.6,0.1-0.9,0.1
		c-0.9,0-1.6-0.3-2-0.8s-0.7-1.1-0.7-1.8v-0.3h-0.2c-0.2,0.4-0.6,0.9-1.1,1.3s-1.1,0.9-1.8,1.2S1171.8,846.8,1170.8,846.8z
		 M1176.1,838.3c-4.3,0.5-6.5,1.9-6.5,4.2c0,0.4,0.1,0.8,0.3,1.2s0.5,0.7,0.9,0.9s0.8,0.4,1.4,0.4c0.9,0,1.6-0.2,2.4-0.7
		s1.2-1,1.6-1.6v-4.4H1176.1z"/>
	<path class="st0" d="M1189.1,847c-1,0-2-0.2-2.8-0.5s-1.5-0.8-1.9-1.3s-0.7-1.2-0.7-1.9c0-0.6,0.2-1.1,0.6-1.5s0.9-0.6,1.5-0.7
		c0.3,1.5,0.8,2.6,1.4,3.3s1.5,1,2.5,1c0.8,0,1.5-0.2,2.1-0.7s0.8-1,0.8-1.7c0-0.5-0.2-0.9-0.5-1.3s-0.7-0.8-1.2-1.1
		s-1.1-0.7-1.9-1.2c-1-0.6-1.8-1.2-2.5-1.6s-1.1-1-1.6-1.7s-0.7-1.4-0.7-2.3c0-0.8,0.2-1.6,0.6-2.3s1-1.4,1.8-1.9s1.8-0.7,3-0.7
		c0.8,0,1.6,0.1,2.3,0.4s1.2,0.7,1.6,1.2s0.6,1.1,0.6,1.8s-0.2,1.3-0.6,1.6s-0.9,0.6-1.5,0.6l-0.2-0.8c-0.3-1.4-0.7-2.3-1.2-2.9
		s-1.1-0.8-1.8-0.8c-0.8,0-1.4,0.2-1.9,0.7s-0.7,1-0.7,1.8c0,0.6,0.2,1.1,0.5,1.6s0.8,0.9,1.3,1.3s1.2,0.8,2.1,1.3
		c1,0.6,1.8,1.1,2.4,1.6s1.1,1,1.5,1.6s0.6,1.3,0.6,2.1c0,0.9-0.3,1.8-0.8,2.5s-1.3,1.3-2.2,1.7S1190.1,847,1189.1,847z"/>
	<path class="st0" d="M1204.4,823.1l0.2-1.1h8.9l-0.2,1.1l-3.2,0.7l5.2,18.2l5.7-19l2.2-0.3l5.2,19.2l5.7-17.9l-3.6-0.7l0.2-1.1h8.1
		l-0.2,1.1l-2.3,0.7l-7.4,22.6l-2.1,0.4l-5.2-19.5l-5.7,19l-2.3,0.4l-6.5-23L1204.4,823.1z"/>
	<path class="st0" d="M1242,846.8c-0.7,0-1.4-0.1-2-0.4s-1.1-0.7-1.5-1.2s-0.6-1.2-0.6-1.9c0-1.1,0.3-2.1,1-2.9s1.7-1.5,3.1-2.1
		s3.1-0.8,5.1-0.9V836c0-1.8-0.3-3.2-0.9-4.1s-1.5-1.4-2.9-1.4c-0.7,0-1.2,0.2-1.5,0.5s-0.6,0.8-0.7,1.4s-0.2,1.4-0.3,2.5
		c-0.6,0-1.1-0.1-1.6-0.4s-0.6-0.7-0.6-1.4s0.3-1.3,0.9-1.9s1.4-1.1,2.4-1.5s1.9-0.6,2.9-0.6c1.7,0,2.9,0.5,3.7,1.4s1.2,2.5,1.2,4.5
		v6.9c0,0.7,0,1.2,0.1,1.6s0.3,0.7,0.5,1s0.7,0.4,1.3,0.5l1.1,0.2l-0.2,1.2l-0.4,0.1c-0.4,0.1-0.7,0.2-1,0.2s-0.6,0.1-0.9,0.1
		c-0.9,0-1.6-0.3-2-0.8s-0.7-1.1-0.7-1.8v-0.3h-0.2c-0.2,0.4-0.6,0.9-1.1,1.3s-1.1,0.9-1.8,1.2S1242.9,846.8,1242,846.8z
		 M1247.2,838.3c-4.3,0.5-6.5,1.9-6.5,4.2c0,0.4,0.1,0.8,0.3,1.2s0.5,0.7,0.9,0.9s0.8,0.4,1.4,0.4c0.9,0,1.6-0.2,2.4-0.7
		s1.2-1,1.6-1.6v-4.4H1247.2z"/>
	<path class="st0" d="M1260.2,847c-1,0-2-0.2-2.8-0.5s-1.5-0.8-1.9-1.3s-0.7-1.2-0.7-1.9c0-0.6,0.2-1.1,0.6-1.5s0.9-0.6,1.5-0.7
		c0.3,1.5,0.8,2.6,1.4,3.3s1.5,1,2.5,1c0.8,0,1.5-0.2,2.1-0.7s0.8-1,0.8-1.7c0-0.5-0.2-0.9-0.5-1.3s-0.7-0.8-1.2-1.1
		s-1.1-0.7-1.9-1.2c-1-0.6-1.8-1.2-2.5-1.6s-1.1-1-1.6-1.7s-0.7-1.4-0.7-2.3c0-0.8,0.2-1.6,0.6-2.3s1-1.4,1.8-1.9s1.8-0.7,3-0.7
		c0.8,0,1.6,0.1,2.3,0.4s1.2,0.7,1.6,1.2s0.6,1.1,0.6,1.8s-0.2,1.3-0.6,1.6s-0.9,0.6-1.5,0.6l-0.2-0.8c-0.3-1.4-0.7-2.3-1.2-2.9
		s-1.1-0.8-1.8-0.8c-0.8,0-1.4,0.2-1.9,0.7s-0.7,1-0.7,1.8c0,0.6,0.2,1.1,0.5,1.6s0.8,0.9,1.3,1.3s1.2,0.8,2.1,1.3
		c1,0.6,1.8,1.1,2.4,1.6s1.1,1,1.5,1.6s0.6,1.3,0.6,2.1c0,0.9-0.3,1.8-0.8,2.5s-1.3,1.3-2.2,1.7S1261.2,847,1260.2,847z"/>
	<path class="st0" d="M1273.8,847c-1,0-2-0.2-2.8-0.5s-1.5-0.8-1.9-1.3s-0.7-1.2-0.7-1.9c0-0.6,0.2-1.1,0.6-1.5s0.9-0.6,1.5-0.7
		c0.3,1.5,0.8,2.6,1.4,3.3s1.5,1,2.5,1c0.8,0,1.5-0.2,2.1-0.7s0.8-1,0.8-1.7c0-0.5-0.2-0.9-0.5-1.3s-0.7-0.8-1.2-1.1
		s-1.1-0.7-1.9-1.2c-1-0.6-1.8-1.2-2.5-1.6s-1.1-1-1.6-1.7s-0.7-1.4-0.7-2.3c0-0.8,0.2-1.6,0.6-2.3s1-1.4,1.8-1.9s1.8-0.7,3-0.7
		c0.8,0,1.6,0.1,2.3,0.4s1.2,0.7,1.6,1.2s0.6,1.1,0.6,1.8s-0.2,1.3-0.6,1.6s-0.9,0.6-1.5,0.6l-0.2-0.8c-0.3-1.4-0.7-2.3-1.2-2.9
		s-1.1-0.8-1.8-0.8c-0.8,0-1.4,0.2-1.9,0.7s-0.7,1-0.7,1.8c0,0.6,0.2,1.1,0.5,1.6s0.8,0.9,1.3,1.3s1.2,0.8,2.1,1.3
		c1,0.6,1.8,1.1,2.4,1.6s1.1,1,1.5,1.6s0.6,1.3,0.6,2.1c0,0.9-0.3,1.8-0.8,2.5s-1.3,1.3-2.2,1.7S1274.8,847,1273.8,847z"/>
	<path class="st0" d="M1289,846.9c-1.3,0-2.4-0.3-3.5-1s-1.9-1.6-2.5-3s-1-2.9-1-4.8c0-1.9,0.4-3.5,1.1-4.9s1.7-2.4,2.9-3.2
		s2.4-1.1,3.7-1.1c1.5,0,2.7,0.5,3.6,1.5s1.3,2.5,1.3,4.5c0,0.3,0,0.7-0.1,1.3s-0.1,1-0.2,1.3l-9.5,0.1c0,1.3,0.2,2.5,0.7,3.6
		s1,2,1.9,2.6s1.9,1,3.1,1c0.8,0,1.6-0.1,2.2-0.3s1.4-0.6,2.1-1.1l0.4,0.9c-0.7,0.8-1.6,1.4-2.6,1.9S1290.2,846.9,1289,846.9z
		 M1288.7,830.5c-0.7,0-1.3,0.2-1.9,0.7s-1,1.1-1.4,2s-0.5,2-0.6,3.2l6.9-0.4c0.1-0.3,0.1-0.8,0.1-1.6c0-1.2-0.3-2.1-0.8-2.8
		S1289.6,830.5,1288.7,830.5z"/>
	<path class="st0" d="M1307.2,846.3h-10.1l0.2-1l3-0.7v-13.1l-3.1-0.8l0.2-1l5.1-0.6l0.3,0.3l-0.3,4.8h0.3c0.3-1.1,0.7-2.1,1.2-2.9
		s1-1.5,1.6-1.9s1.2-0.7,1.8-0.7c0.7,0,1.2,0.2,1.6,0.5s0.6,0.8,0.6,1.3c0,0.3-0.1,0.7-0.3,1s-0.5,0.6-0.9,0.9c-0.7-0.7-1.4-1-2.1-1
		c-0.5,0-1,0.3-1.5,0.8s-0.9,1.2-1.2,2.1s-0.6,1.8-0.7,2.9v7.3l4.5,0.5L1307.2,846.3z"/>
	<path class="st0" d="M1310.9,852.1l-0.4-1.1c2.3-0.8,3.5-2,3.5-3.7c0-0.7-0.2-1.3-0.6-1.7s-0.9-0.7-1.6-0.7c-0.2,0-0.4,0-0.6,0.1
		c-0.1-0.3-0.2-0.6-0.2-0.8c0-0.6,0.2-1.1,0.6-1.5s0.9-0.6,1.5-0.6c0.5,0,1,0.1,1.5,0.4s0.9,0.8,1.2,1.4s0.5,1.4,0.5,2.3
		c0,1.2-0.4,2.3-1.2,3.4S1312.9,851.5,1310.9,852.1z"/>
	<path class="st0" d="M572.9,895c-1,0-2-0.2-2.8-0.5s-1.5-0.8-1.9-1.3s-0.7-1.2-0.7-1.9c0-0.6,0.2-1.1,0.6-1.5s0.9-0.6,1.5-0.7
		c0.3,1.5,0.8,2.6,1.4,3.3c0.6,0.7,1.5,1,2.5,1c0.8,0,1.5-0.2,2.1-0.7s0.8-1,0.8-1.7c0-0.5-0.2-0.9-0.5-1.3
		c-0.3-0.4-0.7-0.8-1.2-1.1s-1.1-0.7-1.9-1.2c-1-0.6-1.8-1.2-2.5-1.6c-0.6-0.5-1.1-1-1.6-1.7c-0.4-0.7-0.7-1.4-0.7-2.3
		c0-0.8,0.2-1.6,0.6-2.3c0.4-0.8,1-1.4,1.8-1.9s1.8-0.7,3-0.7c0.8,0,1.6,0.1,2.3,0.4s1.2,0.7,1.6,1.2s0.6,1.1,0.6,1.8
		s-0.2,1.3-0.6,1.6s-0.9,0.6-1.5,0.6l-0.2-0.8c-0.3-1.4-0.7-2.3-1.2-2.9c-0.5-0.5-1.1-0.8-1.8-0.8c-0.8,0-1.4,0.2-1.9,0.7
		s-0.7,1-0.7,1.8c0,0.6,0.2,1.1,0.5,1.6s0.8,0.9,1.3,1.3c0.5,0.4,1.2,0.8,2.1,1.3c1,0.6,1.8,1.1,2.4,1.6s1.1,1,1.5,1.6
		s0.6,1.3,0.6,2.1c0,0.9-0.3,1.8-0.8,2.5s-1.3,1.3-2.2,1.7S573.9,895,572.9,895z"/>
	<path class="st0" d="M588.7,894.8c-1.5,0-2.9-0.4-4-1.1c-1.2-0.7-2.1-1.7-2.7-3c-0.6-1.3-0.9-2.8-0.9-4.5c0-1.9,0.4-3.6,1.1-5
		c0.7-1.4,1.7-2.5,3-3.3s2.6-1.1,4.1-1.1s2.8,0.4,3.9,1.2s2,1.8,2.6,3.2c0.6,1.3,0.9,2.8,0.9,4.5c0,1.8-0.4,3.3-1.1,4.7
		s-1.7,2.5-2.9,3.2C591.4,894.5,590.1,894.8,588.7,894.8z M588.3,878.6c-1,0-1.8,0.3-2.5,0.8c-0.7,0.6-1.2,1.3-1.6,2.3
		c-0.4,1-0.5,2-0.5,3.2c0,1.5,0.2,2.9,0.6,4.1c0.4,1.3,1.1,2.3,1.9,3.1c0.8,0.8,1.9,1.2,3.1,1.2c0.9,0,1.7-0.3,2.3-0.9
		s1.2-1.3,1.5-2.3s0.5-2,0.5-3.2c0-1.4-0.2-2.7-0.6-4s-1-2.3-1.8-3.1S589.5,878.6,588.3,878.6z"/>
	<path class="st0" d="M606.2,894.3h-8.3l0.2-1l3-0.7v-13.1l-3-0.8l0.1-1l5.2-0.6l0.2,0.3l-0.2,2.6h0.2c0.7-0.8,1.5-1.5,2.6-2.2
		c1.1-0.6,2.3-1,3.4-1c1.4,0,2.5,0.5,3.3,1.4c0.8,1,1.2,2.4,1.2,4.2v10l2.8,0.5l-0.1,1.1h-8.1l0.2-1l2.7-0.7v-9.4
		c0-1.4-0.3-2.5-0.9-3.1c-0.6-0.7-1.4-1-2.4-1c-0.9,0-1.7,0.2-2.4,0.5s-1.4,0.9-2.2,1.7v11.4l2.9,0.5L606.2,894.3z"/>
	<path class="st0" d="M624.6,894.7c-1.2,0-2.2-0.3-3.2-0.9s-1.7-1.5-2.2-2.8s-0.8-2.7-0.8-4.4c0-1.9,0.4-3.5,1.2-5s1.8-2.6,3.1-3.4
		c1.3-0.8,2.6-1.2,4-1.2c0.6,0,1.3,0.1,2,0.3s1.2,0.4,1.6,0.7h0.2l-0.3-2.6v-4.1l-3-0.8l0.2-1l5-0.4l0.3,0.3V890
		c0,0.8,0.1,1.4,0.3,1.8c0.2,0.4,0.4,0.7,0.6,0.8s0.6,0.3,1,0.3l1,0.2l-0.2,1.2c-0.5,0.1-0.9,0.2-1.2,0.3s-0.7,0.1-1.2,0.1
		c-0.9,0-1.6-0.3-2-0.8s-0.7-1.2-0.7-2.1v-0.1h-0.2c-0.6,0.9-1.4,1.6-2.4,2.1C627,894.4,625.9,894.7,624.6,894.7z M625.7,878.5
		c-0.9,0-1.8,0.3-2.5,0.8s-1.2,1.4-1.6,2.4c-0.4,1-0.6,2.3-0.6,3.7c0,2.3,0.4,4.1,1.2,5.4c0.8,1.3,2,1.9,3.5,1.9
		c0.8,0,1.6-0.2,2.5-0.7s1.5-1,1.9-1.6v-9.6c-0.5-0.8-1.2-1.4-2-1.8C627.4,878.7,626.6,878.5,625.7,878.5z"/>
	<path class="st0" d="M644.1,894.9c-1.3,0-2.4-0.3-3.5-1s-1.9-1.6-2.5-3c-0.6-1.3-1-2.9-1-4.8c0-1.9,0.4-3.5,1.1-4.9
		c0.7-1.4,1.7-2.4,2.9-3.2c1.2-0.7,2.4-1.1,3.7-1.1c1.5,0,2.7,0.5,3.6,1.5s1.3,2.5,1.3,4.5c0,0.3,0,0.7-0.1,1.3
		c-0.1,0.5-0.1,1-0.2,1.3l-9.5,0.1c0,1.3,0.2,2.5,0.7,3.6s1,2,1.9,2.6c0.8,0.7,1.9,1,3.1,1c0.8,0,1.6-0.1,2.2-0.3s1.4-0.6,2.1-1.1
		l0.4,0.9c-0.7,0.8-1.6,1.4-2.6,1.9C646.5,894.7,645.4,894.9,644.1,894.9z M643.8,878.5c-0.7,0-1.3,0.2-1.9,0.7
		c-0.6,0.4-1,1.1-1.4,2s-0.6,2-0.6,3.2l6.9-0.4c0.1-0.3,0.1-0.8,0.1-1.6c0-1.2-0.3-2.1-0.8-2.8C645.5,878.9,644.7,878.5,643.8,878.5
		z"/>
	<path class="st0" d="M662.3,894.3h-10.1l0.2-1l3-0.7v-13.1l-3.1-0.8l0.2-1l5.1-0.6l0.3,0.3l-0.3,4.8h0.3c0.3-1.1,0.7-2.1,1.2-2.9
		s1-1.5,1.6-1.9s1.2-0.7,1.8-0.7c0.7,0,1.2,0.2,1.6,0.5s0.6,0.8,0.6,1.3c0,0.3-0.1,0.7-0.3,1s-0.5,0.6-0.9,0.9c-0.7-0.7-1.4-1-2.1-1
		c-0.5,0-1,0.3-1.5,0.8s-0.9,1.2-1.2,2.1c-0.3,0.9-0.6,1.8-0.7,2.9v7.3l4.5,0.5L662.3,894.3z"/>
	<path class="st0" d="M675.4,894.3h-8.3l0.2-1l3-0.7v-13.1l-3-0.8l0.1-1l5.2-0.6l0.2,0.3l-0.2,2.6h0.2c0.7-0.8,1.5-1.5,2.6-2.2
		c1.1-0.6,2.3-1,3.4-1c1.4,0,2.5,0.5,3.3,1.4c0.8,1,1.2,2.4,1.2,4.2v10l2.8,0.5L686,894h-8.1l0.2-1l2.7-0.7v-9.4
		c0-1.4-0.3-2.5-0.9-3.1c-0.6-0.7-1.4-1-2.4-1c-0.9,0-1.7,0.2-2.4,0.5s-1.4,0.9-2.2,1.7v11.4l2.9,0.5L675.4,894.3z"/>
	<path class="st0" d="M699.7,894.8c-0.7,0-1.4-0.1-2-0.4c-0.6-0.3-1.1-0.7-1.5-1.2s-0.6-1.2-0.6-1.9c0-1.1,0.3-2.1,1-2.9
		s1.7-1.5,3.1-2.1s3.1-0.8,5.1-0.9V884c0-1.8-0.3-3.2-0.9-4.1c-0.6-1-1.5-1.4-2.9-1.4c-0.7,0-1.2,0.2-1.5,0.5s-0.6,0.8-0.7,1.4
		c-0.1,0.6-0.2,1.4-0.3,2.5c-0.6,0-1.1-0.1-1.6-0.4s-0.6-0.7-0.6-1.4s0.3-1.3,0.9-1.9s1.4-1.1,2.4-1.5s1.9-0.6,2.9-0.6
		c1.7,0,2.9,0.5,3.7,1.4c0.8,1,1.2,2.5,1.2,4.5v6.9c0,0.7,0,1.2,0.1,1.6c0.1,0.4,0.3,0.7,0.5,1c0.3,0.2,0.7,0.4,1.3,0.5l1.1,0.2
		l-0.2,1.2l-0.4,0.1c-0.4,0.1-0.7,0.2-1,0.2s-0.6,0.1-0.9,0.1c-0.9,0-1.6-0.3-2-0.8c-0.5-0.5-0.7-1.1-0.7-1.8v-0.3H705
		c-0.2,0.4-0.6,0.9-1.1,1.3c-0.5,0.5-1.1,0.9-1.8,1.2C701.5,894.6,700.7,894.8,699.7,894.8z M705,886.3c-4.3,0.5-6.5,1.9-6.5,4.2
		c0,0.4,0.1,0.8,0.3,1.2s0.5,0.7,0.9,0.9s0.8,0.4,1.4,0.4c0.9,0,1.6-0.2,2.4-0.7c0.7-0.4,1.2-1,1.6-1.6v-4.4H705z"/>
	<path class="st0" d="M713.7,879.5l-2.8-0.8l0.2-1l4.9-0.4l0.3,0.3v10.5c0,3,1.1,4.5,3.4,4.5c0.8,0,1.6-0.2,2.2-0.6s1.3-0.8,1.8-1.4
		v-11.1l-3.1-0.7l0.1-1.2l5.2-0.5l0.3,0.3V890c0,1,0.1,1.7,0.4,2.1s0.8,0.7,1.5,0.9l1.1,0.2l-0.1,1.2c-0.5,0.1-0.9,0.2-1.2,0.3
		c-0.4,0.1-0.8,0.1-1.2,0.1c-0.8,0-1.5-0.3-2-0.8s-0.7-1.2-0.7-2v-0.2h-0.2c-0.7,1-1.5,1.7-2.4,2.3c-0.9,0.5-2,0.8-3,0.8
		c-3,0-4.5-1.9-4.5-5.8v-9.6H713.7z"/>
	<path class="st0" d="M742,894.3h-10.5l0.2-1l3-0.7v-13.8h-2.9l0.2-1.1l2.7-0.4c0.2-1.9,0.6-3.4,1.3-4.7s1.5-2.2,2.5-2.9
		s2-0.9,2.9-0.9c1,0,1.9,0.2,2.5,0.6c0.6,0.4,1,0.9,1,1.6c0,0.4-0.1,0.8-0.4,1.1s-0.6,0.6-0.9,0.7c-0.5-0.7-1-1.2-1.6-1.7
		s-1.2-0.7-1.9-0.7c-0.8,0-1.5,0.4-2,1.2s-0.8,1.9-0.8,3.5v2.3h5l-0.3,1.4h-4.8v13.7l4.8,0.6V894.3z"/>
	<path class="st0" d="M758.1,894.7c-1.2,0-2.2-0.3-3.2-0.9s-1.7-1.5-2.2-2.8s-0.8-2.7-0.8-4.4c0-1.9,0.4-3.5,1.2-5s1.8-2.6,3.1-3.4
		c1.3-0.8,2.6-1.2,4-1.2c0.6,0,1.3,0.1,2,0.3s1.2,0.4,1.6,0.7h0.2l-0.3-2.6v-4.1l-3-0.8l0.2-1l5-0.4l0.3,0.3V890
		c0,0.8,0.1,1.4,0.3,1.8c0.2,0.4,0.4,0.7,0.6,0.8s0.6,0.3,1,0.3l1,0.2l-0.2,1.2c-0.5,0.1-0.9,0.2-1.2,0.3s-0.7,0.1-1.2,0.1
		c-0.9,0-1.6-0.3-2-0.8s-0.7-1.2-0.7-2.1v-0.1h-0.2c-0.6,0.9-1.4,1.6-2.4,2.1C760.4,894.4,759.3,894.7,758.1,894.7z M759.2,878.5
		c-0.9,0-1.8,0.3-2.5,0.8s-1.2,1.4-1.6,2.4c-0.4,1-0.6,2.3-0.6,3.7c0,2.3,0.4,4.1,1.2,5.4c0.8,1.3,2,1.9,3.5,1.9
		c0.8,0,1.6-0.2,2.5-0.7s1.5-1,1.9-1.6v-9.6c-0.5-0.8-1.2-1.4-2-1.8C760.8,878.7,760,878.5,759.2,878.5z"/>
	<path class="st0" d="M771.5,894.3l0.2-1.1l2.9-0.6v-13.4l-3-0.8l0.2-1l5.1-0.4l0.3,0.3v15.3l3.1,0.6l-0.2,1.1L771.5,894.3
		L771.5,894.3z M775.6,873c-0.5,0-0.9-0.2-1.2-0.6s-0.4-0.9-0.4-1.5s0.1-1.1,0.4-1.4s0.7-0.5,1.2-0.5s0.9,0.2,1.2,0.5
		s0.5,0.8,0.5,1.4c0,0.6-0.1,1.1-0.4,1.5S776.1,873,775.6,873z"/>
	<path class="st0" d="M788.9,894.9c-1.3,0-2.4-0.3-3.5-1s-1.9-1.6-2.5-3s-1-2.9-1-4.8c0-1.9,0.4-3.5,1.1-4.9s1.7-2.4,2.9-3.2
		s2.4-1.1,3.7-1.1c1.5,0,2.7,0.5,3.6,1.5s1.3,2.5,1.3,4.5c0,0.3,0,0.7-0.1,1.3s-0.1,1-0.2,1.3l-9.5,0.1c0,1.3,0.2,2.5,0.7,3.6
		s1,2,1.9,2.6s1.9,1,3.1,1c0.8,0,1.6-0.1,2.2-0.3s1.4-0.6,2.1-1.1l0.4,0.9c-0.7,0.8-1.6,1.4-2.6,1.9S790.1,894.9,788.9,894.9z
		 M788.6,878.5c-0.7,0-1.3,0.2-1.9,0.7s-1,1.1-1.4,2s-0.5,2-0.6,3.2l6.9-0.4c0.1-0.3,0.1-0.8,0.1-1.6c0-1.2-0.3-2.1-0.8-2.8
		S789.5,878.5,788.6,878.5z"/>
	<path class="st0" d="M804.4,871.1l0.1-1.1h9.4l-0.1,1.1l-3.3,0.6l6.4,18.6l6.8-18.5l-3.6-0.7l0.1-1.1h8.2l-0.1,1.1l-2.5,0.6
		l-8.5,22.7l-2,0.4l-8.1-23L804.4,871.1z"/>
	<path class="st0" d="M834.5,894.9c-1.3,0-2.4-0.3-3.5-1s-1.9-1.6-2.5-3s-1-2.9-1-4.8c0-1.9,0.4-3.5,1.1-4.9s1.7-2.4,2.9-3.2
		s2.4-1.1,3.7-1.1c1.5,0,2.7,0.5,3.6,1.5s1.3,2.5,1.3,4.5c0,0.3,0,0.7-0.1,1.3s-0.1,1-0.2,1.3l-9.5,0.1c0,1.3,0.2,2.5,0.7,3.6
		s1,2,1.9,2.6s1.9,1,3.1,1c0.8,0,1.6-0.1,2.2-0.3s1.4-0.6,2.1-1.1l0.4,0.9c-0.7,0.8-1.6,1.4-2.6,1.9S835.7,894.9,834.5,894.9z
		 M834.1,878.5c-0.7,0-1.3,0.2-1.9,0.7s-1,1.1-1.4,2s-0.5,2-0.6,3.2l6.9-0.4c0.1-0.3,0.1-0.8,0.1-1.6c0-1.2-0.3-2.1-0.8-2.8
		S835.1,878.5,834.1,878.5z"/>
	<path class="st0" d="M852.7,894.3h-10.1l0.2-1l3-0.7v-13.1l-3.1-0.8l0.2-1l5.1-0.6l0.3,0.3l-0.3,4.8h0.3c0.3-1.1,0.7-2.1,1.2-2.9
		s1-1.5,1.6-1.9s1.2-0.7,1.8-0.7c0.7,0,1.2,0.2,1.6,0.5s0.6,0.8,0.6,1.3c0,0.3-0.1,0.7-0.3,1s-0.5,0.6-0.9,0.9c-0.7-0.7-1.4-1-2.1-1
		c-0.5,0-1,0.3-1.5,0.8s-0.9,1.2-1.2,2.1s-0.6,1.8-0.7,2.9v7.3l4.5,0.5L852.7,894.3z"/>
	<path class="st0" d="M865.9,901.6h-8.5l0.1-1.1l3-0.6v-20.3l-3-0.7l0.2-1l5.2-0.5l0.3,0.3l-0.2,2.7h0.1c0.6-0.9,1.4-1.6,2.3-2.2
		s2-1,3.1-1s2.2,0.3,3,0.9s1.6,1.5,2.1,2.7s0.8,2.8,0.8,4.7c0,1.8-0.4,3.5-1.1,4.9s-1.8,2.5-3.1,3.3s-2.8,1.2-4.4,1.2
		c-0.5,0-1.2-0.1-2-0.2l-0.1-1.9c0.4,0.2,0.9,0.3,1.3,0.4s1,0.1,1.8,0.1c0.9,0,1.7-0.3,2.4-0.8s1.3-1.3,1.7-2.3s0.6-2.2,0.6-3.6
		c0-2.4-0.4-4.2-1.1-5.4s-1.8-1.9-3.3-1.9c-0.8,0-1.5,0.2-2.2,0.6s-1.3,1-2,1.7v18.5l3,0.5L865.9,901.6z"/>
	<path class="st0" d="M880.5,894.8c-0.7,0-1.4-0.1-2-0.4s-1.1-0.7-1.5-1.2s-0.6-1.2-0.6-1.9c0-1.1,0.3-2.1,1-2.9s1.7-1.5,3.1-2.1
		s3.1-0.8,5.1-0.9V884c0-1.8-0.3-3.2-0.9-4.1s-1.5-1.4-2.9-1.4c-0.7,0-1.2,0.2-1.5,0.5s-0.6,0.8-0.7,1.4s-0.2,1.4-0.3,2.5
		c-0.6,0-1.1-0.1-1.6-0.4s-0.6-0.7-0.6-1.4s0.3-1.3,0.9-1.9s1.4-1.1,2.4-1.5s1.9-0.6,2.9-0.6c1.7,0,2.9,0.5,3.7,1.4s1.2,2.5,1.2,4.5
		v6.9c0,0.7,0,1.2,0.1,1.6s0.3,0.7,0.5,1s0.7,0.4,1.3,0.5l1.1,0.2l-0.2,1.2l-0.4,0.1c-0.4,0.1-0.7,0.2-1,0.2s-0.6,0.1-0.9,0.1
		c-0.9,0-1.6-0.3-2-0.8s-0.7-1.1-0.7-1.8v-0.3h-0.2c-0.2,0.4-0.6,0.9-1.1,1.3s-1.1,0.9-1.8,1.2S881.5,894.8,880.5,894.8z
		 M885.8,886.3c-4.3,0.5-6.5,1.9-6.5,4.2c0,0.4,0.1,0.8,0.3,1.2s0.5,0.7,0.9,0.9s0.8,0.4,1.4,0.4c0.9,0,1.6-0.2,2.4-0.7
		s1.2-1,1.6-1.6v-4.4H885.8z"/>
	<path class="st0" d="M899.7,894.9c-1.5,0-2.7-0.4-3.8-1.1s-1.9-1.8-2.5-3.1s-0.9-2.7-0.9-4.3c0-1.9,0.4-3.5,1.1-5s1.7-2.5,2.8-3.3
		s2.5-1.2,3.9-1.2c1,0,1.9,0.1,2.6,0.4s1.2,0.7,1.5,1.2s0.5,1,0.5,1.5c0,1.1-0.6,1.7-1.9,1.9c-0.4-1.1-0.9-2-1.4-2.6
		s-1.3-0.9-2.1-0.9s-1.5,0.3-2.1,0.8s-1.1,1.2-1.5,2.2s-0.5,2.1-0.5,3.5c0,1.5,0.2,2.9,0.7,4.1s1.1,2.2,2,2.9s1.9,1,3,1
		c1.6,0,3-0.5,4.3-1.5l0.4,0.9c-0.3,0.5-0.8,0.9-1.4,1.3s-1.3,0.7-2.1,0.9S900.5,894.9,899.7,894.9z"/>
	<path class="st0" d="M907.8,894.3l0.2-1.1l3-0.6v-21.4l-3-0.8l0.1-1l5.1-0.4l0.3,0.3v23.3l3.1,0.6l-0.2,1.1L907.8,894.3
		L907.8,894.3z M916.7,889.3l-2.6-3.3v-0.4l5.6-6.5l-2.6-0.7l0.2-1.1h7.7l-0.2,1.1l-2.9,0.7l-5.2,6l2,2.3l1.4,1.7
		c0.8,1,1.5,1.8,1.9,2.3s0.9,0.9,1.4,1.2s1.1,0.5,1.7,0.5l0.8,0.1l-0.2,1.2c-0.3,0.1-0.6,0.2-1,0.3s-0.8,0.1-1.2,0.1
		c-0.8,0-1.4-0.2-2-0.5s-1.2-0.8-1.9-1.6S917.9,890.8,916.7,889.3z"/>
	<path class="st0" d="M930.5,879.5l-2.8-0.8l0.2-1l4.9-0.4l0.3,0.3v10.5c0,3,1.1,4.5,3.4,4.5c0.8,0,1.6-0.2,2.2-0.6s1.3-0.8,1.8-1.4
		v-11.1l-3.1-0.7l0.1-1.2l5.2-0.5l0.3,0.3V890c0,1,0.1,1.7,0.4,2.1s0.8,0.7,1.5,0.9l1.1,0.2l-0.1,1.2c-0.5,0.1-0.9,0.2-1.2,0.3
		s-0.8,0.1-1.2,0.1c-0.8,0-1.5-0.3-2-0.8s-0.7-1.2-0.7-2v-0.2h-0.2c-0.7,1-1.5,1.7-2.4,2.3s-2,0.8-3,0.8c-3,0-4.5-1.9-4.5-5.8v-9.6
		H930.5z"/>
	<path class="st0" d="M956.7,894.3h-8.3l0.2-1l3-0.7v-13.1l-3-0.8l0.1-1l5.2-0.6l0.2,0.3l-0.2,2.6h0.2c0.7-0.8,1.5-1.5,2.6-2.2
		s2.3-1,3.4-1c1.4,0,2.5,0.5,3.3,1.4s1.2,2.4,1.2,4.2v10l2.8,0.5l-0.1,1.1h-8.1l0.2-1l2.7-0.7v-9.4c0-1.4-0.3-2.5-0.9-3.1
		s-1.4-1-2.4-1c-0.9,0-1.7,0.2-2.4,0.5s-1.4,0.9-2.2,1.7v11.4l2.9,0.5L956.7,894.3z"/>
	<path class="st0" d="M975.5,901.9c-1.3,0-2.5-0.2-3.5-0.5s-1.8-0.8-2.4-1.5s-0.9-1.4-0.9-2.4c0-0.9,0.3-1.6,1-2.2s1.4-1.1,2.4-1.6
		v-0.1c-0.6-0.3-1-0.6-1.4-1s-0.5-0.9-0.5-1.4s0.3-1,0.9-1.6s1.3-1.1,2.1-1.5V888c-0.4-0.1-0.8-0.4-1.3-0.9s-0.9-1-1.2-1.7
		s-0.5-1.5-0.5-2.3c0-1.1,0.3-2,0.9-3s1.3-1.7,2.3-2.2s2-0.8,3.1-0.8c1.3,0,2.6,0.4,3.7,1.2c0.5,0,1.3-0.1,2.2-0.1s1.6-0.1,2.1-0.2
		l0.3,0.4l-0.7,1.9h-0.2l-2.8-0.8l-0.1,0.2c0.2,0.3,0.4,0.8,0.6,1.5s0.3,1.2,0.3,1.8c0,1.1-0.3,2-0.9,2.9s-1.4,1.6-2.4,2.1
		s-1.9,0.8-2.9,0.8c-0.3,0-0.7,0-1-0.1s-0.6-0.1-0.8-0.2c-0.4,0.4-0.8,0.8-1,1s-0.3,0.5-0.3,0.8c0,0.5,0.3,0.9,0.8,1.2
		s1.4,0.4,2.5,0.4h3c1.2,0,2.1,0.1,2.9,0.3s1.3,0.5,1.7,1s0.6,1.3,0.6,2.3c0,1.1-0.4,2.2-1.2,3.2s-1.9,1.8-3.2,2.4
		S977,901.9,975.5,901.9z M973.3,894c0,0-0.2,0-0.5,0.3s-0.6,0.5-0.9,0.9s-0.4,0.9-0.4,1.5c0,2.4,1.8,3.6,5.4,3.6
		c0.9,0,1.7-0.1,2.4-0.4s1.3-0.7,1.8-1.2s0.7-1.3,0.7-2.1c0-0.6-0.1-1.1-0.3-1.4s-0.7-0.6-1.3-0.8s-1.5-0.2-2.7-0.2h-4.2V894z
		 M976,878.2c-1.1,0-1.9,0.4-2.5,1.2s-0.8,1.9-0.8,3.2c0,0.8,0.2,1.6,0.5,2.3s0.8,1.3,1.3,1.7s1.1,0.6,1.8,0.6c0.9,0,1.7-0.3,2.2-1
		s0.9-1.7,0.9-3c0-0.9-0.1-1.7-0.4-2.5s-0.7-1.4-1.2-1.9S976.7,878.2,976,878.2z"/>
	<path class="st0" d="M986.8,900.1l-0.4-1.1c2.3-0.8,3.5-2,3.5-3.7c0-0.7-0.2-1.3-0.6-1.7s-0.9-0.7-1.6-0.7c-0.2,0-0.4,0-0.6,0.1
		c-0.1-0.3-0.2-0.6-0.2-0.8c0-0.6,0.2-1.1,0.6-1.5s0.9-0.6,1.5-0.6c0.5,0,1,0.1,1.5,0.4s0.9,0.8,1.2,1.4s0.5,1.4,0.5,2.3
		c0,1.2-0.4,2.3-1.2,3.4S988.8,899.5,986.8,900.1z"/>
	<path class="st0" d="M1006.1,894.8c-0.7,0-1.4-0.1-2-0.4s-1.1-0.7-1.5-1.2s-0.6-1.2-0.6-1.9c0-1.1,0.3-2.1,1-2.9s1.7-1.5,3.1-2.1
		s3.1-0.8,5.1-0.9V884c0-1.8-0.3-3.2-0.9-4.1s-1.5-1.4-2.9-1.4c-0.7,0-1.2,0.2-1.5,0.5s-0.6,0.8-0.7,1.4s-0.2,1.4-0.3,2.5
		c-0.6,0-1.1-0.1-1.6-0.4s-0.6-0.7-0.6-1.4s0.3-1.3,0.9-1.9s1.4-1.1,2.4-1.5s1.9-0.6,2.9-0.6c1.7,0,2.9,0.5,3.7,1.4s1.2,2.5,1.2,4.5
		v6.9c0,0.7,0,1.2,0.1,1.6s0.3,0.7,0.5,1s0.7,0.4,1.3,0.5l1.1,0.2l-0.2,1.2l-0.4,0.1c-0.4,0.1-0.7,0.2-1,0.2s-0.6,0.1-0.9,0.1
		c-0.9,0-1.6-0.3-2-0.8s-0.7-1.1-0.7-1.8v-0.3h-0.2c-0.2,0.4-0.6,0.9-1.1,1.3s-1.1,0.9-1.8,1.2S1007.1,894.8,1006.1,894.8z
		 M1011.4,886.3c-4.3,0.5-6.5,1.9-6.5,4.2c0,0.4,0.1,0.8,0.3,1.2s0.5,0.7,0.9,0.9s0.8,0.4,1.4,0.4c0.9,0,1.6-0.2,2.4-0.7
		s1.2-1,1.6-1.6v-4.4H1011.4z"/>
	<path class="st0" d="M1019,894.3l0.2-1.1l3-0.6v-21.5l-3-0.8l0.1-1l5.1-0.4l0.3,0.3v23.4l3.1,0.6l-0.2,1.1H1019z"/>
	<path class="st0" d="M1035.5,895c-1,0-2-0.2-2.8-0.5s-1.5-0.8-1.9-1.3s-0.7-1.2-0.7-1.9c0-0.6,0.2-1.1,0.6-1.5s0.9-0.6,1.5-0.7
		c0.3,1.5,0.8,2.6,1.4,3.3s1.5,1,2.5,1c0.8,0,1.5-0.2,2.1-0.7s0.8-1,0.8-1.7c0-0.5-0.2-0.9-0.5-1.3s-0.7-0.8-1.2-1.1
		s-1.1-0.7-1.9-1.2c-1-0.6-1.8-1.2-2.5-1.6s-1.1-1-1.6-1.7s-0.7-1.4-0.7-2.3c0-0.8,0.2-1.6,0.6-2.3s1-1.4,1.8-1.9s1.8-0.7,3-0.7
		c0.8,0,1.6,0.1,2.3,0.4s1.2,0.7,1.6,1.2s0.6,1.1,0.6,1.8s-0.2,1.3-0.6,1.6s-0.9,0.6-1.5,0.6l-0.2-0.8c-0.3-1.4-0.7-2.3-1.2-2.9
		s-1.1-0.8-1.8-0.8c-0.8,0-1.4,0.2-1.9,0.7s-0.7,1-0.7,1.8c0,0.6,0.2,1.1,0.5,1.6s0.8,0.9,1.3,1.3s1.2,0.8,2.1,1.3
		c1,0.6,1.8,1.1,2.4,1.6s1.1,1,1.5,1.6s0.6,1.3,0.6,2.1c0,0.9-0.3,1.8-0.8,2.5s-1.3,1.3-2.2,1.7S1036.5,895,1035.5,895z"/>
	<path class="st0" d="M1051.3,894.8c-1.5,0-2.9-0.4-4-1.1s-2.1-1.7-2.7-3s-0.9-2.8-0.9-4.5c0-1.9,0.4-3.6,1.1-5s1.7-2.5,3-3.3
		s2.6-1.1,4.1-1.1s2.8,0.4,3.9,1.2s2,1.8,2.6,3.2s0.9,2.8,0.9,4.5c0,1.8-0.4,3.3-1.1,4.7s-1.7,2.5-2.9,3.2
		S1052.7,894.8,1051.3,894.8z M1050.9,878.6c-1,0-1.8,0.3-2.5,0.8s-1.2,1.3-1.6,2.3s-0.5,2-0.5,3.2c0,1.5,0.2,2.9,0.6,4.1
		s1.1,2.3,1.9,3.1s1.9,1.2,3.1,1.2c0.9,0,1.7-0.3,2.3-0.9s1.2-1.3,1.5-2.3s0.5-2,0.5-3.2c0-1.4-0.2-2.7-0.6-4s-1-2.3-1.8-3.1
		S1052.1,878.6,1050.9,878.6z"/>
	<path class="st0" d="M1075.1,894.7c-1.2,0-2.2-0.3-3.2-0.9s-1.7-1.5-2.2-2.8s-0.8-2.7-0.8-4.4c0-1.9,0.4-3.5,1.2-5s1.8-2.6,3.1-3.4
		s2.6-1.2,4-1.2c0.6,0,1.3,0.1,2,0.3s1.2,0.4,1.6,0.7h0.2l-0.3-2.6v-4.1l-3-0.8l0.2-1l5-0.4l0.3,0.3V890c0,0.8,0.1,1.4,0.3,1.8
		s0.4,0.7,0.6,0.8s0.6,0.3,1,0.3l1,0.2l-0.2,1.2c-0.5,0.1-0.9,0.2-1.2,0.3s-0.7,0.1-1.2,0.1c-0.9,0-1.6-0.3-2-0.8s-0.7-1.2-0.7-2.1
		v-0.1h-0.2c-0.6,0.9-1.4,1.6-2.4,2.1S1076.3,894.7,1075.1,894.7z M1076.2,878.5c-0.9,0-1.8,0.3-2.5,0.8s-1.2,1.4-1.6,2.4
		s-0.6,2.3-0.6,3.7c0,2.3,0.4,4.1,1.2,5.4s2,1.9,3.5,1.9c0.8,0,1.6-0.2,2.5-0.7s1.5-1,1.9-1.6v-9.6c-0.5-0.8-1.2-1.4-2-1.8
		S1077,878.5,1076.2,878.5z"/>
	<path class="st0" d="M1088.5,894.3l0.2-1.1l2.9-0.6v-13.4l-3-0.8l0.2-1l5.1-0.4l0.3,0.3v15.3l3.1,0.6l-0.2,1.1L1088.5,894.3
		L1088.5,894.3z M1092.6,873c-0.5,0-0.9-0.2-1.2-0.6s-0.4-0.9-0.4-1.5s0.1-1.1,0.4-1.4s0.7-0.5,1.2-0.5s0.9,0.2,1.2,0.5
		s0.5,0.8,0.5,1.4c0,0.6-0.1,1.1-0.4,1.5S1093.1,873,1092.6,873z"/>
	<path class="st0" d="M1105.9,894.9c-1.3,0-2.4-0.3-3.5-1s-1.9-1.6-2.5-3s-1-2.9-1-4.8c0-1.9,0.4-3.5,1.1-4.9s1.7-2.4,2.9-3.2
		s2.4-1.1,3.7-1.1c1.5,0,2.7,0.5,3.6,1.5s1.3,2.5,1.3,4.5c0,0.3,0,0.7-0.1,1.3s-0.1,1-0.2,1.3l-9.5,0.1c0,1.3,0.2,2.5,0.7,3.6
		s1,2,1.9,2.6s1.9,1,3.1,1c0.8,0,1.6-0.1,2.2-0.3s1.4-0.6,2.1-1.1l0.4,0.9c-0.7,0.8-1.6,1.4-2.6,1.9S1107.1,894.9,1105.9,894.9z
		 M1105.6,878.5c-0.7,0-1.3,0.2-1.9,0.7s-1,1.1-1.4,2s-0.5,2-0.6,3.2l6.9-0.4c0.1-0.3,0.1-0.8,0.1-1.6c0-1.2-0.3-2.1-0.8-2.8
		S1106.5,878.5,1105.6,878.5z"/>
	<path class="st0" d="M1132.1,894.3h-10.7l0.2-1.1l3.2-0.7v-20.2l-3.2-0.5l0.2-1.1l0.7-0.1c1.5-0.2,2.9-0.4,4.1-0.6s2.5-0.2,3.8-0.2
		c2.8,0,5.2,0.6,6.9,1.7s2.7,2.9,2.7,5.4c0,1.5-0.4,2.9-1.3,4.1s-2,2.1-3.4,2.8s-2.9,1-4.6,1c-0.5,0-1,0-1.4-0.1l-0.3-1.2h1
		c2.3-0.1,4-0.7,5.1-1.7s1.7-2.5,1.7-4.3c0-1.2-0.3-2.2-0.8-3.2s-1.3-1.7-2.3-2.3s-2.3-0.9-3.8-0.9c-0.3,0-0.7,0-1.2,0
		s-0.7,0.1-0.9,0.1v21.3l4.6,0.6L1132.1,894.3z"/>
	<path class="st0" d="M1141.4,871.2l0.2-1.2h18.6l-0.6,6.2l-1.3-0.2l-0.6-4.7h-9.8v9.9h6.2l0.8-2.5l1.4-0.2l-0.6,7.6l-1.3,0.2
		l-0.5-3.6h-5.9v10.1h10.3l1.7-4.9l1.2,0.2l-0.6,6.1h-18.9l0.1-1.1l3.3-0.7v-20.6L1141.4,871.2z"/>
	<path class="st0" d="M1162.9,870h20.9l-0.7,6.5l-1.4-0.2l-0.5-4.9h-6.6v21.1l3.5,0.6l-0.2,1.2h-9.7l0.1-1.1l3.4-0.7v-21h-6.3
		l-0.9,5.1l-1.4-0.2L1162.9,870z"/>
	<path class="st0" d="M1182.3,886.3l0.2-1.6l8-0.4l-0.2,1.6L1182.3,886.3z"/>
	<path class="st0" d="M1192,871.2l0.2-1.2h18.6l-0.7,6.3l-1.3-0.2l-0.5-4.7h-9.7v10.2h6.1l0.8-2.5l1.4-0.2l-0.6,7.6l-1.3,0.2
		l-0.5-3.7h-5.9v9.4l4.7,0.5l-0.2,1.3h-10.8l0.1-1.1l3.3-0.7v-20.6L1192,871.2z"/>
	<path class="st0" d="M1213,894.3l0.2-1.1l3-0.6v-21.5l-3-0.8l0.1-1l5.1-0.4l0.3,0.3v23.4l3.1,0.6l-0.2,1.1H1213z"/>
	<path class="st0" d="M1228.1,894.8c-0.7,0-1.4-0.1-2-0.4s-1.1-0.7-1.5-1.2s-0.6-1.2-0.6-1.9c0-1.1,0.3-2.1,1-2.9s1.7-1.5,3.1-2.1
		s3.1-0.8,5.1-0.9V884c0-1.8-0.3-3.2-0.9-4.1s-1.5-1.4-2.9-1.4c-0.7,0-1.2,0.2-1.5,0.5s-0.6,0.8-0.7,1.4s-0.2,1.4-0.3,2.5
		c-0.6,0-1.1-0.1-1.6-0.4s-0.6-0.7-0.6-1.4s0.3-1.3,0.9-1.9s1.4-1.1,2.4-1.5s1.9-0.6,2.9-0.6c1.7,0,2.9,0.5,3.7,1.4s1.2,2.5,1.2,4.5
		v6.9c0,0.7,0,1.2,0.1,1.6s0.3,0.7,0.5,1s0.7,0.4,1.3,0.5l1.1,0.2l-0.2,1.2l-0.4,0.1c-0.4,0.1-0.7,0.2-1,0.2s-0.6,0.1-0.9,0.1
		c-0.9,0-1.6-0.3-2-0.8s-0.7-1.1-0.7-1.8v-0.3h-0.2c-0.2,0.4-0.6,0.9-1.1,1.3s-1.1,0.9-1.8,1.2S1229,894.8,1228.1,894.8z
		 M1233.4,886.3c-4.3,0.5-6.5,1.9-6.5,4.2c0,0.4,0.1,0.8,0.3,1.2s0.5,0.7,0.9,0.9s0.8,0.4,1.4,0.4c0.9,0,1.6-0.2,2.4-0.7
		s1.2-1,1.6-1.6v-4.4H1233.4z"/>
	<path class="st0" d="M1246.4,895c-1,0-2-0.2-2.8-0.5s-1.5-0.8-1.9-1.3s-0.7-1.2-0.7-1.9c0-0.6,0.2-1.1,0.6-1.5s0.9-0.6,1.5-0.7
		c0.3,1.5,0.8,2.6,1.4,3.3s1.5,1,2.5,1c0.8,0,1.5-0.2,2.1-0.7s0.8-1,0.8-1.7c0-0.5-0.2-0.9-0.5-1.3s-0.7-0.8-1.2-1.1
		s-1.1-0.7-1.9-1.2c-1-0.6-1.8-1.2-2.5-1.6s-1.1-1-1.6-1.7s-0.7-1.4-0.7-2.3c0-0.8,0.2-1.6,0.6-2.3s1-1.4,1.8-1.9s1.8-0.7,3-0.7
		c0.8,0,1.6,0.1,2.3,0.4s1.2,0.7,1.6,1.2s0.6,1.1,0.6,1.8s-0.2,1.3-0.6,1.6s-0.9,0.6-1.5,0.6l-0.2-0.8c-0.3-1.4-0.7-2.3-1.2-2.9
		s-1.1-0.8-1.8-0.8c-0.8,0-1.4,0.2-1.9,0.7s-0.7,1-0.7,1.8c0,0.6,0.2,1.1,0.5,1.6s0.8,0.9,1.3,1.3s1.2,0.8,2.1,1.3
		c1,0.6,1.8,1.1,2.4,1.6s1.1,1,1.5,1.6s0.6,1.3,0.6,2.1c0,0.9-0.3,1.8-0.8,2.5s-1.3,1.3-2.2,1.7S1247.4,895,1246.4,895z"/>
	<path class="st0" d="M1261.6,894.9c-1.5,0-2.7-0.4-3.8-1.1s-1.9-1.8-2.5-3.1s-0.9-2.7-0.9-4.3c0-1.9,0.4-3.5,1.1-5s1.7-2.5,2.8-3.3
		s2.5-1.2,3.9-1.2c1,0,1.9,0.1,2.6,0.4s1.2,0.7,1.5,1.2s0.5,1,0.5,1.5c0,1.1-0.6,1.7-1.9,1.9c-0.4-1.1-0.9-2-1.4-2.6
		s-1.3-0.9-2.1-0.9c-0.8,0-1.5,0.3-2.1,0.8s-1.1,1.2-1.5,2.2s-0.5,2.1-0.5,3.5c0,1.5,0.2,2.9,0.7,4.1s1.1,2.2,2,2.9s1.9,1,3,1
		c1.6,0,3-0.5,4.3-1.5l0.4,0.9c-0.3,0.5-0.8,0.9-1.4,1.3s-1.3,0.7-2.1,0.9S1262.4,894.9,1261.6,894.9z"/>
	<path class="st0" d="M1278.1,894.3h-8.4l0.2-1.1l3-0.6v-21.4l-3.1-0.8l0.2-1.1l5.2-0.4l0.3,0.3v8.7l-0.3,2.1h0.2
		c0.8-0.9,1.8-1.7,2.8-2.2s2.1-0.9,3.1-0.9c1.5,0,2.6,0.5,3.4,1.4s1.2,2.4,1.2,4.6v9.8l2.8,0.5l-0.2,1.1h-8l0.2-1.1l2.7-0.6l0.1-9.3
		v-0.1c0-1.5-0.3-2.5-1-3.2s-1.5-1-2.4-1s-1.7,0.2-2.4,0.5s-1.4,0.9-2.1,1.7v11.4l2.8,0.6L1278.1,894.3z"/>
	<path class="st0" d="M1297.1,894.9c-1.3,0-2.4-0.3-3.5-1s-1.9-1.6-2.5-3s-1-2.9-1-4.8c0-1.9,0.4-3.5,1.1-4.9s1.7-2.4,2.9-3.2
		s2.4-1.1,3.7-1.1c1.5,0,2.7,0.5,3.6,1.5s1.3,2.5,1.3,4.5c0,0.3,0,0.7-0.1,1.3s-0.1,1-0.2,1.3l-9.5,0.1c0,1.3,0.2,2.5,0.7,3.6
		s1,2,1.9,2.6s1.9,1,3.1,1c0.8,0,1.6-0.1,2.2-0.3s1.4-0.6,2.1-1.1l0.4,0.9c-0.7,0.8-1.6,1.4-2.6,1.9S1298.3,894.9,1297.1,894.9z
		 M1296.8,878.5c-0.7,0-1.3,0.2-1.9,0.7s-1,1.1-1.4,2s-0.5,2-0.6,3.2l6.9-0.4c0.1-0.3,0.1-0.8,0.1-1.6c0-1.2-0.3-2.1-0.8-2.8
		S1297.7,878.5,1296.8,878.5z"/>
	<path class="st0" d="M1307.4,894.9c-0.5,0-1-0.2-1.3-0.6s-0.5-0.9-0.5-1.6c0-0.6,0.2-1.1,0.5-1.5s0.7-0.6,1.3-0.6s1,0.2,1.3,0.6
		s0.5,0.9,0.5,1.5c0,0.7-0.2,1.2-0.5,1.6S1308,894.9,1307.4,894.9z"/>
</g>
</svg>
