<?xml version="1.0" encoding="utf-8"?>
<!-- Generator: Adobe Illustrator 22.1.0, SVG Export Plug-In . SVG Version: 6.00 Build 0)  -->
<svg version="1.1" id="Ebene_1" xmlns="http://www.w3.org/2000/svg" xmlns:xlink="http://www.w3.org/1999/xlink" x="0px" y="0px"
	 viewBox="0 0 375 600" style="enable-background:new 0 0 375 600;" xml:space="preserve">
<style type="text/css">
	.st0{fill:#1B3440;}
</style>
<title>Zeichenfläche 1</title>
<g>
	<path class="st0" d="M36.8,124.3l0.6-3.9h18.1l33.3,50.2v-44.1l-9.6-2.2l0.6-3.9h24.6l-0.7,3.9l-8.6,2v58.4l-7.9,1.6L52.9,135v43.8
		l9.5,1.8l-0.6,4.1H37.2l0.4-3.8l8.6-2.4v-51.6L36.8,124.3z"/>
	<path class="st0" d="M125.6,186.3c-3.3,0-6.5-0.9-9.5-2.7s-5.4-4.5-7.2-8.1c-1.8-3.6-2.7-7.9-2.7-12.9c0-4.9,1-9.2,3.1-12.9
		s4.8-6.5,8-8.5c3.3-2,6.6-3,10.1-3c2.6,0,4.9,0.6,7,1.9c2.1,1.3,3.8,3.1,5,5.6s1.8,5.5,1.8,9c0,0.8-0.1,1.9-0.3,3.3
		c-0.2,1.4-0.4,2.5-0.6,3.4l-25.1,0.3c0.1,2.9,0.8,5.7,1.9,8.4s2.7,5,4.8,6.7c2.1,1.7,4.7,2.6,7.7,2.6c1.7,0,3,0,3.9-0.1
		c1-0.1,2.1-0.3,3.4-0.8c1.3-0.4,2.8-1.1,4.5-2l1.1,2.7c-2.1,2.2-4.6,3.9-7.5,5.1C132.2,185.7,129,186.3,125.6,186.3z M124.9,143.3
		c-1.4,0-2.9,0.5-4.2,1.6c-1.4,1.1-2.5,2.7-3.5,4.8c-1,2.2-1.5,4.8-1.7,8l16.3-1.2c0.1-0.4,0.2-0.9,0.2-1.7c0.1-0.7,0.1-1.4,0.1-1.9
		C132.1,146.5,129.7,143.3,124.9,143.3z"/>
	<path class="st0" d="M153.1,147l-7.1-2.8l0.7-4.1l13.9-1.1l1.3,1.2v28.1c0,7,2.7,10.5,8,10.5c2.2,0,4-0.3,5.5-1s2.9-1.7,4.1-3
		v-27.5l-8.2-2.2l0.5-4.8l15.2-1.4l1.1,1.2v33.3c0,1.7,0.2,2.9,0.6,3.8c0.4,0.8,1,1.4,1.7,1.8c0.7,0.3,1.8,0.7,3.2,1l2.4,0.5
		l-0.5,4.3c-1.6,0.4-3,0.6-4,0.8c-1,0.1-2.3,0.2-3.8,0.2c-2.5,0-4.4-0.7-5.7-2.1c-1.3-1.4-1.9-3.2-1.9-5.4v-0.5h-0.7
		c-3.7,5.3-8.6,8-14.8,8c-3.6,0-6.4-1.2-8.5-3.5s-3.1-6.2-3.1-11.5V147H153.1z"/>
	<path class="st0" d="M204.8,145.2h-6.6v-2.8c2.1-1.7,4.3-3.8,6.6-6.4c2.3-2.5,4.3-5.1,6.2-7.6h2.7v12.3h14.6l-0.5,4.6h-14.3
		l-0.2,22.9c0,2.6,0.3,4.6,0.8,6.1s1.3,2.5,2.4,3.2c1.1,0.6,2.6,0.9,4.4,0.9c1.1,0,2.3-0.2,3.4-0.6c1.1-0.4,2.1-0.9,2.9-1.4
		s1.2-0.8,1.2-0.8l1.1,2.8c-1.6,2.4-3.6,4.2-6.1,5.6c-2.4,1.3-5.1,2-8,2c-3.5,0-6.2-1.1-8.2-3.3s-2.9-6-2.9-11.4L204.8,145.2z"/>
	<path class="st0" d="M254.4,186.1c-4.5,0-8.3-1-11.5-3.1c-3.2-2-5.6-4.8-7.3-8.4c-1.7-3.5-2.5-7.5-2.5-12c0-5,1.1-9.4,3.2-13.2
		c2.1-3.7,4.9-6.6,8.3-8.6c3.4-2,7.1-3,11-3c4.2,0,7.8,1,10.9,3s5.5,4.8,7.1,8.4c1.6,3.6,2.5,7.8,2.5,12.5s-1,8.9-2.9,12.6
		c-1.9,3.7-4.5,6.6-7.8,8.6S258.4,186.1,254.4,186.1z M253.4,143.4c-2.5,0-4.6,0.7-6.2,2.1c-1.7,1.4-2.9,3.3-3.7,5.7s-1.2,5-1.2,7.8
		c0,3.8,0.5,7.4,1.4,10.8c0.9,3.3,2.4,6.1,4.5,8.2c2.1,2.1,4.7,3.2,7.9,3.2c2.3,0,4.3-0.7,5.9-2.1c1.6-1.4,2.8-3.3,3.6-5.6
		c0.8-2.3,1.2-4.7,1.2-7.2c0-3.7-0.5-7.3-1.4-10.8s-2.4-6.3-4.4-8.6C259,144.5,256.5,143.4,253.4,143.4z"/>
	<path class="st0" d="M304.7,184.7h-24l0.5-3.8l7.8-2.1v-31.4l-8-2.7l0.5-3.9l15.4-2l0.9,1l-0.9,6.6h0.5c2-2.3,4.3-4.3,7-5.8
		s5.6-2.3,8.6-2.3c4,0,7.1,1.3,9.3,3.8c2.1,2.6,3.2,6.2,3.2,10.8v26l7.5,1.8l-0.5,4.1h-23.2l0.5-3.8l7.1-2.1v-24
		c0-3.2-0.8-5.6-2.5-7.2c-1.6-1.6-3.8-2.4-6.5-2.4c-1.9,0-3.8,0.4-5.6,1.2c-1.8,0.8-3.3,1.9-4.6,3.3v29l7.7,1.8L304.7,184.7z"/>
</g>
<g>
	<path class="st0" d="M61.9,316l-5.6-0.2l0.4-1.8c3.8-0.7,7.6-1.1,11.5-1.2c1.3,0,2.5,0,3.7,0.1l-0.4,1.9l-5,1.3L63.7,340l5.2,1.2
		l-0.5,2H53l0.5-1.9l5.4-0.9l1.5-11.9L46,329.4l-1.4,11.3l5.2,0.6l-0.6,2H34.1l0.4-1.9l5.4-1.2l3-23.5l-5.5-0.8l0.5-1.9
		c2.6-0.6,4.7-0.9,6.4-1c1.6-0.1,3.1-0.1,4.5-0.1s2.8,0,4.2,0.1l-0.5,1.8l-4.9,0.5l-1.3,11.3l14.3-0.5L61.9,316z"/>
	<path class="st0" d="M85.7,320.8l2.9,0.9l-1.8,9.5l-0.7,5.8c-0.1,0.9-0.2,1.6-0.2,2.1c0,0.8,0.4,1.3,1.1,1.3c0.4,0,1-0.4,1.8-1.2
		c0.8-0.8,1.4-1.7,2-2.7l1,0.9c-0.9,2.3-1.9,3.9-3,5s-2.5,1.6-4.2,1.6c-0.8,0-1.4-0.3-1.9-0.9c-0.4-0.6-0.6-1.4-0.6-2.6
		s0.3-2.6,0.9-4.2h-0.3c-0.8,2-2,3.8-3.4,5.3s-2.8,2.2-4.1,2.2c-1.4,0-2.3-0.5-2.8-1.5s-0.8-2.5-0.8-4.5s0.5-4.3,1.4-6.8
		c0.9-2.6,2.2-4.8,3.7-6.7c1.5-1.9,3.1-2.8,4.7-2.8c1.5,0,2.7,0.6,3.5,1.8h0.2l0.3-2.2L85.7,320.8z M75.4,336.2c0,1.5,0.1,2.5,0.3,3
		c0.2,0.6,0.7,0.8,1.3,0.8c1.2,0,2.5-1.2,4.1-3.7c1.5-2.5,2.6-5.5,3.2-9.2c-0.2-0.7-0.7-1.3-1.4-1.9c-0.7-0.6-1.5-0.8-2.2-0.8
		c-0.8,0-1.5,0.4-2.2,1.2c-0.7,0.8-1.3,1.8-1.7,3.1C75.8,331.2,75.4,333.7,75.4,336.2z"/>
	<path class="st0" d="M95.6,321.6l0.7-6.3l-3.3-0.7l0.3-1.8l6.8-0.6l0.4,0.5L98.7,328l-1,9c0,0.6-0.1,1.1-0.1,1.6
		c0,1.1,0.3,1.6,0.8,1.6s1.2-0.3,2-0.9s1.4-1.3,1.9-2.2l1,0.7c-1.5,3.9-3.9,5.9-7.4,5.9c-1.7,0-2.5-1.2-2.5-3.5c0-1,0.1-2.4,0.4-4.3
		L95.6,321.6z"/>
	<path class="st0" d="M107.3,321.6l0.7-6.3l-3.3-0.7l0.3-1.8l6.8-0.6l0.4,0.5l-1.8,15.2l-1,9c0,0.6-0.1,1.1-0.1,1.6
		c0,1.1,0.3,1.6,0.8,1.6s1.2-0.3,2-0.9s1.4-1.3,1.9-2.2l1,0.7c-1.5,3.9-3.9,5.9-7.4,5.9c-1.7,0-2.5-1.2-2.5-3.5c0-1,0.1-2.4,0.4-4.3
		L107.3,321.6z"/>
	<path class="st0" d="M118.1,341.3c-1.2-1.7-1.7-3.8-1.7-6.4c0-2.5,0.4-4.8,1.3-6.8c0.9-2.1,2-3.7,3.5-4.9c1.5-1.2,3.1-1.8,4.9-1.8
		s3.3,0.8,4.5,2.5c1.2,1.6,1.9,3.6,1.9,6.1c0,2.4-0.4,4.6-1.1,6.6c-0.7,2-1.9,3.8-3.3,5.2c-1.5,1.4-3.2,2.1-5.2,2.1
		C120.9,343.8,119.3,343,118.1,341.3z M121.8,325.3c-1.3,1.5-2,3.7-2,6.7c0,3.3,0.7,5.8,2.2,7.7c0.8,0.9,1.6,1.4,2.4,1.4
		c0.9,0,1.7-0.4,2.4-1.2c1.4-1.6,2.1-3.9,2.1-7c0-3.2-0.7-5.7-2.2-7.5c-0.7-0.8-1.6-1.3-2.5-1.3C123.5,324,122.6,324.5,121.8,325.3z
		"/>
	<path class="st0" d="M165.6,343.9l-0.7-15.8h-0.2c-1.4,4.1-3.2,7.8-5.2,11.3c-0.7,1.1-1.4,2.4-2.3,3.7l-4.2,0.8l-2.2-27l-5.3-1
		l0.7-1.8c3.4-0.7,6.6-1.1,9.7-1.2l1.6,24.6h0.2c2.4-3.5,4.4-7.7,5.9-12.6c0.6-2.1,1.2-4.1,1.6-6l3.6-0.9l1.3,20.5h0.2
		c3.3-3.5,5.5-7.7,6.5-12.5c0.3-1.6,0.5-3.1,0.5-4.4c0-2.6-0.6-5.2-1.7-7.8c1.1-0.8,2.2-1.1,3.4-1.1h0.1c1.9,0.1,3.1,1.1,3.5,3
		c0.1,0.5,0.2,1.2,0.2,2.2c0,1.1-0.2,2.3-0.5,3.6c-0.6,2.9-1.8,6-3.7,9.2c-1.7,3-3.7,5.9-6.1,8.7c-0.6,0.7-1.7,2-3.4,3.9
		L165.6,343.9z"/>
	<path class="st0" d="M195.2,322.5c0.7,0.8,1.1,1.8,1.1,3c0,2.3-1.2,4.4-3.6,6.1c-2,1.4-4.2,2.5-6.7,3.3c0.1,3.9,1.4,5.8,4,5.8
		c1.9,0,3.6-1.2,5-3.5l0.9,0.8c-0.6,1.6-1.6,3-3,4.2s-3.1,1.8-4.9,1.8c-1.8,0-3.3-0.7-4.3-2.1s-1.6-3.3-1.6-5.8c0-2.4,0.5-4.8,1.4-7
		c1-2.3,2.2-4.1,3.8-5.6c1.6-1.4,3.2-2.2,5-2.2C193.5,321.3,194.5,321.7,195.2,322.5z M192.6,326.2c0-0.7-0.2-1.3-0.5-1.7
		c-0.3-0.4-0.8-0.6-1.5-0.5c-2.7,0-4.3,3.1-4.7,9.2C190.4,331.5,192.6,329.1,192.6,326.2z"/>
	<path class="st0" d="M200.2,321.6l0.7-6.3l-3.3-0.7l0.3-1.8l6.8-0.6l0.4,0.5l-1.8,15.2l-1,9c0,0.6-0.1,1.1-0.1,1.6
		c0,1.1,0.3,1.6,0.8,1.6s1.2-0.3,2-0.9s1.4-1.3,1.9-2.2l1,0.7c-1.5,3.9-3.9,5.9-7.4,5.9c-1.7,0-2.5-1.2-2.5-3.5c0-1,0.1-2.4,0.4-4.3
		L200.2,321.6z"/>
	<path class="st0" d="M214.5,339.5c0.7,0,1.4-0.4,2.1-1.1c0.6-0.7,1.6-2.3,3-4.8l1.2,0.9c-0.8,2.9-1.9,5.2-3.3,6.8
		c-1.4,1.6-3.1,2.5-4.9,2.5c-1,0-1.8-0.3-2.2-0.8s-0.6-1.3-0.6-2.3c0-1.1,0.2-3.1,0.5-6.1l1.4-10.1l-2.7,0.2l0.6-2.6l2.4,0.2
		l0.5-5.1l3.7-0.5l0.3,0.3l-0.8,5.2l5.7-0.4l-0.6,2.9l-5.3-0.3l-1.1,9.1c-0.3,2.7-0.4,4.3-0.4,4.8c0,0.4,0,0.7,0.1,0.9
		C214.1,339.4,214.2,339.5,214.5,339.5z"/>
</g>
<g>
	<path class="st0" d="M38.7,384.6h-4.5l0.1-0.6l1.7-0.4v-10l-1.7-0.3l0.1-0.5c1-0.2,1.9-0.3,2.7-0.4s1.5-0.1,2.1-0.1
		c1.7,0,3,0.3,4,0.8s1.7,1.3,2.2,2.1s0.6,1.9,0.6,3c0,1.2-0.3,2.2-0.8,3.2s-1.4,1.7-2.4,2.3S40.3,384.6,38.7,384.6z M37.4,373.2
		v10.7H39c1.1,0,2.1-0.2,2.9-0.6s1.4-1,1.9-1.8s0.6-1.6,0.6-2.6c0-1.1-0.2-2.1-0.6-2.9s-1-1.5-1.9-2s-1.9-0.7-3.1-0.7
		C38.1,373.1,37.7,373.1,37.4,373.2z"/>
	<path class="st0" d="M49.1,384.9c-0.4,0-0.7-0.1-1-0.2s-0.6-0.4-0.7-0.6s-0.3-0.6-0.3-1c0-0.6,0.2-1,0.5-1.5s0.9-0.8,1.6-1
		s1.6-0.4,2.6-0.5v-0.7c0-0.9-0.1-1.6-0.4-2.1s-0.8-0.7-1.4-0.7c-0.3,0-0.6,0.1-0.8,0.2s-0.3,0.4-0.4,0.7s-0.1,0.7-0.2,1.2
		c-0.3,0-0.6-0.1-0.8-0.2s-0.3-0.4-0.3-0.7s0.2-0.7,0.5-1s0.7-0.6,1.2-0.7s1-0.3,1.4-0.3c0.8,0,1.5,0.2,1.8,0.7s0.6,1.2,0.6,2.3v3.4
		c0,0.3,0,0.6,0.1,0.8s0.1,0.4,0.3,0.5s0.4,0.2,0.6,0.3l0.6,0.1l-0.1,0.6h-0.2c-0.2,0.1-0.4,0.1-0.5,0.1s-0.3,0-0.5,0
		c-0.4,0-0.8-0.1-1-0.4s-0.3-0.6-0.3-0.9v-0.1h-0.1c-0.1,0.2-0.3,0.4-0.5,0.7s-0.5,0.4-0.9,0.6S49.6,384.9,49.1,384.9z M51.7,380.6
		c-2.2,0.2-3.3,0.9-3.3,2.1c0,0.2,0.1,0.4,0.2,0.6s0.2,0.3,0.4,0.5s0.4,0.2,0.7,0.2c0.4,0,0.8-0.1,1.2-0.3s0.6-0.5,0.8-0.8
		C51.7,382.9,51.7,380.6,51.7,380.6z"/>
	<path class="st0" d="M58.3,385c-0.5,0-1-0.1-1.4-0.2s-0.7-0.4-1-0.7s-0.4-0.6-0.4-0.9s0.1-0.5,0.3-0.7s0.4-0.3,0.7-0.3
		c0.2,0.8,0.4,1.3,0.7,1.7s0.7,0.5,1.3,0.5c0.4,0,0.8-0.1,1-0.3s0.4-0.5,0.4-0.8c0-0.2-0.1-0.5-0.2-0.7s-0.3-0.4-0.6-0.6
		s-0.5-0.4-1-0.6c-0.5-0.3-0.9-0.6-1.2-0.8s-0.6-0.5-0.8-0.9s-0.3-0.7-0.3-1.1s0.1-0.8,0.3-1.2s0.5-0.7,0.9-0.9s0.9-0.4,1.5-0.4
		c0.4,0,0.8,0.1,1.1,0.2s0.6,0.4,0.8,0.6s0.3,0.6,0.3,0.9c0,0.4-0.1,0.6-0.3,0.8s-0.4,0.3-0.7,0.3l-0.1-0.4
		c-0.2-0.7-0.4-1.2-0.6-1.4s-0.6-0.4-0.9-0.4c-0.4,0-0.7,0.1-0.9,0.3s-0.4,0.5-0.4,0.9c0,0.3,0.1,0.5,0.3,0.8s0.4,0.5,0.6,0.6
		s0.6,0.4,1,0.7c0.5,0.3,0.9,0.6,1.2,0.8s0.6,0.5,0.8,0.8s0.3,0.7,0.3,1.1c0,0.5-0.1,0.9-0.4,1.2s-0.6,0.6-1.1,0.9
		S58.8,385,58.3,385z"/>
	<path class="st0" d="M66,384.6l0.1-0.6l1.4-0.4l4.3-11.2l1-0.2l3.9,11.5L78,384l-0.1,0.6h-4.5l0.1-0.6l1.7-0.4l-1.2-3.5h-4.2
		l-1.3,3.5l1.8,0.3l-0.1,0.6H66V384.6z M70.1,379.4h3.6l-1.8-5.1L70.1,379.4z"/>
	<path class="st0" d="M80.1,373.1l-1.5-0.4l0.1-0.5l2.5-0.2l0.1,0.2v4.3l-0.1,1h0.1c0.9-1,1.8-1.5,2.8-1.5c0.6,0,1.2,0.2,1.6,0.5
		s0.8,0.8,1.1,1.4s0.4,1.3,0.4,2.1c0,1-0.2,1.9-0.6,2.6s-1,1.3-1.7,1.6s-1.5,0.6-2.4,0.6s-1.7-0.2-2.4-0.7V373.1z M81.3,378.1v5.3
		c0.2,0.2,0.5,0.3,0.8,0.5s0.8,0.2,1.2,0.2c0.4,0,0.8-0.1,1.2-0.4s0.7-0.6,0.9-1.2s0.4-1.1,0.4-1.8c0-1.1-0.2-2-0.6-2.7s-1-1-1.8-1
		c-0.3,0-0.7,0.1-1,0.3S81.7,377.7,81.3,378.1z"/>
	<path class="st0" d="M88,384.6l0.1-0.5l1.5-0.3v-10.7l-1.5-0.4l0.1-0.5l2.6-0.2l0.2,0.2v11.7l1.6,0.3l-0.1,0.6H88V384.6z"/>
	<path class="st0" d="M95.6,384.9c-0.4,0-0.7-0.1-1-0.2s-0.6-0.4-0.7-0.6s-0.3-0.6-0.3-1c0-0.6,0.2-1,0.5-1.5s0.9-0.8,1.6-1
		s1.6-0.4,2.6-0.5v-0.7c0-0.9-0.1-1.6-0.4-2.1s-0.8-0.7-1.4-0.7c-0.3,0-0.6,0.1-0.8,0.2s-0.3,0.4-0.4,0.7s-0.1,0.7-0.2,1.2
		c-0.3,0-0.6-0.1-0.8-0.2S94,378.3,94,378s0.2-0.7,0.5-1s0.7-0.6,1.2-0.7s1-0.3,1.4-0.3c0.8,0,1.5,0.2,1.8,0.7s0.6,1.2,0.6,2.3v3.4
		c0,0.3,0,0.6,0.1,0.8s0.1,0.4,0.3,0.5s0.4,0.2,0.6,0.3l0.6,0.1l-0.1,0.6h-0.2c-0.2,0.1-0.4,0.1-0.5,0.1s-0.3,0-0.5,0
		c-0.4,0-0.8-0.1-1-0.4s-0.3-0.6-0.3-0.9v-0.1h-0.1c-0.1,0.2-0.3,0.4-0.5,0.7s-0.5,0.4-0.9,0.6S96.1,384.9,95.6,384.9z M98.3,380.6
		c-2.2,0.2-3.3,0.9-3.3,2.1c0,0.2,0.1,0.4,0.2,0.6s0.2,0.3,0.4,0.5s0.4,0.2,0.7,0.2c0.4,0,0.8-0.1,1.2-0.3s0.6-0.5,0.8-0.8
		C98.3,382.9,98.3,380.6,98.3,380.6z"/>
	<path class="st0" d="M102.7,377.3l-1.4-0.4l0.1-0.5l2.4-0.2l0.2,0.2v5.3c0,1.5,0.6,2.3,1.7,2.3c0.4,0,0.8-0.1,1.1-0.3
		s0.6-0.4,0.9-0.7v-5.5l-1.5-0.4l0.1-0.6l2.6-0.2l0.1,0.2v6.2c0,0.5,0.1,0.8,0.2,1.1s0.4,0.4,0.8,0.4l0.5,0.1l-0.1,0.6
		c-0.2,0.1-0.4,0.1-0.6,0.1s-0.4,0-0.6,0c-0.4,0-0.8-0.1-1-0.4s-0.4-0.6-0.4-1v-0.1h-0.1c-0.3,0.5-0.7,0.9-1.2,1.1s-1,0.4-1.5,0.4
		c-1.5,0-2.2-1-2.2-2.9L102.7,377.3L102.7,377.3z"/>
	<path class="st0" d="M117,384.6h-5.2l0.1-0.5l1.5-0.4v-6.9h-1.5l0.1-0.5l1.3-0.2c0.1-0.9,0.3-1.7,0.7-2.4s0.8-1.1,1.3-1.4
		s1-0.5,1.5-0.5s0.9,0.1,1.3,0.3s0.5,0.5,0.5,0.8c0,0.2-0.1,0.4-0.2,0.6s-0.3,0.3-0.5,0.4c-0.2-0.3-0.5-0.6-0.8-0.8
		s-0.6-0.3-0.9-0.3c-0.4,0-0.7,0.2-1,0.6s-0.4,1-0.4,1.7v1.2h2.5l-0.1,0.7h-2.4v6.8l2.4,0.3L117,384.6z"/>
	<path class="st0" d="M121.1,384.8c-0.6,0-1.1-0.2-1.6-0.5s-0.8-0.8-1.1-1.4s-0.4-1.3-0.4-2.2c0-0.9,0.2-1.8,0.6-2.5
		s0.9-1.3,1.6-1.7s1.3-0.6,2-0.6c0.3,0,0.7,0,1,0.1s0.6,0.2,0.8,0.3h0.1L124,375v-2l-1.5-0.4l0.1-0.5l2.5-0.2l0.1,0.2v10.4
		c0,0.4,0,0.7,0.1,0.9s0.2,0.3,0.3,0.4s0.3,0.1,0.5,0.2l0.5,0.1l-0.1,0.6c-0.2,0.1-0.4,0.1-0.6,0.2s-0.4,0-0.6,0
		c-0.4,0-0.8-0.1-1-0.4s-0.3-0.6-0.3-1v-0.1h-0.1c-0.3,0.4-0.7,0.8-1.2,1.1S121.7,384.8,121.1,384.8z M121.6,376.7
		c-0.5,0-0.9,0.1-1.2,0.4s-0.6,0.7-0.8,1.2s-0.3,1.1-0.3,1.9c0,1.2,0.2,2.1,0.6,2.7s1,1,1.8,1c0.4,0,0.8-0.1,1.2-0.3s0.8-0.5,1-0.8
		V378c-0.3-0.4-0.6-0.7-1-0.9S122,376.7,121.6,376.7z"/>
	<path class="st0" d="M129.8,384.9c-0.4,0-0.7-0.1-1-0.2s-0.6-0.4-0.7-0.6s-0.3-0.6-0.3-1c0-0.6,0.2-1,0.5-1.5s0.9-0.8,1.6-1
		s1.6-0.4,2.6-0.5v-0.7c0-0.9-0.1-1.6-0.4-2.1s-0.8-0.7-1.4-0.7c-0.3,0-0.6,0.1-0.8,0.2s-0.3,0.4-0.4,0.7s-0.1,0.7-0.2,1.2
		c-0.3,0-0.6-0.1-0.8-0.2s-0.3-0.4-0.3-0.7s0.2-0.7,0.5-1s0.7-0.6,1.2-0.7s1-0.3,1.4-0.3c0.8,0,1.5,0.2,1.8,0.7s0.6,1.2,0.6,2.3v3.4
		c0,0.3,0,0.6,0.1,0.8s0.1,0.4,0.3,0.5s0.4,0.2,0.6,0.3l0.6,0.1l-0.1,0.6H135c-0.2,0.1-0.4,0.1-0.5,0.1s-0.3,0-0.5,0
		c-0.4,0-0.8-0.1-1-0.4s-0.3-0.6-0.3-0.9v-0.1h-0.1c-0.1,0.2-0.3,0.4-0.5,0.7s-0.5,0.4-0.9,0.6S130.3,384.9,129.8,384.9z
		 M132.5,380.6c-2.2,0.2-3.3,0.9-3.3,2.1c0,0.2,0.1,0.4,0.2,0.6s0.2,0.3,0.4,0.5s0.4,0.2,0.7,0.2c0.4,0,0.8-0.1,1.2-0.3
		s0.6-0.5,0.8-0.8L132.5,380.6L132.5,380.6z"/>
	<path class="st0" d="M136.9,377.1h-1.2v-0.4c0.5-0.2,0.9-0.5,1.2-0.9s0.6-0.9,0.9-1.6h0.5v2.2h2.8l-0.1,0.7h-2.7v4.5
		c0,0.5,0,1,0.1,1.3s0.2,0.5,0.4,0.6s0.5,0.2,0.8,0.2c0.2,0,0.4,0,0.7-0.1s0.4-0.2,0.6-0.3s0.3-0.2,0.3-0.2l0.2,0.4
		c-0.3,0.4-0.7,0.8-1.1,1s-0.9,0.4-1.4,0.4c-0.6,0-1.1-0.2-1.4-0.6s-0.5-1.1-0.5-2L136.9,377.1z"/>
	<path class="st0" d="M143.7,377.3l-1.4-0.4l0.1-0.5l2.4-0.2l0.2,0.2v5.3c0,1.5,0.6,2.3,1.7,2.3c0.4,0,0.8-0.1,1.1-0.3
		s0.6-0.4,0.9-0.7v-5.5l-1.5-0.4l0.1-0.6l2.6-0.2l0.1,0.2v6.2c0,0.5,0.1,0.8,0.2,1.1s0.4,0.4,0.8,0.4l0.5,0.1l-0.1,0.6
		c-0.2,0.1-0.4,0.1-0.6,0.1s-0.4,0-0.6,0c-0.4,0-0.8-0.1-1-0.4s-0.4-0.6-0.4-1v-0.1h-0.1c-0.3,0.5-0.7,0.9-1.2,1.1s-1,0.4-1.5,0.4
		c-1.5,0-2.2-1-2.2-2.9v-4.8H143.7z"/>
	<path class="st0" d="M156.9,384.6h-4.2l0.1-0.5l1.5-0.3v-6.5l-1.5-0.4l0.1-0.5l2.6-0.3l0.1,0.1l-0.1,1.3h0.1
		c0.4-0.4,0.8-0.8,1.3-1.1s1.1-0.5,1.7-0.5c0.5,0,1,0.1,1.3,0.4s0.6,0.7,0.7,1.2h0.1c0.3-0.4,0.8-0.8,1.3-1.1s1.1-0.5,1.6-0.5
		c0.8,0,1.4,0.2,1.8,0.7s0.5,1.2,0.5,2.1v5l1.4,0.3l-0.1,0.6h-3.9l0.1-0.5l1.3-0.3V379c0-0.6-0.1-1.1-0.4-1.5s-0.7-0.5-1.3-0.5
		c-0.4,0-0.8,0.1-1.2,0.3s-0.7,0.5-1,0.8v5.6l1.4,0.3l-0.1,0.6h-3.9l0.1-0.5l1.3-0.3V379c0-0.6-0.2-1.1-0.5-1.5s-0.7-0.6-1.2-0.6
		c-0.4,0-0.9,0.1-1.3,0.3s-0.7,0.5-1,0.8v5.7l1.4,0.3L156.9,384.6z"/>
	<path class="st0" d="M172.2,376.8l0.1-0.5h4v0.5l-1.4,0.4l2,6l2.1-5.9l-1.6-0.4l0.1-0.5h3.5l-0.1,0.5l-1.1,0.4l-2.7,7.6l-0.9,0.1
		l-2.8-7.8L172.2,376.8z"/>
	<path class="st0" d="M185.3,384.9c-0.8,0-1.4-0.2-2-0.5s-1-0.9-1.3-1.5s-0.5-1.4-0.5-2.2c0-1,0.2-1.8,0.6-2.5s0.9-1.2,1.5-1.6
		s1.3-0.6,2-0.6s1.4,0.2,1.9,0.6s1,0.9,1.3,1.6s0.4,1.4,0.4,2.3s-0.2,1.7-0.5,2.4s-0.8,1.2-1.4,1.6S186,384.9,185.3,384.9z
		 M185.1,376.8c-0.5,0-0.9,0.1-1.2,0.4s-0.6,0.7-0.8,1.1s-0.3,1-0.3,1.6c0,0.7,0.1,1.4,0.3,2.1s0.5,1.2,1,1.5s0.9,0.6,1.5,0.6
		c0.4,0,0.8-0.1,1.2-0.4s0.6-0.7,0.8-1.2s0.3-1,0.3-1.6c0-0.7-0.1-1.3-0.3-2s-0.5-1.2-0.9-1.6S185.7,376.8,185.1,376.8z"/>
	<path class="st0" d="M194.2,384.6H190l0.1-0.5l1.5-0.3v-6.5l-1.5-0.4l0.1-0.5l2.6-0.3l0.1,0.1l-0.1,1.3h0.1
		c0.3-0.4,0.8-0.8,1.3-1.1c0.6-0.3,1.1-0.5,1.7-0.5c0.7,0,1.2,0.2,1.7,0.7c0.4,0.5,0.6,1.2,0.6,2.1v5l1.4,0.3l-0.1,0.6h-4l0.1-0.5
		l1.4-0.3v-4.7c0-0.7-0.2-1.2-0.5-1.6c-0.3-0.3-0.7-0.5-1.2-0.5s-0.9,0.1-1.2,0.2s-0.7,0.4-1.1,0.8v5.7l1.4,0.3L194.2,384.6z"/>
	<path class="st0" d="M204.4,384.6l0.1-0.5l1.5-0.3v-10.7l-1.5-0.4l0.1-0.5l2.6-0.2l0.2,0.2v11.6l1.6,0.3l-0.1,0.6h-4.5V384.6z
		 M208.8,382.1l-1.3-1.7v-0.2l2.8-3.3l-1.3-0.4l0.1-0.5h3.8l-0.1,0.5l-1.5,0.4l-2.6,3l1,1.2l0.7,0.9c0.4,0.5,0.7,0.9,1,1.1
		s0.5,0.4,0.7,0.6s0.5,0.2,0.9,0.3h0.4l-0.1,0.6c-0.1,0-0.3,0.1-0.5,0.1s-0.4,0.1-0.6,0.1c-0.4,0-0.7-0.1-1-0.2
		c-0.3-0.2-0.6-0.4-0.9-0.8C209.9,383.5,209.4,382.9,208.8,382.1z"/>
	<path class="st0" d="M216.6,384.9c-0.4,0-0.7-0.1-1-0.2s-0.6-0.4-0.7-0.6s-0.3-0.6-0.3-1c0-0.6,0.2-1,0.5-1.5s0.9-0.8,1.6-1
		s1.6-0.4,2.6-0.5v-0.7c0-0.9-0.1-1.6-0.4-2.1c-0.3-0.5-0.8-0.7-1.4-0.7c-0.3,0-0.6,0.1-0.8,0.2c-0.2,0.2-0.3,0.4-0.4,0.7
		c-0.1,0.3-0.1,0.7-0.2,1.2c-0.3,0-0.6-0.1-0.8-0.2s-0.3-0.4-0.3-0.7s0.2-0.7,0.5-1s0.7-0.6,1.2-0.7c0.5-0.2,1-0.3,1.4-0.3
		c0.8,0,1.5,0.2,1.8,0.7c0.4,0.5,0.6,1.2,0.6,2.3v3.4c0,0.3,0,0.6,0.1,0.8c0,0.2,0.1,0.4,0.3,0.5c0.1,0.1,0.4,0.2,0.6,0.3l0.6,0.1
		l-0.1,0.6h-0.2c-0.2,0.1-0.4,0.1-0.5,0.1s-0.3,0-0.5,0c-0.4,0-0.8-0.1-1-0.4s-0.3-0.6-0.3-0.9v-0.1h-0.1c-0.1,0.2-0.3,0.4-0.5,0.7
		c-0.2,0.2-0.5,0.4-0.9,0.6C217.5,384.8,217.1,384.9,216.6,384.9z M219.2,380.6c-2.2,0.2-3.3,0.9-3.3,2.1c0,0.2,0.1,0.4,0.2,0.6
		c0.1,0.2,0.2,0.3,0.4,0.5s0.4,0.2,0.7,0.2c0.4,0,0.8-0.1,1.2-0.3c0.4-0.2,0.6-0.5,0.8-0.8L219.2,380.6L219.2,380.6z"/>
	<path class="st0" d="M223.7,377.3l-1.4-0.4l0.1-0.5l2.4-0.2l0.2,0.2v5.3c0,1.5,0.6,2.3,1.7,2.3c0.4,0,0.8-0.1,1.1-0.3
		s0.6-0.4,0.9-0.7v-5.5l-1.5-0.4l0.1-0.6l2.6-0.2l0.1,0.2v6.2c0,0.5,0.1,0.8,0.2,1.1s0.4,0.4,0.8,0.4l0.5,0.1l-0.1,0.6
		c-0.2,0.1-0.4,0.1-0.6,0.1c-0.2,0-0.4,0-0.6,0c-0.4,0-0.8-0.1-1-0.4s-0.4-0.6-0.4-1v-0.1h-0.1c-0.3,0.5-0.7,0.9-1.2,1.1
		c-0.5,0.3-1,0.4-1.5,0.4c-1.5,0-2.2-1-2.2-2.9v-4.8H223.7z"/>
	<path class="st0" d="M237.9,384.6h-5.2l0.1-0.5l1.5-0.4v-6.9h-1.5l0.1-0.5l1.3-0.2c0.1-0.9,0.3-1.7,0.7-2.4s0.8-1.1,1.3-1.4
		s1-0.5,1.5-0.5s0.9,0.1,1.3,0.3c0.3,0.2,0.5,0.5,0.5,0.8c0,0.2-0.1,0.4-0.2,0.6s-0.3,0.3-0.5,0.4c-0.2-0.3-0.5-0.6-0.8-0.8
		c-0.3-0.2-0.6-0.3-0.9-0.3c-0.4,0-0.7,0.2-1,0.6s-0.4,1-0.4,1.7v1.2h2.5l-0.1,0.7h-2.4v6.8l2.4,0.3L237.9,384.6z"/>
	<path class="st0" d="M241.5,373.1l-1.5-0.4l0.1-0.5l2.5-0.2l0.1,0.2v4.3l-0.1,1h0.1c0.9-1,1.8-1.5,2.8-1.5c0.6,0,1.2,0.2,1.6,0.5
		s0.8,0.8,1.1,1.4s0.4,1.3,0.4,2.1c0,1-0.2,1.9-0.6,2.6c-0.4,0.7-1,1.3-1.7,1.6s-1.5,0.6-2.4,0.6s-1.7-0.2-2.4-0.7L241.5,373.1
		L241.5,373.1z M242.8,378.1v5.3c0.2,0.2,0.5,0.3,0.8,0.5c0.4,0.1,0.8,0.2,1.2,0.2s0.8-0.1,1.2-0.4s0.7-0.6,0.9-1.2
		c0.2-0.5,0.4-1.1,0.4-1.8c0-1.1-0.2-2-0.6-2.7c-0.4-0.7-1-1-1.8-1c-0.3,0-0.7,0.1-1,0.3C243.5,377.4,243.2,377.7,242.8,378.1z"/>
	<path class="st0" d="M251.8,384.9c-0.4,0-0.7-0.1-1-0.2s-0.6-0.4-0.7-0.6s-0.3-0.6-0.3-1c0-0.6,0.2-1,0.5-1.5s0.9-0.8,1.6-1
		s1.6-0.4,2.6-0.5v-0.7c0-0.9-0.1-1.6-0.4-2.1c-0.3-0.5-0.8-0.7-1.4-0.7c-0.3,0-0.6,0.1-0.8,0.2c-0.2,0.2-0.3,0.4-0.4,0.7
		c-0.1,0.3-0.1,0.7-0.2,1.2c-0.3,0-0.6-0.1-0.8-0.2s-0.3-0.4-0.3-0.7s0.2-0.7,0.5-1s0.7-0.6,1.2-0.7c0.5-0.2,1-0.3,1.4-0.3
		c0.8,0,1.5,0.2,1.8,0.7c0.4,0.5,0.6,1.2,0.6,2.3v3.4c0,0.3,0,0.6,0.1,0.8c0,0.2,0.1,0.4,0.3,0.5c0.1,0.1,0.4,0.2,0.6,0.3l0.6,0.1
		l-0.1,0.6H257c-0.2,0.1-0.4,0.1-0.5,0.1s-0.3,0-0.5,0c-0.4,0-0.8-0.1-1-0.4s-0.3-0.6-0.3-0.9v-0.1h-0.1c-0.1,0.2-0.3,0.4-0.5,0.7
		c-0.2,0.2-0.5,0.4-0.9,0.6C252.7,384.8,252.3,384.9,251.8,384.9z M254.5,380.6c-2.2,0.2-3.3,0.9-3.3,2.1c0,0.2,0.1,0.4,0.2,0.6
		c0.1,0.2,0.2,0.3,0.4,0.5s0.4,0.2,0.7,0.2c0.4,0,0.8-0.1,1.2-0.3c0.4-0.2,0.6-0.5,0.8-0.8L254.5,380.6L254.5,380.6z"/>
	<path class="st0" d="M263.4,384.6h-5l0.1-0.5l1.5-0.3v-6.6l-1.6-0.4l0.1-0.5l2.5-0.3l0.2,0.2l-0.1,2.4h0.1c0.2-0.6,0.4-1,0.6-1.5
		s0.5-0.7,0.8-1s0.6-0.3,0.9-0.3s0.6,0.1,0.8,0.3s0.3,0.4,0.3,0.7c0,0.2-0.1,0.3-0.2,0.5s-0.3,0.3-0.4,0.4c-0.3-0.3-0.7-0.5-1-0.5
		s-0.5,0.1-0.7,0.4s-0.4,0.6-0.6,1s-0.3,0.9-0.4,1.4v3.7l2.2,0.3L263.4,384.6z"/>
	<path class="st0" d="M269,384.9c-0.6,0-1.2-0.2-1.8-0.5s-1-0.8-1.3-1.5s-0.5-1.5-0.5-2.4s0.2-1.7,0.5-2.4s0.8-1.2,1.4-1.6
		s1.2-0.5,1.9-0.5c0.7,0,1.3,0.2,1.8,0.7s0.7,1.2,0.7,2.2c0,0.2,0,0.4,0,0.6s-0.1,0.5-0.1,0.6l-4.7,0.1c0,0.6,0.1,1.2,0.3,1.8
		s0.5,1,0.9,1.3s0.9,0.5,1.5,0.5c0.4,0,0.8-0.1,1.1-0.2s0.7-0.3,1-0.5l0.2,0.4c-0.3,0.4-0.8,0.7-1.3,1S269.6,384.9,269,384.9z
		 M268.8,376.7c-0.4,0-0.7,0.1-1,0.3s-0.5,0.6-0.7,1s-0.3,1-0.3,1.6l3.4-0.2c0-0.1,0.1-0.4,0.1-0.8c0-0.6-0.1-1.1-0.4-1.4
		S269.3,376.7,268.8,376.7z"/>
	<path class="st0" d="M277.3,384.6h-4.2l0.1-0.5l1.5-0.3v-6.5l-1.5-0.4l0.1-0.5l2.6-0.3l0.1,0.1l-0.1,1.3h0.1
		c0.4-0.4,0.8-0.8,1.3-1.1s1.1-0.5,1.7-0.5c0.5,0,1,0.1,1.3,0.4s0.6,0.7,0.7,1.2h0.1c0.3-0.4,0.8-0.8,1.3-1.1s1.1-0.5,1.6-0.5
		c0.8,0,1.4,0.2,1.8,0.7s0.5,1.2,0.5,2.1v5l1.4,0.3l-0.1,0.6h-3.9l0.1-0.5l1.3-0.3V379c0-0.6-0.1-1.1-0.4-1.5s-0.7-0.5-1.3-0.5
		c-0.4,0-0.8,0.1-1.2,0.3s-0.7,0.5-1,0.8v5.6l1.4,0.3l-0.1,0.6h-3.9l0.1-0.5l1.3-0.3V379c0-0.6-0.2-1.1-0.5-1.5s-0.7-0.6-1.2-0.6
		c-0.4,0-0.9,0.1-1.3,0.3s-0.7,0.5-1,0.8v5.7l1.4,0.3L277.3,384.6z"/>
	<path class="st0" d="M34.2,396.5h10.5l-0.3,3.3l-0.7-0.1l-0.3-2.5h-3.3v10.5l1.8,0.3l-0.1,0.6h-4.9L37,408l1.7-0.4v-10.5h-3.2
		l-0.4,2.5l-0.7-0.1L34.2,396.5z"/>
	<path class="st0" d="M49.6,408.6h-5l0.1-0.5l1.5-0.3v-6.6l-1.6-0.4l0.1-0.5l2.5-0.3l0.2,0.2l-0.1,2.4h0.1c0.2-0.6,0.4-1,0.6-1.5
		s0.5-0.7,0.8-1s0.6-0.3,0.9-0.3c0.3,0,0.6,0.1,0.8,0.3s0.3,0.4,0.3,0.7c0,0.2-0.1,0.3-0.2,0.5s-0.3,0.3-0.4,0.4
		c-0.3-0.3-0.7-0.5-1-0.5s-0.5,0.1-0.7,0.4s-0.4,0.6-0.6,1s-0.3,0.9-0.4,1.4v3.7l2.2,0.3L49.6,408.6z"/>
	<path class="st0" d="M52,408.6l0.1-0.5l1.5-0.3v-6.7l-1.5-0.4l0.1-0.5l2.5-0.2l0.2,0.2v7.7l1.6,0.3l-0.1,0.6H52V408.6z M54,398
		c-0.3,0-0.5-0.1-0.6-0.3s-0.2-0.4-0.2-0.7c0-0.3,0.1-0.5,0.2-0.7s0.3-0.3,0.6-0.3s0.4,0.1,0.6,0.3s0.2,0.4,0.2,0.7
		c0,0.3-0.1,0.6-0.2,0.8S54.3,398,54,398z"/>
	<path class="st0" d="M61.9,408.6h-4.2l0.1-0.5l1.5-0.3v-6.5l-1.5-0.4l0.1-0.5l2.6-0.3l0.1,0.1l-0.1,1.3h0.1
		c0.3-0.4,0.8-0.8,1.3-1.1s1.1-0.5,1.7-0.5c0.7,0,1.2,0.2,1.7,0.7s0.6,1.2,0.6,2.1v5l1.4,0.3l-0.1,0.6h-4l0.1-0.5l1.4-0.3v-4.7
		c0-0.7-0.2-1.2-0.5-1.6S63.5,401,63,401s-0.9,0.1-1.2,0.2s-0.7,0.4-1.1,0.8v5.7l1.4,0.3L61.9,408.6z"/>
	<path class="st0" d="M68.6,408.6l0.1-0.5l1.5-0.3v-10.7l-1.5-0.4l0.1-0.5l2.6-0.2l0.2,0.2v11.6l1.6,0.3l-0.1,0.6h-4.5V408.6z
		 M73,406.1l-1.3-1.7v-0.2l2.8-3.3l-1.3-0.4l0.1-0.5h3.8l-0.1,0.5l-1.5,0.4l-2.6,3l1,1.2l0.7,0.9c0.4,0.5,0.7,0.9,1,1.1
		s0.5,0.4,0.7,0.6s0.5,0.2,0.9,0.3h0.4l-0.1,0.6c-0.1,0-0.3,0.1-0.5,0.1s-0.4,0.1-0.6,0.1c-0.4,0-0.7-0.1-1-0.2s-0.6-0.4-0.9-0.8
		S73.6,406.9,73,406.1z"/>
	<path class="st0" d="M78.6,400.8l0.1-0.5h3.7l-0.1,0.5l-1.3,0.3l1.2,4.1l0.4,1.5l1.6-5.8l1.1-0.2l1.3,4.6l0.3,1.5l1.6-5.7l-1.5-0.3
		l0.1-0.5h3.5l-0.1,0.5l-1.1,0.3l-2.2,7.7l-0.8,0.2l-1.9-6.4l-1.7,6.2L82,409l-2.3-7.8L78.6,400.8z"/>
	<path class="st0" d="M93.4,408.9c-0.4,0-0.7-0.1-1-0.2s-0.6-0.4-0.7-0.6s-0.3-0.6-0.3-1c0-0.6,0.2-1,0.5-1.5s0.9-0.8,1.6-1
		s1.6-0.4,2.6-0.5v-0.7c0-0.9-0.1-1.6-0.4-2.1s-0.8-0.7-1.4-0.7c-0.3,0-0.6,0.1-0.8,0.2s-0.3,0.4-0.4,0.7s-0.1,0.7-0.2,1.2
		c-0.3,0-0.6-0.1-0.8-0.2s-0.3-0.4-0.3-0.7s0.2-0.7,0.5-1s0.7-0.6,1.2-0.7s1-0.3,1.4-0.3c0.8,0,1.5,0.2,1.8,0.7s0.6,1.2,0.6,2.3v3.4
		c0,0.3,0,0.6,0.1,0.8s0.1,0.4,0.3,0.5s0.4,0.2,0.6,0.3l0.6,0.1l-0.1,0.6h-0.2c-0.2,0.1-0.4,0.1-0.5,0.1s-0.3,0-0.5,0
		c-0.4,0-0.8-0.1-1-0.4s-0.3-0.6-0.3-0.9v-0.1h-0.1c-0.1,0.2-0.3,0.4-0.5,0.7s-0.5,0.4-0.9,0.6S93.9,408.9,93.4,408.9z M96,404.6
		c-2.2,0.2-3.3,0.9-3.3,2.1c0,0.2,0.1,0.4,0.2,0.6s0.2,0.3,0.4,0.5s0.4,0.2,0.7,0.2c0.4,0,0.8-0.1,1.2-0.3s0.6-0.5,0.8-0.8
		C96,406.9,96,404.6,96,404.6z"/>
	<path class="st0" d="M102.6,409c-0.5,0-1-0.1-1.4-0.2s-0.7-0.4-1-0.7s-0.4-0.6-0.4-0.9s0.1-0.5,0.3-0.7s0.4-0.3,0.7-0.3
		c0.2,0.8,0.4,1.3,0.7,1.7s0.7,0.5,1.3,0.5c0.4,0,0.8-0.1,1-0.3s0.4-0.5,0.4-0.8c0-0.2-0.1-0.5-0.2-0.7s-0.3-0.4-0.6-0.6
		s-0.5-0.4-1-0.6c-0.5-0.3-0.9-0.6-1.2-0.8s-0.6-0.5-0.8-0.9s-0.3-0.7-0.3-1.1s0.1-0.8,0.3-1.2s0.5-0.7,0.9-0.9s0.9-0.4,1.5-0.4
		c0.4,0,0.8,0.1,1.1,0.2s0.6,0.4,0.8,0.6s0.3,0.6,0.3,0.9c0,0.4-0.1,0.6-0.3,0.8s-0.4,0.3-0.7,0.3l-0.1-0.4
		c-0.2-0.7-0.4-1.2-0.6-1.4s-0.6-0.4-0.9-0.4c-0.4,0-0.7,0.1-0.9,0.3s-0.4,0.5-0.4,0.9c0,0.3,0.1,0.5,0.3,0.8s0.4,0.5,0.6,0.6
		s0.6,0.4,1,0.7c0.5,0.3,0.9,0.6,1.2,0.8s0.6,0.5,0.8,0.8s0.3,0.7,0.3,1.1c0,0.5-0.1,0.9-0.4,1.2s-0.6,0.6-1.1,0.9
		S103.1,409,102.6,409z"/>
	<path class="st0" d="M109.5,409c-0.5,0-1-0.1-1.4-0.2s-0.7-0.4-1-0.7s-0.4-0.6-0.4-0.9s0.1-0.5,0.3-0.7s0.4-0.3,0.7-0.3
		c0.2,0.8,0.4,1.3,0.7,1.7s0.7,0.5,1.3,0.5c0.4,0,0.8-0.1,1-0.3s0.4-0.5,0.4-0.8c0-0.2-0.1-0.5-0.2-0.7s-0.3-0.4-0.6-0.6
		s-0.5-0.4-1-0.6c-0.5-0.3-0.9-0.6-1.2-0.8s-0.6-0.5-0.8-0.9s-0.3-0.7-0.3-1.1s0.1-0.8,0.3-1.2s0.5-0.7,0.9-0.9s0.9-0.4,1.5-0.4
		c0.4,0,0.8,0.1,1.1,0.2s0.6,0.4,0.8,0.6s0.3,0.6,0.3,0.9c0,0.4-0.1,0.6-0.3,0.8s-0.4,0.3-0.7,0.3l-0.1-0.4
		c-0.2-0.7-0.4-1.2-0.6-1.4s-0.6-0.4-0.9-0.4c-0.4,0-0.7,0.1-0.9,0.3s-0.4,0.5-0.4,0.9c0,0.3,0.1,0.5,0.3,0.8s0.4,0.5,0.6,0.6
		s0.6,0.4,1,0.7c0.5,0.3,0.9,0.6,1.2,0.8s0.6,0.5,0.8,0.8s0.3,0.7,0.3,1.1c0,0.5-0.1,0.9-0.4,1.2s-0.6,0.6-1.1,0.9
		S110,409,109.5,409z"/>
	<path class="st0" d="M117.2,408.9c-0.6,0-1.2-0.2-1.8-0.5s-1-0.8-1.3-1.5s-0.5-1.5-0.5-2.4s0.2-1.7,0.5-2.4s0.8-1.2,1.4-1.6
		s1.2-0.5,1.9-0.5c0.7,0,1.3,0.2,1.8,0.7s0.7,1.2,0.7,2.2c0,0.2,0,0.4,0,0.6s-0.1,0.5-0.1,0.6l-4.7,0.1c0,0.6,0.1,1.2,0.3,1.8
		s0.5,1,0.9,1.3s0.9,0.5,1.5,0.5c0.4,0,0.8-0.1,1.1-0.2s0.7-0.3,1-0.5l0.2,0.4c-0.3,0.4-0.8,0.7-1.3,1S117.8,408.9,117.2,408.9z
		 M117.1,400.7c-0.4,0-0.7,0.1-1,0.3s-0.5,0.6-0.7,1s-0.3,1-0.3,1.6l3.4-0.2c0-0.1,0.1-0.4,0.1-0.8c0-0.6-0.1-1.1-0.4-1.4
		S117.5,400.7,117.1,400.7z"/>
	<path class="st0" d="M126.4,408.6h-5l0.1-0.5l1.5-0.3v-6.6l-1.6-0.4l0.1-0.5l2.5-0.3l0.2,0.2l-0.1,2.4h0.1c0.2-0.6,0.4-1,0.6-1.5
		s0.5-0.7,0.8-1s0.6-0.3,0.9-0.3s0.6,0.1,0.8,0.3s0.3,0.4,0.3,0.7c0,0.2-0.1,0.3-0.2,0.5s-0.3,0.3-0.4,0.4c-0.3-0.3-0.7-0.5-1-0.5
		s-0.5,0.1-0.7,0.4s-0.4,0.6-0.6,1s-0.3,0.9-0.4,1.4v3.7l2.2,0.3L126.4,408.6z"/>
	<path class="st0" d="M132.4,408.6l0.1-0.5l1.5-0.3v-6.7l-1.5-0.4l0.1-0.5l2.5-0.2l0.2,0.2v7.7l1.6,0.3l-0.1,0.6h-4.4V408.6z
		 M134.5,398c-0.3,0-0.5-0.1-0.6-0.3s-0.2-0.4-0.2-0.7c0-0.3,0.1-0.5,0.2-0.7s0.3-0.3,0.6-0.3s0.4,0.1,0.6,0.3s0.2,0.4,0.2,0.7
		c0,0.3-0.1,0.6-0.2,0.8S134.7,398,134.5,398z"/>
	<path class="st0" d="M142.4,408.6h-4.2l0.1-0.5l1.5-0.3v-6.5l-1.5-0.4l0.1-0.5l2.6-0.3l0.1,0.1l-0.1,1.3h0.1
		c0.3-0.4,0.8-0.8,1.3-1.1s1.1-0.5,1.7-0.5c0.7,0,1.2,0.2,1.7,0.7s0.6,1.2,0.6,2.1v5l1.4,0.3l-0.1,0.6h-4l0.1-0.5l1.4-0.3v-4.7
		c0-0.7-0.2-1.2-0.5-1.6s-0.7-0.5-1.2-0.5s-0.9,0.1-1.2,0.2s-0.7,0.4-1.1,0.8v5.7l1.4,0.3L142.4,408.6z"/>
	<path class="st0" d="M157.8,408.6h-5.3l0.1-0.6l1.6-0.4v-10.1l-1.6-0.3l0.1-0.5l0.4-0.1c0.8-0.1,1.5-0.2,2-0.3s1.2-0.1,1.9-0.1
		c1.4,0,2.6,0.3,3.5,0.8s1.3,1.5,1.3,2.7c0,0.8-0.2,1.4-0.6,2s-1,1.1-1.7,1.4s-1.5,0.5-2.3,0.5c-0.3,0-0.5,0-0.7,0l-0.1-0.6h0.5
		c1.1,0,2-0.3,2.5-0.9s0.8-1.3,0.8-2.2c0-0.6-0.1-1.1-0.4-1.6s-0.6-0.9-1.2-1.2s-1.2-0.4-1.9-0.4c-0.2,0-0.4,0-0.6,0s-0.4,0-0.4,0
		v10.7l2.3,0.3L157.8,408.6z"/>
	<path class="st0" d="M162.6,397.1l0.1-0.6h9.3l-0.3,3.1l-0.7-0.1l-0.3-2.3h-4.9v4.9h3.1l0.4-1.3l0.7-0.1l-0.3,3.8l-0.6,0.1
		l-0.2-1.8h-3v5.1h5.2l0.8-2.4l0.6,0.1l-0.3,3.1h-9.5l0.1-0.6l1.7-0.4v-10.3L162.6,397.1z"/>
	<path class="st0" d="M173.4,396.5h10.5l-0.3,3.3l-0.7-0.1l-0.3-2.5h-3.3v10.5l1.8,0.3l-0.1,0.6h-4.9l0.1-0.6l1.7-0.4v-10.5h-3.2
		l-0.4,2.5l-0.7-0.1L173.4,396.5z"/>
	<path class="st0" d="M183.3,404.6l0.1-0.8l4-0.2l-0.1,0.8L183.3,404.6z"/>
	<path class="st0" d="M188.2,397.1l0.1-0.6h9.3l-0.4,3.1l-0.7-0.1l-0.3-2.3h-4.9v5.1h3l0.4-1.3l0.7-0.1l-0.3,3.8l-0.7,0.1l-0.2-1.8
		h-2.9v4.7l2.4,0.3l-0.1,0.7h-5.4v-0.6l1.7-0.4v-10.3L188.2,397.1z"/>
	<path class="st0" d="M198.8,408.6l0.1-0.5l1.5-0.3v-10.7l-1.5-0.4l0.1-0.5l2.6-0.2l0.2,0.2v11.7l1.6,0.3l-0.1,0.6h-4.5V408.6z"/>
	<path class="st0" d="M206.5,408.9c-0.4,0-0.7-0.1-1-0.2s-0.6-0.4-0.7-0.6s-0.3-0.6-0.3-1c0-0.6,0.2-1,0.5-1.5s0.9-0.8,1.6-1
		s1.6-0.4,2.6-0.5v-0.7c0-0.9-0.1-1.6-0.4-2.1c-0.3-0.5-0.8-0.7-1.4-0.7c-0.3,0-0.6,0.1-0.8,0.2c-0.2,0.2-0.3,0.4-0.4,0.7
		c-0.1,0.3-0.1,0.7-0.2,1.2c-0.3,0-0.6-0.1-0.8-0.2s-0.3-0.4-0.3-0.7s0.2-0.7,0.5-1s0.7-0.6,1.2-0.7c0.5-0.2,1-0.3,1.4-0.3
		c0.8,0,1.5,0.2,1.8,0.7c0.4,0.5,0.6,1.2,0.6,2.3v3.4c0,0.3,0,0.6,0.1,0.8c0,0.2,0.1,0.4,0.3,0.5c0.1,0.1,0.4,0.2,0.6,0.3l0.6,0.1
		l-0.1,0.6h-0.2c-0.2,0.1-0.4,0.1-0.5,0.1s-0.3,0-0.5,0c-0.4,0-0.8-0.1-1-0.4s-0.3-0.6-0.3-0.9v-0.1h-0.1c-0.1,0.2-0.3,0.4-0.5,0.7
		c-0.2,0.2-0.5,0.4-0.9,0.6C207.4,408.8,206.9,408.9,206.5,408.9z M209.1,404.6c-2.2,0.2-3.3,0.9-3.3,2.1c0,0.2,0,0.4,0.2,0.6
		c0.1,0.2,0.2,0.3,0.4,0.5s0.4,0.2,0.7,0.2c0.4,0,0.8-0.1,1.2-0.3c0.4-0.2,0.6-0.5,0.8-0.8L209.1,404.6L209.1,404.6z"/>
	<path class="st0" d="M215.7,409c-0.5,0-1-0.1-1.4-0.2s-0.7-0.4-1-0.7s-0.4-0.6-0.4-0.9s0.1-0.5,0.3-0.7s0.4-0.3,0.7-0.3
		c0.2,0.8,0.4,1.3,0.7,1.7c0.3,0.3,0.7,0.5,1.3,0.5c0.4,0,0.8-0.1,1-0.3s0.4-0.5,0.4-0.8c0-0.2-0.1-0.5-0.2-0.7
		c-0.2-0.2-0.3-0.4-0.6-0.6c-0.2-0.2-0.5-0.4-1-0.6c-0.5-0.3-0.9-0.6-1.2-0.8c-0.3-0.2-0.6-0.5-0.8-0.9c-0.2-0.3-0.3-0.7-0.3-1.1
		s0.1-0.8,0.3-1.2c0.2-0.4,0.5-0.7,0.9-0.9c0.4-0.2,0.9-0.4,1.5-0.4c0.4,0,0.8,0.1,1.1,0.2s0.6,0.4,0.8,0.6s0.3,0.6,0.3,0.9
		c0,0.4-0.1,0.6-0.3,0.8s-0.4,0.3-0.7,0.3l-0.1-0.4c-0.2-0.7-0.4-1.2-0.6-1.4c-0.3-0.3-0.6-0.4-0.9-0.4c-0.4,0-0.7,0.1-0.9,0.3
		s-0.4,0.5-0.4,0.9c0,0.3,0.1,0.5,0.3,0.8c0.2,0.2,0.4,0.5,0.6,0.6c0.3,0.2,0.6,0.4,1,0.7c0.5,0.3,0.9,0.6,1.2,0.8s0.6,0.5,0.8,0.8
		s0.3,0.7,0.3,1.1c0,0.5-0.1,0.9-0.4,1.2s-0.6,0.6-1.1,0.9S216.2,409,215.7,409z"/>
	<path class="st0" d="M223.4,408.9c-0.7,0-1.4-0.2-1.9-0.6s-1-0.9-1.2-1.5c-0.3-0.6-0.4-1.4-0.4-2.1c0-0.9,0.2-1.8,0.5-2.5
		s0.8-1.3,1.4-1.7s1.2-0.6,2-0.6c0.5,0,0.9,0.1,1.3,0.2c0.3,0.1,0.6,0.3,0.7,0.6s0.2,0.5,0.2,0.8c0,0.5-0.3,0.9-0.9,1
		c-0.2-0.6-0.4-1-0.7-1.3s-0.6-0.5-1.1-0.5c-0.4,0-0.7,0.1-1.1,0.4s-0.6,0.6-0.7,1.1c-0.2,0.5-0.3,1.1-0.3,1.7
		c0,0.8,0.1,1.4,0.3,2.1c0.2,0.6,0.6,1.1,1,1.4s0.9,0.5,1.5,0.5c0.8,0,1.5-0.3,2.1-0.8l0.2,0.4c-0.2,0.2-0.4,0.4-0.7,0.6
		s-0.7,0.4-1.1,0.5C224.2,408.9,223.8,408.9,223.4,408.9z"/>
	<path class="st0" d="M231.8,408.6h-4.2l0.1-0.6l1.5-0.3V397l-1.5-0.4l0.1-0.5l2.6-0.2l0.2,0.2v4.3l-0.1,1h0.1
		c0.4-0.5,0.9-0.8,1.4-1.1s1-0.4,1.6-0.4c0.7,0,1.3,0.2,1.7,0.7s0.6,1.2,0.6,2.3v4.9l1.4,0.3l-0.1,0.6h-4l0.1-0.5l1.3-0.3v-4.6v-0.1
		c0-0.7-0.2-1.3-0.5-1.6c-0.3-0.3-0.7-0.5-1.2-0.5c-0.4,0-0.8,0.1-1.2,0.3s-0.7,0.5-1.1,0.8v5.7l1.4,0.3L231.8,408.6z"/>
	<path class="st0" d="M241.4,408.9c-0.6,0-1.2-0.2-1.8-0.5c-0.5-0.3-1-0.8-1.3-1.5s-0.5-1.5-0.5-2.4s0.2-1.7,0.5-2.4
		c0.4-0.7,0.8-1.2,1.4-1.6c0.6-0.4,1.2-0.5,1.9-0.5s1.3,0.2,1.8,0.7s0.7,1.2,0.7,2.2c0,0.2,0,0.4,0,0.6c0,0.3-0.1,0.5-0.1,0.6
		l-4.7,0.1c0,0.6,0.1,1.2,0.3,1.8s0.5,1,0.9,1.3s0.9,0.5,1.5,0.5c0.4,0,0.8-0.1,1.1-0.2s0.7-0.3,1-0.5l0.2,0.4
		c-0.3,0.4-0.8,0.7-1.3,1C242.6,408.8,242,408.9,241.4,408.9z M241.2,400.7c-0.4,0-0.7,0.1-1,0.3c-0.3,0.2-0.5,0.6-0.7,1
		s-0.3,1-0.3,1.6l3.4-0.2c0-0.1,0.1-0.4,0.1-0.8c0-0.6-0.1-1.1-0.4-1.4C242.1,400.9,241.7,400.7,241.2,400.7z"/>
	<path class="st0" d="M249.7,408.6h-4.2l0.1-0.5l1.5-0.3v-6.5l-1.5-0.4l0.1-0.5l2.6-0.3l0.1,0.1l-0.1,1.3h0.1
		c0.3-0.4,0.8-0.8,1.3-1.1c0.6-0.3,1.1-0.5,1.7-0.5c0.7,0,1.2,0.2,1.7,0.7c0.4,0.5,0.6,1.2,0.6,2.1v5l1.4,0.3l-0.1,0.6h-4l0.1-0.5
		l1.4-0.3v-4.7c0-0.7-0.2-1.2-0.5-1.6c-0.3-0.3-0.7-0.5-1.2-0.5s-0.9,0.1-1.2,0.2s-0.7,0.4-1.1,0.8v5.7l1.4,0.3L249.7,408.6z"/>
	<path class="st0" d="M261.3,397.1l-1.5-0.4l0.1-0.5l2.5-0.2l0.1,0.2v4.3l-0.1,1h0.1c0.9-1,1.8-1.5,2.8-1.5c0.6,0,1.2,0.2,1.6,0.5
		s0.8,0.8,1.1,1.4c0.3,0.6,0.4,1.3,0.4,2.1c0,1-0.2,1.9-0.6,2.6s-1,1.3-1.7,1.6s-1.5,0.6-2.4,0.6s-1.7-0.2-2.4-0.7V397.1z
		 M262.6,402.1v5.3c0.2,0.2,0.5,0.3,0.8,0.5c0.4,0.1,0.8,0.2,1.2,0.2c0.4,0,0.8-0.1,1.2-0.4c0.4-0.3,0.7-0.6,0.9-1.2
		c0.2-0.5,0.4-1.1,0.4-1.8c0-1.1-0.2-2-0.6-2.7s-1-1-1.8-1c-0.3,0-0.7,0.1-1,0.3C263.3,401.4,263,401.7,262.6,402.1z"/>
	<path class="st0" d="M273.3,408.9c-0.6,0-1.2-0.2-1.8-0.5s-1-0.8-1.3-1.5s-0.5-1.5-0.5-2.4s0.2-1.7,0.5-2.4s0.8-1.2,1.4-1.6
		s1.2-0.5,1.9-0.5c0.7,0,1.3,0.2,1.8,0.7s0.7,1.2,0.7,2.2c0,0.2,0,0.4,0,0.6s-0.1,0.5-0.1,0.6l-4.7,0.1c0,0.6,0.1,1.2,0.3,1.8
		s0.5,1,0.9,1.3s0.9,0.5,1.5,0.5c0.4,0,0.8-0.1,1.1-0.2s0.7-0.3,1-0.5l0.2,0.4c-0.3,0.4-0.8,0.7-1.3,1S274,408.9,273.3,408.9z
		 M273.2,400.7c-0.4,0-0.7,0.1-1,0.3s-0.5,0.6-0.7,1s-0.3,1-0.3,1.6l3.4-0.2c0-0.1,0.1-0.4,0.1-0.8c0-0.6-0.1-1.1-0.4-1.4
		S273.7,400.7,273.2,400.7z"/>
	<path class="st0" d="M277.7,408l5-7.1H279l-0.5,2l-0.5-0.1l0.1-2.6h6.3v0.5l-5.1,7.1h4l0.7-1.9l0.5,0.1l-0.3,2.6h-6.4L277.7,408z"
		/>
	<path class="st0" d="M285.6,408.6l0.1-0.5l1.5-0.3v-6.7l-1.5-0.4l0.1-0.5l2.5-0.2l0.2,0.2v7.7l1.6,0.3l-0.1,0.6h-4.4V408.6z
		 M287.7,398c-0.3,0-0.5-0.1-0.6-0.3s-0.2-0.4-0.2-0.7c0-0.3,0.1-0.5,0.2-0.7s0.3-0.3,0.6-0.3s0.4,0.1,0.6,0.3s0.2,0.4,0.2,0.7
		c0,0.3-0.1,0.6-0.2,0.8S287.9,398,287.7,398z"/>
	<path class="st0" d="M294.4,408.9c-0.6,0-1.2-0.2-1.8-0.5s-1-0.8-1.3-1.5s-0.5-1.5-0.5-2.4s0.2-1.7,0.5-2.4s0.8-1.2,1.4-1.6
		s1.2-0.5,1.9-0.5c0.7,0,1.3,0.2,1.8,0.7s0.7,1.2,0.7,2.2c0,0.2,0,0.4,0,0.6s-0.1,0.5-0.1,0.6l-4.7,0.1c0,0.6,0.1,1.2,0.3,1.8
		s0.5,1,0.9,1.3s0.9,0.5,1.5,0.5c0.4,0,0.8-0.1,1.1-0.2s0.7-0.3,1-0.5l0.2,0.4c-0.3,0.4-0.8,0.7-1.3,1S295,408.9,294.4,408.9z
		 M294.3,400.7c-0.4,0-0.7,0.1-1,0.3s-0.5,0.6-0.7,1s-0.3,1-0.3,1.6l3.4-0.2c0-0.1,0.1-0.4,0.1-0.8c0-0.6-0.1-1.1-0.4-1.4
		S294.7,400.7,294.3,400.7z"/>
	<path class="st0" d="M302.8,408.6h-4.2l0.1-0.6l1.5-0.3V397l-1.5-0.4l0.1-0.5l2.6-0.2l0.2,0.2v4.3l-0.1,1h0.1
		c0.4-0.5,0.9-0.8,1.4-1.1s1-0.4,1.6-0.4c0.7,0,1.3,0.2,1.7,0.7s0.6,1.2,0.6,2.3v4.9l1.4,0.3l-0.1,0.6h-4l0.1-0.5l1.3-0.3v-4.6v-0.1
		c0-0.7-0.2-1.3-0.5-1.6s-0.7-0.5-1.2-0.5c-0.4,0-0.8,0.1-1.2,0.3s-0.7,0.5-1.1,0.8v5.7l1.4,0.3L302.8,408.6z"/>
	<path class="st0" d="M309.8,401.1h-1.2v-0.4c0.5-0.2,0.9-0.5,1.2-0.9s0.6-0.9,0.9-1.6h0.5v2.2h2.8l-0.1,0.7h-2.7v4.5
		c0,0.5,0,1,0.1,1.3s0.2,0.5,0.4,0.6s0.5,0.2,0.8,0.2c0.2,0,0.4,0,0.7-0.1s0.4-0.2,0.6-0.3s0.3-0.2,0.3-0.2l0.2,0.4
		c-0.3,0.4-0.7,0.8-1.1,1s-0.9,0.4-1.4,0.4c-0.6,0-1.1-0.2-1.4-0.6s-0.5-1.1-0.5-2L309.8,401.1z"/>
	<path class="st0" d="M36.9,433c-0.5,0-1-0.1-1.4-0.2s-0.7-0.4-1-0.7s-0.4-0.6-0.4-0.9s0.1-0.5,0.3-0.7s0.4-0.3,0.7-0.3
		c0.2,0.8,0.4,1.3,0.7,1.7s0.7,0.5,1.3,0.5c0.4,0,0.8-0.1,1-0.3s0.4-0.5,0.4-0.8c0-0.2-0.1-0.5-0.2-0.7s-0.3-0.4-0.6-0.6
		s-0.5-0.4-1-0.6c-0.5-0.3-0.9-0.6-1.2-0.8s-0.6-0.5-0.8-0.9s-0.3-0.7-0.3-1.1s0.1-0.8,0.3-1.2s0.5-0.7,0.9-0.9s0.9-0.4,1.5-0.4
		c0.4,0,0.8,0.1,1.1,0.2s0.6,0.4,0.8,0.6s0.3,0.6,0.3,0.9c0,0.4-0.1,0.6-0.3,0.8s-0.4,0.3-0.7,0.3l-0.1-0.4
		c-0.2-0.7-0.4-1.2-0.6-1.4s-0.6-0.4-0.9-0.4c-0.4,0-0.7,0.1-0.9,0.3s-0.4,0.5-0.4,0.9c0,0.3,0.1,0.5,0.3,0.8s0.4,0.5,0.6,0.6
		s0.6,0.4,1,0.7c0.5,0.3,0.9,0.6,1.2,0.8s0.6,0.5,0.8,0.8s0.3,0.7,0.3,1.1c0,0.5-0.1,0.9-0.4,1.2s-0.6,0.6-1.1,0.9
		S37.4,433,36.9,433z"/>
	<path class="st0" d="M40.8,432.6l0.1-0.5l1.5-0.3v-6.7l-1.5-0.4l0.1-0.5l2.5-0.2l0.2,0.2v7.7l1.6,0.3l-0.1,0.6h-4.4V432.6z
		 M42.9,422c-0.3,0-0.5-0.1-0.6-0.3s-0.2-0.4-0.2-0.7c0-0.3,0.1-0.5,0.2-0.7s0.3-0.3,0.6-0.3s0.4,0.1,0.6,0.3s0.2,0.4,0.2,0.7
		c0,0.3-0.1,0.6-0.2,0.8S43.2,422,42.9,422z"/>
	<path class="st0" d="M49.7,432.9c-0.7,0-1.4-0.2-1.9-0.6s-1-0.9-1.2-1.5s-0.4-1.4-0.4-2.1c0-0.9,0.2-1.8,0.5-2.5s0.8-1.3,1.4-1.7
		s1.2-0.6,2-0.6c0.5,0,0.9,0.1,1.3,0.2s0.6,0.3,0.7,0.6s0.2,0.5,0.2,0.8c0,0.5-0.3,0.9-0.9,1c-0.2-0.6-0.4-1-0.7-1.3
		s-0.6-0.5-1.1-0.5c-0.4,0-0.7,0.1-1.1,0.4s-0.6,0.6-0.7,1.1s-0.3,1.1-0.3,1.7c0,0.8,0.1,1.4,0.3,2.1s0.6,1.1,1,1.4s0.9,0.5,1.5,0.5
		c0.8,0,1.5-0.3,2.1-0.8l0.2,0.4c-0.2,0.2-0.4,0.4-0.7,0.6s-0.7,0.4-1.1,0.5S50.1,432.9,49.7,432.9z"/>
	<path class="st0" d="M58,432.6h-4.2l0.1-0.6l1.5-0.3V421l-1.5-0.4l0.1-0.5l2.6-0.2l0.2,0.2v4.3l-0.1,1h0.1c0.4-0.5,0.9-0.8,1.4-1.1
		s1-0.4,1.6-0.4c0.7,0,1.3,0.2,1.7,0.7s0.6,1.2,0.6,2.3v4.9l1.4,0.3l-0.1,0.6h-4l0.1-0.5l1.3-0.3v-4.6v-0.1c0-0.7-0.2-1.3-0.5-1.6
		s-0.7-0.5-1.2-0.5c-0.4,0-0.8,0.1-1.2,0.3s-0.7,0.5-1.1,0.8v5.7l1.4,0.3L58,432.6z"/>
	<path class="st0" d="M72.3,432.6h-4.2l0.1-0.5l1.5-0.3v-6.5l-1.5-0.4l0.1-0.5l2.6-0.3l0.1,0.1l-0.1,1.3H71c0.3-0.4,0.8-0.8,1.3-1.1
		s1.1-0.5,1.7-0.5c0.7,0,1.2,0.2,1.7,0.7s0.6,1.2,0.6,2.1v5l1.4,0.3l-0.1,0.6h-4l0.1-0.5l1.4-0.3v-4.7c0-0.7-0.2-1.2-0.5-1.6
		s-0.7-0.5-1.2-0.5s-0.9,0.1-1.2,0.2s-0.7,0.4-1.1,0.8v5.7l1.4,0.3L72.3,432.6z"/>
	<path class="st0" d="M78.9,432.6l0.1-0.5l1.5-0.3v-6.7l-1.5-0.4l0.1-0.5l2.5-0.2l0.2,0.2v7.7l1.6,0.3l-0.1,0.6h-4.4V432.6z M81,422
		c-0.3,0-0.5-0.1-0.6-0.3s-0.2-0.4-0.2-0.7c0-0.3,0.1-0.5,0.2-0.7s0.3-0.3,0.6-0.3s0.4,0.1,0.6,0.3s0.2,0.4,0.2,0.7
		c0,0.3-0.1,0.6-0.2,0.8S81.2,422,81,422z"/>
	<path class="st0" d="M87.7,432.9c-0.7,0-1.4-0.2-1.9-0.6s-1-0.9-1.2-1.5s-0.4-1.4-0.4-2.1c0-0.9,0.2-1.8,0.5-2.5s0.8-1.3,1.4-1.7
		s1.2-0.6,2-0.6c0.5,0,0.9,0.1,1.3,0.2s0.6,0.3,0.7,0.6s0.2,0.5,0.2,0.8c0,0.5-0.3,0.9-0.9,1c-0.2-0.6-0.4-1-0.7-1.3
		s-0.6-0.5-1.1-0.5c-0.4,0-0.7,0.1-1.1,0.4s-0.6,0.6-0.7,1.1s-0.3,1.1-0.3,1.7c0,0.8,0.1,1.4,0.3,2.1s0.6,1.1,1,1.4s0.9,0.5,1.5,0.5
		c0.8,0,1.5-0.3,2.1-0.8l0.2,0.4c-0.2,0.2-0.4,0.4-0.7,0.6s-0.7,0.4-1.1,0.5S88.1,432.9,87.7,432.9z"/>
	<path class="st0" d="M96.1,432.6h-4.2L92,432l1.5-0.3V421l-1.5-0.4l0.1-0.5l2.6-0.2l0.2,0.2v4.3l-0.1,1h0.1
		c0.4-0.5,0.9-0.8,1.4-1.1s1-0.4,1.6-0.4c0.7,0,1.3,0.2,1.7,0.7s0.6,1.2,0.6,2.3v4.9l1.4,0.3l-0.1,0.6h-4l0.1-0.5l1.3-0.3v-4.6v-0.1
		c0-0.7-0.2-1.3-0.5-1.6S97.5,425,97,425c-0.4,0-0.8,0.1-1.2,0.3s-0.7,0.5-1.1,0.8v5.7l1.4,0.3L96.1,432.6z"/>
	<path class="st0" d="M103.1,425.1h-1.2v-0.4c0.5-0.2,0.9-0.5,1.2-0.9s0.6-0.9,0.9-1.6h0.5v2.2h2.8l-0.1,0.7h-2.7v4.5
		c0,0.5,0,1,0.1,1.3s0.2,0.5,0.4,0.6s0.5,0.2,0.8,0.2c0.2,0,0.4,0,0.7-0.1s0.4-0.2,0.6-0.3s0.3-0.2,0.3-0.2l0.2,0.4
		c-0.3,0.4-0.7,0.8-1.1,1s-0.9,0.4-1.4,0.4c-0.6,0-1.1-0.2-1.4-0.6s-0.5-1.1-0.5-2L103.1,425.1z"/>
	<path class="st0" d="M114.2,432.9c-0.4,0-0.7-0.1-1-0.2s-0.6-0.4-0.7-0.6s-0.3-0.6-0.3-1c0-0.6,0.2-1,0.5-1.5s0.9-0.8,1.6-1
		s1.6-0.4,2.6-0.5v-0.7c0-0.9-0.1-1.6-0.4-2.1s-0.8-0.7-1.4-0.7c-0.3,0-0.6,0.1-0.8,0.2s-0.3,0.4-0.4,0.7s-0.1,0.7-0.2,1.2
		c-0.3,0-0.6-0.1-0.8-0.2s-0.3-0.4-0.3-0.7s0.2-0.7,0.5-1s0.7-0.6,1.2-0.7s1-0.3,1.4-0.3c0.8,0,1.5,0.2,1.8,0.7s0.6,1.2,0.6,2.3v3.4
		c0,0.3,0,0.6,0.1,0.8s0.1,0.4,0.3,0.5s0.4,0.2,0.6,0.3l0.6,0.1l-0.1,0.6h-0.2c-0.2,0.1-0.4,0.1-0.5,0.1s-0.3,0-0.5,0
		c-0.4,0-0.8-0.1-1-0.4s-0.3-0.6-0.3-0.9v-0.1H117c-0.1,0.2-0.3,0.4-0.5,0.7s-0.5,0.4-0.9,0.6S114.7,432.9,114.2,432.9z
		 M116.8,428.6c-2.2,0.2-3.3,0.9-3.3,2.1c0,0.2,0.1,0.4,0.2,0.6s0.2,0.3,0.4,0.5s0.4,0.2,0.7,0.2c0.4,0,0.8-0.1,1.2-0.3
		s0.6-0.5,0.8-0.8C116.8,430.9,116.8,428.6,116.8,428.6z"/>
	<path class="st0" d="M121.3,425.3l-1.4-0.4l0.1-0.5l2.4-0.2l0.2,0.2v5.3c0,1.5,0.6,2.3,1.7,2.3c0.4,0,0.8-0.1,1.1-0.3
		s0.6-0.4,0.9-0.7v-5.5l-1.5-0.4l0.1-0.6l2.6-0.2l0.1,0.2v6.2c0,0.5,0.1,0.8,0.2,1.1s0.4,0.4,0.8,0.4l0.5,0.1l-0.1,0.6
		c-0.2,0.1-0.4,0.1-0.6,0.1s-0.4,0-0.6,0c-0.4,0-0.8-0.1-1-0.4s-0.4-0.6-0.4-1v-0.1h-0.1c-0.3,0.5-0.7,0.9-1.2,1.1s-1,0.4-1.5,0.4
		c-1.5,0-2.2-1-2.2-2.9L121.3,425.3L121.3,425.3z"/>
	<path class="st0" d="M135.5,432.6h-5.2l0.1-0.5l1.5-0.4v-6.9h-1.5l0.1-0.5l1.3-0.2c0.1-0.9,0.3-1.7,0.7-2.4s0.8-1.1,1.3-1.4
		s1-0.5,1.5-0.5s0.9,0.1,1.3,0.3s0.5,0.5,0.5,0.8c0,0.2-0.1,0.4-0.2,0.6s-0.3,0.3-0.5,0.4c-0.2-0.3-0.5-0.6-0.8-0.8
		s-0.6-0.3-0.9-0.3c-0.4,0-0.7,0.2-1,0.6s-0.4,1-0.4,1.7v1.2h2.5l-0.1,0.7h-2.4v6.8l2.4,0.3L135.5,432.6z"/>
	<path class="st0" d="M143.6,432.8c-0.6,0-1.1-0.2-1.6-0.5s-0.8-0.8-1.1-1.4s-0.4-1.3-0.4-2.2c0-0.9,0.2-1.8,0.6-2.5
		s0.9-1.3,1.6-1.7s1.3-0.6,2-0.6c0.3,0,0.7,0,1,0.1s0.6,0.2,0.8,0.3h0.1l-0.1-1.3v-2l-1.5-0.4l0.1-0.5l2.5-0.2l0.1,0.2v10.4
		c0,0.4,0,0.7,0.1,0.9s0.2,0.3,0.3,0.4s0.3,0.1,0.5,0.2l0.5,0.1l-0.1,0.6c-0.2,0.1-0.4,0.1-0.6,0.2s-0.4,0-0.6,0
		c-0.4,0-0.8-0.1-1-0.4s-0.3-0.6-0.3-1v-0.1h-0.1c-0.3,0.4-0.7,0.8-1.2,1.1S144.2,432.8,143.6,432.8z M144.1,424.7
		c-0.5,0-0.9,0.1-1.2,0.4s-0.6,0.7-0.8,1.2s-0.3,1.1-0.3,1.9c0,1.2,0.2,2.1,0.6,2.7s1,1,1.8,1c0.4,0,0.8-0.1,1.2-0.3s0.8-0.5,1-0.8
		V426c-0.3-0.4-0.6-0.7-1-0.9S144.5,424.7,144.1,424.7z"/>
	<path class="st0" d="M152.3,432.9c-0.4,0-0.7-0.1-1-0.2s-0.6-0.4-0.7-0.6s-0.3-0.6-0.3-1c0-0.6,0.2-1,0.5-1.5s0.9-0.8,1.6-1
		s1.6-0.4,2.6-0.5v-0.7c0-0.9-0.1-1.6-0.4-2.1s-0.8-0.7-1.4-0.7c-0.3,0-0.6,0.1-0.8,0.2s-0.3,0.4-0.4,0.7s-0.1,0.7-0.2,1.2
		c-0.3,0-0.6-0.1-0.8-0.2s-0.3-0.4-0.3-0.7s0.2-0.7,0.5-1s0.7-0.6,1.2-0.7s1-0.3,1.4-0.3c0.8,0,1.5,0.2,1.8,0.7s0.6,1.2,0.6,2.3v3.4
		c0,0.3,0,0.6,0.1,0.8s0.1,0.4,0.3,0.5s0.4,0.2,0.6,0.3l0.6,0.1l-0.1,0.6h-0.2c-0.2,0.1-0.4,0.1-0.5,0.1s-0.3,0-0.5,0
		c-0.4,0-0.8-0.1-1-0.4s-0.3-0.6-0.3-0.9v-0.1H155c-0.1,0.2-0.3,0.4-0.5,0.7s-0.5,0.4-0.9,0.6S152.8,432.9,152.3,432.9z
		 M154.9,428.6c-2.2,0.2-3.3,0.9-3.3,2.1c0,0.2,0.1,0.4,0.2,0.6s0.2,0.3,0.4,0.5s0.4,0.2,0.7,0.2c0.4,0,0.8-0.1,1.2-0.3
		s0.6-0.5,0.8-0.8L154.9,428.6L154.9,428.6z"/>
	<path class="st0" d="M161.5,433c-0.5,0-1-0.1-1.4-0.2s-0.7-0.4-1-0.7s-0.4-0.6-0.4-0.9s0.1-0.5,0.3-0.7s0.4-0.3,0.7-0.3
		c0.2,0.8,0.4,1.3,0.7,1.7s0.7,0.5,1.3,0.5c0.4,0,0.8-0.1,1-0.3s0.4-0.5,0.4-0.8c0-0.2-0.1-0.5-0.2-0.7s-0.3-0.4-0.6-0.6
		s-0.5-0.4-1-0.6c-0.5-0.3-0.9-0.6-1.2-0.8s-0.6-0.5-0.8-0.9s-0.3-0.7-0.3-1.1s0.1-0.8,0.3-1.2s0.5-0.7,0.9-0.9s0.9-0.4,1.5-0.4
		c0.4,0,0.8,0.1,1.1,0.2s0.6,0.4,0.8,0.6s0.3,0.6,0.3,0.9c0,0.4-0.1,0.6-0.3,0.8s-0.4,0.3-0.7,0.3l-0.1-0.4
		c-0.2-0.7-0.4-1.2-0.6-1.4s-0.6-0.4-0.9-0.4c-0.4,0-0.7,0.1-0.9,0.3s-0.4,0.5-0.4,0.9c0,0.3,0.1,0.5,0.3,0.8s0.4,0.5,0.6,0.6
		s0.6,0.4,1,0.7c0.5,0.3,0.9,0.6,1.2,0.8s0.6,0.5,0.8,0.8s0.3,0.7,0.3,1.1c0,0.5-0.1,0.9-0.4,1.2s-0.6,0.6-1.1,0.9
		S162,433,161.5,433z"/>
	<path class="st0" d="M169.2,421l0.1-0.5h4.4l-0.1,0.5l-1.6,0.3l2.6,9.1l2.8-9.5l1.1-0.1l2.6,9.6l2.9-9l-1.8-0.4l0.1-0.5h4.1
		l-0.1,0.5l-1.2,0.3l-3.7,11.3l-1.1,0.2l-2.6-9.7l-2.8,9.5l-1.1,0.2l-3.2-11.5L169.2,421z"/>
	<path class="st0" d="M188.1,432.9c-0.4,0-0.7-0.1-1-0.2s-0.6-0.4-0.7-0.6s-0.3-0.6-0.3-1c0-0.6,0.2-1,0.5-1.5s0.9-0.8,1.6-1
		s1.6-0.4,2.6-0.5v-0.7c0-0.9-0.1-1.6-0.4-2.1c-0.3-0.5-0.8-0.7-1.4-0.7c-0.3,0-0.6,0.1-0.8,0.2c-0.2,0.2-0.3,0.4-0.4,0.7
		s-0.1,0.7-0.2,1.2c-0.3,0-0.6-0.1-0.8-0.2s-0.3-0.4-0.3-0.7s0.2-0.7,0.5-1s0.7-0.6,1.2-0.7c0.5-0.2,1-0.3,1.4-0.3
		c0.8,0,1.5,0.2,1.8,0.7c0.4,0.5,0.6,1.2,0.6,2.3v3.4c0,0.3,0,0.6,0.1,0.8c0,0.2,0.1,0.4,0.3,0.5c0.1,0.1,0.4,0.2,0.6,0.3l0.6,0.1
		l-0.1,0.6h-0.2c-0.2,0.1-0.4,0.1-0.5,0.1s-0.3,0-0.5,0c-0.4,0-0.8-0.1-1-0.4s-0.3-0.6-0.3-0.9v-0.1h-0.1c-0.1,0.2-0.3,0.4-0.5,0.7
		c-0.2,0.2-0.5,0.4-0.9,0.6C189,432.8,188.6,432.9,188.1,432.9z M190.7,428.6c-2.2,0.2-3.3,0.9-3.3,2.1c0,0.2,0.1,0.4,0.2,0.6
		s0.2,0.3,0.4,0.5s0.4,0.2,0.7,0.2c0.4,0,0.8-0.1,1.2-0.3c0.4-0.2,0.6-0.5,0.8-0.8L190.7,428.6L190.7,428.6z"/>
	<path class="st0" d="M197.3,433c-0.5,0-1-0.1-1.4-0.2s-0.7-0.4-1-0.7s-0.4-0.6-0.4-0.9s0.1-0.5,0.3-0.7s0.4-0.3,0.7-0.3
		c0.2,0.8,0.4,1.3,0.7,1.7c0.3,0.3,0.7,0.5,1.3,0.5c0.4,0,0.8-0.1,1-0.3s0.4-0.5,0.4-0.8c0-0.2-0.1-0.5-0.2-0.7
		c-0.2-0.2-0.3-0.4-0.6-0.6c-0.2-0.2-0.5-0.4-1-0.6c-0.5-0.3-0.9-0.6-1.2-0.8c-0.3-0.2-0.6-0.5-0.8-0.9c-0.2-0.3-0.3-0.7-0.3-1.1
		s0.1-0.8,0.3-1.2c0.2-0.4,0.5-0.7,0.9-0.9c0.4-0.2,0.9-0.4,1.5-0.4c0.4,0,0.8,0.1,1.1,0.2s0.6,0.4,0.8,0.6s0.3,0.6,0.3,0.9
		c0,0.4-0.1,0.6-0.3,0.8s-0.4,0.3-0.7,0.3l-0.1-0.4c-0.2-0.7-0.4-1.2-0.6-1.4c-0.3-0.3-0.6-0.4-0.9-0.4c-0.4,0-0.7,0.1-0.9,0.3
		s-0.4,0.5-0.4,0.9c0,0.3,0.1,0.5,0.3,0.8c0.2,0.2,0.4,0.5,0.6,0.6c0.3,0.2,0.6,0.4,1,0.7c0.5,0.3,0.9,0.6,1.2,0.8s0.6,0.5,0.8,0.8
		s0.3,0.7,0.3,1.1c0,0.5-0.1,0.9-0.4,1.2s-0.6,0.6-1.1,0.9S197.8,433,197.3,433z"/>
	<path class="st0" d="M204.2,433c-0.5,0-1-0.1-1.4-0.2s-0.7-0.4-1-0.7s-0.4-0.6-0.4-0.9s0.1-0.5,0.3-0.7s0.4-0.3,0.7-0.3
		c0.2,0.8,0.4,1.3,0.7,1.7c0.3,0.3,0.7,0.5,1.3,0.5c0.4,0,0.8-0.1,1-0.3s0.4-0.5,0.4-0.8c0-0.2-0.1-0.5-0.2-0.7
		c-0.2-0.2-0.3-0.4-0.6-0.6c-0.2-0.2-0.5-0.4-1-0.6c-0.5-0.3-0.9-0.6-1.2-0.8c-0.3-0.2-0.6-0.5-0.8-0.9c-0.2-0.3-0.3-0.7-0.3-1.1
		s0.1-0.8,0.3-1.2c0.2-0.4,0.5-0.7,0.9-0.9c0.4-0.2,0.9-0.4,1.5-0.4c0.4,0,0.8,0.1,1.1,0.2s0.6,0.4,0.8,0.6s0.3,0.6,0.3,0.9
		c0,0.4-0.1,0.6-0.3,0.8s-0.4,0.3-0.7,0.3l-0.1-0.4c-0.2-0.7-0.4-1.2-0.6-1.4c-0.3-0.3-0.6-0.4-0.9-0.4c-0.4,0-0.7,0.1-0.9,0.3
		s-0.4,0.5-0.4,0.9c0,0.3,0.1,0.5,0.3,0.8c0.2,0.2,0.4,0.5,0.6,0.6c0.3,0.2,0.6,0.4,1,0.7c0.5,0.3,0.9,0.6,1.2,0.8s0.6,0.5,0.8,0.8
		s0.3,0.7,0.3,1.1c0,0.5-0.1,0.9-0.4,1.2s-0.6,0.6-1.1,0.9S204.7,433,204.2,433z"/>
	<path class="st0" d="M211.9,432.9c-0.6,0-1.2-0.2-1.8-0.5c-0.5-0.3-1-0.8-1.3-1.5s-0.5-1.5-0.5-2.4s0.2-1.7,0.5-2.4
		c0.4-0.7,0.8-1.2,1.4-1.6c0.6-0.4,1.2-0.5,1.9-0.5s1.3,0.2,1.8,0.7s0.7,1.2,0.7,2.2c0,0.2,0,0.4,0,0.6c0,0.3-0.1,0.5-0.1,0.6
		l-4.7,0.1c0,0.6,0.1,1.2,0.3,1.8s0.5,1,0.9,1.3s0.9,0.5,1.5,0.5c0.4,0,0.8-0.1,1.1-0.2s0.7-0.3,1-0.5l0.2,0.4
		c-0.3,0.4-0.8,0.7-1.3,1C213.1,432.8,212.5,432.9,211.9,432.9z M211.8,424.7c-0.4,0-0.7,0.1-1,0.3c-0.3,0.2-0.5,0.6-0.7,1
		s-0.3,1-0.3,1.6l3.4-0.2c0-0.1,0.1-0.4,0.1-0.8c0-0.6-0.1-1.1-0.4-1.4C212.6,424.9,212.2,424.7,211.8,424.7z"/>
	<path class="st0" d="M221.1,432.6h-5l0.1-0.5l1.5-0.3v-6.6l-1.6-0.4l0.1-0.5l2.5-0.3l0.2,0.2l-0.1,2.4h0.1c0.2-0.6,0.4-1,0.6-1.5
		s0.5-0.7,0.8-1s0.6-0.3,0.9-0.3c0.3,0,0.6,0.1,0.8,0.3s0.3,0.4,0.3,0.7c0,0.2-0.1,0.3-0.2,0.5s-0.3,0.3-0.4,0.4
		c-0.3-0.3-0.7-0.5-1-0.5s-0.5,0.1-0.7,0.4s-0.4,0.6-0.6,1c-0.2,0.4-0.3,0.9-0.4,1.4v3.7l2.2,0.3L221.1,432.6z"/>
	<path class="st0" d="M223.1,435.6l-0.2-0.6c1.2-0.4,1.8-1,1.8-1.9c0-0.3-0.1-0.6-0.3-0.9c-0.2-0.2-0.5-0.3-0.8-0.3
		c-0.1,0-0.2,0-0.3,0c-0.1-0.2-0.1-0.3-0.1-0.4c0-0.3,0.1-0.6,0.3-0.8c0.2-0.2,0.5-0.3,0.7-0.3c0.3,0,0.5,0.1,0.7,0.2
		s0.4,0.4,0.6,0.7c0.2,0.3,0.2,0.7,0.2,1.1c0,0.6-0.2,1.2-0.6,1.7C224.8,434.8,224.1,435.3,223.1,435.6z"/>
	<path class="st0" d="M233.5,433c-0.5,0-1-0.1-1.4-0.2s-0.7-0.4-1-0.7s-0.4-0.6-0.4-0.9s0.1-0.5,0.3-0.7s0.4-0.3,0.7-0.3
		c0.2,0.8,0.4,1.3,0.7,1.7c0.3,0.3,0.7,0.5,1.3,0.5c0.4,0,0.8-0.1,1-0.3s0.4-0.5,0.4-0.8c0-0.2-0.1-0.5-0.2-0.7
		c-0.2-0.2-0.3-0.4-0.6-0.6c-0.2-0.2-0.5-0.4-1-0.6c-0.5-0.3-0.9-0.6-1.2-0.8c-0.3-0.2-0.6-0.5-0.8-0.9c-0.2-0.3-0.3-0.7-0.3-1.1
		s0.1-0.8,0.3-1.2c0.2-0.4,0.5-0.7,0.9-0.9c0.4-0.2,0.9-0.4,1.5-0.4c0.4,0,0.8,0.1,1.1,0.2s0.6,0.4,0.8,0.6s0.3,0.6,0.3,0.9
		c0,0.4-0.1,0.6-0.3,0.8s-0.4,0.3-0.7,0.3l-0.1-0.4c-0.2-0.7-0.4-1.2-0.6-1.4c-0.3-0.3-0.6-0.4-0.9-0.4c-0.4,0-0.7,0.1-0.9,0.3
		s-0.4,0.5-0.4,0.9c0,0.3,0.1,0.5,0.3,0.8c0.2,0.2,0.4,0.5,0.6,0.6c0.3,0.2,0.6,0.4,1,0.7c0.5,0.3,0.9,0.6,1.2,0.8s0.6,0.5,0.8,0.8
		s0.3,0.7,0.3,1.1c0,0.5-0.1,0.9-0.4,1.2s-0.6,0.6-1.1,0.9S234,433,233.5,433z"/>
	<path class="st0" d="M241.5,432.9c-0.8,0-1.4-0.2-2-0.5c-0.6-0.4-1-0.9-1.3-1.5s-0.5-1.4-0.5-2.2c0-1,0.2-1.8,0.6-2.5
		c0.4-0.7,0.9-1.2,1.5-1.6s1.3-0.6,2-0.6s1.4,0.2,1.9,0.6s1,0.9,1.3,1.6s0.4,1.4,0.4,2.3s-0.2,1.7-0.5,2.4s-0.8,1.2-1.4,1.6
		C242.8,432.7,242.2,432.9,241.5,432.9z M241.3,424.8c-0.5,0-0.9,0.1-1.2,0.4s-0.6,0.7-0.8,1.1c-0.2,0.5-0.3,1-0.3,1.6
		c0,0.7,0.1,1.4,0.3,2.1c0.2,0.6,0.5,1.2,1,1.5c0.4,0.4,0.9,0.6,1.5,0.6c0.4,0,0.8-0.1,1.2-0.4s0.6-0.7,0.8-1.2s0.3-1,0.3-1.6
		c0-0.7-0.1-1.3-0.3-2s-0.5-1.2-0.9-1.6S241.9,424.8,241.3,424.8z"/>
	<path class="st0" d="M250.3,432.6h-4.2l0.1-0.5l1.5-0.3v-6.5l-1.5-0.4l0.1-0.5l2.6-0.3l0.1,0.1l-0.1,1.3h0.1
		c0.3-0.4,0.8-0.8,1.3-1.1c0.6-0.3,1.1-0.5,1.7-0.5c0.7,0,1.2,0.2,1.7,0.7c0.4,0.5,0.6,1.2,0.6,2.1v5l1.4,0.3l-0.1,0.6h-4l0.1-0.5
		l1.4-0.3v-4.7c0-0.7-0.2-1.2-0.5-1.6c-0.3-0.3-0.7-0.5-1.2-0.5s-0.9,0.1-1.2,0.2s-0.7,0.4-1.1,0.8v5.7l1.4,0.3L250.3,432.6z"/>
	<path class="st0" d="M259.6,432.8c-0.6,0-1.1-0.2-1.6-0.5s-0.8-0.8-1.1-1.4s-0.4-1.3-0.4-2.2c0-0.9,0.2-1.8,0.6-2.5
		s0.9-1.3,1.6-1.7c0.6-0.4,1.3-0.6,2-0.6c0.3,0,0.7,0,1,0.1c0.4,0.1,0.6,0.2,0.8,0.3h0.1l-0.1-1.3v-2l-1.5-0.4l0.1-0.5l2.5-0.2
		l0.1,0.2v10.4c0,0.4,0,0.7,0.1,0.9c0.1,0.2,0.2,0.3,0.3,0.4s0.3,0.1,0.5,0.2l0.5,0.1l-0.1,0.6c-0.2,0.1-0.4,0.1-0.6,0.2
		c-0.2,0-0.4,0-0.6,0c-0.4,0-0.8-0.1-1-0.4s-0.3-0.6-0.3-1v-0.1h-0.1c-0.3,0.4-0.7,0.8-1.2,1.1C260.8,432.7,260.3,432.8,259.6,432.8
		z M260.2,424.7c-0.5,0-0.9,0.1-1.2,0.4s-0.6,0.7-0.8,1.2c-0.2,0.5-0.3,1.1-0.3,1.9c0,1.2,0.2,2.1,0.6,2.7s1,1,1.8,1
		c0.4,0,0.8-0.1,1.2-0.3c0.4-0.2,0.8-0.5,1-0.8V426c-0.3-0.4-0.6-0.7-1-0.9C261,424.8,260.6,424.7,260.2,424.7z"/>
	<path class="st0" d="M269.5,432.9c-0.6,0-1.2-0.2-1.8-0.5s-1-0.8-1.3-1.5s-0.5-1.5-0.5-2.4s0.2-1.7,0.5-2.4
		c0.4-0.7,0.8-1.2,1.4-1.6s1.2-0.5,1.9-0.5c0.7,0,1.3,0.2,1.8,0.7s0.7,1.2,0.7,2.2c0,0.2,0,0.4,0,0.6s-0.1,0.5-0.1,0.6l-4.7,0.1
		c0,0.6,0.1,1.2,0.3,1.8s0.5,1,0.9,1.3s0.9,0.5,1.5,0.5c0.4,0,0.8-0.1,1.1-0.2s0.7-0.3,1-0.5l0.2,0.4c-0.3,0.4-0.8,0.7-1.3,1
		S270.1,432.9,269.5,432.9z M269.3,424.7c-0.4,0-0.7,0.1-1,0.3s-0.5,0.6-0.7,1s-0.3,1-0.3,1.6l3.4-0.2c0-0.1,0.1-0.4,0.1-0.8
		c0-0.6-0.1-1.1-0.4-1.4S269.8,424.7,269.3,424.7z"/>
	<path class="st0" d="M278.7,432.6h-5l0.1-0.5l1.5-0.3v-6.6l-1.6-0.4l0.1-0.5l2.5-0.3l0.2,0.2l-0.1,2.4h0.1c0.2-0.6,0.4-1,0.6-1.5
		s0.5-0.7,0.8-1s0.6-0.3,0.9-0.3s0.6,0.1,0.8,0.3s0.3,0.4,0.3,0.7c0,0.2-0.1,0.3-0.2,0.5s-0.3,0.3-0.4,0.4c-0.3-0.3-0.7-0.5-1-0.5
		s-0.5,0.1-0.7,0.4s-0.4,0.6-0.6,1s-0.3,0.9-0.4,1.4v3.7l2.2,0.3L278.7,432.6z"/>
	<path class="st0" d="M285.3,432.6h-4.2l0.1-0.5l1.5-0.3v-6.5l-1.5-0.4l0.1-0.5l2.6-0.3l0.1,0.1l-0.1,1.3h0.1
		c0.3-0.4,0.8-0.8,1.3-1.1s1.1-0.5,1.7-0.5c0.7,0,1.2,0.2,1.7,0.7s0.6,1.2,0.6,2.1v5l1.4,0.3l-0.1,0.6h-4l0.1-0.5l1.4-0.3v-4.7
		c0-0.7-0.2-1.2-0.5-1.6s-0.7-0.5-1.2-0.5s-0.9,0.1-1.2,0.2s-0.7,0.4-1.1,0.8v5.7l1.4,0.3L285.3,432.6z"/>
	<path class="st0" d="M297.5,432.9c-0.4,0-0.7-0.1-1-0.2s-0.6-0.4-0.7-0.6s-0.3-0.6-0.3-1c0-0.6,0.2-1,0.5-1.5s0.9-0.8,1.6-1
		s1.6-0.4,2.6-0.5v-0.7c0-0.9-0.1-1.6-0.4-2.1s-0.8-0.7-1.4-0.7c-0.3,0-0.6,0.1-0.8,0.2s-0.3,0.4-0.4,0.7s-0.1,0.7-0.2,1.2
		c-0.3,0-0.6-0.1-0.8-0.2s-0.3-0.4-0.3-0.7s0.2-0.7,0.5-1s0.7-0.6,1.2-0.7s1-0.3,1.4-0.3c0.8,0,1.5,0.2,1.8,0.7s0.6,1.2,0.6,2.3v3.4
		c0,0.3,0,0.6,0.1,0.8s0.1,0.4,0.3,0.5s0.4,0.2,0.6,0.3l0.6,0.1l-0.1,0.6h-0.2c-0.2,0.1-0.4,0.1-0.5,0.1s-0.3,0-0.5,0
		c-0.4,0-0.8-0.1-1-0.4s-0.3-0.6-0.3-0.9v-0.1h-0.1c-0.1,0.2-0.3,0.4-0.5,0.7s-0.5,0.4-0.9,0.6S298,432.9,297.5,432.9z M300.1,428.6
		c-2.2,0.2-3.3,0.9-3.3,2.1c0,0.2,0.1,0.4,0.2,0.6s0.2,0.3,0.4,0.5s0.4,0.2,0.7,0.2c0.4,0,0.8-0.1,1.2-0.3s0.6-0.5,0.8-0.8
		L300.1,428.6L300.1,428.6z"/>
	<path class="st0" d="M304.6,425.3l-1.4-0.4l0.1-0.5l2.4-0.2l0.2,0.2v5.3c0,1.5,0.6,2.3,1.7,2.3c0.4,0,0.8-0.1,1.1-0.3
		s0.6-0.4,0.9-0.7v-5.5l-1.5-0.4l0.1-0.6l2.6-0.2l0.1,0.2v6.2c0,0.5,0.1,0.8,0.2,1.1s0.4,0.4,0.8,0.4l0.5,0.1l-0.1,0.6
		c-0.2,0.1-0.4,0.1-0.6,0.1s-0.4,0-0.6,0c-0.4,0-0.8-0.1-1-0.4s-0.4-0.6-0.4-1v-0.1h-0.1c-0.3,0.5-0.7,0.9-1.2,1.1s-1,0.4-1.5,0.4
		c-1.5,0-2.2-1-2.2-2.9v-4.8H304.6z"/>
	<path class="st0" d="M318.8,432.6h-5.2l0.1-0.5l1.5-0.4v-6.9h-1.5l0.1-0.5l1.3-0.2c0.1-0.9,0.3-1.7,0.7-2.4s0.8-1.1,1.3-1.4
		s1-0.5,1.5-0.5s0.9,0.1,1.3,0.3s0.5,0.5,0.5,0.8c0,0.2-0.1,0.4-0.2,0.6s-0.3,0.3-0.5,0.4c-0.2-0.3-0.5-0.6-0.8-0.8
		s-0.6-0.3-0.9-0.3c-0.4,0-0.7,0.2-1,0.6s-0.4,1-0.4,1.7v1.2h2.5L319,425h-2.4v6.8l2.4,0.3L318.8,432.6z"/>
	<path class="st0" d="M37.4,456.8c-0.6,0-1.1-0.2-1.6-0.5s-0.8-0.8-1.1-1.4s-0.4-1.3-0.4-2.2c0-0.9,0.2-1.8,0.6-2.5s0.9-1.3,1.6-1.7
		s1.3-0.6,2-0.6c0.3,0,0.7,0,1,0.1s0.6,0.2,0.8,0.3h0.1l-0.1-1.3v-2l-1.5-0.4l0.1-0.5l2.5-0.2l0.1,0.2v10.4c0,0.4,0,0.7,0.1,0.9
		s0.2,0.3,0.3,0.4s0.3,0.1,0.5,0.2l0.5,0.1l-0.1,0.6c-0.2,0.1-0.4,0.1-0.6,0.2s-0.4,0-0.6,0c-0.4,0-0.8-0.1-1-0.4s-0.3-0.6-0.3-1
		v-0.1h-0.1c-0.3,0.4-0.7,0.8-1.2,1.1S38,456.8,37.4,456.8z M37.9,448.7c-0.5,0-0.9,0.1-1.2,0.4s-0.6,0.7-0.8,1.2s-0.3,1.1-0.3,1.9
		c0,1.2,0.2,2.1,0.6,2.7s1,1,1.8,1c0.4,0,0.8-0.1,1.2-0.3s0.8-0.5,1-0.8V450c-0.3-0.4-0.6-0.7-1-0.9S38.3,448.7,37.9,448.7z"/>
	<path class="st0" d="M44.2,456.6l0.1-0.5l1.5-0.3v-6.7l-1.5-0.4l0.1-0.5l2.5-0.2l0.2,0.2v7.7l1.6,0.3l-0.1,0.6h-4.4V456.6z
		 M46.2,446c-0.3,0-0.5-0.1-0.6-0.3s-0.2-0.4-0.2-0.7c0-0.3,0.1-0.5,0.2-0.7s0.3-0.3,0.6-0.3s0.4,0.1,0.6,0.3s0.2,0.4,0.2,0.7
		c0,0.3-0.1,0.6-0.2,0.8S46.5,446,46.2,446z"/>
	<path class="st0" d="M53,456.9c-0.6,0-1.2-0.2-1.8-0.5s-1-0.8-1.3-1.5s-0.5-1.5-0.5-2.4s0.2-1.7,0.5-2.4s0.8-1.2,1.4-1.6
		s1.2-0.5,1.9-0.5s1.3,0.2,1.8,0.7s0.7,1.2,0.7,2.2c0,0.2,0,0.4,0,0.6s-0.1,0.5-0.1,0.6l-4.7,0.1c0,0.6,0.1,1.2,0.3,1.8
		s0.5,1,0.9,1.3s0.9,0.5,1.5,0.5c0.4,0,0.8-0.1,1.1-0.2s0.7-0.3,1-0.5l0.2,0.4c-0.3,0.4-0.8,0.7-1.3,1S53.6,456.9,53,456.9z
		 M52.8,448.7c-0.4,0-0.7,0.1-1,0.3s-0.5,0.6-0.7,1s-0.3,1-0.3,1.6l3.4-0.2c0-0.1,0.1-0.4,0.1-0.8c0-0.6-0.1-1.1-0.4-1.4
		S53.3,448.7,52.8,448.7z"/>
	<path class="st0" d="M60.8,445l0.1-0.5h4.7l-0.1,0.5l-1.7,0.3l3.2,9.3l3.4-9.2l-1.8-0.4l0.1-0.5h4.1v0.5l-1.3,0.3l-4.2,11.3l-1,0.2
		l-4.1-11.5L60.8,445z"/>
	<path class="st0" d="M75.9,456.9c-0.6,0-1.2-0.2-1.8-0.5s-1-0.8-1.3-1.5s-0.5-1.5-0.5-2.4s0.2-1.7,0.5-2.4s0.8-1.2,1.4-1.6
		s1.2-0.5,1.9-0.5c0.7,0,1.3,0.2,1.8,0.7s0.7,1.2,0.7,2.2c0,0.2,0,0.4,0,0.6s-0.1,0.5-0.1,0.6l-4.7,0.1c0,0.6,0.1,1.2,0.3,1.8
		s0.5,1,0.9,1.3s0.9,0.5,1.5,0.5c0.4,0,0.8-0.1,1.1-0.2s0.7-0.3,1-0.5l0.2,0.4c-0.3,0.4-0.8,0.7-1.3,1S76.6,456.9,75.9,456.9z
		 M75.8,448.7c-0.4,0-0.7,0.1-1,0.3s-0.5,0.6-0.7,1s-0.3,1-0.3,1.6l3.4-0.2c0-0.1,0.1-0.4,0.1-0.8c0-0.6-0.1-1.1-0.4-1.4
		S76.2,448.7,75.8,448.7z"/>
	<path class="st0" d="M85.1,456.6h-5l0.1-0.5l1.5-0.3v-6.6l-1.6-0.4l0.1-0.5l2.5-0.3l0.2,0.2l-0.1,2.4h0.1c0.2-0.6,0.4-1,0.6-1.5
		s0.5-0.7,0.8-1s0.6-0.3,0.9-0.3s0.6,0.1,0.8,0.3s0.3,0.4,0.3,0.7c0,0.2-0.1,0.3-0.2,0.5s-0.3,0.3-0.4,0.4c-0.3-0.3-0.7-0.5-1-0.5
		s-0.5,0.1-0.7,0.4s-0.4,0.6-0.6,1s-0.3,0.9-0.4,1.4v3.7l2.2,0.3L85.1,456.6z"/>
	<path class="st0" d="M91.8,460.3h-4.2l0.1-0.6l1.5-0.3v-10.1l-1.5-0.4l0.1-0.5l2.6-0.3l0.1,0.1l-0.1,1.3h0.1
		c0.3-0.4,0.7-0.8,1.2-1.1s1-0.5,1.6-0.5s1.1,0.1,1.5,0.4s0.8,0.7,1,1.4s0.4,1.4,0.4,2.3s-0.2,1.7-0.6,2.4s-0.9,1.3-1.5,1.7
		s-1.4,0.6-2.2,0.6c-0.3,0-0.6,0-1-0.1v-0.9c0.2,0.1,0.4,0.1,0.7,0.2s0.5,0,0.9,0c0.5,0,0.9-0.1,1.2-0.4s0.6-0.6,0.8-1.1
		s0.3-1.1,0.3-1.8c0-1.2-0.2-2.1-0.5-2.7s-0.9-1-1.6-1c-0.4,0-0.8,0.1-1.1,0.3s-0.7,0.5-1,0.8v9.3l1.5,0.3L91.8,460.3z"/>
	<path class="st0" d="M99.2,456.9c-0.4,0-0.7-0.1-1-0.2s-0.6-0.4-0.7-0.6s-0.3-0.6-0.3-1c0-0.6,0.2-1,0.5-1.5s0.9-0.8,1.6-1
		s1.6-0.4,2.6-0.5v-0.7c0-0.9-0.1-1.6-0.4-2.1s-0.8-0.7-1.4-0.7c-0.3,0-0.6,0.1-0.8,0.2s-0.3,0.4-0.4,0.7s-0.1,0.7-0.2,1.2
		c-0.3,0-0.6-0.1-0.8-0.2s-0.3-0.4-0.3-0.7s0.2-0.7,0.5-1s0.7-0.6,1.2-0.7s1-0.3,1.4-0.3c0.8,0,1.5,0.2,1.8,0.7s0.6,1.2,0.6,2.3v3.4
		c0,0.3,0,0.6,0.1,0.8s0.1,0.4,0.3,0.5s0.4,0.2,0.6,0.3l0.6,0.1l-0.1,0.6h-0.2c-0.2,0.1-0.4,0.1-0.5,0.1s-0.3,0-0.5,0
		c-0.4,0-0.8-0.1-1-0.4s-0.3-0.6-0.3-0.9v-0.1H102c-0.1,0.2-0.3,0.4-0.5,0.7s-0.5,0.4-0.9,0.6S99.7,456.9,99.2,456.9z M101.9,452.6
		c-2.2,0.2-3.3,0.9-3.3,2.1c0,0.2,0.1,0.4,0.2,0.6s0.2,0.3,0.4,0.5s0.4,0.2,0.7,0.2c0.4,0,0.8-0.1,1.2-0.3s0.6-0.5,0.8-0.8
		C101.9,454.9,101.9,452.6,101.9,452.6z"/>
	<path class="st0" d="M108.9,456.9c-0.7,0-1.4-0.2-1.9-0.6s-1-0.9-1.2-1.5s-0.4-1.4-0.4-2.1c0-0.9,0.2-1.8,0.5-2.5s0.8-1.3,1.4-1.7
		s1.2-0.6,2-0.6c0.5,0,0.9,0.1,1.3,0.2s0.6,0.3,0.7,0.6s0.2,0.5,0.2,0.8c0,0.5-0.3,0.9-0.9,1c-0.2-0.6-0.4-1-0.7-1.3
		s-0.6-0.5-1.1-0.5c-0.4,0-0.7,0.1-1.1,0.4s-0.6,0.6-0.7,1.1s-0.3,1.1-0.3,1.7c0,0.8,0.1,1.4,0.3,2.1s0.6,1.1,1,1.4s0.9,0.5,1.5,0.5
		c0.8,0,1.5-0.3,2.1-0.8l0.2,0.4c-0.2,0.2-0.4,0.4-0.7,0.6s-0.7,0.4-1.1,0.5S109.3,456.9,108.9,456.9z"/>
	<path class="st0" d="M113.1,456.6l0.1-0.5l1.5-0.3v-10.7l-1.5-0.4l0.1-0.5l2.6-0.2l0.2,0.2v11.6l1.6,0.3l-0.1,0.6h-4.5V456.6z
		 M117.6,454.1l-1.3-1.7v-0.2l2.8-3.3l-1.3-0.4l0.1-0.5h3.8l-0.1,0.5l-1.5,0.4l-2.6,3l1,1.2l0.7,0.9c0.4,0.5,0.7,0.9,1,1.1
		s0.5,0.4,0.7,0.6s0.5,0.2,0.9,0.3h0.4l-0.1,0.6c-0.1,0-0.3,0.1-0.5,0.1s-0.4,0.1-0.6,0.1c-0.4,0-0.7-0.1-1-0.2s-0.6-0.4-0.9-0.8
		S118.2,454.9,117.6,454.1z"/>
	<path class="st0" d="M124.5,449.3l-1.4-0.4l0.1-0.5l2.4-0.2l0.2,0.2v5.3c0,1.5,0.6,2.3,1.7,2.3c0.4,0,0.8-0.1,1.1-0.3
		s0.6-0.4,0.9-0.7v-5.5l-1.5-0.4l0.1-0.6l2.6-0.2l0.1,0.2v6.2c0,0.5,0.1,0.8,0.2,1.1s0.4,0.4,0.8,0.4l0.5,0.1l-0.1,0.6
		c-0.2,0.1-0.4,0.1-0.6,0.1s-0.4,0-0.6,0c-0.4,0-0.8-0.1-1-0.4s-0.4-0.6-0.4-1v-0.1h-0.1c-0.3,0.5-0.7,0.9-1.2,1.1s-1,0.4-1.5,0.4
		c-1.5,0-2.2-1-2.2-2.9L124.5,449.3L124.5,449.3z"/>
	<path class="st0" d="M137.7,456.6h-4.2l0.1-0.5l1.5-0.3v-6.5l-1.5-0.4l0.1-0.5l2.6-0.3l0.1,0.1l-0.1,1.3h0.1
		c0.3-0.4,0.8-0.8,1.3-1.1s1.1-0.5,1.7-0.5c0.7,0,1.2,0.2,1.7,0.7s0.6,1.2,0.6,2.1v5l1.4,0.3l-0.1,0.6h-4l0.1-0.5l1.4-0.3v-4.7
		c0-0.7-0.2-1.2-0.5-1.6s-0.7-0.5-1.2-0.5s-0.9,0.1-1.2,0.2s-0.7,0.4-1.1,0.8v5.7l1.4,0.3L137.7,456.6z"/>
	<path class="st0" d="M147.3,460.4c-0.7,0-1.2-0.1-1.7-0.2s-0.9-0.4-1.2-0.7s-0.4-0.7-0.4-1.2c0-0.4,0.2-0.8,0.5-1.1
		s0.7-0.6,1.2-0.8v-0.1c-0.3-0.1-0.5-0.3-0.7-0.5s-0.3-0.5-0.3-0.7s0.2-0.5,0.5-0.8s0.6-0.6,1-0.8l0,0c-0.2-0.1-0.4-0.2-0.6-0.4
		s-0.4-0.5-0.6-0.9s-0.2-0.7-0.2-1.1c0-0.5,0.1-1,0.4-1.5s0.7-0.8,1.1-1.1s1-0.4,1.5-0.4c0.7,0,1.3,0.2,1.9,0.6c0.3,0,0.6,0,1.1-0.1
		s0.8-0.1,1-0.1l0.2,0.2l-0.3,0.9h-0.1l-1.4-0.4v0.1c0.1,0.2,0.2,0.4,0.3,0.7s0.1,0.6,0.1,0.9c0,0.5-0.2,1-0.5,1.5s-0.7,0.8-1.2,1
		s-1,0.4-1.4,0.4c-0.2,0-0.3,0-0.5,0s-0.3-0.1-0.4-0.1c-0.2,0.2-0.4,0.4-0.5,0.5s-0.2,0.3-0.2,0.4c0,0.3,0.1,0.5,0.4,0.6
		s0.7,0.2,1.3,0.2h1.5c0.6,0,1.1,0,1.4,0.1s0.7,0.3,0.9,0.5s0.3,0.6,0.3,1.2s-0.2,1.1-0.6,1.6s-0.9,0.9-1.6,1.2
		S148,460.4,147.3,460.4z M146.1,456.5c0,0-0.1,0-0.3,0.1s-0.3,0.3-0.5,0.4s-0.2,0.4-0.2,0.7c0,1.2,0.9,1.8,2.7,1.8
		c0.4,0,0.8-0.1,1.2-0.2s0.7-0.3,0.9-0.6s0.3-0.6,0.3-1c0-0.3-0.1-0.5-0.2-0.7s-0.3-0.3-0.6-0.4s-0.8-0.1-1.4-0.1L146.1,456.5
		L146.1,456.5z M147.5,448.6c-0.6,0-1,0.2-1.2,0.6s-0.4,0.9-0.4,1.6c0,0.4,0.1,0.8,0.2,1.2s0.4,0.6,0.7,0.9s0.6,0.3,0.9,0.3
		c0.5,0,0.8-0.2,1.1-0.5s0.4-0.8,0.4-1.5c0-0.4-0.1-0.8-0.2-1.2s-0.3-0.7-0.6-0.9S147.8,448.6,147.5,448.6z"/>
	<path class="st0" d="M153,459.6l-0.2-0.6c1.2-0.4,1.8-1,1.8-1.9c0-0.3-0.1-0.6-0.3-0.9s-0.5-0.3-0.8-0.3c-0.1,0-0.2,0-0.3,0
		c-0.1-0.2-0.1-0.3-0.1-0.4c0-0.3,0.1-0.6,0.3-0.8s0.5-0.3,0.7-0.3c0.3,0,0.5,0.1,0.7,0.2s0.4,0.4,0.6,0.7s0.2,0.7,0.2,1.1
		c0,0.6-0.2,1.2-0.6,1.7S154,459.3,153,459.6z"/>
	<path class="st0" d="M162.7,456.9c-0.4,0-0.7-0.1-1-0.2s-0.6-0.4-0.7-0.6s-0.3-0.6-0.3-1c0-0.6,0.2-1,0.5-1.5s0.9-0.8,1.6-1
		s1.6-0.4,2.6-0.5v-0.7c0-0.9-0.1-1.6-0.4-2.1s-0.8-0.7-1.4-0.7c-0.3,0-0.6,0.1-0.8,0.2s-0.3,0.4-0.4,0.7s-0.1,0.7-0.2,1.2
		c-0.3,0-0.6-0.1-0.8-0.2s-0.3-0.4-0.3-0.7s0.2-0.7,0.5-1s0.7-0.6,1.2-0.7s1-0.3,1.4-0.3c0.8,0,1.5,0.2,1.8,0.7s0.6,1.2,0.6,2.3v3.4
		c0,0.3,0,0.6,0.1,0.8s0.1,0.4,0.3,0.5s0.4,0.2,0.6,0.3l0.6,0.1l-0.1,0.6h-0.2c-0.2,0.1-0.4,0.1-0.5,0.1s-0.3,0-0.5,0
		c-0.4,0-0.8-0.1-1-0.4s-0.3-0.6-0.3-0.9v-0.1h-0.1c-0.1,0.2-0.3,0.4-0.5,0.7s-0.5,0.4-0.9,0.6S163.1,456.9,162.7,456.9z
		 M165.3,452.6c-2.2,0.2-3.3,0.9-3.3,2.1c0,0.2,0.1,0.4,0.2,0.6s0.2,0.3,0.4,0.5s0.4,0.2,0.7,0.2c0.4,0,0.8-0.1,1.2-0.3
		s0.6-0.5,0.8-0.8L165.3,452.6L165.3,452.6z"/>
	<path class="st0" d="M169.2,456.6l0.1-0.5l1.5-0.3v-10.7l-1.5-0.4l0.1-0.5l2.6-0.2l0.2,0.2v11.7l1.6,0.3l-0.1,0.6h-4.5V456.6z"/>
	<path class="st0" d="M177.5,457c-0.5,0-1-0.1-1.4-0.2s-0.7-0.4-1-0.7s-0.4-0.6-0.4-0.9s0.1-0.5,0.3-0.7s0.4-0.3,0.7-0.3
		c0.2,0.8,0.4,1.3,0.7,1.7s0.7,0.5,1.3,0.5c0.4,0,0.8-0.1,1-0.3s0.4-0.5,0.4-0.8c0-0.2-0.1-0.5-0.2-0.7s-0.3-0.4-0.6-0.6
		s-0.5-0.4-1-0.6c-0.5-0.3-0.9-0.6-1.2-0.8s-0.6-0.5-0.8-0.9s-0.3-0.7-0.3-1.1s0.1-0.8,0.3-1.2s0.5-0.7,0.9-0.9s0.9-0.4,1.5-0.4
		c0.4,0,0.8,0.1,1.1,0.2s0.6,0.4,0.8,0.6s0.3,0.6,0.3,0.9c0,0.4-0.1,0.6-0.3,0.8s-0.4,0.3-0.7,0.3l-0.1-0.4
		c-0.2-0.7-0.4-1.2-0.6-1.4s-0.6-0.4-0.9-0.4c-0.4,0-0.7,0.1-0.9,0.3s-0.4,0.5-0.4,0.9c0,0.3,0.1,0.5,0.3,0.8s0.4,0.5,0.6,0.6
		s0.6,0.4,1,0.7c0.5,0.3,0.9,0.6,1.2,0.8s0.6,0.5,0.8,0.8s0.3,0.7,0.3,1.1c0,0.5-0.1,0.9-0.4,1.2s-0.6,0.6-1.1,0.9
		S178,457,177.5,457z"/>
	<path class="st0" d="M185.5,456.9c-0.8,0-1.4-0.2-2-0.5s-1-0.9-1.3-1.5s-0.5-1.4-0.5-2.2c0-1,0.2-1.8,0.6-2.5s0.9-1.2,1.5-1.6
		s1.3-0.6,2-0.6s1.4,0.2,1.9,0.6s1,0.9,1.3,1.6s0.4,1.4,0.4,2.3s-0.2,1.7-0.5,2.4s-0.8,1.2-1.4,1.6
		C186.9,456.7,186.2,456.9,185.5,456.9z M185.3,448.8c-0.5,0-0.9,0.1-1.2,0.4s-0.6,0.7-0.8,1.1s-0.3,1-0.3,1.6
		c0,0.7,0.1,1.4,0.3,2.1s0.5,1.2,1,1.5s0.9,0.6,1.5,0.6c0.4,0,0.8-0.1,1.2-0.4s0.6-0.7,0.8-1.2s0.3-1,0.3-1.6c0-0.7-0.1-1.3-0.3-2
		s-0.5-1.2-0.9-1.6S185.9,448.8,185.3,448.8z"/>
	<path class="st0" d="M197.4,456.8c-0.6,0-1.1-0.2-1.6-0.5s-0.8-0.8-1.1-1.4s-0.4-1.3-0.4-2.2c0-0.9,0.2-1.8,0.6-2.5
		c0.4-0.7,0.9-1.3,1.6-1.7c0.6-0.4,1.3-0.6,2-0.6c0.3,0,0.7,0,1,0.1c0.4,0.1,0.6,0.2,0.8,0.3h0.1l-0.1-1.3v-2l-1.5-0.4l0.1-0.5
		l2.5-0.2l0.1,0.2v10.4c0,0.4,0,0.7,0.1,0.9c0.1,0.2,0.2,0.3,0.3,0.4s0.3,0.1,0.5,0.2l0.5,0.1l-0.1,0.6c-0.2,0.1-0.4,0.1-0.6,0.2
		c-0.2,0-0.3,0-0.6,0c-0.4,0-0.8-0.1-1-0.4s-0.3-0.6-0.3-1v-0.1h-0.1c-0.3,0.4-0.7,0.8-1.2,1.1C198.6,456.7,198,456.8,197.4,456.8z
		 M198,448.7c-0.5,0-0.9,0.1-1.2,0.4s-0.6,0.7-0.8,1.2s-0.3,1.1-0.3,1.9c0,1.2,0.2,2.1,0.6,2.7c0.4,0.6,1,1,1.8,1
		c0.4,0,0.8-0.1,1.2-0.3c0.4-0.2,0.8-0.5,1-0.8V450c-0.3-0.4-0.6-0.7-1-0.9C198.8,448.8,198.4,448.7,198,448.7z"/>
	<path class="st0" d="M204.2,456.6l0.1-0.5l1.5-0.3v-6.7l-1.5-0.4l0.1-0.5l2.5-0.2l0.2,0.2v7.7l1.6,0.3l-0.1,0.6h-4.4V456.6z
		 M206.3,446c-0.3,0-0.5-0.1-0.6-0.3s-0.2-0.4-0.2-0.7c0-0.3,0.1-0.5,0.2-0.7c0.1-0.2,0.3-0.3,0.6-0.3c0.2,0,0.4,0.1,0.6,0.3
		s0.2,0.4,0.2,0.7c0,0.3-0.1,0.6-0.2,0.8C206.8,445.9,206.5,446,206.3,446z"/>
	<path class="st0" d="M213,456.9c-0.6,0-1.2-0.2-1.8-0.5c-0.5-0.3-1-0.8-1.3-1.5s-0.5-1.5-0.5-2.4s0.2-1.7,0.5-2.4
		c0.4-0.7,0.8-1.2,1.4-1.6c0.6-0.4,1.2-0.5,1.9-0.5s1.3,0.2,1.8,0.7s0.7,1.2,0.7,2.2c0,0.2,0,0.4,0,0.6c0,0.3-0.1,0.5-0.1,0.6
		l-4.7,0.1c0,0.6,0.1,1.2,0.3,1.8s0.5,1,0.9,1.3s0.9,0.5,1.5,0.5c0.4,0,0.8-0.1,1.1-0.2s0.7-0.3,1-0.5l0.2,0.4
		c-0.3,0.4-0.8,0.7-1.3,1C214.2,456.8,213.7,456.9,213,456.9z M212.9,448.7c-0.4,0-0.7,0.1-1,0.3c-0.3,0.2-0.5,0.6-0.7,1
		s-0.3,1-0.3,1.6l3.4-0.2c0-0.1,0.1-0.4,0.1-0.8c0-0.6-0.1-1.1-0.4-1.4C213.7,448.9,213.3,448.7,212.9,448.7z"/>
	<path class="st0" d="M226.2,456.6h-5.3l0.1-0.6l1.6-0.4v-10.1l-1.6-0.3l0.1-0.5l0.4-0.1c0.8-0.1,1.5-0.2,2-0.3s1.2-0.1,1.9-0.1
		c1.4,0,2.6,0.3,3.5,0.8c0.9,0.6,1.3,1.5,1.3,2.7c0,0.8-0.2,1.4-0.6,2s-1,1.1-1.7,1.4s-1.5,0.5-2.3,0.5c-0.3,0-0.5,0-0.7,0l-0.1-0.6
		h0.5c1.1,0,2-0.3,2.5-0.9c0.6-0.5,0.8-1.3,0.8-2.2c0-0.6-0.1-1.1-0.4-1.6c-0.2-0.5-0.6-0.9-1.2-1.2s-1.2-0.4-1.9-0.4
		c-0.2,0-0.4,0-0.6,0s-0.4,0-0.4,0v10.7l2.3,0.3L226.2,456.6z"/>
	<path class="st0" d="M230.9,445.1l0.1-0.6h9.3l-0.3,3.1l-0.7-0.1l-0.3-2.3h-4.9v4.9h3.1l0.4-1.3l0.7-0.1l-0.3,3.8l-0.6,0.1
		l-0.2-1.8h-3v5.1h5.2l0.8-2.4l0.6,0.1l-0.3,3.1H231l0.1-0.6l1.7-0.4v-10.3L230.9,445.1z"/>
	<path class="st0" d="M241.8,444.5h10.5l-0.3,3.3l-0.7-0.1l-0.3-2.5h-3.3v10.5l1.8,0.3l-0.1,0.6h-4.9l0.1-0.6l1.7-0.4v-10.5H243
		l-0.4,2.5l-0.7-0.1L241.8,444.5z"/>
	<path class="st0" d="M251.6,452.6l0.1-0.8l4-0.2l-0.1,0.8L251.6,452.6z"/>
	<path class="st0" d="M256.5,445.1l0.1-0.6h9.3l-0.4,3.1l-0.7-0.1l-0.3-2.3h-4.9v5.1h3l0.4-1.3l0.7-0.1l-0.3,3.8l-0.7,0.1l-0.2-1.8
		h-2.9v4.7l2.4,0.3l-0.1,0.7h-5.4v-0.6l1.7-0.4v-10.3L256.5,445.1z"/>
	<path class="st0" d="M267.2,456.6l0.1-0.5l1.5-0.3v-10.7l-1.5-0.4l0.1-0.5l2.6-0.2l0.2,0.2v11.7l1.6,0.3l-0.1,0.6h-4.5V456.6z"/>
	<path class="st0" d="M274.8,456.9c-0.4,0-0.7-0.1-1-0.2s-0.6-0.4-0.7-0.6s-0.3-0.6-0.3-1c0-0.6,0.2-1,0.5-1.5s0.9-0.8,1.6-1
		s1.6-0.4,2.6-0.5v-0.7c0-0.9-0.1-1.6-0.4-2.1s-0.8-0.7-1.4-0.7c-0.3,0-0.6,0.1-0.8,0.2s-0.3,0.4-0.4,0.7s-0.1,0.7-0.2,1.2
		c-0.3,0-0.6-0.1-0.8-0.2s-0.3-0.4-0.3-0.7s0.2-0.7,0.5-1s0.7-0.6,1.2-0.7s1-0.3,1.4-0.3c0.8,0,1.5,0.2,1.8,0.7s0.6,1.2,0.6,2.3v3.4
		c0,0.3,0,0.6,0.1,0.8s0.1,0.4,0.3,0.5s0.4,0.2,0.6,0.3l0.6,0.1l-0.1,0.6H280c-0.2,0.1-0.4,0.1-0.5,0.1s-0.3,0-0.5,0
		c-0.4,0-0.8-0.1-1-0.4s-0.3-0.6-0.3-0.9v-0.1h-0.1c-0.1,0.2-0.3,0.4-0.5,0.7s-0.5,0.4-0.9,0.6S275.3,456.9,274.8,456.9z
		 M277.4,452.6c-2.2,0.2-3.3,0.9-3.3,2.1c0,0.2,0.1,0.4,0.2,0.6s0.2,0.3,0.4,0.5s0.4,0.2,0.7,0.2c0.4,0,0.8-0.1,1.2-0.3
		s0.6-0.5,0.8-0.8L277.4,452.6L277.4,452.6z"/>
	<path class="st0" d="M284,457c-0.5,0-1-0.1-1.4-0.2s-0.7-0.4-1-0.7s-0.4-0.6-0.4-0.9s0.1-0.5,0.3-0.7s0.4-0.3,0.7-0.3
		c0.2,0.8,0.4,1.3,0.7,1.7s0.7,0.5,1.3,0.5c0.4,0,0.8-0.1,1-0.3s0.4-0.5,0.4-0.8c0-0.2-0.1-0.5-0.2-0.7s-0.3-0.4-0.6-0.6
		s-0.5-0.4-1-0.6c-0.5-0.3-0.9-0.6-1.2-0.8s-0.6-0.5-0.8-0.9s-0.3-0.7-0.3-1.1s0.1-0.8,0.3-1.2s0.5-0.7,0.9-0.9s0.9-0.4,1.5-0.4
		c0.4,0,0.8,0.1,1.1,0.2s0.6,0.4,0.8,0.6s0.3,0.6,0.3,0.9c0,0.4-0.1,0.6-0.3,0.8s-0.4,0.3-0.7,0.3l-0.1-0.4
		c-0.2-0.7-0.4-1.2-0.6-1.4s-0.6-0.4-0.9-0.4c-0.4,0-0.7,0.1-0.9,0.3s-0.4,0.5-0.4,0.9c0,0.3,0.1,0.5,0.3,0.8s0.4,0.5,0.6,0.6
		s0.6,0.4,1,0.7c0.5,0.3,0.9,0.6,1.2,0.8s0.6,0.5,0.8,0.8s0.3,0.7,0.3,1.1c0,0.5-0.1,0.9-0.4,1.2s-0.6,0.6-1.1,0.9
		S284.5,457,284,457z"/>
	<path class="st0" d="M291.8,456.9c-0.7,0-1.4-0.2-1.9-0.6s-1-0.9-1.2-1.5s-0.4-1.4-0.4-2.1c0-0.9,0.2-1.8,0.5-2.5s0.8-1.3,1.4-1.7
		s1.2-0.6,2-0.6c0.5,0,0.9,0.1,1.3,0.2s0.6,0.3,0.7,0.6s0.2,0.5,0.2,0.8c0,0.5-0.3,0.9-0.9,1c-0.2-0.6-0.4-1-0.7-1.3
		s-0.6-0.5-1.1-0.5c-0.4,0-0.7,0.1-1.1,0.4s-0.6,0.6-0.7,1.1s-0.3,1.1-0.3,1.7c0,0.8,0.1,1.4,0.3,2.1s0.6,1.1,1,1.4s0.9,0.5,1.5,0.5
		c0.8,0,1.5-0.3,2.1-0.8l0.2,0.4c-0.2,0.2-0.4,0.4-0.7,0.6s-0.7,0.4-1.1,0.5S292.2,456.9,291.8,456.9z"/>
	<path class="st0" d="M300.1,456.6h-4.2l0.1-0.6l1.5-0.3V445l-1.5-0.4l0.1-0.5l2.6-0.2l0.2,0.2v4.3l-0.1,1h0.1
		c0.4-0.5,0.9-0.8,1.4-1.1s1-0.4,1.6-0.4c0.7,0,1.3,0.2,1.7,0.7s0.6,1.2,0.6,2.3v4.9l1.4,0.3l-0.1,0.6h-4l0.1-0.5l1.3-0.3v-4.6v-0.1
		c0-0.7-0.2-1.3-0.5-1.6s-0.7-0.5-1.2-0.5c-0.4,0-0.8,0.1-1.2,0.3s-0.7,0.5-1.1,0.8v5.7l1.4,0.3L300.1,456.6z"/>
	<path class="st0" d="M309.7,456.9c-0.6,0-1.2-0.2-1.8-0.5s-1-0.8-1.3-1.5s-0.5-1.5-0.5-2.4s0.2-1.7,0.5-2.4s0.8-1.2,1.4-1.6
		s1.2-0.5,1.9-0.5c0.7,0,1.3,0.2,1.8,0.7s0.7,1.2,0.7,2.2c0,0.2,0,0.4,0,0.6s-0.1,0.5-0.1,0.6l-4.7,0.1c0,0.6,0.1,1.2,0.3,1.8
		s0.5,1,0.9,1.3s0.9,0.5,1.5,0.5c0.4,0,0.8-0.1,1.1-0.2s0.7-0.3,1-0.5l0.2,0.4c-0.3,0.4-0.8,0.7-1.3,1S310.3,456.9,309.7,456.9z
		 M309.5,448.7c-0.4,0-0.7,0.1-1,0.3s-0.5,0.6-0.7,1s-0.3,1-0.3,1.6l3.4-0.2c0-0.1,0.1-0.4,0.1-0.8c0-0.6-0.1-1.1-0.4-1.4
		S310,448.7,309.5,448.7z"/>
	<path class="st0" d="M315,457c-0.3,0-0.5-0.1-0.6-0.3s-0.2-0.5-0.2-0.8s0.1-0.6,0.2-0.7s0.4-0.3,0.6-0.3s0.5,0.1,0.7,0.3
		s0.3,0.4,0.3,0.8c0,0.3-0.1,0.6-0.2,0.8S315.2,457,315,457z"/>
</g>
</svg>
