<svg id="Ebene_1" data-name="Ebene 1" xmlns="http://www.w3.org/2000/svg" xmlns:xlink="http://www.w3.org/1999/xlink" viewBox="0 0 2100 900"><defs><style>.cls-1{fill:none;}.cls-2{fill:url(#Unbenannter_Verlauf);}.cls-3{clip-path:url(#clip-path);}.cls-4{fill:url(#Unbenannter_Verlauf_2);}.cls-5{fill:#fff;}.cls-6{opacity:0.5;}.cls-7{fill:url(#Unbenannter_Verlauf_12);}.cls-8{opacity:0.9;}.cls-9{fill:#dc465a;}.cls-10{fill:url(#Unbenannter_Verlauf_16);}</style><linearGradient id="Unbenannter_Verlauf" y1="447.89" x2="2100" y2="447.89" gradientTransform="matrix(1, 0, 0, -1, 0, 897.89)" gradientUnits="userSpaceOnUse"><stop offset="0" stop-color="#dc465a"/><stop offset="1" stop-color="#dc465a"/></linearGradient><clipPath id="clip-path"><rect class="cls-1" width="2100" height="900"/></clipPath><linearGradient id="Unbenannter_Verlauf_2" x1="67.64" y1="-177.27" x2="2032.36" y2="957.05" gradientTransform="translate(0 60.11)" xlink:href="#Unbenannter_Verlauf"/><linearGradient id="Unbenannter_Verlauf_12" x1="1650" y1="50" x2="1650" y2="850" gradientUnits="userSpaceOnUse"><stop offset="0" stop-color="#fff"/><stop offset="0.6" stop-color="#fff" stop-opacity="0.5"/><stop offset="0.95" stop-color="#fff" stop-opacity="0"/></linearGradient><linearGradient id="Unbenannter_Verlauf_16" x1="1653.86" y1="669.09" x2="1653.86" y2="222.05" xlink:href="#Unbenannter_Verlauf_12"/></defs><title>Zeichenfläche 1</title><g id="Ebene_3" data-name="Ebene 3"><rect class="cls-2" width="2100" height="900"/><g class="cls-3"><rect class="cls-4" width="2100" height="900"/></g></g><path class="cls-5" d="M159.88,165v13H138.52v62.6H122.08V178H101.2V165Z"/><path class="cls-5" d="M183.16,240.6h-16V154.92h16v33.6a31.73,31.73,0,0,1,8-4.56,26.14,26.14,0,0,1,9.78-1.8,23.9,23.9,0,0,1,8.82,1.5,16.48,16.48,0,0,1,6.24,4.2,17.18,17.18,0,0,1,3.66,6.48,26.91,26.91,0,0,1,1.2,8.22v38h-16V205.32q0-5.88-2.4-8.4t-7-2.52a15.38,15.38,0,0,0-6.42,1.5,21.33,21.33,0,0,0-5.94,4Z"/><path class="cls-5" d="M285.28,216.12h-38v.48q0,6.84,4.8,10.2t12.36,3.36a33.53,33.53,0,0,0,8.46-1,44.71,44.71,0,0,0,6.66-2.28L282.44,238a39.65,39.65,0,0,1-8.16,2.7,51.71,51.71,0,0,1-11.64,1.14,41.53,41.53,0,0,1-12.18-1.74,27.73,27.73,0,0,1-10-5.34,25.73,25.73,0,0,1-6.78-9.12,31.49,31.49,0,0,1-2.52-13.2,35.93,35.93,0,0,1,2-12.42,27.17,27.17,0,0,1,5.82-9.54,26.57,26.57,0,0,1,9.06-6.18,30,30,0,0,1,11.76-2.22q11.64,0,18.54,7.08t6.9,19.8ZM269,205.2a18.42,18.42,0,0,0-.54-4.44,10.59,10.59,0,0,0-1.74-3.78,8.88,8.88,0,0,0-3-2.58,9.35,9.35,0,0,0-4.44-1,10.53,10.53,0,0,0-7.92,3.24,14.5,14.5,0,0,0-3.72,8.76Z"/><path class="cls-5" d="M358.72,237.72a16.32,16.32,0,0,1-6.12,3.12,28.47,28.47,0,0,1-18.66-1.08,23.38,23.38,0,0,1-8.28-6.12,27.19,27.19,0,0,1-5.22-9.48,39.37,39.37,0,0,1-1.8-12.24,38.09,38.09,0,0,1,1.8-11.94,27.25,27.25,0,0,1,5.22-9.42,23.76,23.76,0,0,1,8.34-6.18,27.82,27.82,0,0,1,19.92-.72,17.23,17.23,0,0,1,7.32,4.62l1.08-4.92h12.36V268.2h-16Zm0-38.64a15.17,15.17,0,0,0-4.2-3.66,11.7,11.7,0,0,0-6.24-1.62,14.12,14.12,0,0,0-5.22,1,10.92,10.92,0,0,0-4.32,3.12,15.66,15.66,0,0,0-2.94,5.52,26.82,26.82,0,0,0-1.08,8.16q0,9.24,4,13.92a12.33,12.33,0,0,0,9.66,4.68,13.58,13.58,0,0,0,10.32-4.44Z"/><path class="cls-5" d="M425.08,183.36h16V240.6H429.16l-1.68-6.48H427a35.58,35.58,0,0,1-3.06,2.7,21.65,21.65,0,0,1-4.08,2.52,26.09,26.09,0,0,1-5.28,1.86,27.67,27.67,0,0,1-6.54.72q-9.24,0-14.58-5.16t-5.34-15.24V183.36h16V220.2q0,5.16,2.46,7.44a8.9,8.9,0,0,0,6.3,2.28,14.29,14.29,0,0,0,7.38-1.8,16.19,16.19,0,0,0,4.86-4.2Z"/><path class="cls-5" d="M463.6,171.12a8.47,8.47,0,0,1-6.36-2.34,8.57,8.57,0,0,1,0-11.64,9.73,9.73,0,0,1,12.66,0,7.88,7.88,0,0,1,2.34,5.82,8,8,0,0,1-2.28,5.82A8.47,8.47,0,0,1,463.6,171.12Zm-8,69.48V183.36h16V240.6Z"/><path class="cls-5" d="M516.15,230.16a20.53,20.53,0,0,0,6.78-1,41,41,0,0,0,4.86-2l3,11a31.82,31.82,0,0,1-7,2.52,39.22,39.22,0,0,1-10,1.2,37.28,37.28,0,0,1-12-1.88,27.45,27.45,0,0,1-9.78-5.7,27,27,0,0,1-6.54-9.3,34.77,34.77,0,0,1-.12-25.08,27.35,27.35,0,0,1,16.2-15.6,35.62,35.62,0,0,1,12.6-2.16,45,45,0,0,1,7.86.72,29.7,29.7,0,0,1,8.7,3.12l-3.36,11a26.59,26.59,0,0,0-5.46-2.34,20.27,20.27,0,0,0-5.94-.9q-7.44,0-12.06,4.56t-4.62,13.32a22.48,22.48,0,0,0,1.5,8.7,15.85,15.85,0,0,0,3.9,5.7,14.79,14.79,0,0,0,5.4,3.12A19.91,19.91,0,0,0,516.15,230.16Z"/><path class="cls-5" d="M556.35,221.4v19.2H540.51V154.92h15.84V205.8l19.2-22.44h19.32l-22.08,24.12L596,240.6H577.11L561,216.72Z"/><path class="cls-5" d="M685.59,212.16a35.6,35.6,0,0,1-2,12.36,28.1,28.1,0,0,1-5.64,9.42,23.9,23.9,0,0,1-8.52,5.94,27.5,27.5,0,0,1-10.68,2,23.73,23.73,0,0,1-9.6-1.74,21.65,21.65,0,0,1-7-4.86h-.48l-1.08,5.28H629.07V154.92h15.84V188a22,22,0,0,1,7-4.32,23.53,23.53,0,0,1,8.58-1.56q11.76,0,18.42,7.92T685.59,212.16Zm-16.44.36q0-8.88-3.48-13.5a11.59,11.59,0,0,0-9.84-4.62,12.49,12.49,0,0,0-6.24,1.62,16,16,0,0,0-4.56,3.66V226a12.53,12.53,0,0,0,4,3,11.65,11.65,0,0,0,5.22,1.2,15,15,0,0,0,5.58-1.08,13.77,13.77,0,0,0,4.8-3.24,15.07,15.07,0,0,0,3.3-5.46A23.06,23.06,0,0,0,669.15,212.52Z"/><path class="cls-5" d="M695.79,240.6V183.36h12.36l1.8,10.32a21.2,21.2,0,0,1,6.48-8,17.55,17.55,0,0,1,11.16-3.48,18.58,18.58,0,0,1,4.92.6,15.39,15.39,0,0,1,3.6,1.44l-2.64,12.6a15.46,15.46,0,0,0-3.36-1.26,18.91,18.91,0,0,0-4.8-.54,13.29,13.29,0,0,0-9.78,3.9q-3.9,3.9-3.9,12.78V240.6Z"/><path class="cls-5" d="M794.07,211.56a33.7,33.7,0,0,1-2.28,12.72,27.39,27.39,0,0,1-6.3,9.54,27.89,27.89,0,0,1-9.42,6,31.89,31.89,0,0,1-11.64,2.1A33.83,33.83,0,0,1,752.85,240a25.36,25.36,0,0,1-15.36-14.82,32.78,32.78,0,0,1-2.22-12.42,34.77,34.77,0,0,1,2.28-13,26.65,26.65,0,0,1,15.72-15.54,32.56,32.56,0,0,1,11.64-2,33.83,33.83,0,0,1,11.58,1.92,26.28,26.28,0,0,1,9.24,5.58,25.31,25.31,0,0,1,6.12,9.18A34,34,0,0,1,794.07,211.56Zm-16.44.6a28.38,28.38,0,0,0-1.08-8.4,16.23,16.23,0,0,0-2.88-5.64,11.07,11.07,0,0,0-4.2-3.18,12.62,12.62,0,0,0-4.92-1,12.94,12.94,0,0,0-4.8.9,10.38,10.38,0,0,0-4.08,3,15.55,15.55,0,0,0-2.88,5.58,30.11,30.11,0,0,0-1.08,8.76,27.06,27.06,0,0,0,1.08,8.1,15.6,15.6,0,0,0,2.94,5.58,12.32,12.32,0,0,0,4.2,3.24,11.49,11.49,0,0,0,4.86,1.08,12.94,12.94,0,0,0,4.8-.9,10.2,10.2,0,0,0,4.08-3.06,16.39,16.39,0,0,0,2.88-5.58A28.3,28.3,0,0,0,777.63,212.16Z"/><path class="cls-5" d="M797.55,183.36h16.68l7.32,30.36,2.16,15h.48l2.52-15,7.08-30.36h16.8l7.2,30.36,2.52,15h.48l2.52-15,7.08-30.36h16.2L870.75,240.6h-18.6l-7.44-31-2.52-13.8-2.64,13.8-7.44,31h-18.6Z"/><path class="cls-5" d="M909.51,240.6h-16V183.36H906l1.92,7.32a29.6,29.6,0,0,1,8.7-6.3,24.38,24.38,0,0,1,10.5-2.22q9.48,0,14.52,5.16t5,15V240.6h-16V204a10.61,10.61,0,0,0-2.16-7,7.83,7.83,0,0,0-6.36-2.58,14.38,14.38,0,0,0-6.54,1.74,21.82,21.82,0,0,0-6.18,4.74Z"/><path class="cls-5" d="M130.6,298.8a32.27,32.27,0,0,1,8.52,1.14,30.56,30.56,0,0,1,7.32,2.94l-3.12,10.44a33.3,33.3,0,0,0-4.08-1.62,14.52,14.52,0,0,0-4.44-.66q-4.2,0-6.24,2.46t-2,8.34v5.52H141v11.52h-14.4V384.6H110.68V338.88h-8.76V327.36h8.76v-8.88q0-9.6,5.4-14.64T130.6,298.8Z"/><path class="cls-5" d="M203.56,355.56a33.7,33.7,0,0,1-2.28,12.72,27.39,27.39,0,0,1-6.3,9.54,27.89,27.89,0,0,1-9.42,6,31.89,31.89,0,0,1-11.64,2.1A33.83,33.83,0,0,1,162.34,384,25.33,25.33,0,0,1,147,369.18a32.78,32.78,0,0,1-2.22-12.42,34.77,34.77,0,0,1,2.28-13,26.65,26.65,0,0,1,15.72-15.54,32.56,32.56,0,0,1,11.64-2A33.78,33.78,0,0,1,186,328.08a26.28,26.28,0,0,1,9.24,5.58,25.31,25.31,0,0,1,6.12,9.18A33.9,33.9,0,0,1,203.56,355.56Zm-16.44.6a28.38,28.38,0,0,0-1.08-8.4,16.23,16.23,0,0,0-2.88-5.64,11.07,11.07,0,0,0-4.2-3.18,12.62,12.62,0,0,0-4.92-1,12.94,12.94,0,0,0-4.8.9,10.38,10.38,0,0,0-4.08,3,15.55,15.55,0,0,0-2.88,5.58,30.11,30.11,0,0,0-1.08,8.76,27.06,27.06,0,0,0,1.08,8.1,15.6,15.6,0,0,0,2.94,5.58,12.32,12.32,0,0,0,4.2,3.24,11.49,11.49,0,0,0,4.86,1.08,12.94,12.94,0,0,0,4.8-.9,10.2,10.2,0,0,0,4.08-3.06,16.39,16.39,0,0,0,2.88-5.58A28.3,28.3,0,0,0,187.12,356.16Z"/><path class="cls-5" d="M243.88,355.32l20.28,29.28H245.8l-6-8.88-5.88-10.44-5.4,10.32-5.76,9H204.64l20-29.28-18.84-28h17.8l5.88,9,5.28,10,5-10,5.4-9h17.4Z"/><path class="cls-5" d="M298.24,327.36h16v49.2a73.84,73.84,0,0,1-1,12.6,35.82,35.82,0,0,1-3.6,10.74,31.14,31.14,0,0,1-6.9,8.7,38.67,38.67,0,0,1-10.92,6.6L285,404.28a41.65,41.65,0,0,0,6-3.72,15.24,15.24,0,0,0,4.14-4.86,23.94,23.94,0,0,0,2.4-7.32,64.33,64.33,0,0,0,.78-11Zm8.16-12.24a8.44,8.44,0,0,1-6.42-2.34,8.15,8.15,0,0,1-2.22-5.82,8,8,0,0,1,2.28-5.82,8.47,8.47,0,0,1,6.36-2.34,8.3,8.3,0,0,1,6.24,2.34,8.57,8.57,0,0,1,0,11.64A8.3,8.3,0,0,1,306.4,315.12Z"/><path class="cls-5" d="M365.8,327.36h16V384.6H369.88l-1.68-6.48h-.48a35.58,35.58,0,0,1-3.06,2.7,21.65,21.65,0,0,1-4.08,2.52,26.09,26.09,0,0,1-5.28,1.86,27.67,27.67,0,0,1-6.54.72q-9.24,0-14.58-5.16t-5.34-15.24V327.36h16V364.2q0,5.16,2.46,7.44a8.9,8.9,0,0,0,6.3,2.28,14.29,14.29,0,0,0,7.38-1.8,16.19,16.19,0,0,0,4.86-4.2Z"/><path class="cls-5" d="M410.92,384.6H395V327.36h12.48l1.92,7.32a30.44,30.44,0,0,1,8.4-6.24,22.75,22.75,0,0,1,10.32-2.28q12.24,0,16.68,8.88a28,28,0,0,1,8.76-6.54,24.12,24.12,0,0,1,10.56-2.34q9.11,0,14,4.92T483,345.36V384.6H467V347.16a9.59,9.59,0,0,0-2-6.42,7.19,7.19,0,0,0-5.82-2.34,15.16,15.16,0,0,0-6.54,1.56,16.37,16.37,0,0,0-5.7,4.44v40.2H431V347.16a9.59,9.59,0,0,0-2-6.42,7.19,7.19,0,0,0-5.82-2.34,13.86,13.86,0,0,0-6.54,1.74,17.86,17.86,0,0,0-5.7,4.74Z"/><path class="cls-5" d="M523.23,385.92a24.81,24.81,0,0,1-6.18-.78,19.83,19.83,0,0,1-5.1-2v29H496.11v-85h12.12l1.68,6.36a27.42,27.42,0,0,1,7.92-5.34,24.19,24.19,0,0,1,10-2q11.28,0,17.82,7.62t6.54,21.06a36.58,36.58,0,0,1-2.28,13.38,28.09,28.09,0,0,1-6.24,9.78,25.78,25.78,0,0,1-9.24,5.94A31.5,31.5,0,0,1,523.23,385.92Zm.24-47.76a13,13,0,0,0-7,1.86A18.4,18.4,0,0,0,512,343.8v27.36a15.14,15.14,0,0,0,14.46,2,13,13,0,0,0,4.68-3.24,16,16,0,0,0,3.36-5.82,26.82,26.82,0,0,0,1.26-8.76,28.16,28.16,0,0,0-.78-6.84,16.45,16.45,0,0,0-2.34-5.4,11.7,11.7,0,0,0-3.84-3.6A10.36,10.36,0,0,0,523.47,338.16Z"/><path class="cls-5" d="M596.79,341a31.74,31.74,0,0,0-13.68-3.36,11.17,11.17,0,0,0-5.94,1.32,4,4,0,0,0-2.1,3.6,4.51,4.51,0,0,0,1.86,3.72q1.86,1.44,7.5,3.12l3.6,1.08q7.44,2.16,11.28,6.24a14.78,14.78,0,0,1,3.84,10.56,16.21,16.21,0,0,1-6.54,13.56q-6.54,5-17.7,5-11.4,0-19.56-4.08L563,370a41.77,41.77,0,0,0,7.32,2.94,27.12,27.12,0,0,0,7.8,1.14q4.8,0,7-1.5a4.53,4.53,0,0,0,2.22-3.9,4.36,4.36,0,0,0-2.16-3.9,34,34,0,0,0-8.13-3l-3.72-1.08q-7.2-2.4-10.56-6.36t-3.36-10.56a15.82,15.82,0,0,1,5.88-12.72q5.88-4.92,16.44-4.92a43.66,43.66,0,0,1,18.48,3.72Z"/><path class="cls-5" d="M695.31,355.56A33.73,33.73,0,0,1,693,368.28a27.39,27.39,0,0,1-6.3,9.54,27.89,27.89,0,0,1-9.42,6,31.89,31.89,0,0,1-11.64,2.1A34.15,34.15,0,0,1,654.09,384a25.36,25.36,0,0,1-15.36-14.82,32.78,32.78,0,0,1-2.22-12.42,34.77,34.77,0,0,1,2.28-13,26.65,26.65,0,0,1,15.72-15.54,32.56,32.56,0,0,1,11.64-2,33.83,33.83,0,0,1,11.58,1.92,26.28,26.28,0,0,1,9.24,5.58,25.31,25.31,0,0,1,6.12,9.18A34,34,0,0,1,695.31,355.56Zm-16.44.6a28.38,28.38,0,0,0-1.08-8.4,16.23,16.23,0,0,0-2.88-5.64,11.07,11.07,0,0,0-4.2-3.18,12.62,12.62,0,0,0-4.92-1,12.94,12.94,0,0,0-4.8.9,10.38,10.38,0,0,0-4.08,3A15.53,15.53,0,0,0,654,347.4a30.11,30.11,0,0,0-1.08,8.76,27.06,27.06,0,0,0,1.08,8.1,15.6,15.6,0,0,0,2.94,5.58,12.32,12.32,0,0,0,4.2,3.24,11.49,11.49,0,0,0,4.86,1.08,12.94,12.94,0,0,0,4.8-.9,10.2,10.2,0,0,0,4.08-3.06,16.39,16.39,0,0,0,2.88-5.58A28.48,28.48,0,0,0,678.87,356.16Z"/><path class="cls-5" d="M739.83,327.36h16.92L736.47,384.6H718l-19.68-57.24h17l8.4,28.56,3.48,17.28h.48l3.48-17.28Z"/><path class="cls-5" d="M813.63,360.12h-38v.48q0,6.84,4.8,10.2t12.36,3.36a33.53,33.53,0,0,0,8.46-1,44.71,44.71,0,0,0,6.66-2.28L810.79,382a39.65,39.65,0,0,1-8.16,2.7A52.24,52.24,0,0,1,791,385.92a41.53,41.53,0,0,1-12.18-1.74,27.73,27.73,0,0,1-10-5.34,25.73,25.73,0,0,1-6.78-9.12,31.49,31.49,0,0,1-2.52-13.2,35.93,35.93,0,0,1,2-12.42,27.17,27.17,0,0,1,5.82-9.54,26.57,26.57,0,0,1,9.06-6.18,30,30,0,0,1,11.76-2.22q11.64,0,18.54,7.08t6.9,19.8ZM797.31,349.2a18.42,18.42,0,0,0-.54-4.44A10.65,10.65,0,0,0,795,341a8.88,8.88,0,0,0-3-2.58,9.35,9.35,0,0,0-4.44-1,10.53,10.53,0,0,0-7.92,3.24,14.5,14.5,0,0,0-3.72,8.76Z"/><path class="cls-5" d="M823.71,384.6V327.36h12.36l1.8,10.32a21.2,21.2,0,0,1,6.48-8,17.55,17.55,0,0,1,11.16-3.48,18.58,18.58,0,0,1,4.92.6,15.39,15.39,0,0,1,3.6,1.44l-2.64,12.6a15.46,15.46,0,0,0-3.36-1.26,18.91,18.91,0,0,0-4.8-.54,13.29,13.29,0,0,0-9.78,3.9q-3.9,3.9-3.9,12.78V384.6Z"/><path class="cls-5" d="M141.4,482.88H126.16v26.4q0,4.08,1.86,5.58a7.67,7.67,0,0,0,5,1.5,27.07,27.07,0,0,0,4.92-.48,14.33,14.33,0,0,0,4.08-1.32l2.4,11.16a32.69,32.69,0,0,1-6.12,1.92,37.5,37.5,0,0,1-8.64,1q-10.44,0-14.88-4.14T110.32,512V482.88h-8.88V471.36h8.88V453.72h15.84v17.64H141.4Z"/><path class="cls-5" d="M168,528.6H152V442.92h16v33.6a31.73,31.73,0,0,1,8-4.56,26.14,26.14,0,0,1,9.78-1.8,23.9,23.9,0,0,1,8.82,1.5,16.48,16.48,0,0,1,6.24,4.2,17.18,17.18,0,0,1,3.66,6.48,26.91,26.91,0,0,1,1.2,8.22v38h-16V493.32q0-5.88-2.4-8.4t-7-2.52a15.38,15.38,0,0,0-6.42,1.5,21.33,21.33,0,0,0-5.94,4Z"/><path class="cls-5" d="M270.16,504.12h-38v.48q0,6.84,4.8,10.2t12.36,3.36a33.53,33.53,0,0,0,8.46-1,44.71,44.71,0,0,0,6.66-2.28L267.32,526a39.65,39.65,0,0,1-8.16,2.7,51.71,51.71,0,0,1-11.64,1.14,41.53,41.53,0,0,1-12.18-1.74,27.73,27.73,0,0,1-10-5.34,25.73,25.73,0,0,1-6.78-9.12,31.49,31.49,0,0,1-2.52-13.2,35.93,35.93,0,0,1,2-12.42,27.17,27.17,0,0,1,5.82-9.54,26.57,26.57,0,0,1,9.06-6.18,30,30,0,0,1,11.76-2.22q11.64,0,18.54,7.08t6.9,19.8ZM253.84,493.2a18.42,18.42,0,0,0-.54-4.44,10.59,10.59,0,0,0-1.74-3.78,8.88,8.88,0,0,0-3-2.58,9.35,9.35,0,0,0-4.44-1,10.53,10.53,0,0,0-7.92,3.24,14.5,14.5,0,0,0-3.72,8.76Z"/><path class="cls-5" d="M307.12,528.6V442.92h15.72V528.6Z"/><path class="cls-5" d="M337.48,476.4a46.66,46.66,0,0,1,10.92-4.62,45.18,45.18,0,0,1,12.24-1.62,34.83,34.83,0,0,1,9.42,1.2,19.38,19.38,0,0,1,7.32,3.78,16.6,16.6,0,0,1,4.68,6.6,25.9,25.9,0,0,1,1.62,9.66v37.2H371.32l-1.44-5.88h-.48a19,19,0,0,1-7,5.28,23.88,23.88,0,0,1-9.9,1.92,23.12,23.12,0,0,1-8.28-1.38,18.67,18.67,0,0,1-6.12-3.72,15,15,0,0,1-3.78-5.58,19,19,0,0,1-1.26-7,16.26,16.26,0,0,1,2.1-8.46A16.92,16.92,0,0,1,341,498a27.78,27.78,0,0,1,8.7-3.36,51,51,0,0,1,10.74-1.08h7.2v-3.48q0-4-2.46-5.82a11.26,11.26,0,0,0-6.9-1.86,25.06,25.06,0,0,0-7.14,1.08A42.87,42.87,0,0,0,343,487Zm30.24,27.12-5.16.12q-7.32.24-10.2,2.46a6.58,6.58,0,0,0-2.88,5.34q0,4.08,2.46,5.58a10.53,10.53,0,0,0,5.58,1.5,10.91,10.91,0,0,0,5.94-1.8,13,13,0,0,0,4.26-4.2Z"/><path class="cls-5" d="M437.8,481.08l-26.76,36H438.4V528.6H393.16V518.52l26.76-35.64h-25.2V471.36H437.8Z"/><path class="cls-5" d="M441.75,471.36h17.4l10.2,27.24,3.84,13.92h.48l3.72-14,8.88-27.12h16.32l-21,59.28a95,95,0,0,1-4,9.42,42.66,42.66,0,0,1-5.4,8.34,37.5,37.5,0,0,1-7.5,6.84,39.06,39.06,0,0,1-10.2,4.92l-6.6-12.36a29.9,29.9,0,0,0,11.28-7,23.78,23.78,0,0,0,6.24-10.92l.48-1.56Z"/><path class="cls-5" d="M572.67,442.92h16V528.6h-11.4l-1.68-6.24H575a18.82,18.82,0,0,1-6.18,5.28q-4,2.28-10.5,2.28a25,25,0,0,1-10.08-2A23.61,23.61,0,0,1,540,522a27.57,27.57,0,0,1-5.46-9.36,37.23,37.23,0,0,1-2-12.6,39.53,39.53,0,0,1,1.8-12.36,27,27,0,0,1,5.16-9.42,22.32,22.32,0,0,1,8.28-6,28.5,28.5,0,0,1,11.28-2.1,24.79,24.79,0,0,1,7.74,1.2,16.26,16.26,0,0,1,5.82,3.12Zm0,43.44a12.73,12.73,0,0,0-4.08-3.24,11.64,11.64,0,0,0-5.52-1.32,15.44,15.44,0,0,0-5.46,1,11.89,11.89,0,0,0-4.56,3.06,15.27,15.27,0,0,0-3.18,5.52,25.34,25.34,0,0,0-1.2,8.34,28.25,28.25,0,0,0,1.08,8.28,17.61,17.61,0,0,0,2.88,5.76,11,11,0,0,0,4.26,3.36,12.85,12.85,0,0,0,5.22,1.08,11.25,11.25,0,0,0,6.54-1.86,12.19,12.19,0,0,0,4-4.38Z"/><path class="cls-5" d="M657.75,499.56a33.7,33.7,0,0,1-2.28,12.72,27.39,27.39,0,0,1-6.3,9.54,27.89,27.89,0,0,1-9.42,6,31.89,31.89,0,0,1-11.64,2.1A33.83,33.83,0,0,1,616.53,528a25.36,25.36,0,0,1-15.36-14.82A32.73,32.73,0,0,1,599,500.76a34.77,34.77,0,0,1,2.28-13A26.66,26.66,0,0,1,617,472.2a32.56,32.56,0,0,1,11.64-2,33.83,33.83,0,0,1,11.58,1.92,26.28,26.28,0,0,1,9.24,5.58,25.31,25.31,0,0,1,6.12,9.18A33.86,33.86,0,0,1,657.75,499.56Zm-16.44.6a28.38,28.38,0,0,0-1.08-8.4,16.23,16.23,0,0,0-2.88-5.64,11.07,11.07,0,0,0-4.2-3.18,12.62,12.62,0,0,0-4.92-1,12.94,12.94,0,0,0-4.8.9,10.38,10.38,0,0,0-4.08,3,15.55,15.55,0,0,0-2.88,5.58,30.11,30.11,0,0,0-1.08,8.76,27.06,27.06,0,0,0,1.08,8.1,15.6,15.6,0,0,0,2.94,5.58,12.32,12.32,0,0,0,4.2,3.24,11.49,11.49,0,0,0,4.86,1.08,12.94,12.94,0,0,0,4.8-.9,10.2,10.2,0,0,0,4.08-3.06,16.39,16.39,0,0,0,2.88-5.58A28.3,28.3,0,0,0,641.31,500.16Z"/><path class="cls-5" d="M667.35,490.8a19,19,0,0,1,7-15.06,23.36,23.36,0,0,1,7.8-4.14,32.29,32.29,0,0,1,9.9-1.44,36.65,36.65,0,0,1,4.44.3,28,28,0,0,1,4.44.9h24.48v10.08h-5.16l-7.44-1.08a15.92,15.92,0,0,1,2.58,4.8,17.15,17.15,0,0,1,1,5.76,18.4,18.4,0,0,1-6.54,14.7q-6.54,5.58-17.94,5.58a26,26,0,0,1-5.28-.48q-3,1.2-3,4A3.34,3.34,0,0,0,685,517.6c.88.67,2.44,1,4.68,1h12.84q9.48,0,15.18,4.14t5.7,13.26a17,17,0,0,1-2.22,8.58,20.45,20.45,0,0,1-6.3,6.72,31.85,31.85,0,0,1-9.83,4.3,49.19,49.19,0,0,1-12.84,1.56q-13.08,0-20.7-4.62t-7.62-13.26a10,10,0,0,1,2.64-6.9,17.58,17.58,0,0,1,7.32-4.62,16.26,16.26,0,0,1-3.36-3.42,9.05,9.05,0,0,1-1.68-5.58,10.36,10.36,0,0,1,2.4-6.84,16.79,16.79,0,0,1,6.12-4.56,19.56,19.56,0,0,1-6.72-6,18,18,0,0,1-3.24-10.56Zm15.36,39.72a9.11,9.11,0,0,0-3,2.52,6.3,6.3,0,0,0-1.2,4,7,7,0,0,0,3.18,5.82q3.18,2.34,11,2.34t11.4-2.64q3.6-2.64,3.6-6t-2.28-4.68q-2.28-1.32-7.08-1.32Zm18.12-39.84q0-4.68-2.52-7.08a9.71,9.71,0,0,0-12.78,0q-2.46,2.4-2.46,7,0,4.8,2.52,7.2a9.71,9.71,0,0,0,12.78,0q2.46-2.44,2.46-7.12Z"/><g class="cls-6"><path class="cls-5" d="M101.52,100h3v11.48h5.59v2.38h-8.6Z"/><path class="cls-5" d="M117.93,100h3.12l5.13,13.86H123l-1.08-3.19H117l-1.07,3.19h-3.15Zm-.26,8.45h3.52l-.64-1.85c-.21-.57-.4-1.15-.57-1.73s-.35-1.16-.51-1.75h0c-.17.56-.34,1.13-.53,1.71s-.39,1.17-.6,1.77Z"/><path class="cls-5" d="M138.35,100v2.38h-3.92v11.48h-3V102.38H127.6V100Z"/><path class="cls-5" d="M142.26,100h9v2.33h-6v3.17h5.43v2.31h-5.43v3.72h6.07v2.33h-9.09Z"/><path class="cls-5" d="M158.85,100v13.86h-3V100Z"/><path class="cls-5" d="M164.11,100h2.75l4.77,7.3c.32.5.62,1,.89,1.47s.47.84.59,1.11h0c-.09-1-.13-1.9-.13-2.85v-7h2.79v13.86H173l-4.44-6.73c-.19-.3-.38-.6-.56-.92s-.36-.61-.52-.91-.31-.56-.43-.8a3.66,3.66,0,0,1-.27-.61h-.05c.07,1,.11,2,.12,2.92s0,1.88,0,2.85v4.2h-2.81Z"/></g><g class="cls-6"><path class="cls-5" d="M108.16,663.52a10.52,10.52,0,0,1,2.31.22,9.09,9.09,0,0,1,1.83.59l-.64,2a6.73,6.73,0,0,0-1.58-.55,7.93,7.93,0,0,0-1.61-.17,4.93,4.93,0,0,0-1.7.28,3.48,3.48,0,0,0-1.4.9,4.52,4.52,0,0,0-1,1.58,6.61,6.61,0,0,0-.35,2.29,5.66,5.66,0,0,0,1.07,3.69,3.7,3.7,0,0,0,3,1.29,5.28,5.28,0,0,0,1.72-.22v-3.24h-2.29V670h5.17v7a9.84,9.84,0,0,1-2,.61,12.78,12.78,0,0,1-2.62.25,8.47,8.47,0,0,1-2.87-.47,6.3,6.3,0,0,1-3.85-3.62,8.75,8.75,0,0,1,0-6.16,6.3,6.3,0,0,1,1.53-2.25,6.76,6.76,0,0,1,2.3-1.38A8.64,8.64,0,0,1,108.16,663.52Z"/><path class="cls-5" d="M117.56,663.76h3v8.3a4.2,4.2,0,0,0,.69,2.6,2.52,2.52,0,0,0,2.15.89,2.36,2.36,0,0,0,2.07-.9,4.07,4.07,0,0,0,.63-2.33v-8.56h3v8.34a5.1,5.1,0,0,1-5.72,5.77,6.1,6.1,0,0,1-4.29-1.44,5.73,5.73,0,0,1-1.56-4.44Z"/><path class="cls-5" d="M137.73,663.76v12.88a6.82,6.82,0,0,1-.18,1.27,4.42,4.42,0,0,1-.36,1,4.37,4.37,0,0,1-.59.88,3.86,3.86,0,0,1-1.82,1.2,7.64,7.64,0,0,1-2.33.34V679a2.63,2.63,0,0,0,1-.17,2.56,2.56,0,0,0,.68-.44,1.75,1.75,0,0,0,.51-.93,5.42,5.42,0,0,0,.13-1.27V663.76Z"/><path class="cls-5" d="M146.42,663.76h3.12l5.13,13.86h-3.19l-1.08-3.19h-4.93l-1.07,3.19h-3.15Zm-.26,8.45h3.52l-.64-1.85c-.21-.57-.4-1.14-.57-1.72s-.35-1.17-.51-1.75h0c-.17.55-.34,1.12-.53,1.7s-.39,1.17-.6,1.77Z"/><path class="cls-5" d="M158.63,663.76h5.26a6,6,0,0,1,2.05.34,4.21,4.21,0,0,1,1.49.93,3.74,3.74,0,0,1,.89,1.36,4.63,4.63,0,0,1,.3,1.69,4.16,4.16,0,0,1-.89,2.6,4.3,4.3,0,0,1-.86.79,6.29,6.29,0,0,1-.91.52l3.38,5.63h-3.45l-2.66-5.1h-1.61v5.1h-3Zm3,6.45h1.19a3.52,3.52,0,0,0,2-.49,1.78,1.78,0,0,0,.76-1.6,2,2,0,0,0-.61-1.53,2.56,2.56,0,0,0-1.77-.54h-1.52Z"/><path class="cls-5" d="M177.31,663.76h3.12l5.13,13.86h-3.19l-1.08-3.19h-4.93l-1.08,3.19h-3.14Zm-.27,8.45h3.52l-.63-1.85c-.21-.57-.4-1.14-.58-1.72s-.34-1.17-.5-1.75h0c-.16.55-.33,1.12-.52,1.7s-.39,1.17-.6,1.77Z"/><path class="cls-5" d="M197.72,663.76v2.38h-3.91v11.48h-3V666.14H187v-2.38Z"/><path class="cls-5" d="M204.65,663.76v13.86h-3V663.76Z"/></g><path class="cls-5" d="M103.24,728.52a11,11,0,0,1,1.26-.44,9.23,9.23,0,0,1,5.18.2,6.87,6.87,0,0,1,2.3,1.36,6.4,6.4,0,0,1,1.54,2.14,7,7,0,0,1,.56,2.82,6.32,6.32,0,0,1-.56,2.74,6.72,6.72,0,0,1-1.4,1.94,6.91,6.91,0,0,1-1.84,1.28,10.42,10.42,0,0,1-1.88.72,8.55,8.55,0,0,0,2.48,2.6,5.48,5.48,0,0,0,3.12.92,3.85,3.85,0,0,0,3.22-1.22,5,5,0,0,0,1-3.22V733h3.2v4.92a3.52,3.52,0,0,0,1.12.66,4.16,4.16,0,0,0,1.52.26,3.7,3.7,0,0,0,1.5-.28,3.11,3.11,0,0,0,1-.64V728.2h3.28v19.28c0,.83.19,1.37.58,1.62a2.4,2.4,0,0,0,1.38.38,4,4,0,0,0,.92-.08,6.53,6.53,0,0,0,.76-.2l.64,2.44A7.31,7.31,0,0,1,133,752a7.08,7.08,0,0,1-1.72.18,5.35,5.35,0,0,1-3.46-1,4,4,0,0,1-1.26-3.34v-6.4a3.87,3.87,0,0,1-.88.26,7.34,7.34,0,0,1-1.32.1,5.83,5.83,0,0,1-1.66-.22,3.62,3.62,0,0,1-1.42-.82,6.76,6.76,0,0,1-1.94,5.2,7.38,7.38,0,0,1-5.22,1.8,9.59,9.59,0,0,1-5-1.38,11.43,11.43,0,0,1-4-4.42,4.61,4.61,0,0,1-2.7-.9,2.62,2.62,0,0,1-1.06-2.22,2.26,2.26,0,0,1,.84-1.84,4,4,0,0,1,2.4-.72l2.12,2.56a4.83,4.83,0,0,0,1.18-.28,4.93,4.93,0,0,0,1.36-.72,4.29,4.29,0,0,0,1.14-1.26,3.52,3.52,0,0,0,.48-1.9,3.79,3.79,0,0,0-1.2-2.94,4.57,4.57,0,0,0-3.2-1.1,5.83,5.83,0,0,0-1.5.2c-.47.14-.81.24-1,.32Zm39.64,20.92a4,4,0,0,0,.92-.08,6.53,6.53,0,0,0,.76-.2l.64,2.44a6.43,6.43,0,0,1-1.12.38,7.08,7.08,0,0,1-1.72.18,5.35,5.35,0,0,1-3.46-1,4,4,0,0,1-1.26-3.34V728.16h3.28v19.28c0,.83.19,1.37.58,1.62A2.4,2.4,0,0,0,142.88,749.44Z"/><path class="cls-5" d="M172.2,749.44a4,4,0,0,0,.92-.08,6.53,6.53,0,0,0,.76-.2l.64,2.44a6.43,6.43,0,0,1-1.12.38,7.08,7.08,0,0,1-1.72.18,5.35,5.35,0,0,1-3.46-1A4,4,0,0,1,167,747.8V734.6a4.26,4.26,0,0,0-.86-2.94,2.67,2.67,0,0,0-3.76-.31,3.15,3.15,0,0,0-.36.37,4.92,4.92,0,0,0-.86,3.2,25.16,25.16,0,0,0,.18,3,23.45,23.45,0,0,1,.18,2.78c0,2.38-.64,4.12-1.92,5.24a7.22,7.22,0,0,1-4.92,1.68,8.64,8.64,0,0,1-2.76-.46,6.2,6.2,0,0,1-2.48-1.58,7.87,7.87,0,0,1-1.8-3,15.58,15.58,0,0,1,0-9.22,10.09,10.09,0,0,1,1.78-3.1,7.89,7.89,0,0,1,4.22-2.56l1.16,2.8a7.8,7.8,0,0,0-1.2.5,5.29,5.29,0,0,0-1.5,1.2,7.15,7.15,0,0,0-1.28,2.22,10.26,10.26,0,0,0-.54,3.6,11.24,11.24,0,0,0,.34,3,6.12,6.12,0,0,0,.94,2,3.72,3.72,0,0,0,1.4,1.18,3.9,3.9,0,0,0,1.68.38,3.51,3.51,0,0,0,2.54-.94,4.59,4.59,0,0,0,1-3.34,20.46,20.46,0,0,0-.2-2.82,19.88,19.88,0,0,1-.2-2.78,8.7,8.7,0,0,1,.52-3.2,6.09,6.09,0,0,1,1.38-2.16,5.29,5.29,0,0,1,2-1.22,7.2,7.2,0,0,1,2.3-.38,5.79,5.79,0,0,1,4.74,1.92,7.64,7.64,0,0,1,1.58,5v12.76c0,.83.19,1.37.58,1.62A2.38,2.38,0,0,0,172.2,749.44Z"/><path class="cls-5" d="M200.52,749.44a4,4,0,0,0,.92-.08,6.53,6.53,0,0,0,.76-.2l.64,2.44a6.44,6.44,0,0,1-2.84.56,5.35,5.35,0,0,1-3.46-1,4,4,0,0,1-1.26-3.34v-6.56a14.61,14.61,0,0,1-2.88.24,12.64,12.64,0,0,1-2.74-.3,9.33,9.33,0,0,1-2.5-.94,7.18,7.18,0,0,1-2.52,1.76,11.65,11.65,0,0,1-2.72.8l1.44,2.84a9.07,9.07,0,0,0,2,3,3.73,3.73,0,0,0,2.48.84,3.5,3.5,0,0,0,1.16-.16,2.14,2.14,0,0,0,.64-.32l1.12,2.52a5,5,0,0,1-3,.84,7.51,7.51,0,0,1-2.06-.26,5.83,5.83,0,0,1-1.9-.9,8.18,8.18,0,0,1-1.8-1.82,13.39,13.39,0,0,1-1.62-2.88l-1.72-3.84a5.72,5.72,0,0,1-2.2-1.14,2.56,2.56,0,0,1-.92-2.06,2.48,2.48,0,0,1,.28-1.22,2.66,2.66,0,0,1,.76-.84,4,4,0,0,1,1.08-.52,4.33,4.33,0,0,1,1.24-.18l2.28,3.16a6.26,6.26,0,0,0,1.66-.38,4,4,0,0,0,1.44-.88,4.36,4.36,0,0,0,1.38-3.34,5,5,0,0,0-.4-2.06,4.16,4.16,0,0,0-1-1.42,4.35,4.35,0,0,0-1.46-.84,5.21,5.21,0,0,0-1.66-.28,6,6,0,0,0-1.58.18,8.4,8.4,0,0,0-1.1.38l-.84-2.72a10.06,10.06,0,0,1,1.5-.48,9.35,9.35,0,0,1,5.24.3,7.46,7.46,0,0,1,2.46,1.52,7.12,7.12,0,0,1,1.62,2.4,8.23,8.23,0,0,1,.58,3.18,7.4,7.4,0,0,1-.44,2.6,12,12,0,0,0,1.68.36,12.9,12.9,0,0,0,1.76.12,9.63,9.63,0,0,0,3.28-.48v-9.88h3.28v19.28c0,.83.19,1.37.58,1.62A2.41,2.41,0,0,0,200.52,749.44Z"/><path class="cls-5" d="M191,753.76a5.64,5.64,0,0,1,2-1.76,6.1,6.1,0,0,1,2.72-.6,6.45,6.45,0,0,1,2.42.44A5.82,5.82,0,0,1,200,753a5.56,5.56,0,0,1,1.18,1.76,5.33,5.33,0,0,1,.42,2.08,6,6,0,0,1-.6,2.8,5.1,5.1,0,0,1-1.6,1.88,6.65,6.65,0,0,1-2.26,1,10.19,10.19,0,0,1-2.58.32,10.53,10.53,0,0,1-5.16-1.42,14.65,14.65,0,0,1-4.76-4.54l2.28-2a19.34,19.34,0,0,0,3.9,3.82,6.45,6.45,0,0,0,3.74,1.22,4.47,4.47,0,0,0,2.7-.78,2.65,2.65,0,0,0,1.06-2.3,2.78,2.78,0,0,0-.74-2,2.44,2.44,0,0,0-1.78-.74,3.64,3.64,0,0,0-2.8,1.52Z"/><path class="cls-5" d="M213.36,740.48l5.08-1.44a7.63,7.63,0,0,1-2.42-2.1,4.78,4.78,0,0,1-.94-2.94,5.77,5.77,0,0,1,.5-2.42,5.42,5.42,0,0,1,1.48-2,7.14,7.14,0,0,1,2.42-1.32,10.15,10.15,0,0,1,3.28-.48,14.49,14.49,0,0,1,2.94.26c.81.18,1.47.34,2,.5L227,731.3c-.46-.13-1-.28-1.74-.44a10.51,10.51,0,0,0-2.3-.24,5,5,0,0,0-3.36,1,3.39,3.39,0,0,0-.16,5,7.78,7.78,0,0,0,2.24,1.52l8.68-2.92,1,2.88-6,1.76a8.51,8.51,0,0,1,3.46,2.58,5.59,5.59,0,0,1,1.18,3.38,6.33,6.33,0,0,1-.5,2.54A6,6,0,0,1,228,750.4a7.15,7.15,0,0,1-2.5,1.42,11,11,0,0,1-3.56.52,9.32,9.32,0,0,1-4.66-1.08,7.17,7.17,0,0,1-2.82-2.56l2.36-1.92a5.6,5.6,0,0,0,2,1.9,7,7,0,0,0,5.24.42,4.27,4.27,0,0,0,1.48-.84,3.36,3.36,0,0,0,1.14-2.52,3.87,3.87,0,0,0-1.24-2.84,11.61,11.61,0,0,0-3.28-2.12l-7.76,2.52Z"/><path class="cls-5" d="M225.4,751.44a6.66,6.66,0,0,1,3.24.78,9.66,9.66,0,0,1,2.64,2.16,20.21,20.21,0,0,1,2.26,3.24c.7,1.24,1.42,2.58,2.14,4l-2.68,1.2c-.64-1.22-1.25-2.36-1.82-3.4a22.17,22.17,0,0,0-1.76-2.72,8.55,8.55,0,0,0-1.88-1.82,3.76,3.76,0,0,0-2.18-.66,2.82,2.82,0,0,0-2,.72,2.58,2.58,0,0,0-.78,2,2.49,2.49,0,0,0,.74,1.88,2.72,2.72,0,0,0,2,.72,3.06,3.06,0,0,0,1-.14,5,5,0,0,0,.76-.3l1.16,2.52a4.81,4.81,0,0,1-1.36.58,6.35,6.35,0,0,1-1.68.22,7,7,0,0,1-2.22-.34,5.17,5.17,0,0,1-1.88-1,4.59,4.59,0,0,1-1.3-1.72,5.69,5.69,0,0,1-.48-2.44,5.3,5.3,0,0,1,.52-2.42,5.12,5.12,0,0,1,1.36-1.7,5.78,5.78,0,0,1,1.92-1A7.39,7.39,0,0,1,225.4,751.44Z"/><path class="cls-5" d="M254.2,749.44a4,4,0,0,0,.92-.08,6.53,6.53,0,0,0,.76-.2l.64,2.44a6.44,6.44,0,0,1-2.84.56,5.35,5.35,0,0,1-3.46-1A4,4,0,0,1,249,747.8V736.56h-5a5.5,5.5,0,0,0-3.86,1.32,5,5,0,0,0-1.46,4,7.89,7.89,0,0,0,.54,3,10.56,10.56,0,0,0,1.3,2.38,11,11,0,0,0,1.6,1.8,17.82,17.82,0,0,0,1.4,1.2l-2.16,2.32q-.45-.32-1.44-1.14a12.42,12.42,0,0,1-2-2.16,14.61,14.61,0,0,1-1.8-3.2,10.88,10.88,0,0,1-.78-4.26,8.77,8.77,0,0,1,.66-3.54,7.28,7.28,0,0,1,1.8-2.52,7.54,7.54,0,0,1,2.72-1.52,11,11,0,0,1,3.38-.5H249v-5.52h3.28V747.5c0,.83.19,1.37.58,1.62A2.34,2.34,0,0,0,254.2,749.44Z"/><path class="cls-5" d="M264.44,727.8a11,11,0,0,1,3.36.5,7.64,7.64,0,0,1,2.7,1.5,7.06,7.06,0,0,1,1.78,2.44,8.41,8.41,0,0,1,.64,3.36,7.14,7.14,0,0,1-3,6.14,8.32,8.32,0,0,1-2.74,1.3,13.45,13.45,0,0,1-2.68.48l1.24,2.4a8.32,8.32,0,0,0,2,2.74,3.42,3.42,0,0,0,2.22.82,3.08,3.08,0,0,0,1.68-.4c.42-.26.7-.45.84-.56L274,750.8a5.17,5.17,0,0,1-1.62,1.08,6,6,0,0,1-2.46.48,7,7,0,0,1-3.72-1,8.44,8.44,0,0,1-3-3.66l-2.08-4.32a5.45,5.45,0,0,1-2.32-1.12,2.62,2.62,0,0,1-1-2.12,2.48,2.48,0,0,1,.28-1.22,2.66,2.66,0,0,1,.76-.84,4,4,0,0,1,1.08-.52,4.33,4.33,0,0,1,1.24-.18l2.36,3.28a8.45,8.45,0,0,0,2.06-.34,6.61,6.61,0,0,0,1.92-.9,5,5,0,0,0,1.4-1.5,4.2,4.2,0,0,0,.54-2.22,4.89,4.89,0,0,0-1.36-3.54,5,5,0,0,0-3.76-1.38,9.49,9.49,0,0,0-1.84.18,10.57,10.57,0,0,0-1.56.42l-.88-2.72a10.69,10.69,0,0,1,1.74-.56A10.8,10.8,0,0,1,264.44,727.8Z"/><path class="cls-5" d="M283.84,749.44a4,4,0,0,0,.92-.08,6.53,6.53,0,0,0,.76-.2l.64,2.44a6.44,6.44,0,0,1-2.84.56,5.35,5.35,0,0,1-3.46-1,4,4,0,0,1-1.26-3.34V728.24l-2.48-4.08a18.39,18.39,0,0,0-1.32-1.94,7.55,7.55,0,0,0-1.12-1.14,3.24,3.24,0,0,0-1-.54,3.77,3.77,0,0,0-1-.14,4.46,4.46,0,0,0-1.36.18,9.32,9.32,0,0,0-1,.38l-1.12-2.76a7.32,7.32,0,0,1,1.5-.56,7.5,7.5,0,0,1,2-.24,6.8,6.8,0,0,1,2.1.3,6,6,0,0,1,1.8,1,9.77,9.77,0,0,1,1.68,1.78q.81,1.11,1.74,2.7l2.92,5v19.28c0,.83.19,1.37.58,1.62A2.37,2.37,0,0,0,283.84,749.44Z"/><path class="cls-5" d="M315.76,749.44a4,4,0,0,0,.92-.08,6.53,6.53,0,0,0,.76-.2l.64,2.44a6.44,6.44,0,0,1-2.84.56,5.35,5.35,0,0,1-3.46-1,4,4,0,0,1-1.26-3.34v-4.44a6.59,6.59,0,0,1-2.14,1.06,8.71,8.71,0,0,1-2.58.38,9,9,0,0,1-2.86-.44A6.31,6.31,0,0,1,300.6,743a6.24,6.24,0,0,1-1.58-2.28,8.29,8.29,0,0,1-.58-3.26v-4.6a3.56,3.56,0,0,0-.14-1.08,1.58,1.58,0,0,0-.38-.6,1.26,1.26,0,0,0-.56-.26,3.47,3.47,0,0,0-.64-.06,4.87,4.87,0,0,0-.76.06,5.12,5.12,0,0,0-.68.14l-.44-2.6,1-.2a8.9,8.9,0,0,1,1.46-.12,4.76,4.76,0,0,1,3.24,1.06,4.52,4.52,0,0,1,1.2,3.54v4.48c0,1.74.38,2.94,1.16,3.6a4.83,4.83,0,0,0,3.28,1,5.68,5.68,0,0,0,2.46-.56,5.56,5.56,0,0,0,1.86-1.36V728.16h3.28v19.28c0,.83.19,1.37.58,1.62A2.41,2.41,0,0,0,315.76,749.44Z"/><path class="cls-5" d="M326,727.8a11,11,0,0,1,3.36.5,7.64,7.64,0,0,1,2.7,1.5,7.06,7.06,0,0,1,1.78,2.44,8.41,8.41,0,0,1,.64,3.36,7.14,7.14,0,0,1-3,6.14,8.32,8.32,0,0,1-2.74,1.3,13.45,13.45,0,0,1-2.68.48l1.24,2.4a8.32,8.32,0,0,0,2,2.74,3.42,3.42,0,0,0,2.22.82,3.08,3.08,0,0,0,1.68-.4c.42-.26.7-.45.84-.56l1.52,2.28a5.17,5.17,0,0,1-1.62,1.08,6,6,0,0,1-2.46.48,7,7,0,0,1-3.72-1,8.44,8.44,0,0,1-3-3.66l-2.08-4.32a5.45,5.45,0,0,1-2.32-1.12,2.62,2.62,0,0,1-1-2.12,2.48,2.48,0,0,1,.28-1.22,2.66,2.66,0,0,1,.76-.84,4,4,0,0,1,1.08-.52,4.33,4.33,0,0,1,1.24-.18l2.36,3.28a8.45,8.45,0,0,0,2.06-.34,6.61,6.61,0,0,0,1.92-.9,5,5,0,0,0,1.4-1.5,4.2,4.2,0,0,0,.54-2.22,4.89,4.89,0,0,0-1.36-3.54,5,5,0,0,0-3.76-1.38A9.49,9.49,0,0,0,324,731a10.57,10.57,0,0,0-1.56.42l-.88-2.72a10.69,10.69,0,0,1,1.74-.56A10.8,10.8,0,0,1,326,727.8Z"/><path class="cls-5" d="M365.84,749.24a7.33,7.33,0,0,0,1.86-.32,5,5,0,0,0,1.68-.84,4.29,4.29,0,0,0,1.7-3.6,4.79,4.79,0,0,0-1.26-3.44,4.45,4.45,0,0,0-3.34-1.32,6.74,6.74,0,0,0-1,.08l-1,.2c0,3.66-.78,6.4-2.24,8.24a7.7,7.7,0,0,1-6.4,2.76,9.6,9.6,0,0,1-2.76-.4,7.33,7.33,0,0,1-2.5-1.28,7.8,7.8,0,0,1-2-2.28,10,10,0,0,1-1.2-3.44l3.16-.64a7,7,0,0,0,.58,2,5.57,5.57,0,0,0,1.08,1.6,4.7,4.7,0,0,0,1.56,1.08,5.22,5.22,0,0,0,4.1,0,4.18,4.18,0,0,0,1.7-1.42,7.42,7.42,0,0,0,1.12-2.54,16,16,0,0,0,.4-3.84,11.94,11.94,0,0,0-.44-3.42,7.37,7.37,0,0,0-1.18-2.34,4.58,4.58,0,0,0-1.74-1.34,5.82,5.82,0,0,0-3.82-.18,5.31,5.31,0,0,0-1.32.62,6.51,6.51,0,0,0-1,.82c-.27.27-.52.55-.76.84l-2.46-1.8a7.63,7.63,0,0,1,3.08-2.8,9.28,9.28,0,0,1,4.2-1,9.5,9.5,0,0,1,3.42.58,7.56,7.56,0,0,1,2.58,1.62,8.33,8.33,0,0,1,1.74,2.46,11.15,11.15,0,0,1,.9,3.1c.34-.08.7-.14,1.08-.2a8.92,8.92,0,0,1,1.16-.08h1a4.81,4.81,0,0,1,.76.12V728h3.28v5a24.28,24.28,0,0,1-.1,2.92,16.93,16.93,0,0,1-.3,2,8.84,8.84,0,0,1,1.2,1,6.85,6.85,0,0,1,1.08,1.38,7.46,7.46,0,0,1,.76,1.82,9.09,9.09,0,0,1,.28,2.26,7.57,7.57,0,0,1-.7,3.34,6.89,6.89,0,0,1-1.86,2.36,8.18,8.18,0,0,1-2.66,1.44,10.46,10.46,0,0,1-3.14.54Z"/><path class="cls-5" d="M388.07,737.32a13.78,13.78,0,0,1,3.42,1.46,8.91,8.91,0,0,1,2.2,1.86,6,6,0,0,1,1.16,2.14,7.81,7.81,0,0,1,.34,2.3,7.21,7.21,0,0,1-.68,3.26,6.52,6.52,0,0,1-1.82,2.28,7.38,7.38,0,0,1-2.66,1.32,12,12,0,0,1-3.15.42A10.78,10.78,0,0,1,384,752a7.94,7.94,0,0,1-2.66-1.26,7.7,7.7,0,0,1-2.08-2.32,10,10,0,0,1-1.18-3.6l3.2-.68a6.91,6.91,0,0,0,1.94,4,5.44,5.44,0,0,0,3.71,1.24,5.63,5.63,0,0,0,3.5-1.08,3.91,3.91,0,0,0,1.41-3.32,4.08,4.08,0,0,0-1.18-2.94,7.79,7.79,0,0,0-3.38-1.9l-2.2-.68a10.17,10.17,0,0,1-4.1-2.18,5,5,0,0,1-1.46-3.82,5.11,5.11,0,0,1,.58-2.42,5.5,5.5,0,0,1,1.58-1.78,7.49,7.49,0,0,1,2.34-1.1,10.67,10.67,0,0,1,2.87-.38,12.43,12.43,0,0,1,3.69.48,18.91,18.91,0,0,1,2.22.8l-1,2.64a19.71,19.71,0,0,0-2-.7,10.2,10.2,0,0,0-2.85-.38,5.12,5.12,0,0,0-3,.76,2.53,2.53,0,0,0-1.05,2.16,2.61,2.61,0,0,0,.69,1.84,5.81,5.81,0,0,0,2.5,1.32Z"/><path class="cls-5" d="M417.39,749.44a4,4,0,0,0,.92-.08,6.53,6.53,0,0,0,.76-.2l.64,2.44a6.43,6.43,0,0,1-1.12.38,7.08,7.08,0,0,1-1.72.18,5.35,5.35,0,0,1-3.46-1,4,4,0,0,1-1.26-3.34v-4.44a6.22,6.22,0,0,1-2.14,1.06,8.71,8.71,0,0,1-2.58.38,9,9,0,0,1-2.86-.44,6.16,6.16,0,0,1-3.92-3.62,8.47,8.47,0,0,1-.58-3.26v-4.6a3,3,0,0,0-.14-1.08,1.31,1.31,0,0,0-.38-.6A1.26,1.26,0,0,0,399,731a3.47,3.47,0,0,0-.64-.06,4.87,4.87,0,0,0-.76.06,5.12,5.12,0,0,0-.68.14l-.44-2.6,1-.2a8.9,8.9,0,0,1,1.46-.12,4.76,4.76,0,0,1,3.24,1.06,4.52,4.52,0,0,1,1.2,3.54v4.48c0,1.74.39,2.94,1.16,3.6a4.85,4.85,0,0,0,3.28,1,5.68,5.68,0,0,0,2.46-.56,5.33,5.33,0,0,0,1.86-1.36V728.16h3.28v19.28a1.83,1.83,0,0,0,.58,1.62A2.41,2.41,0,0,0,417.39,749.44Z"/><path class="cls-5" d="M428,749.44a4,4,0,0,0,.92-.08,6.53,6.53,0,0,0,.76-.2l.64,2.44a6.43,6.43,0,0,1-1.12.38,7.08,7.08,0,0,1-1.72.18,5.35,5.35,0,0,1-3.46-1,4,4,0,0,1-1.26-3.34v-23.3a4.52,4.52,0,0,0-.92-2.92,3.31,3.31,0,0,0-2.76-1.16,3.51,3.51,0,0,0-2.64,1,4.94,4.94,0,0,0-1,3.44v3.24a1.27,1.27,0,0,1-.64.5,2.46,2.46,0,0,1-1,.18,2.85,2.85,0,0,1-1-.18,1.27,1.27,0,0,1-.64-.5v-3.28a7.43,7.43,0,0,1,1.84-5.46,6.9,6.9,0,0,1,5-1.82,8.07,8.07,0,0,1,2.84.48,6.08,6.08,0,0,1,3.64,3.58,7.75,7.75,0,0,1,.52,2.9V747.4a1.83,1.83,0,0,0,.58,1.62A2.46,2.46,0,0,0,428,749.44Z"/><path class="cls-5" d="M127.16,797.44a4,4,0,0,0,.92-.08,6.53,6.53,0,0,0,.76-.2l.64,2.44a6.43,6.43,0,0,1-1.12.38,7.08,7.08,0,0,1-1.72.18,5.35,5.35,0,0,1-3.46-1,4,4,0,0,1-1.26-3.34v-6.36a5.39,5.39,0,0,1-.88.22,6.84,6.84,0,0,1-1.28.1,5.63,5.63,0,0,1-1.68-.28,4.48,4.48,0,0,1-1.6-.88v.28a6.13,6.13,0,0,1-1.8,4.8,6.64,6.64,0,0,1-4.68,1.64,8.46,8.46,0,0,1-2.78-.48,6.89,6.89,0,0,1-2.5-1.54,7.88,7.88,0,0,1-1.82-2.8,13.2,13.2,0,0,1,.12-8.82,11.09,11.09,0,0,1,2-3.18,8.44,8.44,0,0,1,2.48-1.92,7.34,7.34,0,0,1,2.28-.78l.84,2.8a6.91,6.91,0,0,0-1.32.54,6.47,6.47,0,0,0-1.68,1.3,7.63,7.63,0,0,0-1.44,2.3,9.09,9.09,0,0,0-.6,3.5,8.67,8.67,0,0,0,.42,2.9,5.52,5.52,0,0,0,1.08,1.9,3.9,3.9,0,0,0,1.44,1,3.67,3.67,0,0,0,1.5.32,3.52,3.52,0,0,0,2.48-.88,3.84,3.84,0,0,0,1-3v-7.2h3.2v4.32a3.31,3.31,0,0,0,1.14.78,4,4,0,0,0,1.66.34,3.56,3.56,0,0,0,1.44-.28,3.91,3.91,0,0,0,1-.6V776.1h3.28v19.28c0,.83.19,1.37.58,1.62A2.45,2.45,0,0,0,127.16,797.44Z"/><path class="cls-5" d="M130.56,808.32l-1.68,1.92-7.44-5.8,2.12-2.48Z"/><path class="cls-5" d="M137.4,775.8a11,11,0,0,1,3.36.5,7.64,7.64,0,0,1,2.7,1.5,7.06,7.06,0,0,1,1.78,2.44,8.08,8.08,0,0,1,.64,3.36,7.14,7.14,0,0,1-3,6.14,8.23,8.23,0,0,1-2.74,1.3,13.45,13.45,0,0,1-2.68.48l1.24,2.4a8.61,8.61,0,0,0,2,2.74,3.42,3.42,0,0,0,2.22.82,3.08,3.08,0,0,0,1.68-.4,9.43,9.43,0,0,0,.84-.56L147,798.8a5,5,0,0,1-1.62,1.08,6,6,0,0,1-2.46.48,7,7,0,0,1-3.72-1,8.44,8.44,0,0,1-3-3.66l-2.08-4.32a5.45,5.45,0,0,1-2.32-1.12,2.62,2.62,0,0,1-1-2.12,2.48,2.48,0,0,1,.28-1.22,2.66,2.66,0,0,1,.76-.84,4,4,0,0,1,1.08-.52,4.33,4.33,0,0,1,1.24-.18l2.36,3.28a8.45,8.45,0,0,0,2.06-.34,6.14,6.14,0,0,0,1.92-.9,5,5,0,0,0,1.4-1.5,4.2,4.2,0,0,0,.54-2.22,4.8,4.8,0,0,0-1.36-3.54,5,5,0,0,0-3.76-1.38,9.49,9.49,0,0,0-1.84.18,10.57,10.57,0,0,0-1.56.42l-.88-2.72a10.69,10.69,0,0,1,1.74-.56A11,11,0,0,1,137.4,775.8Z"/><path class="cls-5" d="M156.8,797.44a4,4,0,0,0,.92-.08,6.53,6.53,0,0,0,.76-.2l.64,2.44a6.5,6.5,0,0,1-1.12.4,7.08,7.08,0,0,1-1.72.18,5.35,5.35,0,0,1-3.46-1,4,4,0,0,1-1.26-3.34V776.16h3.28v19.28c0,.83.19,1.37.58,1.62A2.4,2.4,0,0,0,156.8,797.44Z"/><path class="cls-5" d="M175.6,768.24c.53,0,1.06,0,1.58.08l1.18.16-.4,2.88a8.49,8.49,0,0,0-.88-.14,12.21,12.21,0,0,0-1.48-.06,11.86,11.86,0,0,0-4.48.82,9.59,9.59,0,0,0-3.54,2.46,11.64,11.64,0,0,0-2.34,4.1,18,18,0,0,0-.84,5.78,21.87,21.87,0,0,0,.78,6.34,11.94,11.94,0,0,0,2,4,6.87,6.87,0,0,0,2.74,2.12,7.93,7.93,0,0,0,3,.62,5.59,5.59,0,0,0,3.68-1.1,3.71,3.71,0,0,0,1.32-3,3.85,3.85,0,0,0-1.18-2.92,4.85,4.85,0,0,0-3.46-1.12h-2.16v-2.84h2a5.17,5.17,0,0,0,3.4-1,3.48,3.48,0,0,0,.34-4.92,1.07,1.07,0,0,0-.14-.16,4,4,0,0,0-2.88-1,6.76,6.76,0,0,0-1.84.26,12.15,12.15,0,0,0-1.2.42l-1.08-2.52a11,11,0,0,1,1.68-.64,9.32,9.32,0,0,1,2.68-.36,7.14,7.14,0,0,1,5.16,1.72,6,6,0,0,1,1.76,4.44,5,5,0,0,1-.38,2,5.24,5.24,0,0,1-1,1.54,5,5,0,0,1-1.32,1.06,4.38,4.38,0,0,1-1.4.52,5,5,0,0,1,1.5.54,5.06,5.06,0,0,1,1.42,1.14,6,6,0,0,1,1.06,1.74,6.76,6.76,0,0,1-.14,5,6,6,0,0,1-1.62,2.12,7.67,7.67,0,0,1-2.62,1.42,11.08,11.08,0,0,1-3.52.52,12.5,12.5,0,0,1-4.32-.78,9.6,9.6,0,0,1-3.8-2.64,13.86,13.86,0,0,1-2.72-5,24.48,24.48,0,0,1-1-7.7,19.63,19.63,0,0,1,1.22-7.32,14.32,14.32,0,0,1,3.22-5A12.29,12.29,0,0,1,170.2,769,16.47,16.47,0,0,1,175.6,768.24Z"/><path class="cls-5" d="M203.32,797.44a4,4,0,0,0,.92-.08,6.53,6.53,0,0,0,.76-.2l.64,2.44a6.43,6.43,0,0,1-1.12.38,7.08,7.08,0,0,1-1.72.18,5.35,5.35,0,0,1-3.46-1,4,4,0,0,1-1.26-3.34V786.3h-7.6l.2,4a4,4,0,0,1-.92.42,4.46,4.46,0,0,1-1.36.18,3.5,3.5,0,0,1-2.56-1.12,4.13,4.13,0,0,1-1.12-3.08,3.08,3.08,0,0,1,.94-2.38,3.36,3.36,0,0,1,2.34-.86h10.08v-7.32h3.28v19.28c0,.83.19,1.37.58,1.62A2.42,2.42,0,0,0,203.32,797.44Z"/><path class="cls-5" d="M224.64,786.2h-.24a7.79,7.79,0,0,1-2.3-.32,5.7,5.7,0,0,1-2-1,4.76,4.76,0,0,1-1.9-3.94,5.05,5.05,0,0,1,.44-2.06,5,5,0,0,1,1.26-1.72,5.74,5.74,0,0,1,2-1.16,8,8,0,0,1,2.66-.42,7.64,7.64,0,0,1,2.8.52,6.92,6.92,0,0,1,2.32,1.52,7.36,7.36,0,0,1,1.58,2.46,9.08,9.08,0,0,1,.58,3.34,8.76,8.76,0,0,1-.82,3.84,10.42,10.42,0,0,1-5.06,4.92,12,12,0,0,1-3.32,1l1.52,2.16a4.51,4.51,0,0,0,4,2.16,4.38,4.38,0,0,0,1.44-.22,4.07,4.07,0,0,0,1-.5l1.32,2.4a5.83,5.83,0,0,1-1.6.84,8.27,8.27,0,0,1-6.1-.5,8.76,8.76,0,0,1-3.18-3.3l-1.68-2.72a4.38,4.38,0,0,1-2.36-1,2.59,2.59,0,0,1-.92-2.08,2.44,2.44,0,0,1,.82-2,3.66,3.66,0,0,1,2.22-.78l2.56,3a7.83,7.83,0,0,0,2.56-.68,7.25,7.25,0,0,0,2.18-1.5,7.14,7.14,0,0,0,1.5-2.26,7.51,7.51,0,0,0,.56-3,5.16,5.16,0,0,0-1.16-3.64,3.73,3.73,0,0,0-2.8-1.24,3.53,3.53,0,0,0-2.24.72,2.3,2.3,0,0,0-.92,1.92c0,1.66,1.25,2.56,3.76,2.72ZM242,797.44a4,4,0,0,0,.92-.08,6.53,6.53,0,0,0,.76-.2l.64,2.44a6.44,6.44,0,0,1-2.84.56,5.35,5.35,0,0,1-3.46-1,4,4,0,0,1-1.26-3.34V776.16H240v19.28c0,.83.19,1.37.58,1.62A2.33,2.33,0,0,0,242,797.44Z"/><path class="cls-5" d="M252.64,797.44a4,4,0,0,0,.92-.08,6.53,6.53,0,0,0,.76-.2l.64,2.44a6.44,6.44,0,0,1-2.84.56,5.35,5.35,0,0,1-3.46-1,4,4,0,0,1-1.26-3.34V775a9.77,9.77,0,0,1,.8-4.1,8.54,8.54,0,0,1,2.22-3,9.61,9.61,0,0,1,3.4-1.84,14.84,14.84,0,0,1,4.34-.62,14.27,14.27,0,0,1,5.48,1,18.78,18.78,0,0,1,4.5,2.62,19.8,19.8,0,0,1,5.58,7L271,777a24.75,24.75,0,0,0-2.54-3.56,16.15,16.15,0,0,0-3-2.72A14.7,14.7,0,0,0,262,769a11.72,11.72,0,0,0-3.76-.62,8.37,8.37,0,0,0-5.56,1.72,6.33,6.33,0,0,0-2,5.12v20.16c0,.83.19,1.37.58,1.62A2.4,2.4,0,0,0,252.64,797.44Z"/><path class="cls-5" d="M277.64,797.44a4,4,0,0,0,.92-.08,6.53,6.53,0,0,0,.76-.2l.64,2.44a6.44,6.44,0,0,1-2.84.56,5.35,5.35,0,0,1-3.46-1,4,4,0,0,1-1.26-3.34v-3.28a8.77,8.77,0,0,1-2.36,1.64,8.49,8.49,0,0,1-4,.8,10.37,10.37,0,0,1-3.74-.64,7.88,7.88,0,0,1-2.92-1.86,8.37,8.37,0,0,1-1.9-3,10.62,10.62,0,0,1-.68-3.94h1.28a5.89,5.89,0,0,0,3.78-1,3.27,3.27,0,0,0,1.22-2.68,3,3,0,0,0-1-2.44,3.61,3.61,0,0,0-2.4-.84,4.84,4.84,0,0,0-1.2.12,3.31,3.31,0,0,0-.68.2l-.8-2.6a8,8,0,0,1,1.08-.34,8.88,8.88,0,0,1,4.46.24,6.17,6.17,0,0,1,2,1.2,5.45,5.45,0,0,1,1.34,1.94,6.81,6.81,0,0,1,.48,2.6,5.69,5.69,0,0,1-.48,2.44,5.5,5.5,0,0,1-1.28,1.78,5.91,5.91,0,0,1-1.88,1.16,7.7,7.7,0,0,1-2.32.5,5.25,5.25,0,0,0,1.88,2.94,6,6,0,0,0,4,1.22,7.49,7.49,0,0,0,2.26-.32,6.42,6.42,0,0,0,1.76-.82,6.85,6.85,0,0,0,1.26-1.08,4.37,4.37,0,0,0,.76-1.14V776.16h3.28v19.28c0,.83.19,1.37.58,1.62A2.43,2.43,0,0,0,277.64,797.44Z"/><path class="cls-5" d="M288.24,797.44a4,4,0,0,0,.92-.08,6.53,6.53,0,0,0,.76-.2l.64,2.44a6.44,6.44,0,0,1-2.84.56,5.35,5.35,0,0,1-3.46-1A4,4,0,0,1,283,795.8V776.16h3.28v19.28c0,.83.19,1.37.58,1.62A2.33,2.33,0,0,0,288.24,797.44Z"/><path class="cls-5" d="M317.56,797.44a4,4,0,0,0,.92-.08,6.53,6.53,0,0,0,.76-.2l.64,2.44a6.44,6.44,0,0,1-2.84.56,5.35,5.35,0,0,1-3.46-1,4,4,0,0,1-1.26-3.34V782.6a4.26,4.26,0,0,0-.86-2.94,2.67,2.67,0,0,0-3.76-.31,3.15,3.15,0,0,0-.36.37,4.86,4.86,0,0,0-.86,3.2,25.16,25.16,0,0,0,.18,3,21.51,21.51,0,0,1,.18,2.78c0,2.38-.64,4.12-1.92,5.24A7.17,7.17,0,0,1,300,795.6a8.37,8.37,0,0,1-2.76-.46,6.2,6.2,0,0,1-2.48-1.58,7.87,7.87,0,0,1-1.8-3,12.85,12.85,0,0,1-.68-4.56,13.21,13.21,0,0,1,.72-4.66,10.09,10.09,0,0,1,1.78-3.1,7.43,7.43,0,0,1,2.22-1.8,7.94,7.94,0,0,1,2-.76l1.16,2.8a7.41,7.41,0,0,0-1.2.5,5.29,5.29,0,0,0-1.5,1.2,7.15,7.15,0,0,0-1.28,2.22,10.26,10.26,0,0,0-.54,3.6,11.24,11.24,0,0,0,.34,3,5.74,5.74,0,0,0,.94,2,3.64,3.64,0,0,0,1.4,1.18,3.9,3.9,0,0,0,1.68.38,3.51,3.51,0,0,0,2.54-.94,4.59,4.59,0,0,0,1-3.34,20.46,20.46,0,0,0-.2-2.82,18.48,18.48,0,0,1-.2-2.78,8.7,8.7,0,0,1,.52-3.2A5.81,5.81,0,0,1,305,777.4a5.29,5.29,0,0,1,2-1.22,7.2,7.2,0,0,1,2.3-.38,5.8,5.8,0,0,1,4.74,1.92,7.64,7.64,0,0,1,1.58,5v12.76c0,.83.19,1.37.58,1.62A2.32,2.32,0,0,0,317.56,797.44Z"/><path class="cls-5" d="M330.4,788.48l5.08-1.44a7.63,7.63,0,0,1-2.42-2.1,4.78,4.78,0,0,1-.94-2.94,5.77,5.77,0,0,1,.5-2.42,5.42,5.42,0,0,1,1.48-2,7.14,7.14,0,0,1,2.42-1.32,10.15,10.15,0,0,1,3.28-.48,14.49,14.49,0,0,1,2.94.26c.81.18,1.47.34,2,.5l-.68,2.76c-.46-.13-1-.28-1.74-.44a10.51,10.51,0,0,0-2.3-.24,5,5,0,0,0-3.36,1,3.39,3.39,0,0,0-.16,5,7.78,7.78,0,0,0,2.24,1.52l8.68-2.92,1,2.88-6,1.76a8.51,8.51,0,0,1,3.46,2.58,5.55,5.55,0,0,1,1.12,3.4,6.33,6.33,0,0,1-.5,2.54,6,6,0,0,1-1.48,2.08,7.15,7.15,0,0,1-2.5,1.42,11,11,0,0,1-3.56.52,9.43,9.43,0,0,1-4.66-1.08,7.17,7.17,0,0,1-2.82-2.56l2.36-1.92a5.6,5.6,0,0,0,2,1.9,7,7,0,0,0,5.24.42,4.27,4.27,0,0,0,1.48-.84,3.36,3.36,0,0,0,1.14-2.52,3.87,3.87,0,0,0-1.24-2.84,11.61,11.61,0,0,0-3.28-2.12l-7.76,2.52Z"/><path class="cls-5" d="M342.44,799.44a6.66,6.66,0,0,1,3.24.78,9.66,9.66,0,0,1,2.64,2.16,20.21,20.21,0,0,1,2.26,3.24c.7,1.24,1.42,2.58,2.14,4l-2.68,1.2c-.64-1.22-1.25-2.36-1.82-3.4a22.17,22.17,0,0,0-1.76-2.72,8.55,8.55,0,0,0-1.88-1.82,3.76,3.76,0,0,0-2.18-.66,2.82,2.82,0,0,0-2,.72,2.58,2.58,0,0,0-.78,2,2.49,2.49,0,0,0,.74,1.88,2.72,2.72,0,0,0,2,.72,3.06,3.06,0,0,0,1-.14,5,5,0,0,0,.76-.3l1.16,2.52a4.81,4.81,0,0,1-1.36.58,6.35,6.35,0,0,1-1.68.22,7,7,0,0,1-2.22-.34,5.17,5.17,0,0,1-1.88-1,4.59,4.59,0,0,1-1.3-1.72,5.69,5.69,0,0,1-.48-2.44,5.3,5.3,0,0,1,.52-2.42,5.12,5.12,0,0,1,1.36-1.7,5.78,5.78,0,0,1,1.92-1A7.39,7.39,0,0,1,342.44,799.44Z"/><path class="cls-5" d="M352.56,792.92a6.17,6.17,0,0,1,1.64-4.36,5.81,5.81,0,0,1,1.36-1.1,4.2,4.2,0,0,1,1.12-.46,5,5,0,0,1-1.22-.44,4.18,4.18,0,0,1-1.24-.92,4.92,4.92,0,0,1-1-1.5,5.25,5.25,0,0,1-.4-2.14,5.84,5.84,0,0,1,.6-2.72,5.58,5.58,0,0,1,1.64-1.94,7.22,7.22,0,0,1,2.4-1.16,10.8,10.8,0,0,1,2.88-.38,13,13,0,0,1,3.68.42c.9.28,1.5.49,1.8.62l-.88,2.64c-.27-.1-.8-.27-1.6-.5a10.1,10.1,0,0,0-2.68-.34,4.84,4.84,0,0,0-3.4,1,3.33,3.33,0,0,0-1.12,2.56,3.12,3.12,0,0,0,1,2.36,4,4,0,0,0,2.92,1h4.4v2.88h-3.92a4.81,4.81,0,0,0-3.36,1.18,4.25,4.25,0,0,0-1.28,3.3,4,4,0,0,0,1.4,3.3,5.23,5.23,0,0,0,3.52,1.18,5.42,5.42,0,0,0,3.2-.88,6.38,6.38,0,0,0,2-2.12l2.6,1.52a7.08,7.08,0,0,1-3,3.24,9.61,9.61,0,0,1-4.92,1.16,10.21,10.21,0,0,1-3.06-.44,7.12,7.12,0,0,1-2.58-1.36,6.58,6.58,0,0,1-1.8-2.32A7.29,7.29,0,0,1,352.56,792.92Z"/><path class="cls-5" d="M370.64,788.48l5.08-1.44a7.63,7.63,0,0,1-2.42-2.1,4.78,4.78,0,0,1-.94-2.94,5.77,5.77,0,0,1,.5-2.42,5.42,5.42,0,0,1,1.48-2,7.14,7.14,0,0,1,2.42-1.32,10.15,10.15,0,0,1,3.28-.48A14.49,14.49,0,0,1,383,776c.81.18,1.47.34,2,.5l-.68,2.76c-.46-.13-1-.28-1.74-.44a10.51,10.51,0,0,0-2.3-.24,5,5,0,0,0-3.36,1,3.39,3.39,0,0,0-.16,5A7.78,7.78,0,0,0,379,786.1l8.68-2.92,1,2.88-6,1.76a8.51,8.51,0,0,1,3.46,2.58,5.59,5.59,0,0,1,1.18,3.38,6.33,6.33,0,0,1-.5,2.54,6,6,0,0,1-1.48,2.08,7.15,7.15,0,0,1-2.5,1.42,11,11,0,0,1-3.56.52,9.32,9.32,0,0,1-4.66-1.08,7.17,7.17,0,0,1-2.82-2.56l2.22-1.9a5.6,5.6,0,0,0,2,1.9,7,7,0,0,0,5.24.42,4.27,4.27,0,0,0,1.48-.84,3.36,3.36,0,0,0,1.14-2.52,3.87,3.87,0,0,0-1.24-2.84,11.61,11.61,0,0,0-3.28-2.12l-7.76,2.52Z"/><path class="cls-5" d="M398.36,797.44a4,4,0,0,0,.92-.08,6.53,6.53,0,0,0,.76-.2l.64,2.44a6.44,6.44,0,0,1-2.84.56,5.35,5.35,0,0,1-3.46-1,4,4,0,0,1-1.26-3.34V776.16h3.28v19.28c0,.83.19,1.37.58,1.62A2.33,2.33,0,0,0,398.36,797.44Z"/><rect class="cls-7" x="1250" y="50" width="800" height="800"/><g class="cls-8"><path class="cls-9" d="M1648.8,223.05q34.83,0,64.48,11.44a145.85,145.85,0,0,1,51.22,33q21.57,21.58,33.8,53.3t12.22,72.28q0,57.21-25.22,98.28t-71,66l-60.84,33.8a103.33,103.33,0,0,1,22.1,4.42q10.65,3.38,22.36,7.28t24.44,7A119.08,119.08,0,0,0,1750.7,613a80.25,80.25,0,0,0,25.48-4.16q12.48-4.17,20.28-10.4l25,47.84q-8.85,7.28-26.52,14.56t-42.64,7.28a164.38,164.38,0,0,1-41.08-4.94q-19.24-5-36.92-10.92T1640,641.39a118,118,0,0,0-33.8-4.94,107.21,107.21,0,0,0-28.08,3.38A101.3,101.3,0,0,0,1552.6,651l-23.92-44.72,84.24-48.36q-58.25-10.39-92.56-53T1486,393.09q0-39.51,12.22-71t34.06-53.56a147.27,147.27,0,0,1,51.74-33.8Q1614,223,1648.8,223.05Zm-87.36,169.52q0,29.13,6.76,51t18.2,36.66a72.89,72.89,0,0,0,27,22.1,79.25,79.25,0,0,0,96.2-22.62q12-14.82,18.72-36.66t6.76-50.44q0-30.15-7-52t-18.72-35.88a72.32,72.32,0,0,0-27.82-20.8,86.76,86.76,0,0,0-33.8-6.76,81.44,81.44,0,0,0-33.8,7,73.73,73.73,0,0,0-27.3,21.58q-11.7,14.56-18.46,36.14t-6.74,50.68Z"/><path class="cls-10" d="M1648.8,223.05q34.83,0,64.48,11.44a145.85,145.85,0,0,1,51.22,33q21.57,21.58,33.8,53.3t12.22,72.28q0,57.21-25.22,98.28t-71,66l-60.84,33.8a104,104,0,0,1,22.1,4.42q10.65,3.38,22.36,7.28t24.44,7a119,119,0,0,0,27.12,3.13h1.22a80.25,80.25,0,0,0,25.48-4.16q12.48-4.17,20.28-10.4l25,47.84q-8.85,7.28-26.52,14.56t-42.57,7.28h-1.09a165,165,0,0,1-40.06-4.94q-19.24-5-36.92-10.92T1640,641.39a117.82,117.82,0,0,0-33.78-4.94h-1.36a107.23,107.23,0,0,0-26.74,3.39A101.3,101.3,0,0,0,1552.6,651l-23.92-44.72,84.24-48.36q-58.25-10.39-92.56-53T1486,393.09q0-39.51,12.22-71t34.06-53.56a147.27,147.27,0,0,1,51.74-33.8q30-11.68,64.78-11.68m-87.36,169.52h0q0,29.13,6.76,51t18.2,36.66a72.89,72.89,0,0,0,27,22.1,79.23,79.23,0,0,0,96.2-22.62q12-14.82,18.72-36.66t6.76-50.44q0-30.15-7-52t-18.72-35.88a72.32,72.32,0,0,0-27.82-20.8,86.75,86.75,0,0,0-33.56-6.76h-1a81.34,81.34,0,0,0-33,7,73.73,73.73,0,0,0-27.3,21.58q-11.7,14.56-18.46,36.14t-6.74,50.68m87.36-170.52c-23.22,0-45.13,3.95-65.14,11.75a147.24,147.24,0,0,0-52.09,34c-14.59,14.74-26.12,32.87-34.28,53.9s-12.29,45-12.29,71.36c0,46.17,11.67,84,34.58,112.46,22.39,27.81,52.83,45.58,90.48,52.86l-81.88,47-.84.49.46.85,23.92,44.72.5.94.9-.56a100,100,0,0,1,25.27-11.06,106.35,106.35,0,0,1,26.47-3.35h1.33a116.9,116.9,0,0,1,33.52,4.9c11,3.26,22.56,6.9,34.27,10.83s24.19,7.61,37,10.94a166.1,166.1,0,0,0,40.31,5h1.09c16.67,0,31.12-2.47,43-7.36s20.83-9.82,26.77-14.71l.63-.51-.37-.72-25-47.84-.57-1.08-.94.76c-5.09,4.06-11.81,7.5-20,10.23A78.82,78.82,0,0,1,1750.7,612h-1.22a118.71,118.71,0,0,1-26.89-3.1c-8.41-2-16.61-4.4-24.35-7s-15.3-5-22.38-7.28a105.17,105.17,0,0,0-19.14-4.14l58.07-32.26c30.52-16.62,54.53-38.94,71.36-66.35s25.37-60.65,25.37-98.8c0-27-4.13-51.48-12.29-72.64s-19.61-39.23-34-53.65a145.94,145.94,0,0,0-51.58-33.23c-19.78-7.63-41.59-11.5-64.83-11.5ZM1647.28,509a77.57,77.57,0,0,1-33.45-7.53,72.18,72.18,0,0,1-26.63-21.8c-7.53-9.73-13.59-22-18-36.36s-6.72-31.47-6.72-50.7h0c0-19.21,2.24-36.16,6.69-50.38s10.6-26.25,18.29-35.81a73,73,0,0,1,26.94-21.3,79.76,79.76,0,0,1,32.61-6.91h1a85.3,85.3,0,0,1,33.17,6.68,71.6,71.6,0,0,1,27.44,20.51c7.7,9.22,13.93,21.18,18.54,35.56s6.95,31.79,6.95,51.69c0,18.88-2.29,35.75-6.72,50.15s-10.66,26.59-18.54,36.32A77.84,77.84,0,0,1,1647.28,509Z"/></g><g class="cls-6"><path class="cls-9" d="M1304.59,100a5.73,5.73,0,0,1,3.47,1,3.09,3.09,0,0,1,1.28,2.66,2.8,2.8,0,0,1-.23,1.14,2.88,2.88,0,0,1-.6.87,3.74,3.74,0,0,1-.81.61,4.18,4.18,0,0,1-.91.35,4.66,4.66,0,0,1,1.15.36,3.38,3.38,0,0,1,1,.67,3.11,3.11,0,0,1,.64,1,3.58,3.58,0,0,1,.23,1.33,3.47,3.47,0,0,1-.38,1.58,3.73,3.73,0,0,1-1.06,1.24,5.33,5.33,0,0,1-1.68.81,7.5,7.5,0,0,1-2.16.29h-4.84V100Zm-1.94,5.54h1.43a2.56,2.56,0,0,0,1.57-.43,1.49,1.49,0,0,0,.59-1.28,1.33,1.33,0,0,0-.54-1.16,2.73,2.73,0,0,0-1.55-.38h-1.5Zm0,6h1.43a3.53,3.53,0,0,0,1.85-.43,1.6,1.6,0,0,0,.73-1.48,1.49,1.49,0,0,0-.78-1.42,3.75,3.75,0,0,0-1.89-.43h-1.34Z"/><path class="cls-9" d="M1314.38,100h9v2.33h-6v3.17h5.44v2.31h-5.44v3.72h6.07v2.33h-9.08Z"/><path class="cls-9" d="M1332.44,99.76a10,10,0,0,1,2.37.26,9.32,9.32,0,0,1,1.85.68L1336,103a9.19,9.19,0,0,0-1.74-.67,5.93,5.93,0,0,0-1.62-.23,2.85,2.85,0,0,0-1.64.41,1.32,1.32,0,0,0-.59,1.13,1.28,1.28,0,0,0,.51,1.1,5.67,5.67,0,0,0,1.63.72l1.32.42a6,6,0,0,1,2.58,1.56,3.58,3.58,0,0,1,.94,2.49,4.23,4.23,0,0,1-.33,1.65,3.69,3.69,0,0,1-1,1.34,4.84,4.84,0,0,1-1.65.9,7.55,7.55,0,0,1-2.31.33,10.25,10.25,0,0,1-4.56-1l.68-2.24a12.17,12.17,0,0,0,1.85.71,6.79,6.79,0,0,0,1.9.25,3,3,0,0,0,1.75-.43,1.38,1.38,0,0,0,.6-1.19,1.3,1.3,0,0,0-.1-.52,1.22,1.22,0,0,0-.36-.48,3.88,3.88,0,0,0-.72-.47,8.3,8.3,0,0,0-1.17-.45l-1.17-.39a9.88,9.88,0,0,1-1.41-.62,4.83,4.83,0,0,1-1.09-.81,3.5,3.5,0,0,1-.7-1.09,3.9,3.9,0,0,1-.26-1.47,4.11,4.11,0,0,1,.34-1.66,3.58,3.58,0,0,1,1-1.31,4.88,4.88,0,0,1,1.61-.85A7.14,7.14,0,0,1,1332.44,99.76Z"/><path class="cls-9" d="M1348.21,99.76a7.48,7.48,0,0,1,2.73.48,5.92,5.92,0,0,1,2.16,1.4,6.71,6.71,0,0,1,1.42,2.25A8.65,8.65,0,0,1,1355,107a8.11,8.11,0,0,1-.52,3,6.72,6.72,0,0,1-1.46,2.25,6.22,6.22,0,0,1-2.19,1.42,7.51,7.51,0,0,1-2.74.49,7.64,7.64,0,0,1-2.72-.47,6,6,0,0,1-2.16-1.39,6.57,6.57,0,0,1-1.42-2.24,8.54,8.54,0,0,1-.52-3,8.32,8.32,0,0,1,.53-3,6.8,6.8,0,0,1,1.46-2.27,6.21,6.21,0,0,1,2.18-1.43A7.57,7.57,0,0,1,1348.21,99.76ZM1344.5,107a6.81,6.81,0,0,0,.29,2.15,4.42,4.42,0,0,0,.81,1.51,3.07,3.07,0,0,0,1.17.91,3.78,3.78,0,0,0,1.44.29,3.64,3.64,0,0,0,1.42-.29,3.12,3.12,0,0,0,1.16-.91,4.5,4.5,0,0,0,.77-1.51,8.44,8.44,0,0,0,0-4.35,4.59,4.59,0,0,0-.81-1.53,3,3,0,0,0-1.17-.89,3.6,3.6,0,0,0-1.45-.28,3.48,3.48,0,0,0-1.42.3,3.21,3.21,0,0,0-1.15.92,4.69,4.69,0,0,0-.77,1.53A7.43,7.43,0,0,0,1344.5,107Z"/><path class="cls-9" d="M1359.63,100h2.75l4.77,7.3c.33.5.62,1,.9,1.47a10.4,10.4,0,0,1,.58,1.11h0c-.09-1-.13-1.9-.13-2.85v-7h2.79v13.86h-2.75l-4.44-6.73c-.19-.3-.38-.6-.56-.92s-.36-.61-.52-.91l-.43-.8a6.65,6.65,0,0,1-.27-.61h0c.08,1,.12,2,.13,2.92s0,1.88,0,2.85v4.2h-2.82Z"/><path class="cls-9" d="M1381.41,100a9.71,9.71,0,0,1,2.93.42,6.2,6.2,0,0,1,2.26,1.25,5.68,5.68,0,0,1,1.47,2.08,7.5,7.5,0,0,1,.51,2.89,7.89,7.89,0,0,1-.61,3.25,6.27,6.27,0,0,1-1.68,2.24,6.48,6.48,0,0,1-2.47,1.31,10.81,10.81,0,0,1-3,.42h-4.25V100Zm-1.83,11.53h1a7.2,7.2,0,0,0,1.79-.23,3.88,3.88,0,0,0,1.53-.8,4,4,0,0,0,1.1-1.5,6.18,6.18,0,0,0,.39-2.37,4.17,4.17,0,0,0-1.18-3.2,4.51,4.51,0,0,0-3.2-1.11h-1.43Z"/><path class="cls-9" d="M1393.16,100h9v2.33h-6v3.17h5.44v2.31h-5.44v3.72h6.07v2.33h-9.08Z"/><path class="cls-9" d="M1406.73,100H1412a5.79,5.79,0,0,1,2.06.34,4.38,4.38,0,0,1,1.48.92,3.57,3.57,0,0,1,.89,1.37,4.84,4.84,0,0,1,.3,1.68,4,4,0,0,1-.25,1.49,4.17,4.17,0,0,1-.64,1.12,4.3,4.3,0,0,1-.86.79,6.29,6.29,0,0,1-.91.52l3.39,5.63H1414l-2.66-5.1h-1.61v5.1h-3Zm3,6.45h1.19a3.52,3.52,0,0,0,1.95-.49,1.75,1.75,0,0,0,.76-1.6,1.91,1.91,0,0,0-.61-1.53,2.56,2.56,0,0,0-1.77-.54h-1.52Z"/><path class="cls-9" d="M1421.49,100h9v2.33h-6v3.17h5.43v2.31h-5.43v3.72h6.07v2.33h-9.09Z"/><path class="cls-9" d="M1439.56,99.76a10,10,0,0,1,2.37.26,9.32,9.32,0,0,1,1.85.68l-.68,2.25a9.19,9.19,0,0,0-1.74-.67,6,6,0,0,0-1.63-.23,2.85,2.85,0,0,0-1.64.41,1.35,1.35,0,0,0-.58,1.13,1.28,1.28,0,0,0,.51,1.1,5.73,5.73,0,0,0,1.62.72l1.32.42a6.06,6.06,0,0,1,2.59,1.56,3.57,3.57,0,0,1,.93,2.49,3.9,3.9,0,0,1-.33,1.65,3.69,3.69,0,0,1-1,1.34,4.84,4.84,0,0,1-1.65.9,7.55,7.55,0,0,1-2.31.33,10.24,10.24,0,0,1-4.55-1l.68-2.24a11.21,11.21,0,0,0,1.85.71,7.11,7.11,0,0,0,1.89.25,3,3,0,0,0,1.76-.43,1.38,1.38,0,0,0,.6-1.19,1.55,1.55,0,0,0-.1-.52,1.24,1.24,0,0,0-.37-.48,3.36,3.36,0,0,0-.71-.47,8.43,8.43,0,0,0-1.18-.45l-1.16-.39a8.87,8.87,0,0,1-1.41-.62,4.55,4.55,0,0,1-1.09-.81,3.29,3.29,0,0,1-.7-1.09,3.9,3.9,0,0,1-.26-1.47,4.1,4.1,0,0,1,.33-1.66,3.67,3.67,0,0,1,1-1.31,4.54,4.54,0,0,1,1.61-.85A7,7,0,0,1,1439.56,99.76Z"/><path class="cls-9" d="M1457.2,100h3.8l2,6.31c.08.28.18.58.27.91s.19.64.28,1,.17.64.24,1,.13.59.18.86h.08a3.91,3.91,0,0,1,.18-.83c.08-.32.15-.64.24-1s.18-.66.26-1,.17-.61.25-.88l1.91-6.31h3.81l1,13.86h-2.84c-.09-1.53-.17-3-.26-4.58s-.15-3.06-.18-4.62v-1.8h-.07c-.19.81-.39,1.65-.62,2.53s-.45,1.65-.65,2.31l-2,6.16h-2.33l-2-6.18c-.25-.79-.49-1.63-.71-2.51s-.39-1.65-.53-2.31h-.06v1.66l-.06,1.73q0,.85-.06,1.68a9.31,9.31,0,0,1-.08,1.51l-.27,4.42h-2.79Z"/><path class="cls-9" d="M1476.85,100h9v2.33h-6v3.17h5.43v2.31h-5.43v3.72h6.07v2.33h-9.08Z"/><path class="cls-9" d="M1490.42,100h5.26a5.79,5.79,0,0,1,2.06.34,4.55,4.55,0,0,1,1.48.92,3.77,3.77,0,0,1,.89,1.37,4.84,4.84,0,0,1,.3,1.68,4.2,4.2,0,0,1-.25,1.49,4.45,4.45,0,0,1-.64,1.12,4.3,4.3,0,0,1-.86.79,6.29,6.29,0,0,1-.91.52l3.38,5.63h-3.45l-2.66-5.1h-1.61v5.1h-3Zm3,6.45h1.19a3.67,3.67,0,0,0,2-.49,1.78,1.78,0,0,0,.76-1.6,2,2,0,0,0-.61-1.53,2.56,2.56,0,0,0-1.77-.54h-1.52Z"/><path class="cls-9" d="M1505.18,113.86V100h3v5.83L1513,100h3.74l-5.17,6,5.61,7.81h-3.72l-4.09-5.92-1.14,1.21v4.71Z"/><path class="cls-9" d="M1521.73,100h3.8l2,6.31c.09.28.18.58.28.91l.27,1c.09.33.17.64.24,1a6.25,6.25,0,0,1,.18.86h.09a4.53,4.53,0,0,1,.17-.83c.07-.32.16-.64.25-1s.17-.66.26-1,.17-.61.24-.88l1.92-6.31h3.8l1,13.86h-2.84l-.27-4.58c-.08-1.52-.14-3.06-.17-4.62v-1.8h-.07c-.19.81-.4,1.65-.63,2.53s-.44,1.65-.65,2.31l-1.95,6.16h-2.34l-2-6.18c-.25-.79-.48-1.63-.7-2.51s-.4-1.65-.53-2.31H1524v3.39a13.33,13.33,0,0,1-.07,1.68c-.07.55,0,1-.08,1.51l-.26,4.42h-2.79Z"/><path class="cls-9" d="M1545.29,100h3.12l5.13,13.86h-3.19l-1.08-3.19h-4.93l-1.08,3.19h-3.14Zm-.27,8.45h3.52l-.63-1.85c-.21-.57-.4-1.15-.58-1.73s-.34-1.16-.5-1.75h0c-.16.56-.33,1.13-.52,1.71s-.39,1.17-.6,1.77Z"/><path class="cls-9" d="M1557.5,100h3v11.48h5.59v2.38h-8.6Z"/></g></svg>