<svg id="Ebene_1" data-name="Ebene 1" xmlns="http://www.w3.org/2000/svg" xmlns:xlink="http://www.w3.org/1999/xlink" viewBox="0 0 2100 900"><defs><style>.cls-1{fill:url(#Unbenannter_Verlauf_3);}.cls-2{clip-path:url(#clip-path);}.cls-3{fill:url(#Unbenannter_Verlauf_3-3);}.cls-4{fill:#fff;}.cls-5{opacity:0.5;}.cls-6{fill:#dc465a;}</style><linearGradient id="Unbenannter_Verlauf_3" y1="450" x2="2100" y2="450" gradientUnits="userSpaceOnUse"><stop offset="0" stop-color="#dc465a"/><stop offset="1" stop-color="#dc465a"/></linearGradient><clipPath id="clip-path"><rect class="cls-1" width="2100" height="900"/></clipPath><linearGradient id="Unbenannter_Verlauf_3-3" x1="67.64" y1="1019.16" x2="2032.36" y2="-115.16" gradientTransform="matrix(1, 0, 0, -1, 0, 902)" xlink:href="#Unbenannter_Verlauf_3"/></defs><title>Zeichenfläche 1</title><g id="Ebene_3" data-name="Ebene 3"><rect class="cls-1" width="2100" height="900"/><g class="cls-2"><rect class="cls-3" width="2100" height="900"/></g></g><path class="cls-4" d="M159.88,165v13H138.52V240.6H122.08V178H101.2V165Z"/><path class="cls-4" d="M183.16,240.6h-16V154.92h16v33.6a31.68,31.68,0,0,1,8-4.56,26.09,26.09,0,0,1,9.78-1.8,23.82,23.82,0,0,1,8.82,1.5,16.53,16.53,0,0,1,6.24,4.2,17.2,17.2,0,0,1,3.66,6.48,27,27,0,0,1,1.2,8.22v38h-16V205.32q0-5.88-2.4-8.4t-7-2.52a15.46,15.46,0,0,0-6.42,1.5,21.33,21.33,0,0,0-5.94,4Z"/><path class="cls-4" d="M285.28,216.12h-38v.48q0,6.84,4.8,10.2t12.36,3.36a33.5,33.5,0,0,0,8.46-1,44.71,44.71,0,0,0,6.66-2.28l2.88,11.16a39.7,39.7,0,0,1-8.16,2.7,52.1,52.1,0,0,1-11.64,1.14,41.51,41.51,0,0,1-12.18-1.74,27.81,27.81,0,0,1-10-5.34,25.71,25.71,0,0,1-6.78-9.12,31.59,31.59,0,0,1-2.52-13.2,36,36,0,0,1,2-12.42,27.09,27.09,0,0,1,5.82-9.54,26.63,26.63,0,0,1,9.06-6.18,30.06,30.06,0,0,1,11.76-2.22q11.64,0,18.54,7.08t6.9,19.8ZM269,205.2a18.24,18.24,0,0,0-.54-4.44,10.59,10.59,0,0,0-1.74-3.78,8.89,8.89,0,0,0-3-2.58,9.34,9.34,0,0,0-4.44-1,10.52,10.52,0,0,0-7.92,3.24,14.46,14.46,0,0,0-3.72,8.76Z"/><path class="cls-4" d="M358.72,237.72a16.35,16.35,0,0,1-6.12,3.12,28.5,28.5,0,0,1-18.66-1.08,23.3,23.3,0,0,1-8.28-6.12,27.22,27.22,0,0,1-5.22-9.48,39.33,39.33,0,0,1-1.8-12.24,37.94,37.94,0,0,1,1.8-11.94,27.3,27.3,0,0,1,5.22-9.42,23.8,23.8,0,0,1,8.34-6.18,27.83,27.83,0,0,1,19.92-.72,17.27,17.27,0,0,1,7.32,4.62l1.08-4.92h12.36V268.2h-16Zm0-38.64a15.22,15.22,0,0,0-4.2-3.66,11.69,11.69,0,0,0-6.24-1.62,14.23,14.23,0,0,0-5.22,1,10.88,10.88,0,0,0-4.32,3.12,15.72,15.72,0,0,0-2.94,5.52,26.89,26.89,0,0,0-1.08,8.16q0,9.24,4,13.92a12.32,12.32,0,0,0,9.66,4.68,13.58,13.58,0,0,0,10.32-4.44Z"/><path class="cls-4" d="M425.08,183.36h16V240.6H429.16l-1.68-6.48H427a35.72,35.72,0,0,1-3.06,2.7,22.16,22.16,0,0,1-4.08,2.52,26.35,26.35,0,0,1-5.28,1.86,27.52,27.52,0,0,1-6.54.72q-9.24,0-14.58-5.16t-5.34-15.24V183.36h16V220.2q0,5.16,2.46,7.44a8.9,8.9,0,0,0,6.3,2.28,14.31,14.31,0,0,0,7.38-1.8,16.27,16.27,0,0,0,4.86-4.2Z"/><path class="cls-4" d="M463.6,171.12a8.46,8.46,0,0,1-6.36-2.34,8.57,8.57,0,0,1,0-11.64,9.73,9.73,0,0,1,12.66,0,7.9,7.9,0,0,1,2.34,5.82,8,8,0,0,1-2.28,5.82A8.49,8.49,0,0,1,463.6,171.12Zm-8,69.48V183.36h16V240.6Z"/><path class="cls-4" d="M516.15,230.16a20.66,20.66,0,0,0,6.78-1,41.51,41.51,0,0,0,4.86-2l3,11a31.83,31.83,0,0,1-7,2.52,39.07,39.07,0,0,1-10,1.2A37.37,37.37,0,0,1,501.75,240a27.41,27.41,0,0,1-9.78-5.7,27,27,0,0,1-6.54-9.3,34.77,34.77,0,0,1-.12-25.08,27.36,27.36,0,0,1,16.2-15.6,35.61,35.61,0,0,1,12.6-2.16,45.94,45.94,0,0,1,7.86.72,29.77,29.77,0,0,1,8.7,3.12l-3.36,11a26.74,26.74,0,0,0-5.46-2.34,20.19,20.19,0,0,0-5.94-.9q-7.44,0-12.06,4.56t-4.62,13.32a22.32,22.32,0,0,0,1.5,8.7,15.83,15.83,0,0,0,3.9,5.7,14.69,14.69,0,0,0,5.4,3.12A20,20,0,0,0,516.15,230.16Z"/><path class="cls-4" d="M556.35,221.4v19.2H540.51V154.92h15.84V205.8l19.2-22.44h19.32l-22.08,24.12L596,240.6H577.11L561,216.72Z"/><path class="cls-4" d="M685.59,212.16a35.45,35.45,0,0,1-2,12.36,28,28,0,0,1-5.64,9.42,23.93,23.93,0,0,1-8.52,5.94,27.61,27.61,0,0,1-10.68,2,23.8,23.8,0,0,1-9.6-1.74,21.64,21.64,0,0,1-7-4.86h-.48l-1.08,5.28H629.07V154.92h15.84V188a22,22,0,0,1,7-4.32,23.51,23.51,0,0,1,8.58-1.56q11.76,0,18.42,7.92T685.59,212.16Zm-16.44.36q0-8.88-3.48-13.5a11.6,11.6,0,0,0-9.84-4.62,12.52,12.52,0,0,0-6.24,1.62,15.93,15.93,0,0,0-4.56,3.66V226a12.46,12.46,0,0,0,4,3,11.75,11.75,0,0,0,5.22,1.2,14.89,14.89,0,0,0,5.58-1.08,13.78,13.78,0,0,0,4.8-3.24,15.11,15.11,0,0,0,3.3-5.46A23,23,0,0,0,669.15,212.52Z"/><path class="cls-4" d="M695.79,240.6V183.36h12.36l1.8,10.32a21.24,21.24,0,0,1,6.48-8,17.54,17.54,0,0,1,11.16-3.48,18.41,18.41,0,0,1,4.92.6,15.31,15.31,0,0,1,3.6,1.44l-2.64,12.6a15.22,15.22,0,0,0-3.36-1.26,18.89,18.89,0,0,0-4.8-.54,13.27,13.27,0,0,0-9.78,3.9q-3.9,3.9-3.9,12.78V240.6Z"/><path class="cls-4" d="M794.07,211.56a33.68,33.68,0,0,1-2.28,12.72,27.4,27.4,0,0,1-6.3,9.54,27.88,27.88,0,0,1-9.42,6,31.83,31.83,0,0,1-11.64,2.1A34,34,0,0,1,752.85,240a25.34,25.34,0,0,1-15.36-14.82,32.74,32.74,0,0,1-2.22-12.42,34.84,34.84,0,0,1,2.28-13,26.66,26.66,0,0,1,15.72-15.54,32.67,32.67,0,0,1,11.64-2,34,34,0,0,1,11.58,1.92,26.35,26.35,0,0,1,9.24,5.58,25.34,25.34,0,0,1,6.12,9.18A33.9,33.9,0,0,1,794.07,211.56Zm-16.44.6a28.57,28.57,0,0,0-1.08-8.4,16.24,16.24,0,0,0-2.88-5.64,11.07,11.07,0,0,0-4.2-3.18,12.47,12.47,0,0,0-4.92-1,13,13,0,0,0-4.8.9,10.4,10.4,0,0,0-4.08,3,15.57,15.57,0,0,0-2.88,5.58,30,30,0,0,0-1.08,8.76,27,27,0,0,0,1.08,8.1,15.68,15.68,0,0,0,2.94,5.58,12.39,12.39,0,0,0,4.2,3.24,11.47,11.47,0,0,0,4.86,1.08,13,13,0,0,0,4.8-.9,10.18,10.18,0,0,0,4.08-3.06,16.28,16.28,0,0,0,2.88-5.58A28.44,28.44,0,0,0,777.63,212.16Z"/><path class="cls-4" d="M797.55,183.36h16.68l7.32,30.36,2.16,15h.48l2.52-15,7.08-30.36h16.8l7.2,30.36,2.52,15h.48l2.52-15,7.08-30.36h16.2L870.75,240.6h-18.6l-7.44-31-2.52-13.8-2.64,13.8-7.44,31h-18.6Z"/><path class="cls-4" d="M909.51,240.6h-16V183.36H906l1.92,7.32a29.61,29.61,0,0,1,8.7-6.3,24.45,24.45,0,0,1,10.5-2.22q9.48,0,14.52,5.16t5,15V240.6h-16V204a10.6,10.6,0,0,0-2.16-7,7.82,7.82,0,0,0-6.36-2.58,14.43,14.43,0,0,0-6.54,1.74,21.81,21.81,0,0,0-6.18,4.74Z"/><path class="cls-4" d="M130.6,298.8a32.39,32.39,0,0,1,8.52,1.14,30.71,30.71,0,0,1,7.32,2.94l-3.12,10.44a34.59,34.59,0,0,0-4.08-1.62,14.35,14.35,0,0,0-4.44-.66q-4.2,0-6.24,2.46t-2,8.34v5.52h14.4v11.52h-14.4V384.6H110.68V338.88h-8.76V327.36h8.76v-8.88q0-9.6,5.4-14.64T130.6,298.8Z"/><path class="cls-4" d="M203.56,355.56a33.68,33.68,0,0,1-2.28,12.72,27.4,27.4,0,0,1-6.3,9.54,27.88,27.88,0,0,1-9.42,6,31.83,31.83,0,0,1-11.64,2.1A34,34,0,0,1,162.34,384,25.34,25.34,0,0,1,147,369.18a32.74,32.74,0,0,1-2.22-12.42,34.84,34.84,0,0,1,2.28-13,26.66,26.66,0,0,1,15.72-15.54,32.67,32.67,0,0,1,11.64-2A34,34,0,0,1,186,328.08a26.35,26.35,0,0,1,9.24,5.58,25.34,25.34,0,0,1,6.12,9.18A33.9,33.9,0,0,1,203.56,355.56Zm-16.44.6a28.57,28.57,0,0,0-1.08-8.4,16.24,16.24,0,0,0-2.88-5.64,11.07,11.07,0,0,0-4.2-3.18,12.47,12.47,0,0,0-4.92-1,13,13,0,0,0-4.8.9,10.4,10.4,0,0,0-4.08,3,15.57,15.57,0,0,0-2.88,5.58,30,30,0,0,0-1.08,8.76,27,27,0,0,0,1.08,8.1,15.68,15.68,0,0,0,2.94,5.58,12.39,12.39,0,0,0,4.2,3.24,11.47,11.47,0,0,0,4.86,1.08,13,13,0,0,0,4.8-.9,10.18,10.18,0,0,0,4.08-3.06,16.28,16.28,0,0,0,2.88-5.58A28.44,28.44,0,0,0,187.12,356.16Z"/><path class="cls-4" d="M243.88,355.32l20.28,29.28H245.8l-6-8.88-5.88-10.44-5.4,10.32-5.76,9H204.64l20-29.28-18.84-28H223.6l5.88,9,5.28,10,5-10,5.4-9h17.4Z"/><path class="cls-4" d="M298.24,327.36h16v49.2a73.75,73.75,0,0,1-1,12.6,35.79,35.79,0,0,1-3.6,10.74,31.11,31.11,0,0,1-6.9,8.7,38.85,38.85,0,0,1-10.92,6.6l-6.84-10.92a41,41,0,0,0,6-3.72,15.3,15.3,0,0,0,4.14-4.86,23.83,23.83,0,0,0,2.4-7.32,64.27,64.27,0,0,0,.78-11Zm8.16-12.24a8.43,8.43,0,0,1-6.42-2.34,8.13,8.13,0,0,1-2.22-5.82,8,8,0,0,1,2.28-5.82,8.47,8.47,0,0,1,6.36-2.34,8.31,8.31,0,0,1,6.24,2.34,8.57,8.57,0,0,1,0,11.64A8.31,8.31,0,0,1,306.4,315.12Z"/><path class="cls-4" d="M365.8,327.36h16V384.6H369.88l-1.68-6.48h-.48a35.72,35.72,0,0,1-3.06,2.7,22.16,22.16,0,0,1-4.08,2.52,26.35,26.35,0,0,1-5.28,1.86,27.52,27.52,0,0,1-6.54.72q-9.24,0-14.58-5.16t-5.34-15.24V327.36h16V364.2q0,5.16,2.46,7.44a8.9,8.9,0,0,0,6.3,2.28,14.31,14.31,0,0,0,7.38-1.8,16.27,16.27,0,0,0,4.86-4.2Z"/><path class="cls-4" d="M410.92,384.6H395V327.36h12.48l1.92,7.32a30.7,30.7,0,0,1,8.4-6.24,22.73,22.73,0,0,1,10.32-2.28q12.24,0,16.68,8.88a28,28,0,0,1,8.76-6.54,24.21,24.21,0,0,1,10.56-2.34q9.1,0,14,4.92t4.86,14.28V384.6H467V347.16a9.63,9.63,0,0,0-2-6.42,7.21,7.21,0,0,0-5.82-2.34,15.17,15.17,0,0,0-6.54,1.56,16.38,16.38,0,0,0-5.7,4.44v40.2H431V347.16a9.63,9.63,0,0,0-2-6.42,7.21,7.21,0,0,0-5.82-2.34,13.9,13.9,0,0,0-6.54,1.74,17.77,17.77,0,0,0-5.7,4.74Z"/><path class="cls-4" d="M523.23,385.92a24.93,24.93,0,0,1-6.18-.78,19.66,19.66,0,0,1-5.1-2v29H496.11V327.12h12.12l1.68,6.36a27.35,27.35,0,0,1,7.92-5.34,24.2,24.2,0,0,1,10-2q11.28,0,17.82,7.62t6.54,21.06a36.5,36.5,0,0,1-2.28,13.38,28.12,28.12,0,0,1-6.24,9.78,25.65,25.65,0,0,1-9.24,5.94A31.52,31.52,0,0,1,523.23,385.92Zm.24-47.76a12.93,12.93,0,0,0-7,1.86A18.15,18.15,0,0,0,512,343.8v27.36a14.25,14.25,0,0,0,9.24,3,14.09,14.09,0,0,0,5.22-1,13,13,0,0,0,4.68-3.24,16.06,16.06,0,0,0,3.36-5.82,26.68,26.68,0,0,0,1.26-8.76,28.18,28.18,0,0,0-.78-6.84,16.6,16.6,0,0,0-2.34-5.4,11.76,11.76,0,0,0-3.84-3.6A10.35,10.35,0,0,0,523.47,338.16Z"/><path class="cls-4" d="M596.79,341a31.84,31.84,0,0,0-13.68-3.36,11.18,11.18,0,0,0-5.94,1.32,4.06,4.06,0,0,0-2.1,3.6,4.5,4.5,0,0,0,1.86,3.72q1.86,1.44,7.5,3.12l3.6,1.08q7.44,2.16,11.28,6.24a14.78,14.78,0,0,1,3.84,10.56,16.23,16.23,0,0,1-6.54,13.56q-6.54,5-17.7,5-11.4,0-19.56-4.08l3.6-11.76a41.76,41.76,0,0,0,7.32,2.94,27.27,27.27,0,0,0,7.8,1.14q4.8,0,7-1.5a4.53,4.53,0,0,0,2.22-3.9,4.37,4.37,0,0,0-2.16-3.9A34.12,34.12,0,0,0,577,361.8l-3.72-1.08q-7.2-2.4-10.56-6.36t-3.36-10.56a15.82,15.82,0,0,1,5.88-12.72q5.88-4.92,16.44-4.92a43.56,43.56,0,0,1,18.48,3.72Z"/><path class="cls-4" d="M695.31,355.56A33.68,33.68,0,0,1,693,368.28a27.4,27.4,0,0,1-6.3,9.54,27.88,27.88,0,0,1-9.42,6,31.83,31.83,0,0,1-11.64,2.1A34,34,0,0,1,654.09,384a25.34,25.34,0,0,1-15.36-14.82,32.74,32.74,0,0,1-2.22-12.42,34.84,34.84,0,0,1,2.28-13,26.66,26.66,0,0,1,15.72-15.54,32.67,32.67,0,0,1,11.64-2,34,34,0,0,1,11.58,1.92,26.35,26.35,0,0,1,9.24,5.58,25.34,25.34,0,0,1,6.12,9.18A33.9,33.9,0,0,1,695.31,355.56Zm-16.44.6a28.57,28.57,0,0,0-1.08-8.4,16.24,16.24,0,0,0-2.88-5.64,11.07,11.07,0,0,0-4.2-3.18,12.47,12.47,0,0,0-4.92-1,13,13,0,0,0-4.8.9,10.4,10.4,0,0,0-4.08,3A15.57,15.57,0,0,0,654,347.4a30,30,0,0,0-1.08,8.76,27,27,0,0,0,1.08,8.1,15.68,15.68,0,0,0,2.94,5.58,12.39,12.39,0,0,0,4.2,3.24,11.47,11.47,0,0,0,4.86,1.08,13,13,0,0,0,4.8-.9,10.18,10.18,0,0,0,4.08-3.06,16.28,16.28,0,0,0,2.88-5.58A28.44,28.44,0,0,0,678.87,356.16Z"/><path class="cls-4" d="M739.83,327.36h16.92L736.47,384.6H718l-19.68-57.24h17l8.4,28.56,3.48,17.28h.48l3.48-17.28Z"/><path class="cls-4" d="M813.63,360.12h-38v.48q0,6.84,4.8,10.2t12.36,3.36a33.5,33.5,0,0,0,8.46-1,44.71,44.71,0,0,0,6.66-2.28l2.88,11.16a39.7,39.7,0,0,1-8.16,2.7A52.1,52.1,0,0,1,791,385.92a41.51,41.51,0,0,1-12.18-1.74,27.81,27.81,0,0,1-10-5.34,25.71,25.71,0,0,1-6.78-9.12,31.59,31.59,0,0,1-2.52-13.2,36,36,0,0,1,2-12.42,27.09,27.09,0,0,1,5.82-9.54,26.63,26.63,0,0,1,9.06-6.18,30.06,30.06,0,0,1,11.76-2.22q11.64,0,18.54,7.08t6.9,19.8ZM797.31,349.2a18.24,18.24,0,0,0-.54-4.44A10.59,10.59,0,0,0,795,341a8.89,8.89,0,0,0-3-2.58,9.34,9.34,0,0,0-4.44-1,10.52,10.52,0,0,0-7.92,3.24,14.46,14.46,0,0,0-3.72,8.76Z"/><path class="cls-4" d="M823.71,384.6V327.36h12.36l1.8,10.32a21.24,21.24,0,0,1,6.48-8,17.54,17.54,0,0,1,11.16-3.48,18.41,18.41,0,0,1,4.92.6,15.31,15.31,0,0,1,3.6,1.44l-2.64,12.6a15.22,15.22,0,0,0-3.36-1.26,18.89,18.89,0,0,0-4.8-.54,13.27,13.27,0,0,0-9.78,3.9q-3.9,3.9-3.9,12.78V384.6Z"/><path class="cls-4" d="M141.4,482.88H126.16v26.4q0,4.08,1.86,5.58a7.7,7.7,0,0,0,5,1.5,26.27,26.27,0,0,0,4.92-.48,14.37,14.37,0,0,0,4.08-1.32l2.4,11.16a33,33,0,0,1-6.12,1.92,37.63,37.63,0,0,1-8.64,1q-10.44,0-14.88-4.14T110.32,512V482.88h-8.88V471.36h8.88V453.72h15.84v17.64H141.4Z"/><path class="cls-4" d="M168,528.6h-16V442.92h16v33.6a31.68,31.68,0,0,1,8-4.56,26.09,26.09,0,0,1,9.78-1.8,23.82,23.82,0,0,1,8.82,1.5,16.53,16.53,0,0,1,6.24,4.2,17.2,17.2,0,0,1,3.66,6.48,27,27,0,0,1,1.2,8.22v38h-16V493.32q0-5.88-2.4-8.4t-7-2.52a15.46,15.46,0,0,0-6.42,1.5,21.33,21.33,0,0,0-5.94,4Z"/><path class="cls-4" d="M270.16,504.12h-38v.48q0,6.84,4.8,10.2t12.36,3.36a33.5,33.5,0,0,0,8.46-1,44.71,44.71,0,0,0,6.66-2.28l2.88,11.16a39.7,39.7,0,0,1-8.16,2.7,52.1,52.1,0,0,1-11.64,1.14,41.51,41.51,0,0,1-12.18-1.74,27.81,27.81,0,0,1-10-5.34,25.71,25.71,0,0,1-6.78-9.12,31.59,31.59,0,0,1-2.52-13.2,36,36,0,0,1,2-12.42,27.09,27.09,0,0,1,5.82-9.54,26.63,26.63,0,0,1,9.06-6.18,30.06,30.06,0,0,1,11.76-2.22q11.64,0,18.54,7.08t6.9,19.8ZM253.84,493.2a18.24,18.24,0,0,0-.54-4.44,10.59,10.59,0,0,0-1.74-3.78,8.89,8.89,0,0,0-3-2.58,9.34,9.34,0,0,0-4.44-1,10.52,10.52,0,0,0-7.92,3.24,14.46,14.46,0,0,0-3.72,8.76Z"/><path class="cls-4" d="M307.12,528.6V442.92h15.72V528.6Z"/><path class="cls-4" d="M337.48,476.4a46.9,46.9,0,0,1,10.92-4.62,45,45,0,0,1,12.24-1.62,34.68,34.68,0,0,1,9.42,1.2,19.31,19.31,0,0,1,7.32,3.78,16.55,16.55,0,0,1,4.68,6.6,25.83,25.83,0,0,1,1.62,9.66v37.2H371.32l-1.44-5.88h-.48a19,19,0,0,1-7,5.28,23.89,23.89,0,0,1-9.9,1.92,23,23,0,0,1-8.28-1.38,18.72,18.72,0,0,1-6.12-3.72,14.87,14.87,0,0,1-3.78-5.58,19,19,0,0,1-1.26-7,16.29,16.29,0,0,1,2.1-8.46A16.88,16.88,0,0,1,341,498a27.79,27.79,0,0,1,8.7-3.36,50.64,50.64,0,0,1,10.74-1.08h7.2v-3.48q0-4-2.46-5.82a11.23,11.23,0,0,0-6.9-1.86,25.16,25.16,0,0,0-7.14,1.08A42.85,42.85,0,0,0,343,487Zm30.24,27.12-5.16.12q-7.32.24-10.2,2.46a6.57,6.57,0,0,0-2.88,5.34q0,4.08,2.46,5.58a10.5,10.5,0,0,0,5.58,1.5,10.87,10.87,0,0,0,5.94-1.8,13,13,0,0,0,4.26-4.2Z"/><path class="cls-4" d="M437.8,481.08l-26.76,36H438.4V528.6H393.16V518.52l26.76-35.64h-25.2V471.36H437.8Z"/><path class="cls-4" d="M441.75,471.36h17.4l10.2,27.24,3.84,13.92h.48l3.72-14,8.88-27.12h16.32l-21,59.28a95.22,95.22,0,0,1-4,9.42,42.53,42.53,0,0,1-5.4,8.34,37.26,37.26,0,0,1-7.5,6.84,39,39,0,0,1-10.2,4.92l-6.6-12.36a29.9,29.9,0,0,0,11.28-7,23.73,23.73,0,0,0,6.24-10.92l.48-1.56Z"/><path class="cls-4" d="M572.67,442.92h16V528.6h-11.4l-1.68-6.24H575a19,19,0,0,1-6.18,5.28q-4,2.28-10.5,2.28a25,25,0,0,1-10.08-2A23.67,23.67,0,0,1,540,522a27.65,27.65,0,0,1-5.46-9.36,37.19,37.19,0,0,1-2-12.6,39.75,39.75,0,0,1,1.8-12.36,27.12,27.12,0,0,1,5.16-9.42,22.33,22.33,0,0,1,8.28-6,28.51,28.51,0,0,1,11.28-2.1,24.69,24.69,0,0,1,7.74,1.2,16.31,16.31,0,0,1,5.82,3.12Zm0,43.44a12.84,12.84,0,0,0-4.08-3.24,11.71,11.71,0,0,0-5.52-1.32,15.53,15.53,0,0,0-5.46,1,11.93,11.93,0,0,0-4.56,3.06,15.32,15.32,0,0,0-3.18,5.52,25.35,25.35,0,0,0-1.2,8.34,28.1,28.1,0,0,0,1.08,8.28,17.65,17.65,0,0,0,2.88,5.76,11.06,11.06,0,0,0,4.26,3.36,12.84,12.84,0,0,0,5.22,1.08,11.25,11.25,0,0,0,6.54-1.86,12.25,12.25,0,0,0,4-4.38Z"/><path class="cls-4" d="M657.75,499.56a33.68,33.68,0,0,1-2.28,12.72,27.4,27.4,0,0,1-6.3,9.54,27.88,27.88,0,0,1-9.42,6,31.83,31.83,0,0,1-11.64,2.1A34,34,0,0,1,616.53,528a25.34,25.34,0,0,1-15.36-14.82A32.74,32.74,0,0,1,599,500.76a34.84,34.84,0,0,1,2.28-13A26.66,26.66,0,0,1,617,472.2a32.67,32.67,0,0,1,11.64-2,34,34,0,0,1,11.58,1.92,26.35,26.35,0,0,1,9.24,5.58,25.34,25.34,0,0,1,6.12,9.18A33.9,33.9,0,0,1,657.75,499.56Zm-16.44.6a28.57,28.57,0,0,0-1.08-8.4,16.24,16.24,0,0,0-2.88-5.64,11.07,11.07,0,0,0-4.2-3.18,12.47,12.47,0,0,0-4.92-1,13,13,0,0,0-4.8.9,10.4,10.4,0,0,0-4.08,3,15.57,15.57,0,0,0-2.88,5.58,30,30,0,0,0-1.08,8.76,27,27,0,0,0,1.08,8.1,15.68,15.68,0,0,0,2.94,5.58,12.39,12.39,0,0,0,4.2,3.24,11.47,11.47,0,0,0,4.86,1.08,13,13,0,0,0,4.8-.9,10.18,10.18,0,0,0,4.08-3.06,16.28,16.28,0,0,0,2.88-5.58A28.44,28.44,0,0,0,641.31,500.16Z"/><path class="cls-4" d="M667.35,490.8a19,19,0,0,1,7-15.06,23.46,23.46,0,0,1,7.8-4.14,32.35,32.35,0,0,1,9.9-1.44,36,36,0,0,1,4.44.3,28.09,28.09,0,0,1,4.44.9h24.48v10.08h-5.16l-7.44-1.08a16,16,0,0,1,2.58,4.8,17.16,17.16,0,0,1,1,5.76,18.38,18.38,0,0,1-6.54,14.7q-6.54,5.58-17.94,5.58a25.84,25.84,0,0,1-5.28-.48q-3,1.2-3,4a3.33,3.33,0,0,0,1.32,2.88q1.32,1,4.68,1h12.84q9.48,0,15.18,4.14t5.7,13.26a17,17,0,0,1-2.22,8.58,20.49,20.49,0,0,1-6.3,6.72A31.78,31.78,0,0,1,705,555.6a49.1,49.1,0,0,1-12.84,1.56q-13.08,0-20.7-4.62t-7.62-13.26a10,10,0,0,1,2.64-6.9,17.6,17.6,0,0,1,7.32-4.62,16.08,16.08,0,0,1-3.36-3.42,9,9,0,0,1-1.68-5.58,10.34,10.34,0,0,1,2.4-6.84,16.84,16.84,0,0,1,6.12-4.56,19.62,19.62,0,0,1-6.72-6,18,18,0,0,1-3.24-10.56Zm15.36,39.72a9.18,9.18,0,0,0-3,2.52,6.31,6.31,0,0,0-1.2,4,7,7,0,0,0,3.18,5.82q3.18,2.34,11,2.34t11.4-2.64q3.6-2.64,3.6-6t-2.28-4.68q-2.28-1.32-7.08-1.32Zm18.12-39.84q0-4.68-2.52-7.08a9.71,9.71,0,0,0-12.78,0q-2.46,2.4-2.46,7,0,4.8,2.52,7.2a9.71,9.71,0,0,0,12.78,0Q700.83,495.36,700.83,490.68Z"/><g class="cls-5"><path class="cls-4" d="M101.52,100h3v11.48h5.59v2.38h-8.6Z"/><path class="cls-4" d="M117.93,100h3.12l5.13,13.86H123l-1.08-3.19H117l-1.07,3.19h-3.15Zm-.26,8.45h3.52l-.64-1.85c-.21-.57-.4-1.15-.57-1.73s-.35-1.16-.51-1.75h0c-.17.56-.34,1.13-.53,1.71s-.39,1.17-.6,1.77Z"/><path class="cls-4" d="M138.35,100v2.38h-3.92v11.48h-3V102.38h-3.83V100Z"/><path class="cls-4" d="M142.26,100h9v2.33h-6v3.17h5.43v2.31h-5.43v3.72h6.07v2.33h-9.09Z"/><path class="cls-4" d="M158.85,100v13.86h-3V100Z"/><path class="cls-4" d="M164.11,100h2.75l4.77,7.3c.32.5.62,1,.89,1.47s.47.84.59,1.11h0c-.09-1-.13-1.9-.13-2.85v-7h2.79v13.86h-2.75l-4.44-6.73c-.19-.3-.38-.6-.56-.92s-.36-.61-.52-.91-.31-.56-.43-.8a4.12,4.12,0,0,1-.27-.61h-.05c.07,1,.11,2,.12,2.92s0,1.88,0,2.85v4.2h-2.81Z"/></g><g class="cls-5"><path class="cls-4" d="M108.16,663.52a10.66,10.66,0,0,1,2.31.22,9.59,9.59,0,0,1,1.83.59l-.64,2a7.06,7.06,0,0,0-1.58-.55,7.47,7.47,0,0,0-1.61-.17,5,5,0,0,0-1.7.28,3.52,3.52,0,0,0-1.4.9,4.47,4.47,0,0,0-1,1.58,6.72,6.72,0,0,0-.35,2.29,5.66,5.66,0,0,0,1.07,3.69,3.71,3.71,0,0,0,3,1.29,5.22,5.22,0,0,0,1.72-.22v-3.24h-2.29V670h5.17v7a10.29,10.29,0,0,1-2,.61,12.81,12.81,0,0,1-2.62.25,8.68,8.68,0,0,1-2.87-.47,6.27,6.27,0,0,1-3.85-3.62,7.89,7.89,0,0,1-.56-3.07,8.14,8.14,0,0,1,.56-3.09,6.24,6.24,0,0,1,1.53-2.25,6.66,6.66,0,0,1,2.3-1.38A8.71,8.71,0,0,1,108.16,663.52Z"/><path class="cls-4" d="M117.56,663.76h3v8.3a4.18,4.18,0,0,0,.69,2.6,2.55,2.55,0,0,0,2.15.89,2.37,2.37,0,0,0,2.07-.9,4,4,0,0,0,.63-2.33v-8.56h3v8.34a5.09,5.09,0,0,1-5.72,5.77,6.08,6.08,0,0,1-4.29-1.44,5.73,5.73,0,0,1-1.56-4.44Z"/><path class="cls-4" d="M137.73,663.76v11.33c0,.58,0,1.09,0,1.55a7.61,7.61,0,0,1-.18,1.27,5,5,0,0,1-.36,1,4.51,4.51,0,0,1-.59.88,3.84,3.84,0,0,1-1.82,1.2,7.77,7.77,0,0,1-2.33.34v-2.31a2.7,2.7,0,0,0,1-.17,2.42,2.42,0,0,0,.68-.44,1.71,1.71,0,0,0,.51-.93,5.51,5.51,0,0,0,.13-1.27V663.76Z"/><path class="cls-4" d="M146.42,663.76h3.12l5.13,13.86h-3.19l-1.08-3.19h-4.93l-1.07,3.19h-3.15Zm-.26,8.45h3.52l-.64-1.85c-.21-.57-.4-1.14-.57-1.72s-.35-1.17-.51-1.75h0c-.17.55-.34,1.12-.53,1.7s-.39,1.17-.6,1.77Z"/><path class="cls-4" d="M158.63,663.76h5.26a5.87,5.87,0,0,1,2.05.34,4.3,4.3,0,0,1,1.49.93,3.74,3.74,0,0,1,.89,1.36,4.66,4.66,0,0,1,.3,1.69,4.14,4.14,0,0,1-.89,2.6,4,4,0,0,1-.86.79,5.79,5.79,0,0,1-.91.52l3.38,5.63h-3.45l-2.66-5.1h-1.61v5.1h-3Zm3,6.45h1.19a3.53,3.53,0,0,0,1.95-.49,1.76,1.76,0,0,0,.76-1.6,2,2,0,0,0-.61-1.53,2.57,2.57,0,0,0-1.77-.54h-1.52Z"/><path class="cls-4" d="M177.31,663.76h3.12l5.13,13.86h-3.19l-1.08-3.19h-4.93l-1.08,3.19h-3.14Zm-.27,8.45h3.52l-.63-1.85c-.21-.57-.4-1.14-.58-1.72s-.34-1.17-.5-1.75h0c-.16.55-.33,1.12-.52,1.7s-.39,1.17-.6,1.77Z"/><path class="cls-4" d="M197.72,663.76v2.38h-3.91v11.48h-3V666.14H187v-2.38Z"/><path class="cls-4" d="M204.65,663.76v13.86h-3V663.76Z"/></g><path class="cls-4" d="M103.24,728.52a10.47,10.47,0,0,1,1.26-.44,9.18,9.18,0,0,1,5.18.2,7,7,0,0,1,2.3,1.36,6.28,6.28,0,0,1,1.54,2.14,6.92,6.92,0,0,1,.56,2.82,6.2,6.2,0,0,1-.56,2.74,6.66,6.66,0,0,1-1.4,1.94,6.92,6.92,0,0,1-1.84,1.28,11.18,11.18,0,0,1-1.88.72,8.62,8.62,0,0,0,2.48,2.6,5.49,5.49,0,0,0,3.12.92,3.87,3.87,0,0,0,3.22-1.22,5,5,0,0,0,1-3.22V733h3.2v4.92a3.39,3.39,0,0,0,1.12.66,4.08,4.08,0,0,0,1.52.26,3.75,3.75,0,0,0,1.5-.28,3.08,3.08,0,0,0,1-.64v-9.72h3.28v19.28c0,.83.19,1.37.58,1.62a2.42,2.42,0,0,0,1.38.38,4.26,4.26,0,0,0,.92-.08,5.62,5.62,0,0,0,.76-.2l.64,2.44A6.59,6.59,0,0,1,133,752a6.87,6.87,0,0,1-1.72.18,5.34,5.34,0,0,1-3.46-1,4,4,0,0,1-1.26-3.34v-6.4a3.54,3.54,0,0,1-.88.26,7,7,0,0,1-1.32.1,5.7,5.7,0,0,1-1.66-.22,3.7,3.7,0,0,1-1.42-.82,6.75,6.75,0,0,1-1.94,5.2,7.36,7.36,0,0,1-5.22,1.8,9.55,9.55,0,0,1-5-1.38,11.44,11.44,0,0,1-4-4.42,4.64,4.64,0,0,1-2.7-.9,2.63,2.63,0,0,1-1.06-2.22,2.26,2.26,0,0,1,.84-1.84,3.94,3.94,0,0,1,2.4-.72l2.12,2.56a4.79,4.79,0,0,0,1.18-.28,5.1,5.1,0,0,0,1.36-.72,4.35,4.35,0,0,0,1.14-1.26,3.55,3.55,0,0,0,.48-1.9,3.81,3.81,0,0,0-1.2-2.94,4.57,4.57,0,0,0-3.2-1.1,5.6,5.6,0,0,0-1.5.2c-.47.14-.81.24-1,.32Zm39.64,20.92a4.26,4.26,0,0,0,.92-.08,5.62,5.62,0,0,0,.76-.2l.64,2.44a6.59,6.59,0,0,1-1.12.38,6.87,6.87,0,0,1-1.72.18,5.34,5.34,0,0,1-3.46-1,4,4,0,0,1-1.26-3.34V728.16h3.28v19.28c0,.83.19,1.37.58,1.62A2.42,2.42,0,0,0,142.88,749.44Z"/><path class="cls-4" d="M172.2,749.44a4.26,4.26,0,0,0,.92-.08,5.62,5.62,0,0,0,.76-.2l.64,2.44a6.59,6.59,0,0,1-1.12.38,6.87,6.87,0,0,1-1.72.18,5.34,5.34,0,0,1-3.46-1A4,4,0,0,1,167,747.8V734.6a4.28,4.28,0,0,0-.86-2.94,2.67,2.67,0,0,0-4.12.06,4.9,4.9,0,0,0-.86,3.2,25,25,0,0,0,.18,3,23.48,23.48,0,0,1,.18,2.78c0,2.38-.64,4.12-1.92,5.24a7.2,7.2,0,0,1-4.92,1.68,8.5,8.5,0,0,1-2.76-.46,6.27,6.27,0,0,1-2.48-1.58,7.9,7.9,0,0,1-1.8-3,15.53,15.53,0,0,1,0-9.22,10,10,0,0,1,1.78-3.1,7.86,7.86,0,0,1,2.22-1.8,7.72,7.72,0,0,1,2-.76l1.16,2.8a7.62,7.62,0,0,0-1.2.5,5.34,5.34,0,0,0-1.5,1.2,7.25,7.25,0,0,0-1.28,2.22,10.19,10.19,0,0,0-.54,3.6,11.27,11.27,0,0,0,.34,3,6,6,0,0,0,.94,2,3.71,3.71,0,0,0,1.4,1.18,3.76,3.76,0,0,0,1.68.38,3.5,3.5,0,0,0,2.54-.94,4.55,4.55,0,0,0,1-3.34,20.79,20.79,0,0,0-.2-2.82,20.33,20.33,0,0,1-.2-2.78,8.69,8.69,0,0,1,.52-3.2,6.18,6.18,0,0,1,1.38-2.16,5.3,5.3,0,0,1,2-1.22,7.07,7.07,0,0,1,2.3-.38,5.77,5.77,0,0,1,4.74,1.92,7.58,7.58,0,0,1,1.58,5v12.76c0,.83.19,1.37.58,1.62A2.42,2.42,0,0,0,172.2,749.44Z"/><path class="cls-4" d="M200.52,749.44a4.26,4.26,0,0,0,.92-.08,5.62,5.62,0,0,0,.76-.2l.64,2.44a6.55,6.55,0,0,1-2.84.56,5.34,5.34,0,0,1-3.46-1,4,4,0,0,1-1.26-3.34v-6.56a14.62,14.62,0,0,1-2.88.24,12.5,12.5,0,0,1-2.74-.3,9.28,9.28,0,0,1-2.5-.94,7.1,7.1,0,0,1-2.52,1.76,11.77,11.77,0,0,1-2.72.8l1.44,2.84a9,9,0,0,0,2,3,3.71,3.71,0,0,0,2.48.84,3.37,3.37,0,0,0,1.16-.16,2.22,2.22,0,0,0,.64-.32l1.12,2.52a5,5,0,0,1-3,.84,7.7,7.7,0,0,1-2.06-.26,5.79,5.79,0,0,1-1.9-.9A8,8,0,0,1,182,749.4a13.54,13.54,0,0,1-1.62-2.88l-1.72-3.84a5.76,5.76,0,0,1-2.2-1.14,2.57,2.57,0,0,1-.92-2.06,2.45,2.45,0,0,1,.28-1.22,2.53,2.53,0,0,1,.76-.84,3.86,3.86,0,0,1,1.08-.52,4.28,4.28,0,0,1,1.24-.18l2.28,3.16a6.54,6.54,0,0,0,1.66-.38,4.08,4.08,0,0,0,1.44-.88,4.51,4.51,0,0,0,1-1.4,4.6,4.6,0,0,0,.38-1.94,5,5,0,0,0-.4-2.06,4.32,4.32,0,0,0-1-1.42,4.42,4.42,0,0,0-1.46-.84,5.31,5.31,0,0,0-1.66-.28,6,6,0,0,0-1.58.18,7.68,7.68,0,0,0-1.1.38l-.84-2.72a10.3,10.3,0,0,1,1.5-.48,9.36,9.36,0,0,1,5.24.3,7.44,7.44,0,0,1,2.46,1.52,7,7,0,0,1,1.62,2.4,8.3,8.3,0,0,1,.58,3.18,7.55,7.55,0,0,1-.44,2.6,10.85,10.85,0,0,0,1.68.36,13,13,0,0,0,1.76.12,9.47,9.47,0,0,0,3.28-.48v-9.88h3.28v19.28c0,.83.19,1.37.58,1.62A2.4,2.4,0,0,0,200.52,749.44Z"/><path class="cls-4" d="M191,753.76A5.68,5.68,0,0,1,193,752a6.16,6.16,0,0,1,2.72-.6,6.51,6.51,0,0,1,2.42.44,5.73,5.73,0,0,1,1.86,1.2,5.5,5.5,0,0,1,1.18,1.76,5.33,5.33,0,0,1,.42,2.08,6,6,0,0,1-.6,2.8,5.15,5.15,0,0,1-1.6,1.88,6.58,6.58,0,0,1-2.26,1,10.13,10.13,0,0,1-2.58.32,10.53,10.53,0,0,1-5.16-1.42,14.68,14.68,0,0,1-4.76-4.54l2.28-2a19.32,19.32,0,0,0,3.9,3.82,6.46,6.46,0,0,0,3.74,1.22,4.45,4.45,0,0,0,2.7-.78,2.66,2.66,0,0,0,1.06-2.3,2.76,2.76,0,0,0-.74-2,2.44,2.44,0,0,0-1.78-.74,3.67,3.67,0,0,0-2.8,1.52Z"/><path class="cls-4" d="M213.36,740.48l5.08-1.44a7.62,7.62,0,0,1-2.42-2.1,4.76,4.76,0,0,1-.94-2.94,5.86,5.86,0,0,1,.5-2.42,5.38,5.38,0,0,1,1.48-2,7.11,7.11,0,0,1,2.42-1.32,10.34,10.34,0,0,1,3.28-.48,14.65,14.65,0,0,1,2.94.26c.81.18,1.47.34,2,.5l-.68,2.76c-.46-.13-1-.28-1.74-.44a10.47,10.47,0,0,0-2.3-.24,5,5,0,0,0-3.36,1,3.17,3.17,0,0,0-1.16,2.52,3.22,3.22,0,0,0,1,2.44,7.72,7.72,0,0,0,2.24,1.52l8.68-2.92,1,2.88-6,1.76a8.49,8.49,0,0,1,3.46,2.58,5.6,5.6,0,0,1,1.18,3.38,6.47,6.47,0,0,1-.5,2.54,6.06,6.06,0,0,1-1.48,2.08,7,7,0,0,1-2.5,1.42,11,11,0,0,1-3.56.52,9.42,9.42,0,0,1-4.66-1.08,7.17,7.17,0,0,1-2.82-2.56l2.36-1.92a5.56,5.56,0,0,0,2,1.9,6,6,0,0,0,3.14.74,6.1,6.1,0,0,0,2.1-.32,4.31,4.31,0,0,0,1.48-.84,3.38,3.38,0,0,0,.86-1.18,3.5,3.5,0,0,0,.28-1.34,3.85,3.85,0,0,0-1.24-2.84,11.62,11.62,0,0,0-3.28-2.12l-7.76,2.52Z"/><path class="cls-4" d="M225.4,751.44a6.69,6.69,0,0,1,3.24.78,9.51,9.51,0,0,1,2.64,2.16,20.26,20.26,0,0,1,2.26,3.24c.7,1.24,1.42,2.58,2.14,4l-2.68,1.2c-.64-1.22-1.25-2.36-1.82-3.4a22.12,22.12,0,0,0-1.76-2.72,8.42,8.42,0,0,0-1.88-1.82,3.83,3.83,0,0,0-2.18-.66,2.81,2.81,0,0,0-2,.72,2.59,2.59,0,0,0-.78,2,2.47,2.47,0,0,0,.74,1.88,2.76,2.76,0,0,0,2,.72,3.14,3.14,0,0,0,1-.14,5,5,0,0,0,.76-.3l1.16,2.52a4.85,4.85,0,0,1-1.36.58,6.25,6.25,0,0,1-1.68.22,7.06,7.06,0,0,1-2.22-.34,5.28,5.28,0,0,1-1.88-1,4.7,4.7,0,0,1-1.3-1.72,5.74,5.74,0,0,1-.48-2.44,5.23,5.23,0,0,1,.52-2.42,5.17,5.17,0,0,1,1.36-1.7,5.9,5.9,0,0,1,1.92-1A7.6,7.6,0,0,1,225.4,751.44Z"/><path class="cls-4" d="M254.2,749.44a4.32,4.32,0,0,0,.92-.08,6,6,0,0,0,.76-.2l.64,2.44a6.55,6.55,0,0,1-2.84.56,5.34,5.34,0,0,1-3.46-1A4,4,0,0,1,249,747.8V736.56h-5a5.53,5.53,0,0,0-3.86,1.32,5,5,0,0,0-1.46,4,7.87,7.87,0,0,0,.54,3,10.59,10.59,0,0,0,1.3,2.38,10.9,10.9,0,0,0,1.6,1.8c.56.51,1,.91,1.4,1.2l-2.16,2.32q-.45-.32-1.44-1.14a12.21,12.21,0,0,1-2-2.16,14.47,14.47,0,0,1-1.8-3.2,10.93,10.93,0,0,1-.78-4.26,8.74,8.74,0,0,1,.66-3.54,7.24,7.24,0,0,1,1.8-2.52,7.38,7.38,0,0,1,2.72-1.52,11.23,11.23,0,0,1,3.38-.5H249v-5.52h3.28v19.28c0,.83.19,1.37.58,1.62A2.38,2.38,0,0,0,254.2,749.44Z"/><path class="cls-4" d="M264.44,727.8a11.05,11.05,0,0,1,3.36.5,7.72,7.72,0,0,1,2.7,1.5,7,7,0,0,1,1.78,2.44,8.32,8.32,0,0,1,.64,3.36,7.15,7.15,0,0,1-3,6.14,8.42,8.42,0,0,1-2.74,1.3,13.48,13.48,0,0,1-2.68.48l1.24,2.4a8.43,8.43,0,0,0,2,2.74,3.45,3.45,0,0,0,2.22.82,3.12,3.12,0,0,0,1.68-.4c.42-.26.7-.45.84-.56L274,750.8a5.19,5.19,0,0,1-1.62,1.08,5.93,5.93,0,0,1-2.46.48,7,7,0,0,1-3.72-1,8.38,8.38,0,0,1-3-3.66l-2.08-4.32a5.41,5.41,0,0,1-2.32-1.12,2.62,2.62,0,0,1-1-2.12,2.45,2.45,0,0,1,.28-1.22,2.53,2.53,0,0,1,.76-.84,3.86,3.86,0,0,1,1.08-.52,4.28,4.28,0,0,1,1.24-.18l2.36,3.28a8.6,8.6,0,0,0,2.06-.34,6.5,6.5,0,0,0,1.92-.9,4.89,4.89,0,0,0,1.4-1.5,4.25,4.25,0,0,0,.54-2.22,4.86,4.86,0,0,0-1.36-3.54,5,5,0,0,0-3.76-1.38,9.11,9.11,0,0,0-1.84.18,11.57,11.57,0,0,0-1.56.42l-.88-2.72a10.85,10.85,0,0,1,1.74-.56A11,11,0,0,1,264.44,727.8Z"/><path class="cls-4" d="M283.84,749.44a4.32,4.32,0,0,0,.92-.08,6,6,0,0,0,.76-.2l.64,2.44a6.55,6.55,0,0,1-2.84.56,5.34,5.34,0,0,1-3.46-1,4,4,0,0,1-1.26-3.34V728.24l-2.48-4.08a17.75,17.75,0,0,0-1.32-1.94,7.6,7.6,0,0,0-1.12-1.14,3.38,3.38,0,0,0-1-.54,4,4,0,0,0-1-.14,4.44,4.44,0,0,0-1.36.18,9.21,9.21,0,0,0-1,.38l-1.12-2.76a7.29,7.29,0,0,1,1.5-.56,7.67,7.67,0,0,1,2-.24,6.92,6.92,0,0,1,2.1.3,5.91,5.91,0,0,1,1.8,1,10,10,0,0,1,1.68,1.78q.81,1.11,1.74,2.7l2.92,5v19.28c0,.83.19,1.37.58,1.62A2.38,2.38,0,0,0,283.84,749.44Z"/><path class="cls-4" d="M315.76,749.44a4.32,4.32,0,0,0,.92-.08,6,6,0,0,0,.76-.2l.64,2.44a6.55,6.55,0,0,1-2.84.56,5.34,5.34,0,0,1-3.46-1,4,4,0,0,1-1.26-3.34v-4.44a6.4,6.4,0,0,1-2.14,1.06,8.67,8.67,0,0,1-2.58.38,8.88,8.88,0,0,1-2.86-.44A6.31,6.31,0,0,1,300.6,743a6.17,6.17,0,0,1-1.58-2.28,8.29,8.29,0,0,1-.58-3.26v-4.6a3.49,3.49,0,0,0-.14-1.08,1.48,1.48,0,0,0-.38-.6,1.26,1.26,0,0,0-.56-.26,3.55,3.55,0,0,0-.64-.06,5.06,5.06,0,0,0-.76.06,5.71,5.71,0,0,0-.68.14l-.44-2.6,1-.2a8.13,8.13,0,0,1,1.46-.12,4.75,4.75,0,0,1,3.24,1.06,4.53,4.53,0,0,1,1.2,3.54v4.48c0,1.74.38,2.94,1.16,3.6a4.84,4.84,0,0,0,3.28,1,5.6,5.6,0,0,0,2.46-.56,5.47,5.47,0,0,0,1.86-1.36V728.16h3.28v19.28c0,.83.19,1.37.58,1.62A2.38,2.38,0,0,0,315.76,749.44Z"/><path class="cls-4" d="M326,727.8a11.05,11.05,0,0,1,3.36.5,7.72,7.72,0,0,1,2.7,1.5,7,7,0,0,1,1.78,2.44,8.32,8.32,0,0,1,.64,3.36,7.15,7.15,0,0,1-3,6.14,8.42,8.42,0,0,1-2.74,1.3,13.48,13.48,0,0,1-2.68.48l1.24,2.4a8.43,8.43,0,0,0,2,2.74,3.45,3.45,0,0,0,2.22.82,3.12,3.12,0,0,0,1.68-.4c.42-.26.7-.45.84-.56l1.52,2.28a5.19,5.19,0,0,1-1.62,1.08,5.93,5.93,0,0,1-2.46.48,7,7,0,0,1-3.72-1,8.38,8.38,0,0,1-3-3.66l-2.08-4.32a5.41,5.41,0,0,1-2.32-1.12,2.62,2.62,0,0,1-1-2.12,2.45,2.45,0,0,1,.28-1.22,2.53,2.53,0,0,1,.76-.84,3.86,3.86,0,0,1,1.08-.52,4.28,4.28,0,0,1,1.24-.18l2.36,3.28a8.6,8.6,0,0,0,2.06-.34,6.5,6.5,0,0,0,1.92-.9,4.89,4.89,0,0,0,1.4-1.5,4.25,4.25,0,0,0,.54-2.22,4.86,4.86,0,0,0-1.36-3.54,5,5,0,0,0-3.76-1.38,9.11,9.11,0,0,0-1.84.18,11.57,11.57,0,0,0-1.56.42l-.88-2.72a10.85,10.85,0,0,1,1.74-.56A11,11,0,0,1,326,727.8Z"/><path class="cls-4" d="M365.84,749.24a7.26,7.26,0,0,0,1.86-.32,5.1,5.1,0,0,0,1.68-.84,4.28,4.28,0,0,0,1.7-3.6,4.78,4.78,0,0,0-1.26-3.44,4.41,4.41,0,0,0-3.34-1.32,6.43,6.43,0,0,0-1,.08c-.32.06-.64.12-1,.2,0,3.66-.78,6.4-2.24,8.24a7.7,7.7,0,0,1-6.4,2.76,9.55,9.55,0,0,1-2.76-.4,7.33,7.33,0,0,1-2.5-1.28,7.92,7.92,0,0,1-2-2.28,10,10,0,0,1-1.2-3.44l3.16-.64a7.06,7.06,0,0,0,.58,2,5.5,5.5,0,0,0,1.08,1.6,4.74,4.74,0,0,0,1.56,1.08,4.86,4.86,0,0,0,2,.4,5,5,0,0,0,2.1-.44,4.23,4.23,0,0,0,1.7-1.42,7.38,7.38,0,0,0,1.12-2.54,16,16,0,0,0,.4-3.84,11.79,11.79,0,0,0-.44-3.42,7.33,7.33,0,0,0-1.18-2.34,4.54,4.54,0,0,0-1.74-1.34,5.8,5.8,0,0,0-3.82-.18,5.37,5.37,0,0,0-1.32.62,6.64,6.64,0,0,0-1,.82,10.69,10.69,0,0,0-.76.84L348.36,733a7.62,7.62,0,0,1,3.08-2.8,9.26,9.26,0,0,1,4.2-1,9.58,9.58,0,0,1,3.42.58,7.75,7.75,0,0,1,2.58,1.62,8.31,8.31,0,0,1,1.74,2.46,11,11,0,0,1,.9,3.1c.34-.08.7-.14,1.08-.2a8.68,8.68,0,0,1,1.16-.08c.37,0,.7,0,1,0a6.41,6.41,0,0,1,.76.12v-8.76h3.28v5c0,1.2,0,2.18-.1,2.92a16.08,16.08,0,0,1-.3,2,9.4,9.4,0,0,1,1.2,1,6.88,6.88,0,0,1,1.08,1.38,7.48,7.48,0,0,1,.76,1.82,8.85,8.85,0,0,1,.28,2.26,7.54,7.54,0,0,1-.7,3.34,6.92,6.92,0,0,1-1.86,2.36,8.34,8.34,0,0,1-2.66,1.44,10.3,10.3,0,0,1-3.14.54Z"/><path class="cls-4" d="M388.07,737.32a14,14,0,0,1,3.42,1.46,8.86,8.86,0,0,1,2.2,1.86,6,6,0,0,1,1.16,2.14,7.91,7.91,0,0,1,.34,2.3,7.19,7.19,0,0,1-.68,3.26,6.5,6.5,0,0,1-1.82,2.28,7.38,7.38,0,0,1-2.66,1.32,11.74,11.74,0,0,1-3.15.42A11,11,0,0,1,384,752a7.93,7.93,0,0,1-2.66-1.26,7.69,7.69,0,0,1-2.08-2.32,10,10,0,0,1-1.18-3.6l3.2-.68a6.89,6.89,0,0,0,1.94,4,5.44,5.44,0,0,0,3.71,1.24,5.63,5.63,0,0,0,3.5-1.08,3.91,3.91,0,0,0,1.41-3.32,4.08,4.08,0,0,0-1.18-2.94,7.86,7.86,0,0,0-3.38-1.9l-2.2-.68a10.18,10.18,0,0,1-4.1-2.18,5,5,0,0,1-1.46-3.82,5.06,5.06,0,0,1,.58-2.42,5.49,5.49,0,0,1,1.58-1.78,7.66,7.66,0,0,1,2.34-1.1,10.64,10.64,0,0,1,2.87-.38,12.47,12.47,0,0,1,3.69.48,19.26,19.26,0,0,1,2.22.8l-1,2.64a19.87,19.87,0,0,0-2-.7,10,10,0,0,0-2.85-.38,5.12,5.12,0,0,0-3,.76,2.52,2.52,0,0,0-1.05,2.16,2.63,2.63,0,0,0,.69,1.84,5.75,5.75,0,0,0,2.5,1.32Z"/><path class="cls-4" d="M417.39,749.44a4.2,4.2,0,0,0,.92-.08,5.62,5.62,0,0,0,.76-.2l.64,2.44a6.29,6.29,0,0,1-1.12.38,6.81,6.81,0,0,1-1.72.18,5.36,5.36,0,0,1-3.46-1,4,4,0,0,1-1.26-3.34v-4.44a6.31,6.31,0,0,1-2.14,1.06,8.67,8.67,0,0,1-2.58.38,9,9,0,0,1-2.86-.44,6.2,6.2,0,0,1-3.92-3.62,8.48,8.48,0,0,1-.58-3.26v-4.6a3.21,3.21,0,0,0-.14-1.08,1.38,1.38,0,0,0-.38-.6,1.21,1.21,0,0,0-.56-.26,3.39,3.39,0,0,0-.64-.06,5.17,5.17,0,0,0-.76.06,6.69,6.69,0,0,0-.68.14l-.44-2.6,1-.2a8.21,8.21,0,0,1,1.46-.12,4.75,4.75,0,0,1,3.24,1.06,4.53,4.53,0,0,1,1.2,3.54v4.48c0,1.74.39,2.94,1.16,3.6a4.87,4.87,0,0,0,3.28,1,5.54,5.54,0,0,0,2.46-.56,5.28,5.28,0,0,0,1.86-1.36V728.16h3.28v19.28a1.84,1.84,0,0,0,.58,1.62A2.42,2.42,0,0,0,417.39,749.44Z"/><path class="cls-4" d="M428,749.44a4.2,4.2,0,0,0,.92-.08,5.62,5.62,0,0,0,.76-.2l.64,2.44a6.29,6.29,0,0,1-1.12.38,6.81,6.81,0,0,1-1.72.18,5.36,5.36,0,0,1-3.46-1,4,4,0,0,1-1.26-3.34V724.52a4.53,4.53,0,0,0-.92-2.92,3.31,3.31,0,0,0-2.76-1.16,3.52,3.52,0,0,0-2.64,1,4.91,4.91,0,0,0-1,3.44v3.24a1.23,1.23,0,0,1-.64.5,2.59,2.59,0,0,1-1,.18,2.66,2.66,0,0,1-1-.18,1.31,1.31,0,0,1-.64-.5v-3.28a7.41,7.41,0,0,1,1.84-5.46,6.88,6.88,0,0,1,5-1.82,8,8,0,0,1,2.84.48,6.11,6.11,0,0,1,3.64,3.58,7.72,7.72,0,0,1,.52,2.9v22.88a1.84,1.84,0,0,0,.58,1.62A2.42,2.42,0,0,0,428,749.44Z"/><path class="cls-4" d="M127.16,797.44a4.26,4.26,0,0,0,.92-.08,5.62,5.62,0,0,0,.76-.2l.64,2.44a6.59,6.59,0,0,1-1.12.38,6.87,6.87,0,0,1-1.72.18,5.34,5.34,0,0,1-3.46-1,4,4,0,0,1-1.26-3.34v-6.36a5.92,5.92,0,0,1-.88.22,6.64,6.64,0,0,1-1.28.1,5.47,5.47,0,0,1-1.68-.28,4.57,4.57,0,0,1-1.6-.88v.28a6.16,6.16,0,0,1-1.8,4.8,6.65,6.65,0,0,1-4.68,1.64,8.43,8.43,0,0,1-2.78-.48,6.9,6.9,0,0,1-2.5-1.54,7.73,7.73,0,0,1-1.82-2.8,11.37,11.37,0,0,1-.7-4.26,11.5,11.5,0,0,1,.82-4.56,11.2,11.2,0,0,1,2-3.18,8.61,8.61,0,0,1,2.48-1.92,7.33,7.33,0,0,1,2.28-.78l.84,2.8a7,7,0,0,0-1.32.54,6.36,6.36,0,0,0-1.68,1.3,7.67,7.67,0,0,0-1.44,2.3,9,9,0,0,0-.6,3.5,8.67,8.67,0,0,0,.42,2.9,5.48,5.48,0,0,0,1.08,1.9,4,4,0,0,0,1.44,1,3.82,3.82,0,0,0,1.5.32,3.52,3.52,0,0,0,2.48-.88,3.85,3.85,0,0,0,1-3v-7.2h3.2v4.32a3.36,3.36,0,0,0,1.14.78,3.88,3.88,0,0,0,1.66.34,3.52,3.52,0,0,0,1.44-.28,4.19,4.19,0,0,0,1-.6v-9.76h3.28v19.28c0,.83.19,1.37.58,1.62A2.42,2.42,0,0,0,127.16,797.44Z"/><path class="cls-4" d="M130.56,808.32l-1.68,1.92-7.44-5.8,2.12-2.48Z"/><path class="cls-4" d="M137.4,775.8a11.05,11.05,0,0,1,3.36.5,7.72,7.72,0,0,1,2.7,1.5,7,7,0,0,1,1.78,2.44,8.16,8.16,0,0,1,.64,3.36,7.15,7.15,0,0,1-3,6.14,8.32,8.32,0,0,1-2.74,1.3,13.48,13.48,0,0,1-2.68.48l1.24,2.4a8.58,8.58,0,0,0,2,2.74,3.45,3.45,0,0,0,2.22.82,3.12,3.12,0,0,0,1.68-.4,7.68,7.68,0,0,0,.84-.56L147,798.8a5,5,0,0,1-1.62,1.08,5.93,5.93,0,0,1-2.46.48,7,7,0,0,1-3.72-1,8.38,8.38,0,0,1-3-3.66l-2.08-4.32a5.41,5.41,0,0,1-2.32-1.12,2.62,2.62,0,0,1-1-2.12,2.45,2.45,0,0,1,.28-1.22,2.65,2.65,0,0,1,.76-.84,3.86,3.86,0,0,1,1.08-.52,4.28,4.28,0,0,1,1.24-.18l2.36,3.28a8.52,8.52,0,0,0,2.06-.34,6.28,6.28,0,0,0,1.92-.9,4.89,4.89,0,0,0,1.4-1.5,4.25,4.25,0,0,0,.54-2.22,4.82,4.82,0,0,0-1.36-3.54,5,5,0,0,0-3.76-1.38,9.19,9.19,0,0,0-1.84.18,11.57,11.57,0,0,0-1.56.42l-.88-2.72a10.85,10.85,0,0,1,1.74-.56A11,11,0,0,1,137.4,775.8Z"/><path class="cls-4" d="M156.8,797.44a4.26,4.26,0,0,0,.92-.08,5.62,5.62,0,0,0,.76-.2l.64,2.44A6.59,6.59,0,0,1,158,800a6.87,6.87,0,0,1-1.72.18,5.34,5.34,0,0,1-3.46-1,4,4,0,0,1-1.26-3.34V776.16h3.28v19.28c0,.83.19,1.37.58,1.62A2.42,2.42,0,0,0,156.8,797.44Z"/><path class="cls-4" d="M175.6,768.24a14.86,14.86,0,0,1,1.58.08l1.18.16-.4,2.88a7.43,7.43,0,0,0-.88-.14,14.51,14.51,0,0,0-1.48-.06,12,12,0,0,0-4.48.82,9.67,9.67,0,0,0-3.54,2.46,11.54,11.54,0,0,0-2.34,4.1,17.93,17.93,0,0,0-.84,5.78,21.88,21.88,0,0,0,.78,6.34,11.9,11.9,0,0,0,2,4,6.89,6.89,0,0,0,2.74,2.12,7.87,7.87,0,0,0,3,.62,5.55,5.55,0,0,0,3.68-1.1,3.72,3.72,0,0,0,1.32-3,3.84,3.84,0,0,0-1.18-2.92,4.88,4.88,0,0,0-3.46-1.12h-2.16v-2.84h2a5.2,5.2,0,0,0,3.4-1,3.49,3.49,0,0,0,.2-5.08,4,4,0,0,0-2.88-1,6.6,6.6,0,0,0-1.84.26,10.23,10.23,0,0,0-1.2.42l-1.08-2.52a11.2,11.2,0,0,1,1.68-.64,9.05,9.05,0,0,1,2.68-.36,7.11,7.11,0,0,1,5.16,1.72,6,6,0,0,1,1.76,4.44,5,5,0,0,1-.38,2,5.4,5.4,0,0,1-1,1.54,5,5,0,0,1-1.32,1.06,4.46,4.46,0,0,1-1.4.52,4.87,4.87,0,0,1,1.5.54,5.24,5.24,0,0,1,1.42,1.14,6,6,0,0,1,1.06,1.74,6.24,6.24,0,0,1,.42,2.38,6.34,6.34,0,0,1-.56,2.66,6,6,0,0,1-1.62,2.12,7.73,7.73,0,0,1-2.62,1.42,11,11,0,0,1-3.52.52,12.39,12.39,0,0,1-4.32-.78,9.57,9.57,0,0,1-3.8-2.64,13.82,13.82,0,0,1-2.72-5,24.54,24.54,0,0,1-1-7.7,19.74,19.74,0,0,1,1.22-7.32,14.3,14.3,0,0,1,3.22-5,12.29,12.29,0,0,1,4.62-2.84A16.57,16.57,0,0,1,175.6,768.24Z"/><path class="cls-4" d="M203.32,797.44a4.26,4.26,0,0,0,.92-.08,5.62,5.62,0,0,0,.76-.2l.64,2.44a6.59,6.59,0,0,1-1.12.38,6.87,6.87,0,0,1-1.72.18,5.34,5.34,0,0,1-3.46-1,4,4,0,0,1-1.26-3.34v-9.52h-7.6l.2,4a3.77,3.77,0,0,1-.92.42,4.48,4.48,0,0,1-1.36.18,3.52,3.52,0,0,1-2.56-1.12,4.13,4.13,0,0,1-1.12-3.08,3.07,3.07,0,0,1,.94-2.38,3.36,3.36,0,0,1,2.34-.86h10.08v-7.32h3.28v19.28c0,.83.19,1.37.58,1.62A2.42,2.42,0,0,0,203.32,797.44Z"/><path class="cls-4" d="M224.64,786.2h-.24a7.94,7.94,0,0,1-2.3-.32,5.73,5.73,0,0,1-2-1,4.76,4.76,0,0,1-1.9-3.94,4.89,4.89,0,0,1,.44-2.06,5.13,5.13,0,0,1,1.26-1.72,5.85,5.85,0,0,1,2-1.16,7.86,7.86,0,0,1,2.66-.42,7.73,7.73,0,0,1,2.8.52,6.92,6.92,0,0,1,2.32,1.52,7.39,7.39,0,0,1,1.58,2.46,9.17,9.17,0,0,1,.58,3.34,8.74,8.74,0,0,1-.82,3.84,10.24,10.24,0,0,1-2.12,2.92,10.42,10.42,0,0,1-2.94,2,12.1,12.1,0,0,1-3.32,1l1.52,2.16a4.51,4.51,0,0,0,4,2.16,4.35,4.35,0,0,0,1.44-.22,4,4,0,0,0,1-.5l1.32,2.4a5.68,5.68,0,0,1-1.6.84,8.3,8.3,0,0,1-6.1-.5,8.71,8.71,0,0,1-3.18-3.3l-1.68-2.72a4.35,4.35,0,0,1-2.36-1,2.59,2.59,0,0,1-.92-2.08,2.46,2.46,0,0,1,.82-2,3.69,3.69,0,0,1,2.22-.78l2.56,3a7.78,7.78,0,0,0,2.56-.68,7.31,7.31,0,0,0,2.18-1.5,7.2,7.2,0,0,0,1.5-2.26,7.68,7.68,0,0,0,.56-3,5.17,5.17,0,0,0-1.16-3.64,3.73,3.73,0,0,0-2.8-1.24,3.52,3.52,0,0,0-2.24.72,2.3,2.3,0,0,0-.92,1.92c0,1.66,1.25,2.56,3.76,2.72ZM242,797.44a4.32,4.32,0,0,0,.92-.08,6,6,0,0,0,.76-.2l.64,2.44a6.55,6.55,0,0,1-2.84.56,5.34,5.34,0,0,1-3.46-1,4,4,0,0,1-1.26-3.34V776.16h3.28v19.28c0,.83.19,1.37.58,1.62A2.38,2.38,0,0,0,242,797.44Z"/><path class="cls-4" d="M252.64,797.44a4.32,4.32,0,0,0,.92-.08,6,6,0,0,0,.76-.2l.64,2.44a6.55,6.55,0,0,1-2.84.56,5.34,5.34,0,0,1-3.46-1,4,4,0,0,1-1.26-3.34V775a9.84,9.84,0,0,1,.8-4.1,8.52,8.52,0,0,1,2.22-3,9.6,9.6,0,0,1,3.4-1.84,14.54,14.54,0,0,1,4.34-.62,14.3,14.3,0,0,1,5.48,1,18.77,18.77,0,0,1,4.5,2.62,19.91,19.91,0,0,1,5.58,7l-2.72.92a25.79,25.79,0,0,0-2.54-3.56,16.27,16.27,0,0,0-3-2.72,14.51,14.51,0,0,0-3.42-1.74,11.58,11.58,0,0,0-3.76-.62,8.38,8.38,0,0,0-5.56,1.72,6.33,6.33,0,0,0-2,5.12v20.16c0,.83.19,1.37.58,1.62A2.38,2.38,0,0,0,252.64,797.44Z"/><path class="cls-4" d="M277.64,797.44a4.32,4.32,0,0,0,.92-.08,6,6,0,0,0,.76-.2l.64,2.44a6.55,6.55,0,0,1-2.84.56,5.34,5.34,0,0,1-3.46-1,4,4,0,0,1-1.26-3.34v-3.28a8.85,8.85,0,0,1-2.36,1.64,8.56,8.56,0,0,1-4,.8,10.45,10.45,0,0,1-3.74-.64,7.86,7.86,0,0,1-2.92-1.86,8.33,8.33,0,0,1-1.9-3,10.61,10.61,0,0,1-.68-3.94h1.28a5.91,5.91,0,0,0,3.78-1,3.29,3.29,0,0,0,1.22-2.68,3,3,0,0,0-1-2.44,3.62,3.62,0,0,0-2.4-.84,5.29,5.29,0,0,0-1.2.12,3.74,3.74,0,0,0-.68.2l-.8-2.6a7.88,7.88,0,0,1,1.08-.34,8.8,8.8,0,0,1,4.46.24,6.11,6.11,0,0,1,2,1.2,5.39,5.39,0,0,1,1.34,1.94,6.77,6.77,0,0,1,.48,2.6,5.74,5.74,0,0,1-.48,2.44,5.52,5.52,0,0,1-1.28,1.78,5.83,5.83,0,0,1-1.88,1.16,7.68,7.68,0,0,1-2.32.5,5.23,5.23,0,0,0,1.88,2.94,6,6,0,0,0,4,1.22,7.35,7.35,0,0,0,2.26-.32,6.51,6.51,0,0,0,1.76-.82,6.74,6.74,0,0,0,1.26-1.08,4.19,4.19,0,0,0,.76-1.14V776.16h3.28v19.28c0,.83.19,1.37.58,1.62A2.38,2.38,0,0,0,277.64,797.44Z"/><path class="cls-4" d="M288.24,797.44a4.32,4.32,0,0,0,.92-.08,6,6,0,0,0,.76-.2l.64,2.44a6.55,6.55,0,0,1-2.84.56,5.34,5.34,0,0,1-3.46-1A4,4,0,0,1,283,795.8V776.16h3.28v19.28c0,.83.19,1.37.58,1.62A2.38,2.38,0,0,0,288.24,797.44Z"/><path class="cls-4" d="M317.56,797.44a4.32,4.32,0,0,0,.92-.08,6,6,0,0,0,.76-.2l.64,2.44a6.55,6.55,0,0,1-2.84.56,5.34,5.34,0,0,1-3.46-1,4,4,0,0,1-1.26-3.34V782.6a4.28,4.28,0,0,0-.86-2.94,2.67,2.67,0,0,0-4.12.06,4.84,4.84,0,0,0-.86,3.2,25,25,0,0,0,.18,3,23.48,23.48,0,0,1,.18,2.78c0,2.38-.64,4.12-1.92,5.24A7.2,7.2,0,0,1,300,795.6a8.41,8.41,0,0,1-2.76-.46,6.21,6.21,0,0,1-2.48-1.58,7.9,7.9,0,0,1-1.8-3,13,13,0,0,1-.68-4.56,13.23,13.23,0,0,1,.72-4.66,10,10,0,0,1,1.78-3.1,7.59,7.59,0,0,1,2.22-1.8,7.72,7.72,0,0,1,2-.76l1.16,2.8a6.91,6.91,0,0,0-1.2.5,5.34,5.34,0,0,0-1.5,1.2,7.05,7.05,0,0,0-1.28,2.22,10.19,10.19,0,0,0-.54,3.6,11.27,11.27,0,0,0,.34,3,5.85,5.85,0,0,0,.94,2,3.64,3.64,0,0,0,1.4,1.18,3.76,3.76,0,0,0,1.68.38,3.51,3.51,0,0,0,2.54-.94,4.55,4.55,0,0,0,1-3.34,20.79,20.79,0,0,0-.2-2.82,18.86,18.86,0,0,1-.2-2.78,8.69,8.69,0,0,1,.52-3.2A5.91,5.91,0,0,1,305,777.4a5.22,5.22,0,0,1,2-1.22,7.07,7.07,0,0,1,2.3-.38,5.8,5.8,0,0,1,4.74,1.92,7.58,7.58,0,0,1,1.58,5v12.76c0,.83.19,1.37.58,1.62A2.38,2.38,0,0,0,317.56,797.44Z"/><path class="cls-4" d="M330.4,788.48l5.08-1.44a7.62,7.62,0,0,1-2.42-2.1,4.76,4.76,0,0,1-.94-2.94,5.86,5.86,0,0,1,.5-2.42,5.38,5.38,0,0,1,1.48-2,7.11,7.11,0,0,1,2.42-1.32,10.34,10.34,0,0,1,3.28-.48,14.65,14.65,0,0,1,2.94.26c.81.18,1.47.34,2,.5l-.68,2.76c-.46-.13-1-.28-1.74-.44a10.47,10.47,0,0,0-2.3-.24,5,5,0,0,0-3.36,1,3.17,3.17,0,0,0-1.16,2.52,3.22,3.22,0,0,0,1,2.44,7.72,7.72,0,0,0,2.24,1.52l8.68-2.92,1,2.88-6,1.76a8.49,8.49,0,0,1,3.46,2.58A5.6,5.6,0,0,1,347,793.8a6.47,6.47,0,0,1-.5,2.54,6.06,6.06,0,0,1-1.48,2.08,7,7,0,0,1-2.5,1.42,11,11,0,0,1-3.56.52,9.42,9.42,0,0,1-4.66-1.08,7.17,7.17,0,0,1-2.82-2.56l2.36-1.92a5.56,5.56,0,0,0,2,1.9,6,6,0,0,0,3.14.74,6.1,6.1,0,0,0,2.1-.32,4.31,4.31,0,0,0,1.48-.84,3.38,3.38,0,0,0,.86-1.18,3.5,3.5,0,0,0,.28-1.34,3.85,3.85,0,0,0-1.24-2.84,11.62,11.62,0,0,0-3.28-2.12l-7.76,2.52Z"/><path class="cls-4" d="M342.44,799.44a6.69,6.69,0,0,1,3.24.78,9.51,9.51,0,0,1,2.64,2.16,20.26,20.26,0,0,1,2.26,3.24c.7,1.24,1.42,2.58,2.14,4l-2.68,1.2c-.64-1.22-1.25-2.36-1.82-3.4a22.12,22.12,0,0,0-1.76-2.72,8.42,8.42,0,0,0-1.88-1.82,3.83,3.83,0,0,0-2.18-.66,2.81,2.81,0,0,0-2,.72,2.59,2.59,0,0,0-.78,2,2.47,2.47,0,0,0,.74,1.88,2.76,2.76,0,0,0,2,.72,3.14,3.14,0,0,0,1-.14,5,5,0,0,0,.76-.3l1.16,2.52a4.85,4.85,0,0,1-1.36.58,6.25,6.25,0,0,1-1.68.22,7.06,7.06,0,0,1-2.22-.34,5.28,5.28,0,0,1-1.88-1,4.7,4.7,0,0,1-1.3-1.72,5.74,5.74,0,0,1-.48-2.44,5.23,5.23,0,0,1,.52-2.42,5.17,5.17,0,0,1,1.36-1.7,5.9,5.9,0,0,1,1.92-1A7.6,7.6,0,0,1,342.44,799.44Z"/><path class="cls-4" d="M352.56,792.92a6.29,6.29,0,0,1,.48-2.56,6.21,6.21,0,0,1,1.16-1.8,5.77,5.77,0,0,1,1.36-1.1,4.07,4.07,0,0,1,1.12-.46,5,5,0,0,1-1.22-.44,4.25,4.25,0,0,1-1.24-.92,4.94,4.94,0,0,1-1-1.5,5.17,5.17,0,0,1-.4-2.14,5.86,5.86,0,0,1,.6-2.72,5.58,5.58,0,0,1,1.64-1.94,7.24,7.24,0,0,1,2.4-1.16,10.72,10.72,0,0,1,2.88-.38,13,13,0,0,1,3.68.42c.9.28,1.5.49,1.8.62l-.88,2.64c-.27-.1-.8-.27-1.6-.5a10.13,10.13,0,0,0-2.68-.34,4.85,4.85,0,0,0-3.4,1,3.36,3.36,0,0,0-1.12,2.56,3.12,3.12,0,0,0,1,2.36,4,4,0,0,0,2.92,1h4.4v2.88h-3.92a4.78,4.78,0,0,0-3.36,1.18,4.25,4.25,0,0,0-1.28,3.3,4,4,0,0,0,1.4,3.3,5.24,5.24,0,0,0,3.52,1.18,5.4,5.4,0,0,0,3.2-.88A6.35,6.35,0,0,0,366,794.4l2.6,1.52a7.09,7.09,0,0,1-3,3.24,9.63,9.63,0,0,1-4.92,1.16,10.29,10.29,0,0,1-3.06-.44,7.1,7.1,0,0,1-2.58-1.36,6.62,6.62,0,0,1-1.8-2.32A7.31,7.31,0,0,1,352.56,792.92Z"/><path class="cls-4" d="M370.64,788.48l5.08-1.44a7.62,7.62,0,0,1-2.42-2.1,4.76,4.76,0,0,1-.94-2.94,5.86,5.86,0,0,1,.5-2.42,5.38,5.38,0,0,1,1.48-2,7.11,7.11,0,0,1,2.42-1.32,10.34,10.34,0,0,1,3.28-.48,14.65,14.65,0,0,1,2.94.26c.81.18,1.47.34,2,.5l-.68,2.76c-.46-.13-1-.28-1.74-.44a10.47,10.47,0,0,0-2.3-.24,5,5,0,0,0-3.36,1,3.17,3.17,0,0,0-1.16,2.52,3.22,3.22,0,0,0,1,2.44,7.72,7.72,0,0,0,2.24,1.52l8.68-2.92,1,2.88-6,1.76a8.49,8.49,0,0,1,3.46,2.58,5.6,5.6,0,0,1,1.18,3.38,6.47,6.47,0,0,1-.5,2.54,6.06,6.06,0,0,1-1.48,2.08,7,7,0,0,1-2.5,1.42,11,11,0,0,1-3.56.52,9.42,9.42,0,0,1-4.66-1.08,7.17,7.17,0,0,1-2.82-2.56L374,794.8a5.56,5.56,0,0,0,2,1.9,6,6,0,0,0,3.14.74,6.1,6.1,0,0,0,2.1-.32,4.31,4.31,0,0,0,1.48-.84,3.38,3.38,0,0,0,.86-1.18,3.5,3.5,0,0,0,.28-1.34,3.85,3.85,0,0,0-1.24-2.84,11.62,11.62,0,0,0-3.28-2.12l-7.76,2.52Z"/><path class="cls-4" d="M398.36,797.44a4.32,4.32,0,0,0,.92-.08,6,6,0,0,0,.76-.2l.64,2.44a6.55,6.55,0,0,1-2.84.56,5.34,5.34,0,0,1-3.46-1,4,4,0,0,1-1.26-3.34V776.16h3.28v19.28c0,.83.19,1.37.58,1.62A2.38,2.38,0,0,0,398.36,797.44Z"/><rect class="cls-4" x="1225" y="25" width="850" height="850"/><path class="cls-6" d="M2050,50V850H1250V50h800m50-50H1200V900h900V0Z"/><path class="cls-6" d="M1648.8,223.05q34.83,0,64.48,11.44a145.83,145.83,0,0,1,51.22,33q21.57,21.58,33.8,53.3t12.22,72.28q0,57.21-25.22,98.28t-71,66l-60.84,33.8a103.57,103.57,0,0,1,22.1,4.42q10.65,3.38,22.36,7.28t24.44,7a119.22,119.22,0,0,0,28.34,3.12,80.2,80.2,0,0,0,25.48-4.16q12.48-4.17,20.28-10.4l25,47.84q-8.85,7.27-26.52,14.56t-42.64,7.28a164.81,164.81,0,0,1-41.08-4.94q-19.25-5-36.92-10.92T1640,641.39a118,118,0,0,0-33.8-4.94,107.21,107.21,0,0,0-28.08,3.38A100.94,100.94,0,0,0,1552.6,651l-23.92-44.72,84.24-48.36q-58.25-10.39-92.56-53T1486,393.09q0-39.51,12.22-71t34.06-53.56a147.23,147.23,0,0,1,51.74-33.8Q1614,223.05,1648.8,223.05Zm-87.36,169.52q0,29.13,6.76,51t18.2,36.66a72.93,72.93,0,0,0,27,22.1,79.25,79.25,0,0,0,96.2-22.62q12-14.82,18.72-36.66t6.76-50.44q0-30.15-7-52t-18.72-35.88a72.3,72.3,0,0,0-27.82-20.8,86.69,86.69,0,0,0-33.8-6.76,81.38,81.38,0,0,0-33.8,7,73.73,73.73,0,0,0-27.3,21.58q-11.7,14.56-18.46,36.14T1561.44,392.57Z"/><g class="cls-5"><path class="cls-6" d="M1304.59,100a5.72,5.72,0,0,1,3.47,1,3.11,3.11,0,0,1,1.28,2.66,2.8,2.8,0,0,1-.23,1.14,2.87,2.87,0,0,1-.6.87,3.74,3.74,0,0,1-.81.61,4.06,4.06,0,0,1-.91.35,4.41,4.41,0,0,1,1.15.36,3.2,3.2,0,0,1,1,.67,3.12,3.12,0,0,1,.64,1,3.71,3.71,0,0,1,.23,1.33,3.35,3.35,0,0,1-.38,1.58,3.78,3.78,0,0,1-1.06,1.24,5.15,5.15,0,0,1-1.68.81,7.68,7.68,0,0,1-2.16.29h-4.84V100Zm-1.94,5.54h1.43a2.54,2.54,0,0,0,1.57-.43,1.48,1.48,0,0,0,.59-1.28,1.33,1.33,0,0,0-.54-1.16,2.71,2.71,0,0,0-1.55-.38h-1.5Zm0,6h1.43a3.54,3.54,0,0,0,1.85-.43,1.58,1.58,0,0,0,.73-1.48,1.49,1.49,0,0,0-.78-1.42,3.77,3.77,0,0,0-1.89-.43h-1.34Z"/><path class="cls-6" d="M1314.38,100h9v2.33h-6v3.17h5.44v2.31h-5.44v3.72h6.07v2.33h-9.08Z"/><path class="cls-6" d="M1332.44,99.76a9.94,9.94,0,0,1,2.37.26,9.52,9.52,0,0,1,1.85.68L1336,103a9.24,9.24,0,0,0-1.74-.67,5.81,5.81,0,0,0-1.62-.23,2.84,2.84,0,0,0-1.64.41,1.33,1.33,0,0,0-.59,1.13,1.28,1.28,0,0,0,.51,1.1,5.65,5.65,0,0,0,1.63.72l1.32.42a6.07,6.07,0,0,1,2.58,1.56,3.57,3.57,0,0,1,.94,2.49,4.19,4.19,0,0,1-.33,1.65,3.69,3.69,0,0,1-1,1.34,4.83,4.83,0,0,1-1.65.9,7.31,7.31,0,0,1-2.31.33,10.3,10.3,0,0,1-4.56-1l.68-2.24a12.24,12.24,0,0,0,1.85.71,6.92,6.92,0,0,0,1.9.25,2.93,2.93,0,0,0,1.75-.43,1.37,1.37,0,0,0,.6-1.19,1.34,1.34,0,0,0-.1-.52,1.32,1.32,0,0,0-.36-.48,3.74,3.74,0,0,0-.72-.47,8,8,0,0,0-1.17-.45l-1.17-.39a10.15,10.15,0,0,1-1.41-.62,4.83,4.83,0,0,1-1.09-.81,3.45,3.45,0,0,1-.7-1.09,3.9,3.9,0,0,1-.26-1.47,4.14,4.14,0,0,1,.34-1.66,3.53,3.53,0,0,1,1-1.31,4.74,4.74,0,0,1,1.61-.85A7,7,0,0,1,1332.44,99.76Z"/><path class="cls-6" d="M1348.21,99.76a7.53,7.53,0,0,1,2.73.48,6,6,0,0,1,2.16,1.4,6.6,6.6,0,0,1,1.42,2.25A8.61,8.61,0,0,1,1355,107a8,8,0,0,1-.52,3,6.73,6.73,0,0,1-1.46,2.25,6.28,6.28,0,0,1-2.19,1.42,7.41,7.41,0,0,1-2.74.49,7.73,7.73,0,0,1-2.72-.47,6,6,0,0,1-2.16-1.39,6.56,6.56,0,0,1-1.42-2.24,8.47,8.47,0,0,1-.52-3,8.14,8.14,0,0,1,.53-3,6.82,6.82,0,0,1,1.46-2.27,6.21,6.21,0,0,1,2.18-1.43A7.49,7.49,0,0,1,1348.21,99.76ZM1344.5,107a7,7,0,0,0,.29,2.15,4.43,4.43,0,0,0,.81,1.51,3.1,3.1,0,0,0,1.17.91,3.67,3.67,0,0,0,1.44.29,3.61,3.61,0,0,0,1.42-.29,3.07,3.07,0,0,0,1.16-.91,4.56,4.56,0,0,0,.77-1.51,7.28,7.28,0,0,0,.28-2.15,7.52,7.52,0,0,0-.29-2.2,4.63,4.63,0,0,0-.81-1.53,3.12,3.12,0,0,0-1.17-.89,3.67,3.67,0,0,0-1.45-.28,3.35,3.35,0,0,0-1.42.3,3.17,3.17,0,0,0-1.15.92,4.57,4.57,0,0,0-.77,1.53A7.28,7.28,0,0,0,1344.5,107Z"/><path class="cls-6" d="M1359.63,100h2.75l4.77,7.3c.33.5.62,1,.9,1.47s.46.84.58,1.11h0c-.09-1-.13-1.9-.13-2.85v-7h2.79v13.86h-2.75l-4.44-6.73c-.19-.3-.38-.6-.56-.92s-.36-.61-.52-.91l-.43-.8a5.54,5.54,0,0,1-.27-.61h0c.08,1,.12,2,.13,2.92s0,1.88,0,2.85v4.2h-2.82Z"/><path class="cls-6" d="M1381.41,100a9.65,9.65,0,0,1,2.93.42,6.14,6.14,0,0,1,2.26,1.25,5.69,5.69,0,0,1,1.47,2.08,7.57,7.57,0,0,1,.51,2.89,7.79,7.79,0,0,1-.61,3.25,6.21,6.21,0,0,1-1.68,2.24,6.59,6.59,0,0,1-2.47,1.31,10.56,10.56,0,0,1-3,.42h-4.25V100Zm-1.83,11.53h1a7.14,7.14,0,0,0,1.79-.23,3.87,3.87,0,0,0,1.53-.8A4,4,0,0,0,1385,109a6.18,6.18,0,0,0,.39-2.37,4.17,4.17,0,0,0-1.18-3.2,4.51,4.51,0,0,0-3.2-1.11h-1.43Z"/><path class="cls-6" d="M1393.16,100h9v2.33h-6v3.17h5.44v2.31h-5.44v3.72h6.07v2.33h-9.08Z"/><path class="cls-6" d="M1406.73,100H1412a5.7,5.7,0,0,1,2.06.34,4.38,4.38,0,0,1,1.48.92,3.65,3.65,0,0,1,.89,1.37,4.64,4.64,0,0,1,.3,1.68,4.08,4.08,0,0,1-.25,1.49,4.2,4.2,0,0,1-.64,1.12,4,4,0,0,1-.86.79,6.15,6.15,0,0,1-.91.52l3.39,5.63H1414l-2.66-5.1h-1.61v5.1h-3Zm3,6.45h1.19a3.59,3.59,0,0,0,1.95-.49,1.75,1.75,0,0,0,.76-1.6,1.92,1.92,0,0,0-.61-1.53,2.57,2.57,0,0,0-1.77-.54h-1.52Z"/><path class="cls-6" d="M1421.49,100h9v2.33h-6v3.17h5.43v2.31h-5.43v3.72h6.07v2.33h-9.09Z"/><path class="cls-6" d="M1439.56,99.76a9.94,9.94,0,0,1,2.37.26,9.52,9.52,0,0,1,1.85.68l-.68,2.25a9.24,9.24,0,0,0-1.74-.67,5.88,5.88,0,0,0-1.63-.23,2.86,2.86,0,0,0-1.64.41,1.35,1.35,0,0,0-.58,1.13,1.28,1.28,0,0,0,.51,1.1,5.57,5.57,0,0,0,1.62.72l1.32.42a6.11,6.11,0,0,1,2.59,1.56,3.56,3.56,0,0,1,.93,2.49,4,4,0,0,1-.33,1.65,3.69,3.69,0,0,1-1,1.34,4.83,4.83,0,0,1-1.65.9,7.31,7.31,0,0,1-2.31.33,10.29,10.29,0,0,1-4.55-1l.68-2.24a11.84,11.84,0,0,0,1.85.71,6.9,6.9,0,0,0,1.89.25,3,3,0,0,0,1.76-.43,1.37,1.37,0,0,0,.6-1.19,1.55,1.55,0,0,0-.1-.52,1.25,1.25,0,0,0-.37-.48,3.35,3.35,0,0,0-.71-.47,7.78,7.78,0,0,0-1.18-.45l-1.16-.39a9.2,9.2,0,0,1-1.41-.62,4.62,4.62,0,0,1-1.09-.81,3.29,3.29,0,0,1-.7-1.09,3.9,3.9,0,0,1-.26-1.47,4.13,4.13,0,0,1,.33-1.66,3.67,3.67,0,0,1,1-1.31,4.65,4.65,0,0,1,1.61-.85A7,7,0,0,1,1439.56,99.76Z"/><path class="cls-6" d="M1457.2,100H1461l2,6.31c.08.28.18.58.27.91s.19.64.28,1,.17.64.24.95.13.59.18.86h.08c0-.24.1-.51.18-.83s.15-.64.24-1,.18-.66.26-1,.17-.61.25-.88l1.91-6.31h3.81l1,13.86h-2.84c-.09-1.53-.17-3-.26-4.58s-.15-3.06-.18-4.62l0-1.8h-.07c-.19.81-.39,1.65-.62,2.53s-.45,1.65-.65,2.31l-2,6.16h-2.33l-2-6.18c-.25-.79-.49-1.63-.71-2.51s-.39-1.65-.53-2.31h-.06c0,.53,0,1.08,0,1.66l-.06,1.73q0,.85-.06,1.68c0,.55,0,1-.08,1.51l-.27,4.42h-2.79Z"/><path class="cls-6" d="M1476.85,100h9v2.33h-6v3.17h5.43v2.31h-5.43v3.72h6.07v2.33h-9.08Z"/><path class="cls-6" d="M1490.42,100h5.26a5.7,5.7,0,0,1,2.06.34,4.48,4.48,0,0,1,1.48.92,3.77,3.77,0,0,1,.89,1.37,4.64,4.64,0,0,1,.3,1.68,4.31,4.31,0,0,1-.25,1.49,4.49,4.49,0,0,1-.64,1.12,4.25,4.25,0,0,1-.86.79,6.7,6.7,0,0,1-.91.52l3.38,5.63h-3.45l-2.66-5.1h-1.61v5.1h-3Zm3,6.45h1.19a3.61,3.61,0,0,0,2-.49,1.77,1.77,0,0,0,.76-1.6,2,2,0,0,0-.61-1.53,2.57,2.57,0,0,0-1.77-.54h-1.52Z"/><path class="cls-6" d="M1505.18,113.86V100h3v5.83L1513,100h3.74l-5.17,6,5.61,7.81h-3.72l-4.09-5.92-1.14,1.21v4.71Z"/><path class="cls-6" d="M1521.73,100h3.8l2,6.31c.09.28.18.58.28.91l.27,1c.09.33.17.64.24.95a8.3,8.3,0,0,1,.18.86h.09c0-.24.1-.51.17-.83s.16-.64.25-1,.17-.66.26-1,.17-.61.24-.88l1.92-6.31h3.8l1,13.86h-2.84l-.27-4.58c-.08-1.52-.14-3.06-.17-4.62l0-1.8h-.07c-.19.81-.4,1.65-.63,2.53s-.44,1.65-.65,2.31l-1.95,6.16h-2.34l-2-6.18c-.25-.79-.48-1.63-.7-2.51s-.4-1.65-.53-2.31H1524c0,.53,0,1.08,0,1.66s0,1.16,0,1.73,0,1.13-.07,1.68,0,1-.08,1.51l-.26,4.42h-2.79Z"/><path class="cls-6" d="M1545.29,100h3.12l5.13,13.86h-3.19l-1.08-3.19h-4.93l-1.08,3.19h-3.14Zm-.27,8.45h3.52l-.63-1.85c-.21-.57-.4-1.15-.58-1.73s-.34-1.16-.5-1.75h0c-.16.56-.33,1.13-.52,1.71s-.39,1.17-.6,1.77Z"/><path class="cls-6" d="M1557.5,100h3v11.48h5.59v2.38h-8.6Z"/></g></svg>